<?xml version="1.0" encoding="UTF-8" standalone="no"?><svg xmlns="http://www.w3.org/2000/svg" xmlns:xlink="http://www.w3.org/1999/xlink" contentStyleType="text/css" height="629px" preserveAspectRatio="none" style="width:872px;height:629px;background:#FFFFFF;" version="1.1" viewBox="0 0 872 629" width="872px" zoomAndPan="magnify"><defs/><g><!--MD5=[76410cda49e5d7b75c5bd06aa47a685f]
class message--><g id="elem_message"><rect codeLine="6" fill="#F1F1F1" height="42.7031" id="message" rx="2.5" ry="2.5" style="stroke:#181818;stroke-width:0.5;" width="273" x="357" y="7"/><ellipse cx="372" cy="28.3516" fill="#ADD1B2" rx="11" ry="11" style="stroke:#181818;stroke-width:1.0;"/><path d="M374.7656,24.2266 Q374.9219,24.0078 375.1094,23.8984 Q375.2969,23.7891 375.5156,23.7891 Q375.8906,23.7891 376.125,24.0547 Q376.3594,24.3047 376.3594,24.9141 L376.3594,26.3672 Q376.3594,26.9766 376.125,27.2422 Q375.8906,27.5078 375.5156,27.5078 Q375.1719,27.5078 374.9688,27.3047 Q374.7656,27.1172 374.6563,26.6016 Q374.6094,26.2422 374.4219,26.0547 Q374.0938,25.6797 373.4844,25.4609 Q372.875,25.2422 372.25,25.2422 Q371.4844,25.2422 370.8438,25.5703 Q370.2188,25.8984 369.7188,26.6484 Q369.2344,27.3984 369.2344,28.4297 L369.2344,29.5234 Q369.2344,30.7578 370.125,31.5859 Q371.0156,32.3984 372.6094,32.3984 Q373.5469,32.3984 374.2031,32.1484 Q374.5938,31.9922 375.0156,31.5547 Q375.2813,31.2891 375.4219,31.2109 Q375.5781,31.1328 375.7813,31.1328 Q376.1094,31.1328 376.3594,31.3984 Q376.625,31.6484 376.625,31.9922 Q376.625,32.3359 376.2813,32.7422 Q375.7813,33.3203 374.9844,33.6484 Q373.9063,34.1016 372.6094,34.1016 Q371.0938,34.1016 369.8906,33.4766 Q368.9063,32.9766 368.2188,31.9141 Q367.5313,30.8359 367.5313,29.5547 L367.5313,28.3984 Q367.5313,27.0703 368.1406,25.9297 Q368.7656,24.7734 369.8594,24.1641 Q370.9531,23.5391 372.1875,23.5391 Q372.9219,23.5391 373.5625,23.7109 Q374.2188,23.8672 374.7656,24.2266 Z " fill="#000000"/><text fill="#000000" font-family="sans-serif" font-size="12" font-style="italic" lengthAdjust="spacing" textLength="172" x="420.5" y="24.457">«MedComMessagingMessage»</text><text fill="#000000" font-family="sans-serif" font-size="14" lengthAdjust="spacing" textLength="241" x="386" y="41.627">MedComCareCommunicationMessage</text></g><!--MD5=[8450471b43f9def5175bba9f4f9f2aaf]
class messageheader--><g id="elem_messageheader"><rect codeLine="7" fill="#F1F1F1" height="42.7031" id="messageheader" rx="2.5" ry="2.5" style="stroke:#181818;stroke-width:0.5;" width="319" x="305" y="238"/><ellipse cx="320" cy="259.3516" fill="#ADD1B2" rx="11" ry="11" style="stroke:#181818;stroke-width:1.0;"/><path d="M322.7656,255.2266 Q322.9219,255.0078 323.1094,254.8984 Q323.2969,254.7891 323.5156,254.7891 Q323.8906,254.7891 324.125,255.0547 Q324.3594,255.3047 324.3594,255.9141 L324.3594,257.3672 Q324.3594,257.9766 324.125,258.2422 Q323.8906,258.5078 323.5156,258.5078 Q323.1719,258.5078 322.9688,258.3047 Q322.7656,258.1172 322.6563,257.6016 Q322.6094,257.2422 322.4219,257.0547 Q322.0938,256.6797 321.4844,256.4609 Q320.875,256.2422 320.25,256.2422 Q319.4844,256.2422 318.8438,256.5703 Q318.2188,256.8984 317.7188,257.6484 Q317.2344,258.3984 317.2344,259.4297 L317.2344,260.5234 Q317.2344,261.7578 318.125,262.5859 Q319.0156,263.3984 320.6094,263.3984 Q321.5469,263.3984 322.2031,263.1484 Q322.5938,262.9922 323.0156,262.5547 Q323.2813,262.2891 323.4219,262.2109 Q323.5781,262.1328 323.7813,262.1328 Q324.1094,262.1328 324.3594,262.3984 Q324.625,262.6484 324.625,262.9922 Q324.625,263.3359 324.2813,263.7422 Q323.7813,264.3203 322.9844,264.6484 Q321.9063,265.1016 320.6094,265.1016 Q319.0938,265.1016 317.8906,264.4766 Q316.9063,263.9766 316.2188,262.9141 Q315.5313,261.8359 315.5313,260.5547 L315.5313,259.3984 Q315.5313,258.0703 316.1406,256.9297 Q316.7656,255.7734 317.8594,255.1641 Q318.9531,254.5391 320.1875,254.5391 Q320.9219,254.5391 321.5625,254.7109 Q322.2188,254.8672 322.7656,255.2266 Z " fill="#000000"/><text fill="#000000" font-family="sans-serif" font-size="12" font-style="italic" lengthAdjust="spacing" textLength="213" x="371" y="255.457">«MedComMessagingMessageHeader»</text><text fill="#000000" font-family="sans-serif" font-size="14" lengthAdjust="spacing" textLength="287" x="334" y="272.627">MedComCareCommunicationMessageHeader</text></g><!--MD5=[134450525739527685064faa304c6b67]
class provenance--><g id="elem_provenance"><rect codeLine="8" fill="#F1F1F1" height="32" id="provenance" rx="2.5" ry="2.5" style="stroke:#181818;stroke-width:0.5;" width="232" x="530.5" y="128"/><ellipse cx="545.5" cy="144" fill="#ADD1B2" rx="11" ry="11" style="stroke:#181818;stroke-width:1.0;"/><path d="M548.2656,139.875 Q548.4219,139.6563 548.6094,139.5469 Q548.7969,139.4375 549.0156,139.4375 Q549.3906,139.4375 549.625,139.7031 Q549.8594,139.9531 549.8594,140.5625 L549.8594,142.0156 Q549.8594,142.625 549.625,142.8906 Q549.3906,143.1563 549.0156,143.1563 Q548.6719,143.1563 548.4688,142.9531 Q548.2656,142.7656 548.1563,142.25 Q548.1094,141.8906 547.9219,141.7031 Q547.5938,141.3281 546.9844,141.1094 Q546.375,140.8906 545.75,140.8906 Q544.9844,140.8906 544.3438,141.2188 Q543.7188,141.5469 543.2188,142.2969 Q542.7344,143.0469 542.7344,144.0781 L542.7344,145.1719 Q542.7344,146.4063 543.625,147.2344 Q544.5156,148.0469 546.1094,148.0469 Q547.0469,148.0469 547.7031,147.7969 Q548.0938,147.6406 548.5156,147.2031 Q548.7813,146.9375 548.9219,146.8594 Q549.0781,146.7813 549.2813,146.7813 Q549.6094,146.7813 549.8594,147.0469 Q550.125,147.2969 550.125,147.6406 Q550.125,147.9844 549.7813,148.3906 Q549.2813,148.9688 548.4844,149.2969 Q547.4063,149.75 546.1094,149.75 Q544.5938,149.75 543.3906,149.125 Q542.4063,148.625 541.7188,147.5625 Q541.0313,146.4844 541.0313,145.2031 L541.0313,144.0469 Q541.0313,142.7188 541.6406,141.5781 Q542.2656,140.4219 543.3594,139.8125 Q544.4531,139.1875 545.6875,139.1875 Q546.4219,139.1875 547.0625,139.3594 Q547.7188,139.5156 548.2656,139.875 Z " fill="#000000"/><text fill="#000000" font-family="sans-serif" font-size="14" lengthAdjust="spacing" textLength="200" x="559.5" y="149.7285">MedComMessagingProvenance</text></g><!--MD5=[5495acc25b34ab1dab9fd35d8e775d03]
class messagingOrganization--><g id="elem_messagingOrganization"><rect codeLine="9" fill="#F1F1F1" height="42.7031" id="messagingOrganization" rx="2.5" ry="2.5" style="stroke:#181818;stroke-width:0.5;" width="236" x="539.5" y="359"/><ellipse cx="554.5" cy="380.3516" fill="#ADD1B2" rx="11" ry="11" style="stroke:#181818;stroke-width:1.0;"/><path d="M557.2656,376.2266 Q557.4219,376.0078 557.6094,375.8984 Q557.7969,375.7891 558.0156,375.7891 Q558.3906,375.7891 558.625,376.0547 Q558.8594,376.3047 558.8594,376.9141 L558.8594,378.3672 Q558.8594,378.9766 558.625,379.2422 Q558.3906,379.5078 558.0156,379.5078 Q557.6719,379.5078 557.4688,379.3047 Q557.2656,379.1172 557.1563,378.6016 Q557.1094,378.2422 556.9219,378.0547 Q556.5938,377.6797 555.9844,377.4609 Q555.375,377.2422 554.75,377.2422 Q553.9844,377.2422 553.3438,377.5703 Q552.7188,377.8984 552.2188,378.6484 Q551.7344,379.3984 551.7344,380.4297 L551.7344,381.5234 Q551.7344,382.7578 552.625,383.5859 Q553.5156,384.3984 555.1094,384.3984 Q556.0469,384.3984 556.7031,384.1484 Q557.0938,383.9922 557.5156,383.5547 Q557.7813,383.2891 557.9219,383.2109 Q558.0781,383.1328 558.2813,383.1328 Q558.6094,383.1328 558.8594,383.3984 Q559.125,383.6484 559.125,383.9922 Q559.125,384.3359 558.7813,384.7422 Q558.2813,385.3203 557.4844,385.6484 Q556.4063,386.1016 555.1094,386.1016 Q553.5938,386.1016 552.3906,385.4766 Q551.4063,384.9766 550.7188,383.9141 Q550.0313,382.8359 550.0313,381.5547 L550.0313,380.3984 Q550.0313,379.0703 550.6406,377.9297 Q551.2656,376.7734 552.3594,376.1641 Q553.4531,375.5391 554.6875,375.5391 Q555.4219,375.5391 556.0625,375.7109 Q556.7188,375.8672 557.2656,376.2266 Z " fill="#000000"/><text fill="#000000" font-family="sans-serif" font-size="12" font-style="italic" lengthAdjust="spacing" textLength="162" x="589.5" y="376.457">«MedComCoreOrganization»</text><text fill="#000000" font-family="sans-serif" font-size="14" lengthAdjust="spacing" textLength="204" x="568.5" y="393.627">MedComMessagingOrganization</text></g><!--MD5=[e2e901c2214a1f61ae0bb3d13c40a618]
class communication--><g id="elem_communication"><rect codeLine="10" fill="#F1F1F1" height="32" id="communication" rx="2.5" ry="2.5" style="stroke:#181818;stroke-width:0.5;" width="216" x="288.5" y="364.5"/><ellipse cx="303.5" cy="380.5" fill="#ADD1B2" rx="11" ry="11" style="stroke:#181818;stroke-width:1.0;"/><path d="M306.2656,376.375 Q306.4219,376.1563 306.6094,376.0469 Q306.7969,375.9375 307.0156,375.9375 Q307.3906,375.9375 307.625,376.2031 Q307.8594,376.4531 307.8594,377.0625 L307.8594,378.5156 Q307.8594,379.125 307.625,379.3906 Q307.3906,379.6563 307.0156,379.6563 Q306.6719,379.6563 306.4688,379.4531 Q306.2656,379.2656 306.1563,378.75 Q306.1094,378.3906 305.9219,378.2031 Q305.5938,377.8281 304.9844,377.6094 Q304.375,377.3906 303.75,377.3906 Q302.9844,377.3906 302.3438,377.7188 Q301.7188,378.0469 301.2188,378.7969 Q300.7344,379.5469 300.7344,380.5781 L300.7344,381.6719 Q300.7344,382.9063 301.625,383.7344 Q302.5156,384.5469 304.1094,384.5469 Q305.0469,384.5469 305.7031,384.2969 Q306.0938,384.1406 306.5156,383.7031 Q306.7813,383.4375 306.9219,383.3594 Q307.0781,383.2813 307.2813,383.2813 Q307.6094,383.2813 307.8594,383.5469 Q308.125,383.7969 308.125,384.1406 Q308.125,384.4844 307.7813,384.8906 Q307.2813,385.4688 306.4844,385.7969 Q305.4063,386.25 304.1094,386.25 Q302.5938,386.25 301.3906,385.625 Q300.4063,385.125 299.7188,384.0625 Q299.0313,382.9844 299.0313,381.7031 L299.0313,380.5469 Q299.0313,379.2188 299.6406,378.0781 Q300.2656,376.9219 301.3594,376.3125 Q302.4531,375.6875 303.6875,375.6875 Q304.4219,375.6875 305.0625,375.8594 Q305.7188,376.0156 306.2656,376.375 Z " fill="#000000"/><text fill="#000000" font-family="sans-serif" font-size="14" lengthAdjust="spacing" textLength="184" x="317.5" y="386.2285">MedComCareCommunication</text></g><!--MD5=[86fcfc7a3ddeef2443f03e9b03bcacd4]
class patient--><g id="elem_patient"><rect codeLine="11" fill="#F1F1F1" height="32" id="patient" rx="2.5" ry="2.5" style="stroke:#181818;stroke-width:0.5;" width="163" x="7" y="480"/><ellipse cx="22" cy="496" fill="#ADD1B2" rx="11" ry="11" style="stroke:#181818;stroke-width:1.0;"/><path d="M24.7656,491.875 Q24.9219,491.6563 25.1094,491.5469 Q25.2969,491.4375 25.5156,491.4375 Q25.8906,491.4375 26.125,491.7031 Q26.3594,491.9531 26.3594,492.5625 L26.3594,494.0156 Q26.3594,494.625 26.125,494.8906 Q25.8906,495.1563 25.5156,495.1563 Q25.1719,495.1563 24.9688,494.9531 Q24.7656,494.7656 24.6563,494.25 Q24.6094,493.8906 24.4219,493.7031 Q24.0938,493.3281 23.4844,493.1094 Q22.875,492.8906 22.25,492.8906 Q21.4844,492.8906 20.8438,493.2188 Q20.2188,493.5469 19.7188,494.2969 Q19.2344,495.0469 19.2344,496.0781 L19.2344,497.1719 Q19.2344,498.4063 20.125,499.2344 Q21.0156,500.0469 22.6094,500.0469 Q23.5469,500.0469 24.2031,499.7969 Q24.5938,499.6406 25.0156,499.2031 Q25.2813,498.9375 25.4219,498.8594 Q25.5781,498.7813 25.7813,498.7813 Q26.1094,498.7813 26.3594,499.0469 Q26.625,499.2969 26.625,499.6406 Q26.625,499.9844 26.2813,500.3906 Q25.7813,500.9688 24.9844,501.2969 Q23.9063,501.75 22.6094,501.75 Q21.0938,501.75 19.8906,501.125 Q18.9063,500.625 18.2188,499.5625 Q17.5313,498.4844 17.5313,497.2031 L17.5313,496.0469 Q17.5313,494.7188 18.1406,493.5781 Q18.7656,492.4219 19.8594,491.8125 Q20.9531,491.1875 22.1875,491.1875 Q22.9219,491.1875 23.5625,491.3594 Q24.2188,491.5156 24.7656,491.875 Z " fill="#000000"/><text fill="#000000" font-family="sans-serif" font-size="14" lengthAdjust="spacing" textLength="131" x="36" y="501.7285">MedComCorePatient</text></g><!--MD5=[7d1630a95e3a15a0a4f20baedc130ecf]
class pracRole--><g id="elem_pracRole"><rect codeLine="12" fill="#F1F1F1" height="32" id="pracRole" rx="2.5" ry="2.5" style="stroke:#181818;stroke-width:0.5;" width="220" x="205.5" y="480"/><ellipse cx="220.5" cy="496" fill="#ADD1B2" rx="11" ry="11" style="stroke:#181818;stroke-width:1.0;"/><path d="M223.2656,491.875 Q223.4219,491.6563 223.6094,491.5469 Q223.7969,491.4375 224.0156,491.4375 Q224.3906,491.4375 224.625,491.7031 Q224.8594,491.9531 224.8594,492.5625 L224.8594,494.0156 Q224.8594,494.625 224.625,494.8906 Q224.3906,495.1563 224.0156,495.1563 Q223.6719,495.1563 223.4688,494.9531 Q223.2656,494.7656 223.1563,494.25 Q223.1094,493.8906 222.9219,493.7031 Q222.5938,493.3281 221.9844,493.1094 Q221.375,492.8906 220.75,492.8906 Q219.9844,492.8906 219.3438,493.2188 Q218.7188,493.5469 218.2188,494.2969 Q217.7344,495.0469 217.7344,496.0781 L217.7344,497.1719 Q217.7344,498.4063 218.625,499.2344 Q219.5156,500.0469 221.1094,500.0469 Q222.0469,500.0469 222.7031,499.7969 Q223.0938,499.6406 223.5156,499.2031 Q223.7813,498.9375 223.9219,498.8594 Q224.0781,498.7813 224.2813,498.7813 Q224.6094,498.7813 224.8594,499.0469 Q225.125,499.2969 225.125,499.6406 Q225.125,499.9844 224.7813,500.3906 Q224.2813,500.9688 223.4844,501.2969 Q222.4063,501.75 221.1094,501.75 Q219.5938,501.75 218.3906,501.125 Q217.4063,500.625 216.7188,499.5625 Q216.0313,498.4844 216.0313,497.2031 L216.0313,496.0469 Q216.0313,494.7188 216.6406,493.5781 Q217.2656,492.4219 218.3594,491.8125 Q219.4531,491.1875 220.6875,491.1875 Q221.4219,491.1875 222.0625,491.3594 Q222.7188,491.5156 223.2656,491.875 Z " fill="#000000"/><text fill="#000000" font-family="sans-serif" font-size="14" lengthAdjust="spacing" textLength="188" x="234.5" y="501.7285">MedComCorePractitionerRole</text></g><!--MD5=[84cfacbcd31b21cbbb16279cbfd3fe0d]
class careteam--><g id="elem_careteam"><rect codeLine="13" fill="#F1F1F1" height="32" id="careteam" rx="2.5" ry="2.5" style="stroke:#181818;stroke-width:0.5;" width="186" x="460.5" y="480"/><ellipse cx="475.5" cy="496" fill="#ADD1B2" rx="11" ry="11" style="stroke:#181818;stroke-width:1.0;"/><path d="M478.2656,491.875 Q478.4219,491.6563 478.6094,491.5469 Q478.7969,491.4375 479.0156,491.4375 Q479.3906,491.4375 479.625,491.7031 Q479.8594,491.9531 479.8594,492.5625 L479.8594,494.0156 Q479.8594,494.625 479.625,494.8906 Q479.3906,495.1563 479.0156,495.1563 Q478.6719,495.1563 478.4688,494.9531 Q478.2656,494.7656 478.1563,494.25 Q478.1094,493.8906 477.9219,493.7031 Q477.5938,493.3281 476.9844,493.1094 Q476.375,492.8906 475.75,492.8906 Q474.9844,492.8906 474.3438,493.2188 Q473.7188,493.5469 473.2188,494.2969 Q472.7344,495.0469 472.7344,496.0781 L472.7344,497.1719 Q472.7344,498.4063 473.625,499.2344 Q474.5156,500.0469 476.1094,500.0469 Q477.0469,500.0469 477.7031,499.7969 Q478.0938,499.6406 478.5156,499.2031 Q478.7813,498.9375 478.9219,498.8594 Q479.0781,498.7813 479.2813,498.7813 Q479.6094,498.7813 479.8594,499.0469 Q480.125,499.2969 480.125,499.6406 Q480.125,499.9844 479.7813,500.3906 Q479.2813,500.9688 478.4844,501.2969 Q477.4063,501.75 476.1094,501.75 Q474.5938,501.75 473.3906,501.125 Q472.4063,500.625 471.7188,499.5625 Q471.0313,498.4844 471.0313,497.2031 L471.0313,496.0469 Q471.0313,494.7188 471.6406,493.5781 Q472.2656,492.4219 473.3594,491.8125 Q474.4531,491.1875 475.6875,491.1875 Q476.4219,491.1875 477.0625,491.3594 Q477.7188,491.5156 478.2656,491.875 Z " fill="#000000"/><text fill="#000000" font-family="sans-serif" font-size="14" lengthAdjust="spacing" textLength="154" x="489.5" y="501.7285">MedComCoreCareTeam</text></g><!--MD5=[7f6a6782ff085de027a43e4e291de663]
class author--><g id="elem_author"><rect codeLine="14" fill="#F1F1F1" height="32" id="author" rx="2.5" ry="2.5" style="stroke:#181818;stroke-width:0.5;" width="191" x="220" y="590"/><ellipse cx="235" cy="606" fill="#ADD1B2" rx="11" ry="11" style="stroke:#181818;stroke-width:1.0;"/><path d="M237.7656,601.875 Q237.9219,601.6563 238.1094,601.5469 Q238.2969,601.4375 238.5156,601.4375 Q238.8906,601.4375 239.125,601.7031 Q239.3594,601.9531 239.3594,602.5625 L239.3594,604.0156 Q239.3594,604.625 239.125,604.8906 Q238.8906,605.1563 238.5156,605.1563 Q238.1719,605.1563 237.9688,604.9531 Q237.7656,604.7656 237.6563,604.25 Q237.6094,603.8906 237.4219,603.7031 Q237.0938,603.3281 236.4844,603.1094 Q235.875,602.8906 235.25,602.8906 Q234.4844,602.8906 233.8438,603.2188 Q233.2188,603.5469 232.7188,604.2969 Q232.2344,605.0469 232.2344,606.0781 L232.2344,607.1719 Q232.2344,608.4063 233.125,609.2344 Q234.0156,610.0469 235.6094,610.0469 Q236.5469,610.0469 237.2031,609.7969 Q237.5938,609.6406 238.0156,609.2031 Q238.2813,608.9375 238.4219,608.8594 Q238.5781,608.7813 238.7813,608.7813 Q239.1094,608.7813 239.3594,609.0469 Q239.625,609.2969 239.625,609.6406 Q239.625,609.9844 239.2813,610.3906 Q238.7813,610.9688 237.9844,611.2969 Q236.9063,611.75 235.6094,611.75 Q234.0938,611.75 232.8906,611.125 Q231.9063,610.625 231.2188,609.5625 Q230.5313,608.4844 230.5313,607.2031 L230.5313,606.0469 Q230.5313,604.7188 231.1406,603.5781 Q231.7656,602.4219 232.8594,601.8125 Q233.9531,601.1875 235.1875,601.1875 Q235.9219,601.1875 236.5625,601.3594 Q237.2188,601.5156 237.7656,601.875 Z " fill="#000000"/><text fill="#000000" font-family="sans-serif" font-size="14" lengthAdjust="spacing" textLength="159" x="249" y="611.7285">MedComCorePractitioner</text></g><!--MD5=[c3fd6fd70c1f956c0aa70d5a42fdf9cf]
class encounter--><g id="elem_encounter"><rect codeLine="15" fill="#F1F1F1" height="32" id="encounter" rx="2.5" ry="2.5" style="stroke:#181818;stroke-width:0.5;" width="184" x="681.5" y="480"/><ellipse cx="696.5" cy="496" fill="#ADD1B2" rx="11" ry="11" style="stroke:#181818;stroke-width:1.0;"/><path d="M699.2656,491.875 Q699.4219,491.6563 699.6094,491.5469 Q699.7969,491.4375 700.0156,491.4375 Q700.3906,491.4375 700.625,491.7031 Q700.8594,491.9531 700.8594,492.5625 L700.8594,494.0156 Q700.8594,494.625 700.625,494.8906 Q700.3906,495.1563 700.0156,495.1563 Q699.6719,495.1563 699.4688,494.9531 Q699.2656,494.7656 699.1563,494.25 Q699.1094,493.8906 698.9219,493.7031 Q698.5938,493.3281 697.9844,493.1094 Q697.375,492.8906 696.75,492.8906 Q695.9844,492.8906 695.3438,493.2188 Q694.7188,493.5469 694.2188,494.2969 Q693.7344,495.0469 693.7344,496.0781 L693.7344,497.1719 Q693.7344,498.4063 694.625,499.2344 Q695.5156,500.0469 697.1094,500.0469 Q698.0469,500.0469 698.7031,499.7969 Q699.0938,499.6406 699.5156,499.2031 Q699.7813,498.9375 699.9219,498.8594 Q700.0781,498.7813 700.2813,498.7813 Q700.6094,498.7813 700.8594,499.0469 Q701.125,499.2969 701.125,499.6406 Q701.125,499.9844 700.7813,500.3906 Q700.2813,500.9688 699.4844,501.2969 Q698.4063,501.75 697.1094,501.75 Q695.5938,501.75 694.3906,501.125 Q693.4063,500.625 692.7188,499.5625 Q692.0313,498.4844 692.0313,497.2031 L692.0313,496.0469 Q692.0313,494.7188 692.6406,493.5781 Q693.2656,492.4219 694.3594,491.8125 Q695.4531,491.1875 696.6875,491.1875 Q697.4219,491.1875 698.0625,491.3594 Q698.7188,491.5156 699.2656,491.875 Z " fill="#000000"/><text fill="#000000" font-family="sans-serif" font-size="14" lengthAdjust="spacing" textLength="152" x="710.5" y="501.7285">MedComCoreEncounter</text></g><!--MD5=[d64d5c7357c79f774106f79272da7625]
class organization--><g id="elem_organization"><rect codeLine="16" fill="#F1F1F1" height="32" id="organization" rx="2.5" ry="2.5" style="stroke:#181818;stroke-width:0.5;" width="199" x="450" y="590"/><ellipse cx="465" cy="606" fill="#ADD1B2" rx="11" ry="11" style="stroke:#181818;stroke-width:1.0;"/><path d="M467.7656,601.875 Q467.9219,601.6563 468.1094,601.5469 Q468.2969,601.4375 468.5156,601.4375 Q468.8906,601.4375 469.125,601.7031 Q469.3594,601.9531 469.3594,602.5625 L469.3594,604.0156 Q469.3594,604.625 469.125,604.8906 Q468.8906,605.1563 468.5156,605.1563 Q468.1719,605.1563 467.9688,604.9531 Q467.7656,604.7656 467.6563,604.25 Q467.6094,603.8906 467.4219,603.7031 Q467.0938,603.3281 466.4844,603.1094 Q465.875,602.8906 465.25,602.8906 Q464.4844,602.8906 463.8438,603.2188 Q463.2188,603.5469 462.7188,604.2969 Q462.2344,605.0469 462.2344,606.0781 L462.2344,607.1719 Q462.2344,608.4063 463.125,609.2344 Q464.0156,610.0469 465.6094,610.0469 Q466.5469,610.0469 467.2031,609.7969 Q467.5938,609.6406 468.0156,609.2031 Q468.2813,608.9375 468.4219,608.8594 Q468.5781,608.7813 468.7813,608.7813 Q469.1094,608.7813 469.3594,609.0469 Q469.625,609.2969 469.625,609.6406 Q469.625,609.9844 469.2813,610.3906 Q468.7813,610.9688 467.9844,611.2969 Q466.9063,611.75 465.6094,611.75 Q464.0938,611.75 462.8906,611.125 Q461.9063,610.625 461.2188,609.5625 Q460.5313,608.4844 460.5313,607.2031 L460.5313,606.0469 Q460.5313,604.7188 461.1406,603.5781 Q461.7656,602.4219 462.8594,601.8125 Q463.9531,601.1875 465.1875,601.1875 Q465.9219,601.1875 466.5625,601.3594 Q467.2188,601.5156 467.7656,601.875 Z " fill="#000000"/><text fill="#000000" font-family="sans-serif" font-size="14" lengthAdjust="spacing" textLength="167" x="479" y="611.7285">MedComCoreOrganization</text></g><!--MD5=[81a74f5327845c2ce954842e4f46c391]
link message to messageheader--><g id="link_message_messageheader"><path codeLine="18" d="M490.88,50.23 C485.35,93.83 472.6,194.57 467.1,237.99 " fill="none" id="message-messageheader" style="stroke:#181818;stroke-width:1.0;"/><text fill="#000000" font-family="sans-serif" font-size="13" lengthAdjust="spacing" textLength="29" x="482.5" y="149.4951">entry</text></g><!--MD5=[79a620f53515237a9de9d0a655fadcca]
link messageheader to communication--><g id="link_messageheader_communication"><path codeLine="19" d="M452.66,281.23 C439.11,304.93 417.25,343.18 405.19,364.29 " fill="none" id="messageheader-communication" style="stroke:#181818;stroke-width:1.0;"/><text fill="#000000" font-family="sans-serif" font-size="13" lengthAdjust="spacing" textLength="31" x="436.5" y="325.4951">focus</text></g><!--MD5=[e372636a977ce2c485cbccc561780bd6]
link communication to patient--><g id="link_communication_patient"><path codeLine="20" d="M295.41,396.54 C257.69,404.3 215.14,415.67 178.5,432 C150.97,444.27 123.14,465.39 105.87,479.76 " fill="none" id="communication-patient" style="stroke:#181818;stroke-width:1.0;"/><text fill="#000000" font-family="sans-serif" font-size="13" lengthAdjust="spacing" textLength="42" x="179.5" y="446.4951">subject</text></g><!--MD5=[7eeef3c8709ed22b8e61e45e2ea7d532]
link communication to pracRole--><g id="link_communication_pracRole"><path codeLine="21" d="M288.12,394.69 C267.18,402.34 247.68,414.08 234.5,432 C219.88,451.87 244.79,468.68 270.73,479.93 " fill="none" id="communication-pracRole" style="stroke:#181818;stroke-width:1.0;"/><text fill="#000000" font-family="sans-serif" font-size="13" lengthAdjust="spacing" textLength="36" x="235.5" y="446.4951">author</text></g><!--MD5=[7eeef3c8709ed22b8e61e45e2ea7d532]
link communication to pracRole--><g id="link_communication_pracRole"><path codeLine="27" d="M353.81,396.58 C337.91,404.52 321.55,416 312.5,432 C304.2,446.68 306.97,466.49 310.5,479.96 " fill="none" id="communication-pracRole-1" style="stroke:#181818;stroke-width:1.0;"/><text fill="#000000" font-family="sans-serif" font-size="13" lengthAdjust="spacing" textLength="39" x="313.5" y="446.4951">sender</text></g><!--MD5=[7eeef3c8709ed22b8e61e45e2ea7d532]
link communication to pracRole--><g id="link_communication_pracRole"><path codeLine="28" d="M389.23,396.54 C382.02,410.85 370.23,432.69 357.5,450 C349.65,460.67 339.55,471.57 331.22,479.96 " fill="none" id="communication-pracRole-2" style="stroke:#181818;stroke-width:1.0;"/><text fill="#000000" font-family="sans-serif" font-size="13" lengthAdjust="spacing" textLength="49" x="371.5" y="446.4951">recipient</text></g><!--MD5=[81f298224060e516a9ea14ff98c71ca4]
link message to provenance--><g id="link_message_provenance"><path codeLine="22" d="M521.21,50.05 C551.35,72.41 598.83,107.64 625.86,127.69 " fill="none" id="message-provenance" style="stroke:#181818;stroke-width:1.0;"/><text fill="#000000" font-family="sans-serif" font-size="13" lengthAdjust="spacing" textLength="29" x="584.5" y="94.4951">entry</text></g><!--MD5=[1aa5b919a36df47450e1a6a7cdb64b45]
link provenance to messageheader--><g id="link_provenance_messageheader"><path codeLine="23" d="M622.33,160.07 C590.23,180.09 533.4,215.53 497.4,237.98 " fill="none" id="provenance-messageheader" style="stroke:#181818;stroke-width:1.0;"/><text fill="#000000" font-family="sans-serif" font-size="13" lengthAdjust="spacing" textLength="33" x="572.5" y="204.4951">target</text></g><!--MD5=[f47a36da2de5ae8806a1be3932325292]
link provenance to messagingOrganization--><g id="link_provenance_messagingOrganization"><path codeLine="24" d="M647.25,160.11 C648.69,189.27 651.94,255.37 654.5,311 C655.24,327.05 656.03,345.22 656.62,358.82 " fill="none" id="provenance-messagingOrganization" style="stroke:#181818;stroke-width:1.0;"/><text fill="#000000" font-family="sans-serif" font-size="13" lengthAdjust="spacing" textLength="59" x="653.5" y="264.9951">agent.who</text></g><!--MD5=[91c54a72d122703e0856c70b938ed7ef]
link communication to careteam--><g id="link_communication_careteam"><path codeLine="25" d="M415.04,396.66 C432.61,410.86 459.91,432.46 484.5,450 C499.05,460.38 515.85,471.35 529.22,479.87 " fill="none" id="communication-careteam" style="stroke:#181818;stroke-width:1.0;"/><text fill="#000000" font-family="sans-serif" font-size="13" lengthAdjust="spacing" textLength="39" x="485.5" y="446.4951">sender</text></g><!--MD5=[91c54a72d122703e0856c70b938ed7ef]
link communication to careteam--><g id="link_communication_careteam"><path codeLine="26" d="M468.1,396.5 C490.07,404.07 512.81,415.33 529.5,432 C542.5,444.99 548.58,465.74 551.34,479.85 " fill="none" id="communication-careteam-1" style="stroke:#181818;stroke-width:1.0;"/><text fill="#000000" font-family="sans-serif" font-size="13" lengthAdjust="spacing" textLength="49" x="542.5" y="446.4951">recipient</text></g><!--MD5=[cee96dd921aad29c6dd1b1c4d88bf68f]
link pracRole to author--><g id="link_pracRole_author"><path codeLine="29" d="M315.5,512.02 C315.5,532.53 315.5,569.13 315.5,589.76 " fill="none" id="pracRole-author" style="stroke:#181818;stroke-width:1.0;"/><text fill="#000000" font-family="sans-serif" font-size="13" lengthAdjust="spacing" textLength="64" x="316.5" y="556.4951">practitioner</text></g><!--MD5=[b16d23625f6fab7cff697318abd55cf8]
link pracRole to organization--><g id="link_pracRole_organization"><path codeLine="30" d="M348.04,512.02 C392.62,532.59 472.23,569.34 516.86,589.94 " fill="none" id="pracRole-organization" style="stroke:#181818;stroke-width:1.0;"/><text fill="#000000" font-family="sans-serif" font-size="13" lengthAdjust="spacing" textLength="70" x="448.5" y="556.4951">organization</text></g><!--MD5=[c568f13314ba7e86cfb79b992a7ef51a]
link careteam to organization--><g id="link_careteam_organization"><path codeLine="31" d="M552.94,512.02 C552.18,532.53 550.83,569.13 550.06,589.76 " fill="none" id="careteam-organization" style="stroke:#181818;stroke-width:1.0;"/><text fill="#000000" font-family="sans-serif" font-size="13" lengthAdjust="spacing" textLength="129" x="552.5" y="556.4951">managingOrganization</text></g><!--MD5=[0d2d54a2349697619971ea3c455f8bf9]
link communication to encounter--><g id="link_communication_encounter"><path codeLine="32" d="M465,396.53 C504.83,405.75 555.83,418.38 600.5,432 C647.74,446.4 700.97,466.37 735.76,479.93 " fill="none" id="communication-encounter" style="stroke:#181818;stroke-width:1.0;"/><text fill="#000000" font-family="sans-serif" font-size="13" lengthAdjust="spacing" textLength="57" x="653.5" y="446.4951">encounter</text></g><!--MD5=[7068c6a302bec6a421fbf6e526f1486a]
link messageheader to messagingOrganization--><g id="link_messageheader_messagingOrganization"><path codeLine="35" d="M519.02,281.1 C538.13,289.29 559.34,299.51 577.5,311 C599.29,324.79 621.34,344.17 636.76,358.8 " fill="none" id="messageheader-messagingOrganization" style="stroke:#181818;stroke-width:1.0;"/><text fill="#000000" font-family="sans-serif" font-size="13" lengthAdjust="spacing" textLength="44" x="601.5" y="325.4951">receiver</text></g><!--MD5=[7068c6a302bec6a421fbf6e526f1486a]
link messageheader to messagingOrganization--><g id="link_messageheader_messagingOrganization"><path codeLine="36" d="M479.64,281.12 C491.53,296.09 509.24,315.93 528.5,329 C546.61,341.29 568.14,351.22 588.38,358.92 " fill="none" id="messageheader-messagingOrganization-1" style="stroke:#181818;stroke-width:1.0;"/><text fill="#000000" font-family="sans-serif" font-size="13" lengthAdjust="spacing" textLength="39" x="529.5" y="325.4951">sender</text></g><!--MD5=[365872f74db5dfe958d84210682d2c5c]
@startuml CareCommunication

hide empty members

top to bottom direction

class "MedComCareCommunicationMessage" as message <<MedComMessagingMessage>>
class "MedComCareCommunicationMessageHeader" as messageheader <<MedComMessagingMessageHeader>>
class "MedComMessagingProvenance" as provenance
class "MedComMessagingOrganization" as messagingOrganization <<MedComCoreOrganization>>
class "MedComCareCommunication" as communication
class "MedComCorePatient" as patient
class "MedComCorePractitionerRole" as pracRole
class "MedComCoreCareTeam" as careteam
class "MedComCorePractitioner" as author
class "MedComCoreEncounter" as encounter
class "MedComCoreOrganization" as organization

message - - messageheader : "entry"
messageheader - - communication : "focus"
communication - - patient : "subject"
communication - - pracRole : "author"
message - - provenance : "entry"
provenance - - messageheader : "target" 
provenance - - messagingOrganization : "agent.who"
communication - - careteam : "sender"
communication - - careteam : "recipient"
communication - - pracRole : "sender"
communication - - pracRole : "recipient"
pracRole - - author : "practitioner"
pracRole - - organization : "organization"
careteam - - organization : "managingOrganization"
communication - - encounter : "encounter"


messageheader - - messagingOrganization : "receiver"
messageheader - - messagingOrganization : "sender"
@enduml

PlantUML version 1.2022.7(Mon Aug 22 19:01:30 CEST 2022)
(GPL source distribution)
Java Runtime: Java(TM) SE Runtime Environment
JVM: Java HotSpot(TM) 64-Bit Server VM
Default Encoding: Cp1252
Language: da
Country: DK
--></g></svg>