<svg width="4238" height="1995" xmlns="http://www.w3.org/2000/svg" xmlns:xlink="http://www.w3.org/1999/xlink" xml:space="preserve" overflow="hidden"><defs><clipPath id="clip0"><rect x="116" y="204" width="4238" height="1995"/></clipPath><clipPath id="clip1"><rect x="2121" y="1086" width="93" height="93"/></clipPath><clipPath id="clip2"><rect x="2121" y="1086" width="93" height="93"/></clipPath><clipPath id="clip3"><rect x="2121" y="1086" width="93" height="93"/></clipPath><clipPath id="clip4"><rect x="1763" y="536" width="574" height="563"/></clipPath><clipPath id="clip5"><rect x="1763" y="536" width="574" height="563"/></clipPath><clipPath id="clip6"><rect x="1763" y="536" width="574" height="563"/></clipPath><clipPath id="clip7"><rect x="2733" y="784" width="550" height="511"/></clipPath><clipPath id="clip8"><rect x="2733" y="784" width="550" height="511"/></clipPath><clipPath id="clip9"><rect x="2733" y="784" width="550" height="511"/></clipPath><clipPath id="clip10"><rect x="3025" y="889" width="147" height="139"/></clipPath><clipPath id="clip11"><rect x="3025" y="889" width="147" height="139"/></clipPath><clipPath id="clip12"><rect x="3025" y="889" width="147" height="139"/></clipPath><clipPath id="clip13"><rect x="2799" y="982" width="148" height="148"/></clipPath><clipPath id="clip14"><rect x="2799" y="982" width="148" height="148"/></clipPath><clipPath id="clip15"><rect x="2799" y="982" width="148" height="148"/></clipPath><clipPath id="clip16"><rect x="3891" y="885" width="149" height="140"/></clipPath><clipPath id="clip17"><rect x="3891" y="885" width="149" height="140"/></clipPath><clipPath id="clip18"><rect x="3891" y="885" width="149" height="140"/></clipPath><clipPath id="clip19"><rect x="3613" y="805" width="508" height="479"/></clipPath><clipPath id="clip20"><rect x="3613" y="805" width="508" height="479"/></clipPath><clipPath id="clip21"><rect x="3613" y="805" width="508" height="479"/></clipPath><clipPath id="clip22"><rect x="3666" y="984" width="136" height="138"/></clipPath><clipPath id="clip23"><rect x="3666" y="984" width="136" height="138"/></clipPath><clipPath id="clip24"><rect x="3666" y="984" width="136" height="138"/></clipPath><clipPath id="clip25"><rect x="1840" y="825" width="72" height="73"/></clipPath><clipPath id="clip26"><rect x="1840" y="825" width="72" height="73"/></clipPath><clipPath id="clip27"><rect x="1840" y="825" width="72" height="73"/></clipPath><clipPath id="clip28"><rect x="320" y="526" width="592" height="571"/></clipPath><clipPath id="clip29"><rect x="320" y="526" width="592" height="571"/></clipPath><clipPath id="clip30"><rect x="320" y="526" width="592" height="571"/></clipPath><clipPath id="clip31"><rect x="442" y="935" width="316" height="305"/></clipPath><clipPath id="clip32"><rect x="442" y="935" width="316" height="305"/></clipPath><clipPath id="clip33"><rect x="442" y="935" width="316" height="305"/></clipPath><clipPath id="clip34"><rect x="445" y="718" width="50" height="48"/></clipPath><clipPath id="clip35"><rect x="445" y="718" width="50" height="48"/></clipPath><clipPath id="clip36"><rect x="445" y="718" width="50" height="48"/></clipPath><clipPath id="clip37"><rect x="446" y="759" width="51" height="49"/></clipPath><clipPath id="clip38"><rect x="446" y="759" width="51" height="49"/></clipPath><clipPath id="clip39"><rect x="446" y="759" width="51" height="49"/></clipPath><clipPath id="clip40"><path d="M472.178 695.294 551.966 648.926 621.584 768.72 541.796 815.089Z" fill-rule="evenodd" clip-rule="evenodd"/></clipPath><clipPath id="clip41"><path d="M472.178 695.294 551.966 648.926 621.584 768.72 541.796 815.089Z" fill-rule="evenodd" clip-rule="evenodd"/></clipPath><clipPath id="clip42"><path d="M472.178 695.294 551.966 648.926 621.584 768.72 541.796 815.089Z" fill-rule="evenodd" clip-rule="evenodd"/></clipPath><clipPath id="clip43"><rect x="1031" y="523" width="535" height="551"/></clipPath><clipPath id="clip44"><rect x="1031" y="523" width="535" height="551"/></clipPath><clipPath id="clip45"><rect x="1031" y="523" width="535" height="551"/></clipPath><clipPath id="clip46"><rect x="1335" y="1003" width="105" height="107"/></clipPath><clipPath id="clip47"><rect x="1335" y="1003" width="105" height="107"/></clipPath><clipPath id="clip48"><rect x="1335" y="1003" width="105" height="107"/></clipPath><clipPath id="clip49"><rect x="1089" y="633" width="83" height="86"/></clipPath><clipPath id="clip50"><rect x="1089" y="633" width="83" height="86"/></clipPath><clipPath id="clip51"><rect x="1089" y="633" width="83" height="86"/></clipPath><clipPath id="clip52"><rect x="711" y="795" width="76" height="73"/></clipPath><clipPath id="clip53"><rect x="711" y="795" width="76" height="73"/></clipPath><clipPath id="clip54"><rect x="711" y="795" width="76" height="73"/></clipPath></defs><g clip-path="url(#clip0)" transform="translate(-116 -204)"><path d="M2645.5 682.17C2645.5 572.448 2734.45 483.5 2844.17 483.5L4152.83 483.5C4262.55 483.5 4351.5 572.448 4351.5 682.17L4351.5 1476.83C4351.5 1586.55 4262.55 1675.5 4152.83 1675.5L2844.17 1675.5C2734.45 1675.5 2645.5 1586.55 2645.5 1476.83Z" stroke="#2F528F" stroke-width="4.58333" stroke-miterlimit="8" stroke-dasharray="18.3333 13.75" fill="#DFE7F5" fill-rule="evenodd"/><path d="M118.5 538.174C118.5 354.996 266.996 206.5 450.174 206.5L2231.83 206.5C2415 206.5 2563.5 354.996 2563.5 538.174L2563.5 1864.83C2563.5 2048 2415 2196.5 2231.83 2196.5L450.174 2196.5C266.996 2196.5 118.5 2048 118.5 1864.83Z" stroke="#2F528F" stroke-width="4.58333" stroke-miterlimit="8" stroke-dasharray="18.3333 13.75" fill="#E2F0D9" fill-rule="evenodd"/><g clip-path="url(#clip1)"><g clip-path="url(#clip2)"><g clip-path="url(#clip3)"><path d="M2167.5 1109.75C2165.89 1109.79 2164.62 1111.12 2164.66 1112.72L2164.66 1121.12C2164.66 1122.7 2165.93 1123.97 2167.5 1123.97 2169.07 1123.97 2170.34 1122.7 2170.34 1121.12L2170.34 1112.72C2170.38 1111.12 2169.11 1109.79 2167.5 1109.75Z"/><path d="M2190.44 1145.52C2189.8 1140.45 2189.44 1135.34 2189.36 1130.22 2189.36 1126.05 2189.55 1122.12 2189.82 1118.6 2190.78 1106.87 2182.06 1096.59 2170.33 1095.62 2170.06 1095.6 2169.78 1095.58 2169.5 1095.57 2168.83 1095.54 2168.14 1095.53 2167.43 1095.53 2166.73 1095.53 2166.04 1095.54 2165.36 1095.57 2153.6 1096.08 2144.48 1106.02 2144.99 1117.77 2145 1118.05 2145.02 1118.32 2145.04 1118.6 2145.32 1122.12 2145.51 1126.05 2145.51 1130.22 2145.42 1135.34 2145.06 1140.45 2144.42 1145.52 2142.97 1157.73 2151.68 1168.8 2163.89 1170.25 2164.45 1170.32 2165.01 1170.36 2165.57 1170.38 2166.18 1170.41 2166.8 1170.42 2167.43 1170.42 2168.06 1170.42 2168.69 1170.41 2169.3 1170.38 2181.58 1169.86 2191.1 1159.48 2190.58 1147.2 2190.55 1146.64 2190.51 1146.08 2190.44 1145.52ZM2174.14 1121.12C2174.15 1124.09 2172.23 1126.72 2169.4 1127.61L2169.4 1141.98C2169.4 1143.03 2168.55 1143.88 2167.5 1143.88 2166.45 1143.88 2165.6 1143.03 2165.6 1141.98L2165.6 1127.61C2162.77 1126.72 2160.85 1124.09 2160.86 1121.12L2160.86 1112.72C2160.85 1109.76 2162.77 1107.13 2165.6 1106.24L2165.6 1101.22C2165.6 1100.17 2166.45 1099.32 2167.5 1099.32 2168.55 1099.32 2169.4 1100.17 2169.4 1101.22L2169.4 1106.24C2172.23 1107.13 2174.15 1109.76 2174.14 1112.72Z"/></g></g></g><g clip-path="url(#clip4)"><g clip-path="url(#clip5)"><g clip-path="url(#clip6)"><path d="M480.042 374.667 81.9583 374.667 81.9583 117.083 480.042 117.083 480.042 374.667ZM491.75 81.9583 70.25 81.9583C57.3708 81.9583 46.8333 92.4958 46.8333 105.375L46.8333 386.375C46.8333 399.254 57.3708 409.792 70.25 409.792L234.167 409.792 234.167 444.917 175.625 444.917 175.625 480.042 386.375 480.042 386.375 444.917 327.833 444.917 327.833 409.792 491.75 409.792C504.629 409.792 515.167 399.254 515.167 386.375L515.167 105.375C515.167 92.4958 504.629 81.9583 491.75 81.9583Z" transform="matrix(1.01957 0 0 1 1763 537)"/></g></g></g><rect x="1968.5" y="689.5" width="154" height="205" stroke="#000000" stroke-width="4.58333" stroke-miterlimit="8" fill="#FFFFFF"/><path d="M1984 723 2050.2 723" stroke="#333333" stroke-width="2.29167" stroke-miterlimit="8" fill="none" fill-rule="evenodd"/><path d="M1984 749 2099.45 749" stroke="#333333" stroke-width="2.29167" stroke-miterlimit="8" fill="none" fill-rule="evenodd"/><path d="M1984 769 2099.45 769" stroke="#333333" stroke-width="2.29167" stroke-miterlimit="8" fill="none" fill-rule="evenodd"/><path d="M1984 790 2099.45 790" stroke="#333333" stroke-width="2.29167" stroke-miterlimit="8" fill="none" fill-rule="evenodd"/><path d="M1984 809 2099.45 809" stroke="#333333" stroke-width="2.29167" stroke-miterlimit="8" fill="none" fill-rule="evenodd"/><path d="M1984 827 2099.45 827" stroke="#333333" stroke-width="2.29167" stroke-miterlimit="8" fill="none" fill-rule="evenodd"/><path d="M1984 848 2080.82 848" stroke="#333333" stroke-width="2.29167" stroke-miterlimit="8" fill="none" fill-rule="evenodd"/><text font-family="Arial,Arial_MSFontService,sans-serif" font-weight="400" font-size="14" transform="matrix(1 0 0 1 2059.74 713)">20</text><text font-family="Arial,Arial_MSFontService,sans-serif" font-weight="400" font-size="14" transform="matrix(1 0 0 1 2074.64 713)">-</text><text font-family="Arial,Arial_MSFontService,sans-serif" font-weight="400" font-size="14" transform="matrix(1 0 0 1 2079.22 713)">10</text><text font-family="Arial,Arial_MSFontService,sans-serif" font-weight="400" font-size="14" transform="matrix(1 0 0 1 2094.12 713)">-</text><text font-family="Arial,Arial_MSFontService,sans-serif" font-weight="400" font-size="14" transform="matrix(1 0 0 1 2098.7 713)">22</text><path d="M2149.5 839C2149.5 836.515 2151.51 834.5 2154 834.5L2231 834.5C2233.49 834.5 2235.5 836.515 2235.5 839L2235.5 857C2235.5 859.485 2233.49 861.5 2231 861.5L2154 861.5C2151.51 861.5 2149.5 859.485 2149.5 857Z" stroke="#4472C4" stroke-width="4.58333" stroke-miterlimit="8" fill="#4472C4" fill-rule="evenodd"/><text font-family="Arial,Arial_MSFontService,sans-serif" font-weight="700" font-size="32" transform="matrix(1 0 0 1 2149.49 858)">SEND</text><path d="M2190.77 894.962 2182.97 880.667 2184.98 879.569 2192.78 893.865ZM2174.1 890.726 2173 860 2198.24 877.557Z" fill="#A5A5A5"/><path d="M1943.5 1011.5C1943.5 965.66 1980.88 928.5 2027 928.5 2073.12 928.5 2110.5 965.66 2110.5 1011.5 2110.5 1057.34 2073.12 1094.5 2027 1094.5 1980.88 1094.5 1943.5 1057.34 1943.5 1011.5Z" stroke="#000000" stroke-width="4.58333" stroke-miterlimit="8" fill="#FBE5D6" fill-rule="evenodd"/><path d="M1943.5 1127.33C1943.5 1111.96 1955.96 1099.5 1971.33 1099.5L2082.67 1099.5C2098.04 1099.5 2110.5 1111.96 2110.5 1127.33L2110.5 1329.67C2110.5 1345.04 2098.04 1357.5 2082.67 1357.5L1971.33 1357.5C1955.96 1357.5 1943.5 1345.04 1943.5 1329.67Z" stroke="#2F528F" stroke-width="4.58333" stroke-miterlimit="8" fill="#4472C4" fill-rule="evenodd"/><path d="M1908.5 1230.33C1908.5 1223.25 1914.25 1217.5 1921.33 1217.5L2137.67 1217.5C2144.75 1217.5 2150.5 1223.25 2150.5 1230.33L2150.5 1281.67C2150.5 1288.75 2144.75 1294.5 2137.67 1294.5L1921.33 1294.5C1914.25 1294.5 1908.5 1288.75 1908.5 1281.67Z" stroke="#2F528F" stroke-width="4.58333" stroke-miterlimit="8" fill="#AD6D5B" fill-rule="evenodd"/><rect x="2018.5" y="1294.5" width="16.9999" height="68.0001" stroke="#787878" stroke-width="4.58333" stroke-miterlimit="8" fill="#A5A5A5"/><path d="M1914.5 1364C1914.5 1362.62 1915.62 1361.5 1917 1361.5L2148 1361.5C2149.38 1361.5 2150.5 1362.62 2150.5 1364L2150.5 1374C2150.5 1375.38 2149.38 1376.5 2148 1376.5L1917 1376.5C1915.62 1376.5 1914.5 1375.38 1914.5 1374Z" stroke="#2F528F" stroke-width="4.58333" stroke-miterlimit="8" fill="#AD6D5B" fill-rule="evenodd"/><rect x="1964.5" y="1376.5" width="38.9999" height="109" stroke="#000000" stroke-width="4.58333" stroke-miterlimit="8"/><rect x="2062.5" y="1376.5" width="38.9998" height="109" stroke="#000000" stroke-width="4.58333" stroke-miterlimit="8"/><path d="M2110 1162.55C2121.74 1169.94 2133.48 1177.33 2143.14 1172.41 2152.81 1167.48 2168 1133 2168 1133L2168 1133" stroke="#2F528F" stroke-width="27.5" stroke-miterlimit="8" fill="none" fill-rule="evenodd"/><g clip-path="url(#clip7)"><g clip-path="url(#clip8)"><g clip-path="url(#clip9)"><path d="M436.479 340.667 74.5208 340.667 74.5208 106.458 436.479 106.458 436.479 340.667ZM447.125 74.5208 63.875 74.5208C52.1646 74.5208 42.5833 84.1021 42.5833 95.8125L42.5833 351.312C42.5833 363.023 52.1646 372.604 63.875 372.604L212.917 372.604 212.917 404.542 159.687 404.542 159.687 436.479 351.312 436.479 351.312 404.542 298.083 404.542 298.083 372.604 447.125 372.604C458.835 372.604 468.416 363.023 468.416 351.312L468.416 95.8125C468.416 84.1021 458.835 74.5208 447.125 74.5208Z" transform="matrix(1.07436 0 0 1 2733 784)"/></g></g></g><g clip-path="url(#clip10)"><g clip-path="url(#clip11)"><g clip-path="url(#clip12)"><path d="M49.8053 37.1042 86.9095 37.1042 86.9095 42.8125 49.8053 42.8125Z" transform="matrix(1.06569 0 0 1 3025 890)"/><path d="M49.8053 48.5209 86.9095 48.5209 86.9095 54.2292 49.8053 54.2292Z" transform="matrix(1.06569 0 0 1 3025 890)"/><path d="M49.8053 59.9376 86.9095 59.9376 86.9095 65.6459 49.8053 65.6459Z" transform="matrix(1.06569 0 0 1 3025 890)"/><path d="M118.448 119.304 89.9064 92.1897 118.448 65.0751 118.448 119.304ZM25.9729 122.729 54.2292 96.0428 56.2272 94.1876C63.9334 86.9095 76.0636 86.9095 83.7699 94.1876L85.7678 96.0428 113.881 122.729 25.9729 122.729ZM21.4063 64.9324 49.948 92.047 21.4063 119.162 21.4063 64.9324ZM41.3855 28.5417 98.4689 28.5417 98.4689 76.0636 85.6251 88.3366C76.3491 81.2011 63.5053 81.2011 54.2292 88.3366L41.3855 76.0636 41.3855 28.5417ZM107.031 32.3948 107.031 19.9792 87.0522 19.9792 69.9272 5.70834 52.8021 19.9792 32.823 19.9792 32.823 32.5375 12.8438 51.5178 12.8438 131.292 127.011 131.292 127.011 51.5178 107.031 32.3948Z" transform="matrix(1.06569 0 0 1 3025 890)"/></g></g></g><g clip-path="url(#clip13)"><g clip-path="url(#clip14)"><g clip-path="url(#clip15)"><path d="M76.5626 50.5313C76.5626 52.2227 75.1914 53.5938 73.5001 53.5938 71.8087 53.5938 70.4376 52.2227 70.4376 50.5313 70.4376 48.8399 71.8087 47.4688 73.5001 47.4688 75.1914 47.4688 76.5626 48.8399 76.5626 50.5313Z" transform="matrix(1 0 0 1.0068 2800 982)"/><path d="M76.5626 111.781C76.5626 113.473 75.1914 114.844 73.5001 114.844 71.8087 114.844 70.4376 113.473 70.4376 111.781 70.4376 110.09 71.8087 108.719 73.5001 108.719 75.1914 108.719 76.5626 110.09 76.5626 111.781Z" transform="matrix(1 0 0 1.0068 2800 982)"/><path d="M107.188 79.6251C107.188 81.3164 105.816 82.6876 104.125 82.6876 102.434 82.6876 101.063 81.3164 101.063 79.6251 101.063 77.9337 102.434 76.5626 104.125 76.5626 105.816 76.5626 107.188 77.9337 107.188 79.6251Z" transform="matrix(1 0 0 1.0068 2800 982)"/><path d="M45.9375 79.6251C45.9375 81.3164 44.5664 82.6876 42.875 82.6876 41.1837 82.6876 39.8125 81.3164 39.8125 79.6251 39.8125 77.9337 41.1837 76.5626 42.875 76.5626 44.5664 76.5626 45.9375 77.9337 45.9375 79.6251Z" transform="matrix(1 0 0 1.0068 2800 982)"/><path d="M76.5626 58.1875 70.4376 58.1875 70.4376 79.6251C70.4376 80.3907 70.7438 81.1563 71.3563 81.7688L86.5157 96.9282 90.8032 92.6407 76.5626 78.4001 76.5626 58.1875Z" transform="matrix(1 0 0 1.0068 2800 982)"/><path d="M73.5001 124.031C49.7657 124.031 30.625 104.891 30.625 81.1563 30.625 57.4219 49.7657 38.2813 73.5001 38.2813 97.2345 38.2813 116.375 57.4219 116.375 81.1563 116.375 104.891 97.2345 124.031 73.5001 124.031L73.5001 124.031ZM109.791 43.7938 114.384 39.2C116.069 37.3625 116.069 34.6063 114.231 32.7688 112.547 31.0844 109.638 30.9313 107.8 32.6157L102.594 37.975C95.2438 33.075 86.822 30.0125 78.0938 29.4L78.0938 22.9688 91.8751 22.9688 91.8751 13.7813 55.125 13.7813 55.125 22.9688 68.9063 22.9688 68.9063 29.2469C44.5594 31.3907 24.9594 50.225 21.8969 74.5719 18.8344 98.9188 33.075 122.041 56.1969 130.156 79.3188 138.272 104.891 129.391 117.906 108.566 130.922 87.7407 127.247 60.7907 109.791 43.7938L109.791 43.7938Z" transform="matrix(1 0 0 1.0068 2800 982)"/></g></g></g><text fill="#333333" font-family="Calibri,Calibri_MSFontService,sans-serif" font-weight="400" font-size="50" transform="matrix(1 0 0 1 2809.76 1466)">Bundle.timestamp</text><g clip-path="url(#clip16)"><g clip-path="url(#clip17)"><g clip-path="url(#clip18)"><path d="M11.5 28.75 11.5 109.25 126.5 109.25 126.5 28.75 11.5 28.75ZM71.0126 78.9189C69.8626 80.0689 68.1376 80.0689 66.9876 78.9189L24.4375 37.3751 113.706 37.3751 71.0126 78.9189ZM48.1563 68.5688 20.125 96.7439 20.125 41.1126 48.1563 68.5688ZM52.3251 72.5938 63.1063 83.0876C64.8313 84.6689 66.9876 85.5314 69.1438 85.5314 71.3001 85.5314 73.4564 84.6689 75.1814 83.0876L85.9626 72.5938 113.85 100.625 24.2938 100.625 52.3251 72.5938ZM89.8439 68.5688 117.875 41.2563 117.875 96.6001 89.8439 68.5688Z" transform="matrix(1.06522 0 0 1 3892 886)"/></g></g></g><g clip-path="url(#clip19)"><g clip-path="url(#clip20)"><g clip-path="url(#clip21)"><path d="M409.146 319.333 69.8541 319.333 69.8541 99.7916 409.146 99.7916 409.146 319.333ZM419.125 69.8541 59.875 69.8541C48.8979 69.8541 39.9167 78.8354 39.9167 89.8125L39.9167 329.312C39.9167 340.289 48.8979 349.271 59.875 349.271L199.583 349.271 199.583 379.208 149.687 379.208 149.687 409.146 329.312 409.146 329.312 379.208 279.417 379.208 279.417 349.271 419.125 349.271C430.102 349.271 439.083 340.289 439.083 329.312L439.083 89.8125C439.083 78.8354 430.102 69.8541 419.125 69.8541Z" transform="matrix(1.05846 0 0 1 3614 805)"/></g></g></g><g clip-path="url(#clip22)"><g clip-path="url(#clip23)"><g clip-path="url(#clip24)"><path d="M70.8332 46.7499C70.8332 48.3147 69.5647 49.5832 67.9999 49.5832 66.4351 49.5832 65.1666 48.3147 65.1666 46.7499 65.1666 45.1851 66.4351 43.9166 67.9999 43.9166 69.5647 43.9166 70.8332 45.1851 70.8332 46.7499Z" transform="matrix(1 0 0 1.01471 3666 984)"/><path d="M70.8332 103.416C70.8332 104.981 69.5647 106.25 67.9999 106.25 66.4351 106.25 65.1666 104.981 65.1666 103.416 65.1666 101.852 66.4351 100.583 67.9999 100.583 69.5647 100.583 70.8332 101.852 70.8332 103.416Z" transform="matrix(1 0 0 1.01471 3666 984)"/><path d="M99.1665 73.6665C99.1665 75.2313 97.898 76.4999 96.3332 76.4999 94.7684 76.4999 93.4998 75.2313 93.4998 73.6665 93.4998 72.1017 94.7684 70.8332 96.3332 70.8332 97.898 70.8332 99.1665 72.1017 99.1665 73.6665Z" transform="matrix(1 0 0 1.01471 3666 984)"/><path d="M42.4999 73.6665C42.4999 75.2313 41.2314 76.4999 39.6666 76.4999 38.1018 76.4999 36.8333 75.2313 36.8333 73.6665 36.8333 72.1017 38.1018 70.8332 39.6666 70.8332 41.2314 70.8332 42.4999 72.1017 42.4999 73.6665Z" transform="matrix(1 0 0 1.01471 3666 984)"/><path d="M70.8332 53.8332 65.1666 53.8332 65.1666 73.6665C65.1666 74.3749 65.4499 75.0832 66.0165 75.6499L80.0415 89.6748 84.0082 85.7082 70.8332 72.5332 70.8332 53.8332Z" transform="matrix(1 0 0 1.01471 3666 984)"/><path d="M67.9999 114.75C46.0416 114.75 28.3333 97.0415 28.3333 75.0832 28.3333 53.1249 46.0416 35.4166 67.9999 35.4166 89.9582 35.4166 107.666 53.1249 107.666 75.0832 107.666 97.0415 89.9582 114.75 67.9999 114.75L67.9999 114.75ZM101.575 40.5166 105.825 36.2666C107.383 34.5666 107.383 32.0166 105.683 30.3166 104.125 28.7583 101.433 28.6166 99.7332 30.1749L94.9165 35.1333C88.1165 30.5999 80.3249 27.7666 72.2499 27.2L72.2499 21.25 84.9999 21.25 84.9999 12.75 50.9999 12.75 50.9999 21.25 63.7499 21.25 63.7499 27.0583C41.2249 29.0416 23.0916 46.4666 20.2583 68.9915 17.425 91.5165 30.5999 112.908 51.9916 120.416 73.3832 127.925 97.0415 119.708 109.083 100.441 121.125 81.1749 117.725 56.2416 101.575 40.5166L101.575 40.5166Z" transform="matrix(1 0 0 1.01471 3666 984)"/></g></g></g><text fill="#333333" font-family="Arial,Arial_MSFontService,sans-serif" font-weight="400" font-size="46" transform="matrix(1 0 0 1 3633.68 1443)">Provenance.recorded</text><text fill="#333333" font-family="Arial,Arial_MSFontService,sans-serif" font-weight="400" font-size="46" transform="matrix(1 0 0 1 3639.03 1543)">Provenance.occuredDateTi</text><text fill="#333333" font-family="Arial,Arial_MSFontService,sans-serif" font-weight="400" font-size="46" transform="matrix(1 0 0 1 3883.37 1598)">me</text><path d="M3552.15 1242 3552.15 1348.48 3549.85 1348.48 3549.85 1242ZM3564.75 1343.9 3551 1371.4 3537.25 1343.9Z" fill="#2C415C"/><path d="M3009.15 1235 3009.15 1341.48 3006.85 1341.48 3006.85 1235ZM3021.75 1336.9 3008 1364.4 2994.25 1336.9Z" fill="#2C415C"/><text fill="#2C415C" font-family="Calibri,Calibri_MSFontService,sans-serif" font-weight="700" font-size="50" transform="matrix(1 0 0 1 1825.96 471)">Healthcare professional </text><text fill="#2C415C" font-family="Calibri,Calibri_MSFontService,sans-serif" font-weight="700" font-size="50" transform="matrix(1 0 0 1 1825.96 532)">presses send </text><text fill="#2C415C" font-family="Calibri,Calibri_MSFontService,sans-serif" font-weight="700" font-size="50" transform="matrix(1 0 0 1 2103.25 532)">button</text><path d="M3320 1035.85 3532.5 1035.85 3532.5 1038.15 3320 1038.15ZM3527.91 1023.25 3555.41 1037 3527.91 1050.75Z" fill="#4472C4"/><text fill="#2C415C" font-family="Arial,Arial_MSFontService,sans-serif" font-weight="700" font-size="50" transform="matrix(1 0 0 1 2717.82 812)">CareCommunication</text><text fill="#2C415C" font-family="Arial,Arial_MSFontService,sans-serif" font-weight="700" font-size="50" transform="matrix(1 0 0 1 3224.85 812)">created</text><g clip-path="url(#clip25)"><g clip-path="url(#clip26)"><g clip-path="url(#clip27)"><path d="M37.4999 24.7499C37.4999 25.5784 36.8283 26.2499 35.9999 26.2499 35.1715 26.2499 34.4999 25.5784 34.4999 24.7499 34.4999 23.9215 35.1715 23.2499 35.9999 23.2499 36.8283 23.2499 37.4999 23.9215 37.4999 24.7499Z" transform="matrix(1 0 0 1.01389 1840 825)"/><path d="M37.4999 54.7499C37.4999 55.5783 36.8283 56.2499 35.9999 56.2499 35.1715 56.2499 34.4999 55.5783 34.4999 54.7499 34.4999 53.9214 35.1715 53.2499 35.9999 53.2499 36.8283 53.2499 37.4999 53.9214 37.4999 54.7499Z" transform="matrix(1 0 0 1.01389 1840 825)"/><path d="M52.4999 38.9999C52.4999 39.8283 51.8283 40.4999 50.9999 40.4999 50.1715 40.4999 49.4999 39.8283 49.4999 38.9999 49.4999 38.1715 50.1715 37.4999 50.9999 37.4999 51.8283 37.4999 52.4999 38.1715 52.4999 38.9999Z" transform="matrix(1 0 0 1.01389 1840 825)"/><path d="M22.4999 38.9999C22.4999 39.8283 21.8284 40.4999 21 40.4999 20.1715 40.4999 19.5 39.8283 19.5 38.9999 19.5 38.1715 20.1715 37.4999 21 37.4999 21.8284 37.4999 22.4999 38.1715 22.4999 38.9999Z" transform="matrix(1 0 0 1.01389 1840 825)"/><path d="M37.4999 28.4999 34.4999 28.4999 34.4999 38.9999C34.4999 39.3749 34.6499 39.7499 34.9499 40.0499L42.3749 47.4749 44.4749 45.3749 37.4999 38.3999 37.4999 28.4999Z" transform="matrix(1 0 0 1.01389 1840 825)"/><path d="M35.9999 60.7499C24.3749 60.7499 15 51.3749 15 39.7499 15 28.1249 24.3749 18.75 35.9999 18.75 47.6249 18.75 56.9999 28.1249 56.9999 39.7499 56.9999 51.3749 47.6249 60.7499 35.9999 60.7499L35.9999 60.7499ZM53.7749 21.45 56.0249 19.2C56.8499 18.3 56.8499 16.95 55.9499 16.05 55.1249 15.225 53.6999 15.15 52.7999 15.975L50.2499 18.6C46.6499 16.2 42.5249 14.7 38.2499 14.4L38.2499 11.25 44.9999 11.25 44.9999 6.74998 26.9999 6.74998 26.9999 11.25 33.7499 11.25 33.7499 14.325C21.8249 15.375 12.225 24.5999 10.725 36.5249 9.22498 48.4499 16.2 59.7749 27.5249 63.7499 38.8499 67.7248 51.3749 63.3749 57.7499 53.1749 64.1249 42.9749 62.3249 29.7749 53.7749 21.45L53.7749 21.45Z" transform="matrix(1 0 0 1.01389 1840 825)"/></g></g></g><text fill="#2C415C" font-family="Arial,Arial_MSFontService,sans-serif" font-weight="700" font-size="50" transform="matrix(1 0 0 1 3602.16 790)">CareCommunication</text><text fill="#2C415C" font-family="Arial,Arial_MSFontService,sans-serif" font-weight="700" font-size="50" transform="matrix(1 0 0 1 4109.19 790)">sent </text><g clip-path="url(#clip28)"><g clip-path="url(#clip29)"><g clip-path="url(#clip30)"><path d="M486.875 380 83.125 380 83.125 118.75 486.875 118.75 486.875 380ZM498.75 83.125 71.25 83.125C58.1875 83.125 47.5 93.8125 47.5 106.875L47.5 391.875C47.5 404.937 58.1875 415.625 71.25 415.625L237.5 415.625 237.5 451.25 178.125 451.25 178.125 486.875 391.875 486.875 391.875 451.25 332.5 451.25 332.5 415.625 498.75 415.625C511.812 415.625 522.5 404.937 522.5 391.875L522.5 106.875C522.5 93.8125 511.812 83.125 498.75 83.125Z" transform="matrix(1.0386 0 0 1 320 527)"/></g></g></g><g clip-path="url(#clip31)"><g clip-path="url(#clip32)"><g clip-path="url(#clip33)"><path d="M285.956 88.9583 19.0816 88.9583C12.0629 88.9583 6.37323 94.6481 6.37323 101.667L6.37323 203.333C6.37323 210.352 12.0629 216.042 19.0816 216.042L285.956 216.042C292.975 216.042 298.665 210.352 298.665 203.333L298.665 101.667C298.665 94.6481 292.975 88.9583 285.956 88.9583ZM158.873 111.198 177.936 111.198 177.936 130.26 158.873 130.26ZM158.873 142.969 177.936 142.969 177.936 162.031 158.873 162.031ZM127.102 111.198 146.165 111.198 146.165 130.26 127.102 130.26ZM127.102 142.969 146.165 142.969 146.165 162.031 127.102 162.031ZM95.3315 111.198 114.394 111.198 114.394 130.26 95.3315 130.26ZM95.3315 142.969 114.394 142.969 114.394 162.031 95.3315 162.031ZM50.8524 193.802 31.7899 193.802 31.7899 174.74 50.8524 174.74ZM50.8524 162.031 31.7899 162.031 31.7899 142.969 50.8524 142.969ZM50.8524 130.26 31.7899 130.26 31.7899 111.198 50.8524 111.198ZM82.6232 193.802 63.5607 193.802 63.5607 174.74 82.6232 174.74ZM82.6232 162.031 63.5607 162.031 63.5607 142.969 82.6232 142.969ZM82.6232 130.26 63.5607 130.26 63.5607 111.198 82.6232 111.198ZM209.706 193.802 95.3315 193.802 95.3315 174.74 209.706 174.74ZM209.706 162.031 190.644 162.031 190.644 142.969 209.706 142.969ZM209.706 130.26 190.644 130.26 190.644 111.198 209.706 111.198ZM241.477 193.802 222.415 193.802 222.415 174.74 241.477 174.74ZM241.477 162.031 222.415 162.031 222.415 142.969 241.477 142.969ZM241.477 130.26 222.415 130.26 222.415 111.198 241.477 111.198ZM273.248 193.802 254.186 193.802 254.186 174.74 273.248 174.74ZM273.248 162.031 254.186 162.031 254.186 142.969 273.248 142.969ZM273.248 130.26 254.186 130.26 254.186 111.198 273.248 111.198Z" transform="matrix(1.03607 0 0 1 442 935)"/></g></g></g><path d="M463.5 1087C463.5 1072.36 475.365 1060.5 490 1060.5L595.999 1060.5C610.635 1060.5 622.5 1072.36 622.5 1087L622.5 1296C622.5 1310.64 610.635 1322.5 595.999 1322.5L490 1322.5C475.365 1322.5 463.5 1310.64 463.5 1296Z" stroke="#2F528F" stroke-width="4.58333" stroke-miterlimit="8" fill="#4472C4" fill-rule="evenodd"/><path d="M429.5 1193.5C429.5 1186.32 435.32 1180.5 442.5 1180.5L647.5 1180.5C654.679 1180.5 660.5 1186.32 660.5 1193.5L660.5 1245.5C660.5 1252.68 654.679 1258.5 647.5 1258.5L442.5 1258.5C435.32 1258.5 429.5 1252.68 429.5 1245.5Z" stroke="#2F528F" stroke-width="4.58333" stroke-miterlimit="8" fill="#AD6D5B" fill-rule="evenodd"/><rect x="534.5" y="1258.5" width="15.9998" height="70.0001" stroke="#787878" stroke-width="4.58333" stroke-miterlimit="8" fill="#A5A5A5"/><path d="M435.5 1330C435.5 1328.62 436.619 1327.5 438 1327.5L658 1327.5C659.381 1327.5 660.5 1328.62 660.5 1330L660.5 1340C660.5 1341.38 659.381 1342.5 658 1342.5L438 1342.5C436.619 1342.5 435.5 1341.38 435.5 1340Z" stroke="#2F528F" stroke-width="4.58333" stroke-miterlimit="8" fill="#AD6D5B" fill-rule="evenodd"/><rect x="482.5" y="1342.5" width="37.9998" height="111" stroke="#000000" stroke-width="4.58333" stroke-miterlimit="8"/><rect x="576.5" y="1342.5" width="37.0001" height="111" stroke="#000000" stroke-width="4.58333" stroke-miterlimit="8"/><path d="M621 1124.27C632.333 1131.84 643.667 1139.41 653 1134.37 662.333 1129.32 677 1094 677 1094L677 1094" stroke="#2F528F" stroke-width="27.5" stroke-miterlimit="8" fill="none" fill-rule="evenodd"/><path d="M466.5 970C466.5 923.332 502.093 885.5 546 885.5 589.907 885.5 625.5 923.332 625.5 970 625.5 1016.67 589.907 1054.5 546 1054.5 502.093 1054.5 466.5 1016.67 466.5 970Z" stroke="#000000" stroke-width="4.58333" stroke-miterlimit="8" fill="#FBE5D6" fill-rule="evenodd"/><rect x="414.5" y="656.5" width="402" height="232" stroke="#000000" stroke-width="4.58333" stroke-miterlimit="8" fill="none"/><path d="M412.5 712.5 815.038 712.5" stroke="#000000" stroke-width="4.58333" stroke-miterlimit="8" fill="none" fill-rule="evenodd"/><path d="M781 688.5C781 692.09 777.866 695 774 695 770.134 695 767 692.09 767 688.5 767 684.91 770.134 682 774 682 777.866 682 781 684.91 781 688.5Z" fill-rule="evenodd"/><path d="M807.001 687C807.001 690.314 803.866 693 800 693 796.134 693 793 690.314 793 687 793 683.686 796.134 681 800 681 803.866 681 807.001 683.686 807.001 687Z" fill-rule="evenodd"/><path d="M755 688.5C755 692.09 751.866 695 748 695 744.134 695 741 692.09 741 688.5 741 684.91 744.134 682 748 682 751.866 682 755 684.91 755 688.5Z" fill-rule="evenodd"/><path d="M593 742 814.453 742.001" stroke="#333333" stroke-width="2.29167" stroke-miterlimit="8" fill="none" fill-rule="evenodd"/><path d="M600 772 813.547 772" stroke="#333333" stroke-width="2.29167" stroke-miterlimit="8" fill="none" fill-rule="evenodd"/><path d="M623 796 813.136 796" stroke="#333333" stroke-width="2.29167" stroke-miterlimit="8" fill="none" fill-rule="evenodd"/><path d="M442.5 734C442.5 724.335 450.335 716.5 460 716.5L530 716.5C539.665 716.5 547.5 724.335 547.5 734L547.5 860C547.5 869.665 539.665 877.5 530 877.5L460 877.5C450.335 877.5 442.5 869.665 442.5 860Z" stroke="#000000" stroke-width="4.58333" stroke-miterlimit="8" fill="#FFFFFF" fill-rule="evenodd"/><g clip-path="url(#clip34)"><g clip-path="url(#clip35)"><g clip-path="url(#clip36)"><path d="M7.49996 38.0103 40.4998 38.0103C41.6029 38.0068 42.4962 37.1134 42.4998 36.0103L42.4998 16.0044C42.4962 14.9013 41.6029 14.008 40.4998 14.0044L23.4999 14.0044 17.9999 10.3545C17.6851 10.1134 17.2961 9.9896 16.8999 10.0045L7.49996 10.0045C6.39677 10.0078 5.50327 10.9012 5.49997 12.0044L5.49997 36.0098C5.50297 37.1132 6.39657 38.007 7.49996 38.0103ZM6.49997 12.0034C6.49997 11.4511 6.94767 11.0034 7.49996 11.0034L16.8999 11.0034C17.0618 10.992 17.2231 11.0334 17.3594 11.1214L17.4014 11.1564 17.4469 11.1864 22.9469 14.8364 23.1969 15.0034 40.4998 15.0034C41.0521 15.0034 41.4998 15.4511 41.4998 16.0034L41.4998 36.0098C41.4998 36.5621 41.0521 37.0098 40.4998 37.0098L7.49996 37.0098C6.94767 37.0098 6.49997 36.5621 6.49997 36.0098Z" stroke="#70AD47" stroke-width="4.26664" fill="#FFFFFF" transform="matrix(1.02084 0 0 1 446 718)"/></g></g></g><g clip-path="url(#clip37)"><g clip-path="url(#clip38)"><g clip-path="url(#clip39)"><path d="M7.50002 38.0106 40.5001 38.0106C41.6032 38.0071 42.4966 37.1137 42.5001 36.0106L42.5001 16.0045C42.4966 14.9014 41.6032 14.0081 40.5001 14.0045L23.5001 14.0045 18 10.3545C17.6852 10.1134 17.2962 9.98968 16.9 10.0045L7.50002 10.0045C6.39682 10.0078 5.50332 10.9013 5.50002 12.0045L5.50002 36.0101C5.50302 37.1135 6.39662 38.0073 7.50002 38.0106ZM6.50002 12.0035C6.50002 11.4512 6.94772 11.0035 7.50002 11.0035L16.9 11.0035C17.0619 10.9921 17.2232 11.0335 17.3595 11.1215L17.4015 11.1565 17.447 11.1865 22.9471 14.8365 23.1971 15.0035 40.5001 15.0035C41.0524 15.0035 41.5001 15.4512 41.5001 16.0035L41.5001 36.0101C41.5001 36.5624 41.0524 37.0101 40.5001 37.0101L7.50002 37.0101C6.94772 37.0101 6.50002 36.5624 6.50002 36.0101Z" transform="matrix(1.02083 0 0 1 447 759)"/></g></g></g><path d="M452.5 842.167C452.5 839.589 454.589 837.5 457.167 837.5L531.833 837.5C534.411 837.5 536.5 839.589 536.5 842.167L536.5 860.833C536.5 863.411 534.411 865.5 531.833 865.5L457.167 865.5C454.589 865.5 452.5 863.411 452.5 860.833Z" stroke="#2F528F" stroke-width="4.58333" stroke-miterlimit="8" fill="#4472C4" fill-rule="evenodd"/><text font-family="Arial,Arial_MSFontService,sans-serif" font-weight="700" font-size="28" transform="matrix(1 0 0 1 462.973 852)">SAVE</text><path d="M1.07384-0.399739 13.6485 33.3803 11.5008 34.1798-1.07384 0.399739ZM23.8618 24.6878 20.5694 55.257-1.91045 34.2816Z" fill="#A5A5A5" transform="matrix(1 0 0 -1 438 910.257)"/><g clip-path="url(#clip40)"><g clip-path="url(#clip41)"><g clip-path="url(#clip42)"><path d="M46.1417 86.5157C36.0482 86.5157 27.8773 78.3448 27.8773 68.2513L27.8773 19.2257C27.8773 11.8238 33.9334 5.76771 41.3353 5.76771 48.7372 5.76771 54.7933 11.8238 54.7933 19.2257L54.7933 64.4061C54.7933 69.2126 50.9481 73.0577 46.1417 73.0577 41.3353 73.0577 37.4901 69.2126 37.4901 64.4061L37.4901 41.3353 43.2579 41.3353 43.2579 64.4061C43.2579 66.0403 44.5075 67.29 46.1417 67.29 47.7759 67.29 49.0256 66.0403 49.0256 64.4061L49.0256 19.2257C49.0256 14.9961 45.5649 11.5354 41.3353 11.5354 37.1056 11.5354 33.645 14.9961 33.645 19.2257L33.645 68.2513C33.645 75.1725 39.2205 80.748 46.1417 80.748 53.063 80.748 58.6384 75.1725 58.6384 68.2513L58.6384 48.0643 64.4061 48.0643 64.4061 68.2513C64.4061 78.3448 56.2352 86.5157 46.1417 86.5157Z" stroke="#00B050" stroke-width="1.53806" fill="#00B050" transform="matrix(0.864602 -0.502457 0.754388 1.29811 472.178 695.294)"/></g></g></g><text fill="#333333" font-family="Calibri,Calibri_MSFontService,sans-serif" font-weight="400" font-size="50" transform="matrix(1 0 0 1 1706.81 1741)">Communication.payload:string.</text><text fill="#333333" font-family="Calibri,Calibri_MSFontService,sans-serif" font-weight="400" font-size="50" transform="matrix(1 0 0 1 1706.81 1802)">extension:date</text><g clip-path="url(#clip43)"><g clip-path="url(#clip44)"><g clip-path="url(#clip45)"><path d="M455.271 355.333 77.7292 355.333 77.7292 111.042 455.271 111.042 455.271 355.333ZM466.375 77.7292 66.625 77.7292C54.4104 77.7292 44.4167 87.7229 44.4167 99.9375L44.4167 366.438C44.4167 378.652 54.4104 388.646 66.625 388.646L222.083 388.646 222.083 421.958 166.563 421.958 166.563 455.271 366.438 455.271 366.438 421.958 310.917 421.958 310.917 388.646 466.375 388.646C478.59 388.646 488.583 378.652 488.583 366.438L488.583 99.9375C488.583 87.7229 478.59 77.7292 466.375 77.7292Z" transform="matrix(1 0 0 1.03189 1032 524)"/></g></g></g><rect x="1209.5" y="657.5" width="149" height="209" stroke="#000000" stroke-width="4.58333" stroke-miterlimit="8" fill="#FFFFFF"/><path d="M1224 692 1287.9 692" stroke="#333333" stroke-width="2.29167" stroke-miterlimit="8" fill="none" fill-rule="evenodd"/><path d="M1224 718 1335.44 718" stroke="#333333" stroke-width="2.29167" stroke-miterlimit="8" fill="none" fill-rule="evenodd"/><path d="M1224 739 1335.44 739" stroke="#333333" stroke-width="2.29167" stroke-miterlimit="8" fill="none" fill-rule="evenodd"/><path d="M1224 760 1335.44 760" stroke="#333333" stroke-width="2.29167" stroke-miterlimit="8" fill="none" fill-rule="evenodd"/><path d="M1224 779 1335.44 779" stroke="#333333" stroke-width="2.29167" stroke-miterlimit="8" fill="none" fill-rule="evenodd"/><path d="M1224 798 1335.44 798" stroke="#333333" stroke-width="2.29167" stroke-miterlimit="8" fill="none" fill-rule="evenodd"/><path d="M1224 819 1317.45 819.001" stroke="#333333" stroke-width="2.29167" stroke-miterlimit="8" fill="none" fill-rule="evenodd"/><text font-family="Arial,Arial_MSFontService,sans-serif" font-weight="400" font-size="14" transform="matrix(1 0 0 1 1298.79 682)">20</text><text font-family="Arial,Arial_MSFontService,sans-serif" font-weight="400" font-size="14" transform="matrix(1 0 0 1 1313.69 682)">-</text><text font-family="Arial,Arial_MSFontService,sans-serif" font-weight="400" font-size="14" transform="matrix(1 0 0 1 1318.27 682)">10</text><text font-family="Arial,Arial_MSFontService,sans-serif" font-weight="400" font-size="14" transform="matrix(1 0 0 1 1333.17 682)">-</text><text font-family="Arial,Arial_MSFontService,sans-serif" font-weight="400" font-size="14" transform="matrix(1 0 0 1 1337.75 682)">22</text><g clip-path="url(#clip46)"><g clip-path="url(#clip47)"><g clip-path="url(#clip48)"><path d="M52.4999 26.25C50.6466 26.2917 49.1778 27.8277 49.2187 29.681L49.2187 39.3749C49.2187 41.1872 50.6877 42.6562 52.4999 42.6562 54.3121 42.6562 55.7812 41.1872 55.7812 39.3749L55.7812 29.681C55.8221 27.8277 54.3533 26.2917 52.4999 26.25Z" transform="matrix(1 0 0 1.01905 1335 1003)"/><path d="M78.9686 67.5247C78.2346 61.6683 77.8172 55.7765 77.7185 49.8749 77.7185 45.0624 77.9372 40.5278 78.2555 36.4612 79.3662 22.9299 69.2973 11.0601 55.766 9.94938 55.448 9.92328 55.1297 9.90338 54.811 9.88967 54.0293 9.85905 53.2327 9.84373 52.4212 9.84373 51.6096 9.84373 50.813 9.85905 50.0313 9.88967 36.467 10.4731 25.9439 21.9422 26.5274 35.5065 26.5411 35.824 26.5609 36.1412 26.5868 36.4579 26.9062 40.5245 27.125 45.0624 27.125 49.8749 27.0249 55.7776 26.6061 61.6706 25.8704 67.528 24.1951 81.6084 34.2515 94.381 48.3319 96.0563 48.9756 96.1328 49.6221 96.185 50.2698 96.2127 50.9741 96.2367 51.6913 96.2491 52.4212 96.2499 53.151 96.2506 53.869 96.2382 54.5748 96.2127 68.7409 95.6055 79.7326 83.6294 79.1255 69.4633 79.0977 68.8154 79.0454 68.1687 78.9686 67.5247ZM60.1562 39.3749C60.1718 42.7976 57.9538 45.8305 54.6874 46.8529L54.6874 63.4374C54.6874 64.6456 53.7081 65.6249 52.4999 65.6249 51.2918 65.6249 50.3124 64.6456 50.3124 63.4374L50.3124 46.8529C47.0465 45.8298 44.8288 42.7974 44.8437 39.3749L44.8437 29.6821C44.8276 26.259 47.0456 23.2256 50.3124 22.2031L50.3124 16.4062C50.3124 15.1981 51.2918 14.2187 52.4999 14.2187 53.7081 14.2187 54.6874 15.1981 54.6874 16.4062L54.6874 22.2031C57.9538 23.2263 60.1716 26.2593 60.1562 29.6821Z" transform="matrix(1 0 0 1.01905 1335 1003)"/></g></g></g><path d="M1143.5 947C1143.5 902.541 1183.79 866.5 1233.5 866.5 1283.21 866.5 1323.5 902.541 1323.5 947 1323.5 991.459 1283.21 1027.5 1233.5 1027.5 1183.79 1027.5 1143.5 991.459 1143.5 947Z" stroke="#000000" stroke-width="4.58333" stroke-miterlimit="8" fill="#FBE5D6" fill-rule="evenodd"/><path d="M1143.5 1062.5C1143.5 1045.93 1156.93 1032.5 1173.5 1032.5L1293.5 1032.5C1310.07 1032.5 1323.5 1045.93 1323.5 1062.5L1323.5 1251.5C1323.5 1268.07 1310.07 1281.5 1293.5 1281.5L1173.5 1281.5C1156.93 1281.5 1143.5 1268.07 1143.5 1251.5Z" stroke="#2F528F" stroke-width="4.58333" stroke-miterlimit="8" fill="#4472C4" fill-rule="evenodd"/><path d="M1105.5 1159C1105.5 1152.1 1111.1 1146.5 1118 1146.5L1353 1146.5C1359.9 1146.5 1365.5 1152.1 1365.5 1159L1365.5 1209C1365.5 1215.9 1359.9 1221.5 1353 1221.5L1118 1221.5C1111.1 1221.5 1105.5 1215.9 1105.5 1209Z" stroke="#2F528F" stroke-width="4.58333" stroke-miterlimit="8" fill="#AD6D5B" fill-rule="evenodd"/><rect x="1224.5" y="1221.5" width="18.0002" height="65.0004" stroke="#787878" stroke-width="4.58333" stroke-miterlimit="8" fill="#A5A5A5"/><path d="M1112.5 1288.83C1112.5 1287.54 1113.54 1286.5 1114.83 1286.5L1363.17 1286.5C1364.46 1286.5 1365.5 1287.54 1365.5 1288.83L1365.5 1298.17C1365.5 1299.46 1364.46 1300.5 1363.17 1300.5L1114.83 1300.5C1113.54 1300.5 1112.5 1299.46 1112.5 1298.17Z" stroke="#2F528F" stroke-width="4.58333" stroke-miterlimit="8" fill="#AD6D5B" fill-rule="evenodd"/><rect x="1165.5" y="1300.5" width="43" height="105" stroke="#000000" stroke-width="4.58333" stroke-miterlimit="8"/><rect x="1270.5" y="1300.5" width="43" height="105" stroke="#000000" stroke-width="4.58333" stroke-miterlimit="8"/><path d="M1322 1093.55C1334.55 1100.94 1347.1 1108.33 1357.43 1103.41 1367.76 1098.48 1384 1064 1384 1064L1384 1064" stroke="#2F528F" stroke-width="27.5" stroke-miterlimit="8" fill="none" fill-rule="evenodd"/><g clip-path="url(#clip49)"><g clip-path="url(#clip50)"><g clip-path="url(#clip51)"><path d="M43.2291 28.5312C43.2291 29.4862 42.4549 30.2604 41.4999 30.2604 40.5449 30.2604 39.7708 29.4862 39.7708 28.5312 39.7708 27.5762 40.5449 26.802 41.4999 26.802 42.4549 26.802 43.2291 27.5762 43.2291 28.5312Z" transform="matrix(1 0 0 1.01205 1089 634)"/><path d="M43.2291 63.1145C43.2291 64.0695 42.4549 64.8436 41.4999 64.8436 40.5449 64.8436 39.7708 64.0695 39.7708 63.1145 39.7708 62.1595 40.5449 61.3853 41.4999 61.3853 42.4549 61.3853 43.2291 62.1595 43.2291 63.1145Z" transform="matrix(1 0 0 1.01205 1089 634)"/><path d="M60.5207 44.9582C60.5207 45.9132 59.7465 46.6874 58.7916 46.6874 57.8366 46.6874 57.0624 45.9132 57.0624 44.9582 57.0624 44.0033 57.8366 43.2291 58.7916 43.2291 59.7465 43.2291 60.5207 44.0033 60.5207 44.9582Z" transform="matrix(1 0 0 1.01205 1089 634)"/><path d="M25.9374 44.9582C25.9374 45.9132 25.1633 46.6874 24.2083 46.6874 23.2533 46.6874 22.4791 45.9132 22.4791 44.9582 22.4791 44.0033 23.2533 43.2291 24.2083 43.2291 25.1633 43.2291 25.9374 44.0033 25.9374 44.9582Z" transform="matrix(1 0 0 1.01205 1089 634)"/><path d="M43.2291 32.8541 39.7708 32.8541 39.7708 44.9582C39.7708 45.3905 39.9437 45.8228 40.2895 46.1687L48.8489 54.728 51.2697 52.3072 43.2291 44.2666 43.2291 32.8541Z" transform="matrix(1 0 0 1.01205 1089 634)"/><path d="M41.4999 70.0311C28.0989 70.0311 17.2916 59.2238 17.2916 45.8228 17.2916 32.4218 28.0989 21.6145 41.4999 21.6145 54.9009 21.6145 65.7082 32.4218 65.7082 45.8228 65.7082 59.2238 54.9009 70.0311 41.4999 70.0311L41.4999 70.0311ZM61.9905 24.727 64.5842 22.1333C65.5353 21.0958 65.5353 19.5395 64.4978 18.502 63.5467 17.551 61.904 17.4646 60.8666 18.4156L57.927 21.4416C53.777 18.675 49.0218 16.9458 44.0937 16.6L44.0937 12.9687 51.8749 12.9687 51.8749 7.78123 31.1249 7.78123 31.1249 12.9687 38.9062 12.9687 38.9062 16.5135C25.1593 17.7239 14.0927 28.3583 12.3635 42.1051 10.6344 55.852 18.675 68.9072 31.7301 73.4894 44.7853 78.0717 59.2238 73.0572 66.5728 61.2988 73.9217 49.5405 71.8467 34.3239 61.9905 24.727L61.9905 24.727Z" transform="matrix(1 0 0 1.01205 1089 634)"/></g></g></g><text fill="#2C415C" font-family="Calibri,Calibri_MSFontService,sans-serif" font-weight="700" font-size="50" transform="matrix(1 0 0 1 1048.86 452)">Healthcare professional </text><text fill="#2C415C" font-family="Calibri,Calibri_MSFontService,sans-serif" font-weight="700" font-size="50" transform="matrix(1 0 0 1 1048.86 513)">w</text><text fill="#2C415C" font-family="Calibri,Calibri_MSFontService,sans-serif" font-weight="700" font-size="50" transform="matrix(1 0 0 1 1086.68 513)">rittes</text><text fill="#2C415C" font-family="Calibri,Calibri_MSFontService,sans-serif" font-weight="700" font-size="50" transform="matrix(1 0 0 1 1209.28 513)">the </text><text fill="#2C415C" font-family="Calibri,Calibri_MSFontService,sans-serif" font-weight="700" font-size="50" transform="matrix(1 0 0 1 1290.64 513)">message </text><text fill="#2C415C" font-family="Calibri,Calibri_MSFontService,sans-serif" font-weight="700" font-size="50" transform="matrix(1 0 0 1 1482.56 513)">text</text><text fill="#2C415C" font-family="Calibri,Calibri_MSFontService,sans-serif" font-weight="700" font-size="50" transform="matrix(1 0 0 1 351.272 478)">Healthcare professional  </text><text fill="#2C415C" font-family="Calibri,Calibri_MSFontService,sans-serif" font-weight="700" font-size="50" transform="matrix(1 0 0 1 351.272 539)">creates</text><text fill="#2C415C" font-family="Calibri,Calibri_MSFontService,sans-serif" font-weight="700" font-size="50" transform="matrix(1 0 0 1 514.553 539)">the </text><text fill="#2C415C" font-family="Calibri,Calibri_MSFontService,sans-serif" font-weight="700" font-size="50" transform="matrix(1 0 0 1 595.907 539)">attachment</text><g clip-path="url(#clip52)"><g clip-path="url(#clip53)"><g clip-path="url(#clip54)"><path d="M38.0208 25.0937C38.0208 25.9336 37.3399 26.6145 36.4999 26.6145 35.66 26.6145 34.9791 25.9336 34.9791 25.0937 34.9791 24.2538 35.66 23.5729 36.4999 23.5729 37.3399 23.5729 38.0208 24.2538 38.0208 25.0937Z" transform="matrix(1.0137 0 0 1 712 795)"/><path d="M38.0208 55.5103C38.0208 56.3503 37.3399 57.0311 36.4999 57.0311 35.66 57.0311 34.9791 56.3503 34.9791 55.5103 34.9791 54.6704 35.66 53.9895 36.4999 53.9895 37.3399 53.9895 38.0208 54.6704 38.0208 55.5103Z" transform="matrix(1.0137 0 0 1 712 795)"/><path d="M53.2291 39.5416C53.2291 40.3815 52.5482 41.0624 51.7082 41.0624 50.8683 41.0624 50.1874 40.3815 50.1874 39.5416 50.1874 38.7017 50.8683 38.0208 51.7082 38.0208 52.5482 38.0208 53.2291 38.7017 53.2291 39.5416Z" transform="matrix(1.0137 0 0 1 712 795)"/><path d="M22.8125 39.5416C22.8125 40.3815 22.1316 41.0624 21.2916 41.0624 20.4517 41.0624 19.7708 40.3815 19.7708 39.5416 19.7708 38.7017 20.4517 38.0208 21.2916 38.0208 22.1316 38.0208 22.8125 38.7017 22.8125 39.5416Z" transform="matrix(1.0137 0 0 1 712 795)"/><path d="M38.0208 28.8958 34.9791 28.8958 34.9791 39.5416C34.9791 39.9218 35.1312 40.302 35.4354 40.6062L42.9635 48.1343 45.0926 46.0051 38.0208 38.9333 38.0208 28.8958Z" transform="matrix(1.0137 0 0 1 712 795)"/><path d="M36.4999 61.5936C24.7135 61.5936 15.2083 52.0884 15.2083 40.302 15.2083 28.5156 24.7135 19.0104 36.4999 19.0104 48.2864 19.0104 57.7916 28.5156 57.7916 40.302 57.7916 52.0884 48.2864 61.5936 36.4999 61.5936L36.4999 61.5936ZM54.5218 21.7479 56.803 19.4666C57.6395 18.5541 57.6395 17.1854 56.727 16.2729 55.8905 15.4364 54.4457 15.3604 53.5332 16.1968L50.9478 18.8583C47.2978 16.425 43.1155 14.9041 38.7812 14.6L38.7812 11.4062 45.6249 11.4062 45.6249 6.84374 27.375 6.84374 27.375 11.4062 34.2187 11.4062 34.2187 14.5239C22.1281 15.5885 12.3948 24.9416 10.8739 37.0322 9.35311 49.1228 16.425 60.6051 27.9072 64.6353 39.3895 68.6655 52.0884 64.2551 58.552 53.9134 65.0155 43.5718 63.1905 30.1885 54.5218 21.7479L54.5218 21.7479Z" transform="matrix(1.0137 0 0 1 712 795)"/></g></g></g><text fill="#333333" font-family="Calibri,Calibri_MSFontService,sans-serif" font-weight="400" font-size="50" transform="matrix(1 0 0 1 1694.12 1920)">Communication.payload:attachment.</text><text fill="#333333" font-family="Calibri,Calibri_MSFontService,sans-serif" font-weight="400" font-size="50" transform="matrix(1 0 0 1 1694.12 1981)">extension:date</text><path d="M2029.15 1525 2029.15 1631.48 2026.85 1631.48 2026.85 1525ZM2041.75 1626.9 2028 1654.4 2014.25 1626.9Z" fill="#2C415C"/><text fill="#333333" font-family="Calibri,Calibri_MSFontService,sans-serif" font-weight="400" font-size="50" transform="matrix(1 0 0 1 246.231 1713)">Communication.payload:attachment</text><text fill="#333333" font-family="Calibri,Calibri_MSFontService,sans-serif" font-weight="400" font-size="50" transform="matrix(1 0 0 1 995.033 1713)">.</text><text fill="#333333" font-family="Calibri,Calibri_MSFontService,sans-serif" font-weight="400" font-size="50" transform="matrix(1 0 0 1 246.231 1774)">creatio</text><text fill="#333333" font-family="Calibri,Calibri_MSFontService,sans-serif" font-weight="400" font-size="50" transform="matrix(1 0 0 1 388.887 1774)">n</text><path d="M816 1013.85 1028.5 1013.85 1028.5 1016.15 816 1016.15ZM1023.91 1001.25 1051.41 1015 1023.91 1028.75Z" fill="#4472C4"/><path d="M1556 1022.85 1768.5 1022.85 1768.5 1025.15 1556 1025.15ZM1763.91 1010.25 1791.41 1024 1763.91 1037.75Z" fill="#4472C4"/><path d="M551.146 1453 551.146 1559.48 548.854 1559.48 548.854 1453ZM563.75 1554.9 550 1582.4 536.25 1554.9Z" fill="#2C415C"/><path d="M2472 1049.85 2684.5 1049.85 2684.5 1052.15 2472 1052.15ZM2679.91 1037.25 2707.41 1051 2679.91 1064.75Z" fill="#4472C4"/></g></svg>