<svg width="4057" height="1478" xmlns="http://www.w3.org/2000/svg" xmlns:xlink="http://www.w3.org/1999/xlink" xml:space="preserve" overflow="hidden"><defs><clipPath id="clip0"><rect x="149" y="182" width="4057" height="1478"/></clipPath><clipPath id="clip1"><rect x="1700" y="940" width="90" height="83"/></clipPath><clipPath id="clip2"><rect x="1700" y="940" width="90" height="83"/></clipPath><clipPath id="clip3"><rect x="1700" y="940" width="90" height="83"/></clipPath><clipPath id="clip4"><rect x="485" y="429" width="526" height="490"/></clipPath><clipPath id="clip5"><rect x="485" y="429" width="526" height="490"/></clipPath><clipPath id="clip6"><rect x="485" y="429" width="526" height="490"/></clipPath><clipPath id="clip7"><rect x="579" y="800" width="322" height="299"/></clipPath><clipPath id="clip8"><rect x="579" y="800" width="322" height="299"/></clipPath><clipPath id="clip9"><rect x="579" y="800" width="322" height="299"/></clipPath><clipPath id="clip10"><rect x="1349" y="444" width="527" height="489"/></clipPath><clipPath id="clip11"><rect x="1349" y="444" width="527" height="489"/></clipPath><clipPath id="clip12"><rect x="1349" y="444" width="527" height="489"/></clipPath><clipPath id="clip13"><rect x="2663" y="764" width="477" height="412"/></clipPath><clipPath id="clip14"><rect x="2663" y="764" width="477" height="412"/></clipPath><clipPath id="clip15"><rect x="2663" y="764" width="477" height="412"/></clipPath><clipPath id="clip16"><rect x="2937" y="847" width="142" height="124"/></clipPath><clipPath id="clip17"><rect x="2937" y="847" width="142" height="124"/></clipPath><clipPath id="clip18"><rect x="2937" y="847" width="142" height="124"/></clipPath><clipPath id="clip19"><rect x="2719" y="929" width="144" height="134"/></clipPath><clipPath id="clip20"><rect x="2719" y="929" width="144" height="134"/></clipPath><clipPath id="clip21"><rect x="2719" y="929" width="144" height="134"/></clipPath><clipPath id="clip22"><rect x="3754" y="826" width="144" height="126"/></clipPath><clipPath id="clip23"><rect x="3754" y="826" width="144" height="126"/></clipPath><clipPath id="clip24"><rect x="3754" y="826" width="144" height="126"/></clipPath><clipPath id="clip25"><rect x="3482" y="753" width="495" height="433"/></clipPath><clipPath id="clip26"><rect x="3482" y="753" width="495" height="433"/></clipPath><clipPath id="clip27"><rect x="3482" y="753" width="495" height="433"/></clipPath><clipPath id="clip28"><rect x="3534" y="915" width="134" height="125"/></clipPath><clipPath id="clip29"><rect x="3534" y="915" width="134" height="125"/></clipPath><clipPath id="clip30"><rect x="3534" y="915" width="134" height="125"/></clipPath></defs><g clip-path="url(#clip0)" transform="translate(-149 -182)"><path d="M151.5 430.004C151.5 294.416 261.416 184.5 397.004 184.5L2171 184.5C2306.58 184.5 2416.5 294.416 2416.5 430.004L2416.5 1412C2416.5 1547.58 2306.58 1657.5 2171 1657.5L397.004 1657.5C261.416 1657.5 151.5 1547.58 151.5 1412Z" stroke="#2F528F" stroke-width="4.58333" stroke-miterlimit="8" stroke-dasharray="18.3333 13.75" fill="#E2F0D9" fill-rule="evenodd"/><path d="M2545.5 719.004C2545.5 619.867 2625.87 539.5 2725 539.5L4024 539.5C4123.13 539.5 4203.5 619.867 4203.5 719.004L4203.5 1437C4203.5 1536.13 4123.13 1616.5 4024 1616.5L2725 1616.5C2625.87 1616.5 2545.5 1536.13 2545.5 1437Z" stroke="#2F528F" stroke-width="4.58333" stroke-miterlimit="8" stroke-dasharray="18.3333 13.75" fill="#DFE7F5" fill-rule="evenodd"/><g clip-path="url(#clip1)"><g clip-path="url(#clip2)"><g clip-path="url(#clip3)"><path d="M41.4999 20.75C40.0349 20.783 38.8738 21.9971 38.9062 23.4622L38.9062 31.1249C38.9062 32.5575 40.0674 33.7187 41.4999 33.7187 42.9324 33.7187 44.0937 32.5575 44.0937 31.1249L44.0937 23.4622C44.126 21.9971 42.965 20.783 41.4999 20.75Z" transform="matrix(1.07229 0 0 1 1701 940)"/><path d="M62.4228 53.3767C61.8426 48.7473 61.5126 44.0899 61.4346 39.4249 61.4346 35.6208 61.6075 32.0362 61.8591 28.8217 62.7371 18.1255 54.7778 8.74274 44.0816 7.86474 43.8303 7.84412 43.5787 7.82838 43.3268 7.81755 42.7089 7.79334 42.0792 7.78123 41.4377 7.78123 40.7962 7.78123 40.1665 7.79334 39.5486 7.81755 28.8263 8.27876 20.508 17.3448 20.9693 28.067 20.9801 28.318 20.9958 28.5687 21.0163 28.8191 21.2687 32.0336 21.4416 35.6208 21.4416 39.4249 21.3625 44.0908 21.0315 48.7491 20.4499 53.3793 19.1257 64.5095 27.075 74.6059 38.2052 75.9302 38.7141 75.9907 39.225 76.0319 39.737 76.0538 40.2938 76.0728 40.8607 76.0826 41.4377 76.0832 42.0146 76.0838 42.5821 76.0739 43.14 76.0538 54.338 75.5739 63.0267 66.107 62.5468 54.9091 62.5248 54.3969 62.4835 53.8857 62.4228 53.3767ZM47.552 31.1249C47.5644 33.8305 45.8111 36.2279 43.2291 37.0361L43.2291 50.1457C43.2291 51.1007 42.4549 51.8749 41.4999 51.8749 40.5449 51.8749 39.7708 51.1007 39.7708 50.1457L39.7708 37.0361C37.1891 36.2274 35.4361 33.8303 35.4478 31.1249L35.4478 23.463C35.4351 20.7571 37.1884 18.3593 39.7708 17.551L39.7708 12.9687C39.7708 12.0137 40.5449 11.2396 41.4999 11.2396 42.4549 11.2396 43.2291 12.0137 43.2291 12.9687L43.2291 17.551C45.8111 18.3598 47.5642 20.7573 47.552 23.463Z" transform="matrix(1.07229 0 0 1 1701 940)"/></g></g></g><g clip-path="url(#clip4)"><g clip-path="url(#clip5)"><g clip-path="url(#clip6)"><path d="M417.688 326 71.3125 326 71.3125 101.875 417.688 101.875 417.688 326ZM427.875 71.3125 61.125 71.3125C49.9188 71.3125 40.75 80.4813 40.75 91.6875L40.75 336.188C40.75 347.394 49.9188 356.563 61.125 356.563L203.75 356.563 203.75 387.125 152.813 387.125 152.813 417.688 336.188 417.688 336.188 387.125 285.25 387.125 285.25 356.563 427.875 356.563C439.081 356.563 448.25 347.394 448.25 336.188L448.25 91.6875C448.25 80.4813 439.081 71.3125 427.875 71.3125Z" transform="matrix(1.07566 0 0 1 485 429)"/></g></g></g><rect x="672.5" y="561.5" width="142" height="179" stroke="#000000" stroke-width="4.58333" stroke-miterlimit="8" fill="#FFFFFF"/><path d="M687 591 747.846 591" stroke="#333333" stroke-width="2.29167" stroke-miterlimit="8" fill="none" fill-rule="evenodd"/><path d="M687 613 793.111 613" stroke="#333333" stroke-width="2.29167" stroke-miterlimit="8" fill="none" fill-rule="evenodd"/><path d="M687 631 793.111 631" stroke="#333333" stroke-width="2.29167" stroke-miterlimit="8" fill="none" fill-rule="evenodd"/><path d="M687 649 793.111 649" stroke="#333333" stroke-width="2.29167" stroke-miterlimit="8" fill="none" fill-rule="evenodd"/><path d="M687 665 793.111 665.001" stroke="#333333" stroke-width="2.29167" stroke-miterlimit="8" fill="none" fill-rule="evenodd"/><path d="M687 681 793.111 681" stroke="#333333" stroke-width="2.29167" stroke-miterlimit="8" fill="none" fill-rule="evenodd"/><path d="M687 699 775.983 699" stroke="#333333" stroke-width="2.29167" stroke-miterlimit="8" fill="none" fill-rule="evenodd"/><text font-family="Arial,Arial_MSFontService,sans-serif" font-weight="400" font-size="14" transform="matrix(1 0 0 1 759.706 586)">20</text><text font-family="Arial,Arial_MSFontService,sans-serif" font-weight="400" font-size="14" transform="matrix(1 0 0 1 774.602 586)">-</text><text font-family="Arial,Arial_MSFontService,sans-serif" font-weight="400" font-size="14" transform="matrix(1 0 0 1 779.185 586)">10</text><text font-family="Arial,Arial_MSFontService,sans-serif" font-weight="400" font-size="14" transform="matrix(1 0 0 1 794.081 586)">-</text><text font-family="Arial,Arial_MSFontService,sans-serif" font-weight="400" font-size="14" transform="matrix(1 0 0 1 798.664 586)">22</text><g clip-path="url(#clip7)"><g clip-path="url(#clip8)"><g clip-path="url(#clip9)"><path d="M279.394 86.9167 18.6436 86.9167C11.7861 86.9167 6.22696 92.4759 6.22696 99.3333L6.22696 198.667C6.22696 205.524 11.7861 211.083 18.6436 211.083L279.394 211.083C286.251 211.083 291.81 205.524 291.81 198.667L291.81 99.3333C291.81 92.4759 286.251 86.9167 279.394 86.9167ZM155.227 108.646 173.852 108.646 173.852 127.271 155.227 127.271ZM155.227 139.688 173.852 139.688 173.852 158.313 155.227 158.313ZM124.185 108.646 142.81 108.646 142.81 127.271 124.185 127.271ZM124.185 139.688 142.81 139.688 142.81 158.313 124.185 158.313ZM93.1436 108.646 111.769 108.646 111.769 127.271 93.1436 127.271ZM93.1436 139.688 111.769 139.688 111.769 158.313 93.1436 158.313ZM49.6853 189.354 31.0603 189.354 31.0603 170.729 49.6853 170.729ZM49.6853 158.313 31.0603 158.313 31.0603 139.688 49.6853 139.688ZM49.6853 127.271 31.0603 127.271 31.0603 108.646 49.6853 108.646ZM80.727 189.354 62.102 189.354 62.102 170.729 80.727 170.729ZM80.727 158.313 62.102 158.313 62.102 139.688 80.727 139.688ZM80.727 127.271 62.102 127.271 62.102 108.646 80.727 108.646ZM204.894 189.354 93.1436 189.354 93.1436 170.729 204.894 170.729ZM204.894 158.313 186.269 158.313 186.269 139.688 204.894 139.688ZM204.894 127.271 186.269 127.271 186.269 108.646 204.894 108.646ZM235.935 189.354 217.31 189.354 217.31 170.729 235.935 170.729ZM235.935 158.313 217.31 158.313 217.31 139.688 235.935 139.688ZM235.935 127.271 217.31 127.271 217.31 108.646 235.935 108.646ZM266.977 189.354 248.352 189.354 248.352 170.729 266.977 170.729ZM266.977 158.313 248.352 158.313 248.352 139.688 266.977 139.688ZM266.977 127.271 248.352 127.271 248.352 108.646 266.977 108.646Z" transform="matrix(1.07718 0 0 1 580 801)"/></g></g></g><path d="M614.5 841C614.5 795.437 650.765 758.5 695.5 758.5 740.235 758.5 776.5 795.437 776.5 841 776.5 886.564 740.235 923.5 695.5 923.5 650.765 923.5 614.5 886.564 614.5 841Z" stroke="#000000" stroke-width="4.58333" stroke-miterlimit="8" fill="#FBE5D6" fill-rule="evenodd"/><path d="M614.5 955.5C614.5 940.588 626.589 928.5 641.501 928.5L749.5 928.5C764.411 928.5 776.5 940.588 776.5 955.5L776.5 1157.5C776.5 1172.41 764.411 1184.5 749.5 1184.5L641.501 1184.5C626.589 1184.5 614.5 1172.41 614.5 1157.5Z" stroke="#2F528F" stroke-width="4.58333" stroke-miterlimit="8" fill="#4472C4" fill-rule="evenodd"/><path d="M580.5 1058.33C580.5 1051.25 586.246 1045.5 593.334 1045.5L801.666 1045.5C808.754 1045.5 814.5 1051.25 814.5 1058.33L814.5 1109.67C814.5 1116.75 808.754 1122.5 801.666 1122.5L593.334 1122.5C586.246 1122.5 580.5 1116.75 580.5 1109.67Z" stroke="#2F528F" stroke-width="4.58333" stroke-miterlimit="8" fill="#AD6D5B" fill-rule="evenodd"/><rect x="687.5" y="1122.5" width="16.0002" height="68.0001" stroke="#787878" stroke-width="4.58333" stroke-miterlimit="8" fill="#A5A5A5"/><path d="M586.5 1192C586.5 1190.62 587.619 1189.5 589 1189.5L812 1189.5C813.38 1189.5 814.5 1190.62 814.5 1192L814.5 1202C814.5 1203.38 813.38 1204.5 812 1204.5L589 1204.5C587.619 1204.5 586.5 1203.38 586.5 1202Z" stroke="#2F528F" stroke-width="4.58333" stroke-miterlimit="8" fill="#AD6D5B" fill-rule="evenodd"/><rect x="634.5" y="1204.5" width="37.9998" height="108" stroke="#000000" stroke-width="4.58333" stroke-miterlimit="8"/><rect x="729.5" y="1204.5" width="38.0002" height="108" stroke="#000000" stroke-width="4.58333" stroke-miterlimit="8"/><path d="M775 991.554C786.333 998.943 797.667 1006.33 807 1001.41 816.333 996.48 831 962 831 962L831 962" stroke="#2F528F" stroke-width="27.5" stroke-miterlimit="8" fill="none" fill-rule="evenodd"/><g clip-path="url(#clip10)"><g clip-path="url(#clip11)"><g clip-path="url(#clip12)"><path d="M417.687 326 71.3125 326 71.3125 101.875 417.687 101.875 417.687 326ZM427.875 71.3125 61.125 71.3125C49.9187 71.3125 40.75 80.4812 40.75 91.6875L40.75 336.187C40.75 347.394 49.9187 356.562 61.125 356.562L203.75 356.562 203.75 387.125 152.812 387.125 152.812 417.687 336.187 417.687 336.187 387.125 285.25 387.125 285.25 356.562 427.875 356.562C439.081 356.562 448.25 347.394 448.25 336.187L448.25 91.6875C448.25 80.4812 439.081 71.3125 427.875 71.3125Z" transform="matrix(1.07566 0 0 1 1350 444)"/></g></g></g><rect x="1538.5" y="577.5" width="141" height="178" stroke="#000000" stroke-width="4.58333" stroke-miterlimit="8" fill="#FFFFFF"/><path d="M1552 606 1612.85 606" stroke="#333333" stroke-width="2.29167" stroke-miterlimit="8" fill="none" fill-rule="evenodd"/><path d="M1552 629 1658.11 629" stroke="#333333" stroke-width="2.29167" stroke-miterlimit="8" fill="none" fill-rule="evenodd"/><path d="M1552 647 1658.11 647" stroke="#333333" stroke-width="2.29167" stroke-miterlimit="8" fill="none" fill-rule="evenodd"/><path d="M1552 664 1658.11 664" stroke="#333333" stroke-width="2.29167" stroke-miterlimit="8" fill="none" fill-rule="evenodd"/><path d="M1552 681 1658.11 681" stroke="#333333" stroke-width="2.29167" stroke-miterlimit="8" fill="none" fill-rule="evenodd"/><path d="M1552 697 1658.11 697" stroke="#333333" stroke-width="2.29167" stroke-miterlimit="8" fill="none" fill-rule="evenodd"/><path d="M1552 715 1640.98 715" stroke="#333333" stroke-width="2.29167" stroke-miterlimit="8" fill="none" fill-rule="evenodd"/><text font-family="Arial,Arial_MSFontService,sans-serif" font-weight="400" font-size="14" transform="matrix(1 0 0 1 1624.92 602)">20</text><text font-family="Arial,Arial_MSFontService,sans-serif" font-weight="400" font-size="14" transform="matrix(1 0 0 1 1639.82 602)">-</text><text font-family="Arial,Arial_MSFontService,sans-serif" font-weight="400" font-size="14" transform="matrix(1 0 0 1 1644.4 602)">10</text><text font-family="Arial,Arial_MSFontService,sans-serif" font-weight="400" font-size="14" transform="matrix(1 0 0 1 1659.3 602)">-</text><text font-family="Arial,Arial_MSFontService,sans-serif" font-weight="400" font-size="14" transform="matrix(1 0 0 1 1663.88 602)">22</text><path d="M1704.5 707.5C1704.5 705.291 1706.29 703.5 1708.5 703.5L1779.5 703.5C1781.71 703.5 1783.5 705.291 1783.5 707.5L1783.5 723.5C1783.5 725.709 1781.71 727.5 1779.5 727.5L1708.5 727.5C1706.29 727.5 1704.5 725.709 1704.5 723.5Z" stroke="#4472C4" stroke-width="4.58333" stroke-miterlimit="8" fill="#4472C4" fill-rule="evenodd"/><text font-family="Arial,Arial_MSFontService,sans-serif" font-weight="700" font-size="32" transform="matrix(1 0 0 1 1707.41 730)">SEND</text><path d="M1742.26 755.484 1736.46 745.423 1738.44 744.278 1744.25 754.339ZM1727.83 755.691 1726 725 1751.65 741.95Z" fill="#A5A5A5"/><path d="M1523.5 867C1523.5 821.436 1559.76 784.5 1604.5 784.5 1649.23 784.5 1685.5 821.436 1685.5 867 1685.5 912.563 1649.23 949.5 1604.5 949.5 1559.76 949.5 1523.5 912.563 1523.5 867Z" stroke="#000000" stroke-width="4.58333" stroke-miterlimit="8" fill="#FBE5D6" fill-rule="evenodd"/><path d="M1523.5 981.501C1523.5 966.589 1535.59 954.5 1550.5 954.5L1658.5 954.5C1673.41 954.5 1685.5 966.589 1685.5 981.501L1685.5 1184.5C1685.5 1199.41 1673.41 1211.5 1658.5 1211.5L1550.5 1211.5C1535.59 1211.5 1523.5 1199.41 1523.5 1184.5Z" stroke="#2F528F" stroke-width="4.58333" stroke-miterlimit="8" fill="#4472C4" fill-rule="evenodd"/><path d="M1488.5 1085.33C1488.5 1078.25 1494.25 1072.5 1501.33 1072.5L1710.67 1072.5C1717.75 1072.5 1723.5 1078.25 1723.5 1085.33L1723.5 1136.67C1723.5 1143.75 1717.75 1149.5 1710.67 1149.5L1501.33 1149.5C1494.25 1149.5 1488.5 1143.75 1488.5 1136.67Z" stroke="#2F528F" stroke-width="4.58333" stroke-miterlimit="8" fill="#AD6D5B" fill-rule="evenodd"/><rect x="1596.5" y="1149.5" width="16.0001" height="67" stroke="#787878" stroke-width="4.58333" stroke-miterlimit="8" fill="#A5A5A5"/><path d="M1494.5 1219C1494.5 1217.62 1495.62 1216.5 1497 1216.5L1721 1216.5C1722.38 1216.5 1723.5 1217.62 1723.5 1219L1723.5 1229C1723.5 1230.38 1722.38 1231.5 1721 1231.5L1497 1231.5C1495.62 1231.5 1494.5 1230.38 1494.5 1229Z" stroke="#2F528F" stroke-width="4.58333" stroke-miterlimit="8" fill="#AD6D5B" fill-rule="evenodd"/><rect x="1543.5" y="1231.5" width="38.0001" height="108" stroke="#000000" stroke-width="4.58333" stroke-miterlimit="8"/><rect x="1637.5" y="1231.5" width="37.9998" height="108" stroke="#000000" stroke-width="4.58333" stroke-miterlimit="8"/><path d="M1684 1017.55C1695.33 1024.94 1706.67 1032.33 1716 1027.41 1725.33 1022.48 1740 988 1740 988L1740 988" stroke="#2F528F" stroke-width="27.5" stroke-miterlimit="8" fill="none" fill-rule="evenodd"/><g clip-path="url(#clip13)"><g clip-path="url(#clip14)"><g clip-path="url(#clip15)"><path d="M351.917 274.667 60.0833 274.667 60.0833 85.8333 351.917 85.8333 351.917 274.667ZM360.5 60.0833 51.5 60.0833C42.0583 60.0833 34.3333 67.8083 34.3333 77.25L34.3333 283.25C34.3333 292.691 42.0583 300.417 51.5 300.417L171.667 300.417 171.667 326.167 128.75 326.167 128.75 351.917 283.25 351.917 283.25 326.167 240.333 326.167 240.333 300.417 360.5 300.417C369.941 300.417 377.666 292.691 377.666 283.25L377.666 77.25C377.666 67.8083 369.941 60.0833 360.5 60.0833Z" transform="matrix(1.15534 0 0 1 2663 764)"/></g></g></g><g clip-path="url(#clip16)"><g clip-path="url(#clip17)"><g clip-path="url(#clip18)"><path d="M44.7157 33.3125 78.0282 33.3125 78.0282 38.4375 44.7157 38.4375Z" transform="matrix(1.15447 0 0 1 2937 847)"/><path d="M44.7157 43.5625 78.0282 43.5625 78.0282 48.6875 44.7157 48.6875Z" transform="matrix(1.15447 0 0 1 2937 847)"/><path d="M44.7157 53.8125 78.0282 53.8125 78.0282 58.9375 44.7157 58.9375Z" transform="matrix(1.15447 0 0 1 2937 847)"/><path d="M106.344 107.113 80.7188 82.7688 106.344 58.425 106.344 107.113ZM23.3188 110.188 48.6875 86.2282 50.4813 84.5625C57.4 78.0282 68.2907 78.0282 75.2094 84.5625L77.0032 86.2282 102.244 110.188 23.3188 110.188ZM19.2188 58.2969 44.8438 82.6407 19.2188 106.984 19.2188 58.2969ZM37.1563 25.625 88.4063 25.625 88.4063 68.2907 76.875 79.3094C68.5469 72.9032 57.0157 72.9032 48.6875 79.3094L37.1563 68.2907 37.1563 25.625ZM96.0938 29.0844 96.0938 17.9375 78.1563 17.9375 62.7813 5.125 47.4063 17.9375 29.4688 17.9375 29.4688 29.2125 11.5313 46.2531 11.5313 117.875 114.031 117.875 114.031 46.2531 96.0938 29.0844Z" transform="matrix(1.15447 0 0 1 2937 847)"/></g></g></g><g clip-path="url(#clip19)"><g clip-path="url(#clip20)"><g clip-path="url(#clip21)"><path d="M69.7915 46.0624C69.7915 47.6042 68.5416 48.8541 66.9999 48.8541 65.4581 48.8541 64.2082 47.6042 64.2082 46.0624 64.2082 44.5206 65.4581 43.2707 66.9999 43.2707 68.5416 43.2707 69.7915 44.5206 69.7915 46.0624Z" transform="matrix(1.06717 0 0 1 2719 929)"/><path d="M69.7915 101.896C69.7915 103.437 68.5416 104.687 66.9999 104.687 65.4581 104.687 64.2082 103.437 64.2082 101.896 64.2082 100.354 65.4581 99.104 66.9999 99.104 68.5416 99.104 69.7915 100.354 69.7915 101.896Z" transform="matrix(1.06717 0 0 1 2719 929)"/><path d="M97.7081 72.5832C97.7081 74.125 96.4583 75.3748 94.9165 75.3748 93.3747 75.3748 92.1248 74.125 92.1248 72.5832 92.1248 71.0414 93.3747 69.7915 94.9165 69.7915 96.4583 69.7915 97.7081 71.0414 97.7081 72.5832Z" transform="matrix(1.06717 0 0 1 2719 929)"/><path d="M41.8749 72.5832C41.8749 74.125 40.625 75.3748 39.0832 75.3748 37.5415 75.3748 36.2916 74.125 36.2916 72.5832 36.2916 71.0414 37.5415 69.7915 39.0832 69.7915 40.625 69.7915 41.8749 71.0414 41.8749 72.5832Z" transform="matrix(1.06717 0 0 1 2719 929)"/><path d="M69.7915 53.0415 64.2082 53.0415 64.2082 72.5832C64.2082 73.2811 64.4874 73.979 65.0457 74.5373L78.8644 88.3561 82.7727 84.4477 69.7915 71.4665 69.7915 53.0415Z" transform="matrix(1.06717 0 0 1 2719 929)"/><path d="M66.9999 113.062C45.3645 113.062 27.9166 95.6144 27.9166 73.979 27.9166 52.3436 45.3645 34.8958 66.9999 34.8958 88.6352 34.8958 106.083 52.3436 106.083 73.979 106.083 95.6144 88.6352 113.062 66.9999 113.062L66.9999 113.062ZM100.081 39.9207 104.269 35.7333C105.804 34.0583 105.804 31.5458 104.129 29.8708 102.594 28.3354 99.9414 28.1958 98.2665 29.7312L93.5206 34.6166C86.8206 30.1499 79.1436 27.3583 71.1873 26.7999L71.1873 20.9375 83.7498 20.9375 83.7498 12.5625 50.2499 12.5625 50.2499 20.9375 62.8124 20.9375 62.8124 26.6604C40.6187 28.6145 22.752 45.7832 19.9604 67.9769 17.1687 90.1706 30.1499 111.248 51.227 118.646 72.304 126.043 95.6144 117.948 107.479 98.9644 119.343 79.9811 115.993 55.4145 100.081 39.9207L100.081 39.9207Z" transform="matrix(1.06717 0 0 1 2719 929)"/></g></g></g><text fill="#333333" font-family="Calibri,Calibri_MSFontService,sans-serif" font-weight="400" font-size="50" transform="matrix(1 0 0 1 2702.5 1356)">Bundle.timestamp</text><g clip-path="url(#clip22)"><g clip-path="url(#clip23)"><g clip-path="url(#clip24)"><path d="M10.4167 26.0417 10.4167 98.9584 114.583 98.9584 114.583 26.0417 10.4167 26.0417ZM64.323 71.4845C63.2813 72.5261 61.7188 72.5261 60.6771 71.4845L22.1354 33.8542 102.995 33.8542 64.323 71.4845ZM43.6198 62.1094 18.2292 87.6303 18.2292 37.2396 43.6198 62.1094ZM47.3959 65.7553 57.1615 75.2605C58.724 76.6928 60.6771 77.474 62.6303 77.474 64.5834 77.474 66.5365 76.6928 68.099 75.2605L77.8647 65.7553 103.125 91.1459 22.0052 91.1459 47.3959 65.7553ZM81.3803 62.1094 106.771 37.3698 106.771 87.5001 81.3803 62.1094Z" transform="matrix(1.144 0 0 1 3754 826)"/></g></g></g><g clip-path="url(#clip25)"><g clip-path="url(#clip26)"><g clip-path="url(#clip27)"><path d="M369 288 63 288 63 90 369 90 369 288ZM378 63 54 63C44.1 63 36 71.1 36 81L36 297C36 306.9 44.1 315 54 315L180 315 180 342 135 342 135 369 297 369 297 342 252 342 252 315 378 315C387.9 315 396 306.9 396 297L396 81C396 71.1 387.9 63 378 63Z" transform="matrix(1.1412 0 0 1 3483 754)"/></g></g></g><g clip-path="url(#clip28)"><g clip-path="url(#clip29)"><g clip-path="url(#clip30)"><path d="M65.104 42.9687C65.104 44.4069 63.9381 45.5728 62.4999 45.5728 61.0616 45.5728 59.8957 44.4069 59.8957 42.9687 59.8957 41.5304 61.0616 40.3645 62.4999 40.3645 63.9381 40.3645 65.104 41.5304 65.104 42.9687Z" transform="matrix(1.064 0 0 1 3534 915)"/><path d="M65.104 95.0519C65.104 96.4902 63.9381 97.6561 62.4999 97.6561 61.0616 97.6561 59.8957 96.4902 59.8957 95.0519 59.8957 93.6137 61.0616 92.4478 62.4999 92.4478 63.9381 92.4478 65.104 93.6137 65.104 95.0519Z" transform="matrix(1.064 0 0 1 3534 915)"/><path d="M91.1457 67.7082C91.1457 69.1464 89.9797 70.3124 88.5415 70.3124 87.1033 70.3124 85.9373 69.1464 85.9373 67.7082 85.9373 66.27 87.1033 65.104 88.5415 65.104 89.9797 65.104 91.1457 66.27 91.1457 67.7082Z" transform="matrix(1.064 0 0 1 3534 915)"/><path d="M39.0624 67.7082C39.0624 69.1464 37.8965 70.3124 36.4583 70.3124 35.02 70.3124 33.8541 69.1464 33.8541 67.7082 33.8541 66.27 35.02 65.104 36.4583 65.104 37.8965 65.104 39.0624 66.27 39.0624 67.7082Z" transform="matrix(1.064 0 0 1 3534 915)"/><path d="M65.104 49.4791 59.8957 49.4791 59.8957 67.7082C59.8957 68.3593 60.1561 69.0103 60.677 69.5311L73.5676 82.4217 77.2134 78.7759 65.104 66.6665 65.104 49.4791Z" transform="matrix(1.064 0 0 1 3534 915)"/><path d="M62.4999 105.469C42.3176 105.469 26.0416 89.1926 26.0416 69.0103 26.0416 48.828 42.3176 32.552 62.4999 32.552 82.6821 32.552 98.9582 48.828 98.9582 69.0103 98.9582 89.1926 82.6821 105.469 62.4999 105.469L62.4999 105.469ZM93.3592 37.2395 97.2654 33.3333C98.6977 31.7708 98.6977 29.427 97.1352 27.8645 95.7029 26.4322 93.229 26.302 91.6665 27.7343L87.2394 32.2916C80.9894 28.125 73.828 25.5208 66.4061 25L66.4061 19.5312 78.1249 19.5312 78.1249 11.7187 46.8749 11.7187 46.8749 19.5312 58.5936 19.5312 58.5936 24.8697C37.8906 26.6927 21.2239 42.7083 18.6198 63.4113 16.0156 84.1144 28.125 103.776 47.7864 110.677 67.4478 117.578 89.1926 110.026 100.26 92.3175 111.328 74.6092 108.203 51.6926 93.3592 37.2395L93.3592 37.2395Z" transform="matrix(1.064 0 0 1 3534 915)"/></g></g></g><text fill="#333333" font-family="Arial,Arial_MSFontService,sans-serif" font-weight="400" font-size="46" transform="matrix(1 0 0 1 3500.8 1333)">Provenance.recorded</text><text fill="#333333" font-family="Arial,Arial_MSFontService,sans-serif" font-weight="400" font-size="46" transform="matrix(1 0 0 1 3503.56 1424)">Provenance.occuredDateTim</text><text fill="#333333" font-family="Arial,Arial_MSFontService,sans-serif" font-weight="400" font-size="46" transform="matrix(1 0 0 1 3786.31 1479)">e</text><path d="M3726.15 1135 3726.15 1228.89 3723.85 1228.89 3723.85 1135ZM3738.75 1224.31 3725 1251.81 3711.25 1224.31Z" fill="#2C415C"/><path d="M2895.15 1142 2895.15 1235.89 2892.85 1235.89 2892.85 1142ZM2907.75 1231.31 2894 1258.81 2880.25 1231.31Z" fill="#2C415C"/><path d="M1605.15 1353 1605.15 1446.89 1602.85 1446.89 1602.85 1353ZM1617.75 1442.31 1604 1469.81 1590.25 1442.31Z" fill="#2C415C"/><path d="M982 1001.85 1187.96 1001.85 1187.96 1004.15 982 1004.15ZM1183.38 989.25 1210.88 1003 1183.38 1016.75Z" fill="#4472C4"/><path d="M2353 977.854 2558.96 977.854 2558.96 980.146 2353 980.146ZM2554.38 965.25 2581.88 979 2554.38 992.75Z" fill="#4472C4"/><path d="M3161 968.854 3366.96 968.855 3366.96 971.146 3161 971.146ZM3362.38 956.25 3389.88 970 3362.38 983.75Z" fill="#4472C4"/><text fill="#2C415C" font-family="Calibri,Calibri_MSFontService,sans-serif" font-weight="700" font-size="50" transform="matrix(1 0 0 1 517.616 356)">Healthcare </text><text fill="#2C415C" font-family="Calibri,Calibri_MSFontService,sans-serif" font-weight="700" font-size="50" transform="matrix(1 0 0 1 757.095 356)">professional</text><text fill="#2C415C" font-family="Calibri,Calibri_MSFontService,sans-serif" font-weight="700" font-size="50" transform="matrix(1 0 0 1 517.616 417)">writes</text><text fill="#2C415C" font-family="Calibri,Calibri_MSFontService,sans-serif" font-weight="700" font-size="50" transform="matrix(1 0 0 1 660.272 417)">the message </text><text fill="#333333" font-family="Calibri,Calibri_MSFontService,sans-serif" font-weight="400" font-size="50" transform="matrix(1 0 0 1 1151.54 1510)">Communication.payload:string.extension:</text><text fill="#333333" font-family="Calibri,Calibri_MSFontService,sans-serif" font-weight="400" font-size="50" transform="matrix(1 0 0 1 1151.54 1571)">date</text><text fill="#2C415C" font-family="Arial,Arial_MSFontService,sans-serif" font-weight="700" font-size="50" transform="matrix(1 0 0 1 2609.87 759)">CareCommunication</text><text fill="#2C415C" font-family="Arial,Arial_MSFontService,sans-serif" font-weight="700" font-size="50" transform="matrix(1 0 0 1 3116.9 759)">created</text><text fill="#2C415C" font-family="Arial,Arial_MSFontService,sans-serif" font-weight="700" font-size="50" transform="matrix(1 0 0 1 3445.87 750)">CareCommunication</text><text fill="#2C415C" font-family="Arial,Arial_MSFontService,sans-serif" font-weight="700" font-size="50" transform="matrix(1 0 0 1 3952.91 750)">sent </text><text fill="#2C415C" font-family="Calibri,Calibri_MSFontService,sans-serif" font-weight="700" font-size="50" transform="matrix(1 0 0 1 1340.26 356)">Healthcare professional </text><text fill="#2C415C" font-family="Calibri,Calibri_MSFontService,sans-serif" font-weight="700" font-size="50" transform="matrix(1 0 0 1 1340.26 417)">presses send </text><text fill="#2C415C" font-family="Calibri,Calibri_MSFontService,sans-serif" font-weight="700" font-size="50" transform="matrix(1 0 0 1 1617.55 417)">button</text></g></svg>