<svg width="4057" height="1437" xmlns="http://www.w3.org/2000/svg" xmlns:xlink="http://www.w3.org/1999/xlink" xml:space="preserve" overflow="hidden"><defs><clipPath id="clip0"><rect x="149" y="182" width="4057" height="1437"/></clipPath><clipPath id="clip1"><rect x="2049" y="866" width="90" height="85"/></clipPath><clipPath id="clip2"><rect x="2049" y="866" width="90" height="85"/></clipPath><clipPath id="clip3"><rect x="2049" y="866" width="90" height="85"/></clipPath><clipPath id="clip4"><rect x="1303" y="863" width="90" height="83"/></clipPath><clipPath id="clip5"><rect x="1303" y="863" width="90" height="83"/></clipPath><clipPath id="clip6"><rect x="1303" y="863" width="90" height="83"/></clipPath><clipPath id="clip7"><rect x="953" y="356" width="527" height="489"/></clipPath><clipPath id="clip8"><rect x="953" y="356" width="527" height="489"/></clipPath><clipPath id="clip9"><rect x="953" y="356" width="527" height="489"/></clipPath><clipPath id="clip10"><rect x="227" y="359" width="527" height="490"/></clipPath><clipPath id="clip11"><rect x="227" y="359" width="527" height="490"/></clipPath><clipPath id="clip12"><rect x="227" y="359" width="527" height="490"/></clipPath><clipPath id="clip13"><rect x="323" y="731" width="321" height="299"/></clipPath><clipPath id="clip14"><rect x="323" y="731" width="321" height="299"/></clipPath><clipPath id="clip15"><rect x="323" y="731" width="321" height="299"/></clipPath><clipPath id="clip16"><rect x="1039" y="458" width="71" height="66"/></clipPath><clipPath id="clip17"><rect x="1039" y="458" width="71" height="66"/></clipPath><clipPath id="clip18"><rect x="1039" y="458" width="71" height="66"/></clipPath><clipPath id="clip19"><rect x="1711" y="371" width="528" height="490"/></clipPath><clipPath id="clip20"><rect x="1711" y="371" width="528" height="490"/></clipPath><clipPath id="clip21"><rect x="1711" y="371" width="528" height="490"/></clipPath><clipPath id="clip22"><rect x="2663" y="764" width="477" height="412"/></clipPath><clipPath id="clip23"><rect x="2663" y="764" width="477" height="412"/></clipPath><clipPath id="clip24"><rect x="2663" y="764" width="477" height="412"/></clipPath><clipPath id="clip25"><rect x="2937" y="847" width="142" height="124"/></clipPath><clipPath id="clip26"><rect x="2937" y="847" width="142" height="124"/></clipPath><clipPath id="clip27"><rect x="2937" y="847" width="142" height="124"/></clipPath><clipPath id="clip28"><rect x="2719" y="929" width="144" height="134"/></clipPath><clipPath id="clip29"><rect x="2719" y="929" width="144" height="134"/></clipPath><clipPath id="clip30"><rect x="2719" y="929" width="144" height="134"/></clipPath><clipPath id="clip31"><rect x="3754" y="826" width="144" height="126"/></clipPath><clipPath id="clip32"><rect x="3754" y="826" width="144" height="126"/></clipPath><clipPath id="clip33"><rect x="3754" y="826" width="144" height="126"/></clipPath><clipPath id="clip34"><rect x="3482" y="753" width="495" height="433"/></clipPath><clipPath id="clip35"><rect x="3482" y="753" width="495" height="433"/></clipPath><clipPath id="clip36"><rect x="3482" y="753" width="495" height="433"/></clipPath><clipPath id="clip37"><rect x="3534" y="915" width="134" height="125"/></clipPath><clipPath id="clip38"><rect x="3534" y="915" width="134" height="125"/></clipPath><clipPath id="clip39"><rect x="3534" y="915" width="134" height="125"/></clipPath></defs><g clip-path="url(#clip0)" transform="translate(-149 -182)"><path d="M151.5 419.504C151.5 289.715 256.715 184.5 386.504 184.5L2156.5 184.5C2286.28 184.5 2391.5 289.715 2391.5 419.504L2391.5 1359.5C2391.5 1489.29 2286.28 1594.5 2156.5 1594.5L386.504 1594.5C256.715 1594.5 151.5 1489.29 151.5 1359.5Z" stroke="#2F528F" stroke-width="4.58333" stroke-miterlimit="8" stroke-dasharray="18.3333 13.75" fill="#E2F0D9" fill-rule="evenodd"/><path d="M2545.5 719.004C2545.5 619.867 2625.87 539.5 2725 539.5L4024 539.5C4123.13 539.5 4203.5 619.867 4203.5 719.004L4203.5 1437C4203.5 1536.13 4123.13 1616.5 4024 1616.5L2725 1616.5C2625.87 1616.5 2545.5 1536.13 2545.5 1437Z" stroke="#2F528F" stroke-width="4.58333" stroke-miterlimit="8" stroke-dasharray="18.3333 13.75" fill="#DFE7F5" fill-rule="evenodd"/><g clip-path="url(#clip1)"><g clip-path="url(#clip2)"><g clip-path="url(#clip3)"><path d="M41.5001 20.75C40.0351 20.7831 38.874 21.9972 38.9063 23.4623L38.9063 31.1251C38.9063 32.5576 40.0676 33.7188 41.5001 33.7188 42.9326 33.7188 44.0939 32.5576 44.0939 31.1251L44.0939 23.4623C44.1262 21.9972 42.9651 20.7831 41.5001 20.75Z" transform="matrix(1.07229 0 0 1 2049 867)"/><path d="M62.4231 53.3769C61.8428 48.7475 61.5129 44.0901 61.4348 39.4251 61.4348 35.6209 61.6078 32.0363 61.8594 28.8218 62.7373 18.1256 54.7781 8.74277 44.0818 7.86478 43.8305 7.84415 43.5789 7.82841 43.327 7.81758 42.709 7.79337 42.0794 7.78127 41.4379 7.78127 40.7963 7.78127 40.1666 7.79337 39.5487 7.81758 28.8264 8.27879 20.5081 17.3449 20.9694 28.0671 20.9802 28.3181 20.9959 28.5688 21.0163 28.8192 21.2688 32.0338 21.4417 35.6209 21.4417 39.4251 21.3626 44.091 21.0316 48.7493 20.45 53.3795 19.1258 64.5097 27.0751 74.6062 38.2053 75.9305 38.7142 75.991 39.2252 76.0322 39.7372 76.0541 40.294 76.0731 40.8609 76.0829 41.4379 76.0835 42.0148 76.0841 42.5823 76.0743 43.1402 76.0541 54.3382 75.5742 63.027 66.1073 62.547 54.9093 62.5251 54.3971 62.4838 53.886 62.4231 53.3769ZM47.5522 31.1251C47.5646 33.8306 45.8113 36.228 43.2293 37.0362L43.2293 50.146C43.2293 51.101 42.4551 51.8751 41.5001 51.8751 40.5451 51.8751 39.7709 51.101 39.7709 50.146L39.7709 37.0362C37.1893 36.2275 35.4362 33.8304 35.448 31.1251L35.448 23.4631C35.4353 20.7572 37.1886 18.3594 39.7709 17.5511L39.7709 12.9688C39.7709 12.0138 40.5451 11.2396 41.5001 11.2396 42.4551 11.2396 43.2293 12.0138 43.2293 12.9688L43.2293 17.5511C45.8113 18.3599 47.5644 20.7574 47.5522 23.4631Z" transform="matrix(1.07229 0 0 1 2049 867)"/></g></g></g><g clip-path="url(#clip4)"><g clip-path="url(#clip5)"><g clip-path="url(#clip6)"><path d="M41.4999 20.75C40.0349 20.783 38.8738 21.9971 38.9062 23.4622L38.9062 31.1249C38.9062 32.5575 40.0674 33.7187 41.4999 33.7187 42.9324 33.7187 44.0937 32.5575 44.0937 31.1249L44.0937 23.4622C44.126 21.9971 42.965 20.783 41.4999 20.75Z" transform="matrix(1.07229 0 0 1 1304 863)"/><path d="M62.4228 53.3767C61.8426 48.7473 61.5126 44.0899 61.4346 39.4249 61.4346 35.6208 61.6075 32.0362 61.8591 28.8217 62.7371 18.1255 54.7778 8.74274 44.0816 7.86474 43.8303 7.84412 43.5787 7.82838 43.3268 7.81755 42.7089 7.79334 42.0792 7.78123 41.4377 7.78123 40.7962 7.78123 40.1665 7.79334 39.5486 7.81755 28.8263 8.27876 20.508 17.3448 20.9693 28.067 20.9801 28.318 20.9958 28.5687 21.0163 28.8191 21.2687 32.0336 21.4416 35.6208 21.4416 39.4249 21.3625 44.0908 21.0315 48.7491 20.4499 53.3793 19.1257 64.5095 27.075 74.6059 38.2052 75.9302 38.7141 75.9907 39.225 76.0319 39.737 76.0538 40.2938 76.0728 40.8607 76.0826 41.4377 76.0832 42.0146 76.0838 42.5821 76.0739 43.14 76.0538 54.338 75.5739 63.0267 66.107 62.5468 54.9091 62.5248 54.3969 62.4835 53.8857 62.4228 53.3767ZM47.552 31.1249C47.5644 33.8305 45.8111 36.2279 43.2291 37.0361L43.2291 50.1457C43.2291 51.1007 42.4549 51.8749 41.4999 51.8749 40.5449 51.8749 39.7708 51.1007 39.7708 50.1457L39.7708 37.0361C37.1891 36.2274 35.4361 33.8303 35.4478 31.1249L35.4478 23.463C35.4351 20.7571 37.1884 18.3593 39.7708 17.551L39.7708 12.9687C39.7708 12.0137 40.5449 11.2396 41.4999 11.2396 42.4549 11.2396 43.2291 12.0137 43.2291 12.9687L43.2291 17.551C45.8111 18.3598 47.5642 20.7573 47.552 23.463Z" transform="matrix(1.07229 0 0 1 1304 863)"/></g></g></g><g clip-path="url(#clip7)"><g clip-path="url(#clip8)"><g clip-path="url(#clip9)"><path d="M417.687 326 71.3125 326 71.3125 101.875 417.687 101.875 417.687 326ZM427.875 71.3125 61.125 71.3125C49.9187 71.3125 40.75 80.4812 40.75 91.6875L40.75 336.187C40.75 347.394 49.9187 356.562 61.125 356.562L203.75 356.562 203.75 387.125 152.812 387.125 152.812 417.687 336.187 417.687 336.187 387.125 285.25 387.125 285.25 356.562 427.875 356.562C439.081 356.562 448.25 347.394 448.25 336.187L448.25 91.6875C448.25 80.4812 439.081 71.3125 427.875 71.3125Z" transform="matrix(1.07566 0 0 1 954 356)"/></g></g></g><rect x="1142.5" y="488.5" width="141" height="179" stroke="#000000" stroke-width="4.58333" stroke-miterlimit="8" fill="#FFFFFF"/><path d="M1156 518 1216.85 518" stroke="#333333" stroke-width="2.29167" stroke-miterlimit="8" fill="none" fill-rule="evenodd"/><path d="M1156 540 1262.11 540" stroke="#333333" stroke-width="2.29167" stroke-miterlimit="8" fill="none" fill-rule="evenodd"/><path d="M1156 558 1262.11 558" stroke="#333333" stroke-width="2.29167" stroke-miterlimit="8" fill="none" fill-rule="evenodd"/><path d="M1156 576 1262.11 576" stroke="#333333" stroke-width="2.29167" stroke-miterlimit="8" fill="none" fill-rule="evenodd"/><path d="M1156 592 1262.11 592" stroke="#333333" stroke-width="2.29167" stroke-miterlimit="8" fill="none" fill-rule="evenodd"/><path d="M1156 608 1262.11 608" stroke="#333333" stroke-width="2.29167" stroke-miterlimit="8" fill="none" fill-rule="evenodd"/><path d="M1156 626 1244.98 626" stroke="#333333" stroke-width="2.29167" stroke-miterlimit="8" fill="none" fill-rule="evenodd"/><text font-family="Arial,Arial_MSFontService,sans-serif" font-weight="400" font-size="14" transform="matrix(1 0 0 1 1228.84 513)">20<tspan font-size="14" x="14.8959" y="0">-</tspan><tspan font-size="14" x="19.4792" y="0">10</tspan><tspan font-size="14" x="34.375" y="0">-</tspan><tspan font-size="14" x="38.9584" y="0">22</tspan></text><path d="M1304.5 658.5C1304.5 656.291 1306.29 654.5 1308.5 654.5L1379.5 654.5C1381.71 654.5 1383.5 656.291 1383.5 658.5L1383.5 674.5C1383.5 676.709 1381.71 678.5 1379.5 678.5L1308.5 678.5C1306.29 678.5 1304.5 676.709 1304.5 674.5Z" stroke="#4472C4" stroke-width="4.58333" stroke-miterlimit="8" fill="#4472C4" fill-rule="evenodd"/><text font-family="Arial,Arial_MSFontService,sans-serif" font-weight="700" font-size="32" transform="matrix(1 0 0 1 1310.36 681)">SAVE</text><path d="M1.07846-0.387116 5.03338 10.6308 2.87646 11.4051-1.07846 0.387116ZM15.348 2.05872 11.6972 32.5871-10.5351 11.3495Z" fill="#A5A5A5" transform="matrix(1 0 0 -1 1304 698.587)"/><g clip-path="url(#clip10)"><g clip-path="url(#clip11)"><g clip-path="url(#clip12)"><path d="M416.833 325.333 71.1667 325.333 71.1667 101.667 416.833 101.667 416.833 325.333ZM427 71.1667 61 71.1667C49.8167 71.1667 40.6667 80.3167 40.6667 91.5L40.6667 335.5C40.6667 346.683 49.8167 355.833 61 355.833L203.333 355.833 203.333 386.333 152.5 386.333 152.5 416.833 335.5 416.833 335.5 386.333 284.667 386.333 284.667 355.833 427 355.833C438.183 355.833 447.333 346.683 447.333 335.5L447.333 91.5C447.333 80.3167 438.183 71.1667 427 71.1667Z" transform="matrix(1.07787 0 0 1 228 360)"/></g></g></g><rect x="415.5" y="492.5" width="142" height="178" stroke="#000000" stroke-width="4.58333" stroke-miterlimit="8" fill="#FFFFFF"/><path d="M430 521 490.846 521" stroke="#333333" stroke-width="2.29167" stroke-miterlimit="8" fill="none" fill-rule="evenodd"/><path d="M430 544 536.111 544.001" stroke="#333333" stroke-width="2.29167" stroke-miterlimit="8" fill="none" fill-rule="evenodd"/><path d="M430 562 536.111 562" stroke="#333333" stroke-width="2.29167" stroke-miterlimit="8" fill="none" fill-rule="evenodd"/><path d="M430 579 536.111 579" stroke="#333333" stroke-width="2.29167" stroke-miterlimit="8" fill="none" fill-rule="evenodd"/><path d="M430 596 536.111 596" stroke="#333333" stroke-width="2.29167" stroke-miterlimit="8" fill="none" fill-rule="evenodd"/><path d="M430 612 536.111 612" stroke="#333333" stroke-width="2.29167" stroke-miterlimit="8" fill="none" fill-rule="evenodd"/><path d="M430 630 518.983 630" stroke="#333333" stroke-width="2.29167" stroke-miterlimit="8" fill="none" fill-rule="evenodd"/><text font-family="Arial,Arial_MSFontService,sans-serif" font-weight="400" font-size="14" transform="matrix(1 0 0 1 502.707 517)">20<tspan font-size="14" x="14.8958" y="0">-</tspan><tspan font-size="14" x="19.4792" y="0">10</tspan><tspan font-size="14" x="34.375" y="0">-</tspan><tspan font-size="14" x="38.9583" y="0">22</tspan></text><g clip-path="url(#clip13)"><g clip-path="url(#clip14)"><g clip-path="url(#clip15)"><path d="M279.394 86.9167 18.6436 86.9167C11.7861 86.9167 6.22696 92.4759 6.22696 99.3333L6.22696 198.667C6.22696 205.524 11.7861 211.083 18.6436 211.083L279.394 211.083C286.251 211.083 291.81 205.524 291.81 198.667L291.81 99.3333C291.81 92.4759 286.251 86.9167 279.394 86.9167ZM155.227 108.646 173.852 108.646 173.852 127.271 155.227 127.271ZM155.227 139.688 173.852 139.688 173.852 158.313 155.227 158.313ZM124.185 108.646 142.81 108.646 142.81 127.271 124.185 127.271ZM124.185 139.688 142.81 139.688 142.81 158.313 124.185 158.313ZM93.1436 108.646 111.769 108.646 111.769 127.271 93.1436 127.271ZM93.1436 139.688 111.769 139.688 111.769 158.313 93.1436 158.313ZM49.6853 189.354 31.0603 189.354 31.0603 170.729 49.6853 170.729ZM49.6853 158.313 31.0603 158.313 31.0603 139.688 49.6853 139.688ZM49.6853 127.271 31.0603 127.271 31.0603 108.646 49.6853 108.646ZM80.727 189.354 62.102 189.354 62.102 170.729 80.727 170.729ZM80.727 158.313 62.102 158.313 62.102 139.688 80.727 139.688ZM80.727 127.271 62.102 127.271 62.102 108.646 80.727 108.646ZM204.894 189.354 93.1436 189.354 93.1436 170.729 204.894 170.729ZM204.894 158.313 186.269 158.313 186.269 139.688 204.894 139.688ZM204.894 127.271 186.269 127.271 186.269 108.646 204.894 108.646ZM235.935 189.354 217.31 189.354 217.31 170.729 235.935 170.729ZM235.935 158.313 217.31 158.313 217.31 139.688 235.935 139.688ZM235.935 127.271 217.31 127.271 217.31 108.646 235.935 108.646ZM266.977 189.354 248.352 189.354 248.352 170.729 266.977 170.729ZM266.977 158.313 248.352 158.313 248.352 139.688 266.977 139.688ZM266.977 127.271 248.352 127.271 248.352 108.646 266.977 108.646Z" transform="matrix(1.07718 0 0 1 323 732)"/></g></g></g><path d="M357.5 771.5C357.5 726.213 393.765 689.5 438.5 689.5 483.235 689.5 519.5 726.213 519.5 771.5 519.5 816.787 483.235 853.5 438.5 853.5 393.765 853.5 357.5 816.787 357.5 771.5Z" stroke="#000000" stroke-width="4.58333" stroke-miterlimit="8" fill="#FBE5D6" fill-rule="evenodd"/><path d="M357.5 886.5C357.5 871.588 369.589 859.5 384.5 859.5L492.5 859.5C507.411 859.5 519.5 871.588 519.5 886.5L519.5 1088.5C519.5 1103.41 507.411 1115.5 492.5 1115.5L384.5 1115.5C369.589 1115.5 357.5 1103.41 357.5 1088.5Z" stroke="#2F528F" stroke-width="4.58333" stroke-miterlimit="8" fill="#4472C4" fill-rule="evenodd"/><path d="M323.5 989.334C323.5 982.246 329.246 976.5 336.334 976.5L544.666 976.5C551.754 976.5 557.5 982.246 557.5 989.334L557.5 1040.67C557.5 1047.75 551.754 1053.5 544.666 1053.5L336.334 1053.5C329.246 1053.5 323.5 1047.75 323.5 1040.67Z" stroke="#2F528F" stroke-width="4.58333" stroke-miterlimit="8" fill="#AD6D5B" fill-rule="evenodd"/><rect x="430.5" y="1053.5" width="16.0002" height="68.0001" stroke="#787878" stroke-width="4.58333" stroke-miterlimit="8" fill="#A5A5A5"/><path d="M329.5 1123C329.5 1121.62 330.619 1120.5 332 1120.5L555 1120.5C556.381 1120.5 557.5 1121.62 557.5 1123L557.5 1133C557.5 1134.38 556.381 1135.5 555 1135.5L332 1135.5C330.619 1135.5 329.5 1134.38 329.5 1133Z" stroke="#2F528F" stroke-width="4.58333" stroke-miterlimit="8" fill="#AD6D5B" fill-rule="evenodd"/><rect x="377.5" y="1135.5" width="38.0002" height="108" stroke="#000000" stroke-width="4.58333" stroke-miterlimit="8"/><rect x="472.5" y="1135.5" width="37.9998" height="108" stroke="#000000" stroke-width="4.58333" stroke-miterlimit="8"/><path d="M518 922.275C529.333 929.844 540.667 937.412 550 932.366 559.333 927.321 574 892 574 892L574 892" stroke="#2F528F" stroke-width="27.5" stroke-miterlimit="8" fill="none" fill-rule="evenodd"/><path d="M1127.5 778.5C1127.5 733.213 1163.54 696.5 1208 696.5 1252.46 696.5 1288.5 733.213 1288.5 778.5 1288.5 823.787 1252.46 860.5 1208 860.5 1163.54 860.5 1127.5 823.787 1127.5 778.5Z" stroke="#000000" stroke-width="4.58333" stroke-miterlimit="8" fill="#FBE5D6" fill-rule="evenodd"/><path d="M1127.5 893.334C1127.5 878.514 1139.51 866.5 1154.33 866.5L1261.67 866.5C1276.49 866.5 1288.5 878.514 1288.5 893.334L1288.5 1095.67C1288.5 1110.49 1276.49 1122.5 1261.67 1122.5L1154.33 1122.5C1139.51 1122.5 1127.5 1110.49 1127.5 1095.67Z" stroke="#2F528F" stroke-width="4.58333" stroke-miterlimit="8" fill="#4472C4" fill-rule="evenodd"/><path d="M1092.5 996.334C1092.5 989.246 1098.25 983.5 1105.33 983.5L1313.67 983.5C1320.75 983.5 1326.5 989.246 1326.5 996.334L1326.5 1047.67C1326.5 1054.75 1320.75 1060.5 1313.67 1060.5L1105.33 1060.5C1098.25 1060.5 1092.5 1054.75 1092.5 1047.67Z" stroke="#2F528F" stroke-width="4.58333" stroke-miterlimit="8" fill="#AD6D5B" fill-rule="evenodd"/><rect x="1199.5" y="1060.5" width="17.0002" height="68.0001" stroke="#787878" stroke-width="4.58333" stroke-miterlimit="8" fill="#A5A5A5"/><path d="M1098.5 1130C1098.5 1128.62 1099.62 1127.5 1101 1127.5L1324 1127.5C1325.38 1127.5 1326.5 1128.62 1326.5 1130L1326.5 1140C1326.5 1141.38 1325.38 1142.5 1324 1142.5L1101 1142.5C1099.62 1142.5 1098.5 1141.38 1098.5 1140Z" stroke="#2F528F" stroke-width="4.58333" stroke-miterlimit="8" fill="#AD6D5B" fill-rule="evenodd"/><rect x="1147.5" y="1142.5" width="38.0001" height="108" stroke="#000000" stroke-width="4.58333" stroke-miterlimit="8"/><rect x="1241.5" y="1142.5" width="37.9998" height="108" stroke="#000000" stroke-width="4.58333" stroke-miterlimit="8"/><path d="M1288 929.275C1299.33 936.843 1310.67 944.412 1320 939.366 1329.33 934.32 1344 899 1344 899L1344 899" stroke="#2F528F" stroke-width="27.5" stroke-miterlimit="8" fill="none" fill-rule="evenodd"/><g clip-path="url(#clip16)"><g clip-path="url(#clip17)"><g clip-path="url(#clip18)"><path d="M33.8541 22.3437C33.8541 23.0916 33.2479 23.6979 32.5 23.6979 31.7521 23.6979 31.1458 23.0916 31.1458 22.3437 31.1458 21.5959 31.7521 20.9896 32.5 20.9896 33.2479 20.9896 33.8541 21.5959 33.8541 22.3437Z" transform="matrix(1.07693 0 0 1 1040 459)"/><path d="M33.8541 49.4271C33.8541 50.1749 33.2479 50.7812 32.5 50.7812 31.7521 50.7812 31.1458 50.1749 31.1458 49.4271 31.1458 48.6792 31.7521 48.0729 32.5 48.0729 33.2479 48.0729 33.8541 48.6792 33.8541 49.4271Z" transform="matrix(1.07693 0 0 1 1040 459)"/><path d="M47.3958 35.2083C47.3958 35.9562 46.7895 36.5625 46.0416 36.5625 45.2938 36.5625 44.6875 35.9562 44.6875 35.2083 44.6875 34.4604 45.2938 33.8541 46.0416 33.8541 46.7895 33.8541 47.3958 34.4604 47.3958 35.2083Z" transform="matrix(1.07693 0 0 1 1040 459)"/><path d="M20.3125 35.2083C20.3125 35.9562 19.7062 36.5625 18.9583 36.5625 18.2104 36.5625 17.6042 35.9562 17.6042 35.2083 17.6042 34.4604 18.2104 33.8541 18.9583 33.8541 19.7062 33.8541 20.3125 34.4604 20.3125 35.2083Z" transform="matrix(1.07693 0 0 1 1040 459)"/><path d="M33.8541 25.7292 31.1458 25.7292 31.1458 35.2083C31.1458 35.5469 31.2812 35.8854 31.5521 36.1562L38.2552 42.8594 40.151 40.9635 33.8541 34.6667 33.8541 25.7292Z" transform="matrix(1.07693 0 0 1 1040 459)"/><path d="M32.5 54.8437C22.0052 54.8437 13.5417 46.3802 13.5417 35.8854 13.5417 25.3906 22.0052 16.9271 32.5 16.9271 42.9948 16.9271 51.4583 25.3906 51.4583 35.8854 51.4583 46.3802 42.9948 54.8437 32.5 54.8437L32.5 54.8437ZM48.5468 19.3646 50.5781 17.3333C51.3229 16.5208 51.3229 15.3021 50.5104 14.4896 49.7656 13.7448 48.4791 13.6771 47.6666 14.4219L45.3646 16.7917C42.1146 14.625 38.3906 13.2708 34.5312 13L34.5312 10.1562 40.625 10.1562 40.625 6.09375 24.375 6.09375 24.375 10.1562 30.4687 10.1562 30.4687 12.9323C19.7031 13.8802 11.0365 22.2083 9.68229 32.9739 8.32812 43.7396 14.625 53.9635 24.8489 57.5521 35.0729 61.1406 46.3802 57.2135 52.1354 48.0052 57.8906 38.7969 56.2656 26.8802 48.5468 19.3646L48.5468 19.3646Z" transform="matrix(1.07693 0 0 1 1040 459)"/></g></g></g><g clip-path="url(#clip19)"><g clip-path="url(#clip20)"><g clip-path="url(#clip21)"><path d="M416.833 325.333 71.1667 325.333 71.1667 101.667 416.833 101.667 416.833 325.333ZM427 71.1667 61 71.1667C49.8167 71.1667 40.6667 80.3167 40.6667 91.5L40.6667 335.5C40.6667 346.683 49.8167 355.833 61 355.833L203.333 355.833 203.333 386.333 152.5 386.333 152.5 416.833 335.5 416.833 335.5 386.333 284.667 386.333 284.667 355.833 427 355.833C438.183 355.833 447.333 346.683 447.333 335.5L447.333 91.5C447.333 80.3167 438.183 71.1667 427 71.1667Z" transform="matrix(1.07787 0 0 1 1712 372)"/></g></g></g><rect x="1899.5" y="504.5" width="142" height="178" stroke="#000000" stroke-width="4.58333" stroke-miterlimit="8" fill="#FFFFFF"/><path d="M1914 533 1974.85 533.001" stroke="#333333" stroke-width="2.29167" stroke-miterlimit="8" fill="none" fill-rule="evenodd"/><path d="M1914 556 2020.11 556" stroke="#333333" stroke-width="2.29167" stroke-miterlimit="8" fill="none" fill-rule="evenodd"/><path d="M1914 574 2020.11 574" stroke="#333333" stroke-width="2.29167" stroke-miterlimit="8" fill="none" fill-rule="evenodd"/><path d="M1914 591 2020.11 591" stroke="#333333" stroke-width="2.29167" stroke-miterlimit="8" fill="none" fill-rule="evenodd"/><path d="M1914 608 2020.11 608" stroke="#333333" stroke-width="2.29167" stroke-miterlimit="8" fill="none" fill-rule="evenodd"/><path d="M1914 624 2020.11 624" stroke="#333333" stroke-width="2.29167" stroke-miterlimit="8" fill="none" fill-rule="evenodd"/><path d="M1914 642 2002.98 642" stroke="#333333" stroke-width="2.29167" stroke-miterlimit="8" fill="none" fill-rule="evenodd"/><text font-family="Arial,Arial_MSFontService,sans-serif" font-weight="400" font-size="14" transform="matrix(1 0 0 1 1986.81 529)">20<tspan font-size="14" x="14.8959" y="0">-</tspan><tspan font-size="14" x="19.4792" y="0">10</tspan><tspan font-size="14" x="34.375" y="0">-</tspan><tspan font-size="14" x="38.9584" y="0">22</tspan></text><path d="M2066.5 634.5C2066.5 632.291 2068.29 630.5 2070.5 630.5L2141.5 630.5C2143.71 630.5 2145.5 632.291 2145.5 634.5L2145.5 650.5C2145.5 652.709 2143.71 654.5 2141.5 654.5L2070.5 654.5C2068.29 654.5 2066.5 652.709 2066.5 650.5Z" stroke="#4472C4" stroke-width="4.58333" stroke-miterlimit="8" fill="#4472C4" fill-rule="evenodd"/><text font-family="Arial,Arial_MSFontService,sans-serif" font-weight="700" font-size="32" transform="matrix(1 0 0 1 2069.29 657)">SEND</text><path d="M2104.26 682.484 2098.46 672.423 2100.44 671.278 2106.25 681.339ZM2089.83 682.691 2088 652 2113.65 668.95Z" fill="#A5A5A5"/><path d="M1885.5 794C1885.5 748.437 1921.54 711.5 1966 711.5 2010.46 711.5 2046.5 748.437 2046.5 794 2046.5 839.564 2010.46 876.5 1966 876.5 1921.54 876.5 1885.5 839.564 1885.5 794Z" stroke="#000000" stroke-width="4.58333" stroke-miterlimit="8" fill="#FBE5D6" fill-rule="evenodd"/><path d="M1885.5 909.334C1885.5 894.514 1897.51 882.5 1912.33 882.5L2019.67 882.5C2034.49 882.5 2046.5 894.514 2046.5 909.334L2046.5 1111.67C2046.5 1126.49 2034.49 1138.5 2019.67 1138.5L1912.33 1138.5C1897.51 1138.5 1885.5 1126.49 1885.5 1111.67Z" stroke="#2F528F" stroke-width="4.58333" stroke-miterlimit="8" fill="#4472C4" fill-rule="evenodd"/><path d="M1850.5 1012.33C1850.5 1005.25 1856.25 999.5 1863.33 999.5L2071.67 999.5C2078.75 999.5 2084.5 1005.25 2084.5 1012.33L2084.5 1063.67C2084.5 1070.75 2078.75 1076.5 2071.67 1076.5L1863.33 1076.5C1856.25 1076.5 1850.5 1070.75 1850.5 1063.67Z" stroke="#2F528F" stroke-width="4.58333" stroke-miterlimit="8" fill="#AD6D5B" fill-rule="evenodd"/><rect x="1957.5" y="1076.5" width="15.9998" height="67" stroke="#787878" stroke-width="4.58333" stroke-miterlimit="8" fill="#A5A5A5"/><path d="M1856.5 1146C1856.5 1144.62 1857.62 1143.5 1859 1143.5L2082 1143.5C2083.38 1143.5 2084.5 1144.62 2084.5 1146L2084.5 1156C2084.5 1157.38 2083.38 1158.5 2082 1158.5L1859 1158.5C1857.62 1158.5 1856.5 1157.38 1856.5 1156Z" stroke="#2F528F" stroke-width="4.58333" stroke-miterlimit="8" fill="#AD6D5B" fill-rule="evenodd"/><rect x="1905.5" y="1158.5" width="38.0001" height="108" stroke="#000000" stroke-width="4.58333" stroke-miterlimit="8"/><rect x="1999.5" y="1158.5" width="37.9998" height="108" stroke="#000000" stroke-width="4.58333" stroke-miterlimit="8"/><path d="M2046 944.554C2057.33 951.942 2068.67 959.331 2078 954.405 2087.33 949.48 2102 915 2102 915L2102 915" stroke="#2F528F" stroke-width="27.5" stroke-miterlimit="8" fill="none" fill-rule="evenodd"/><text fill="#333333" font-family="Calibri,Calibri_MSFontService,sans-serif" font-weight="400" font-size="50" transform="matrix(1 0 0 1 1775.22 1442)">Communication.sent</text><g clip-path="url(#clip22)"><g clip-path="url(#clip23)"><g clip-path="url(#clip24)"><path d="M351.917 274.667 60.0833 274.667 60.0833 85.8333 351.917 85.8333 351.917 274.667ZM360.5 60.0833 51.5 60.0833C42.0583 60.0833 34.3333 67.8083 34.3333 77.25L34.3333 283.25C34.3333 292.691 42.0583 300.417 51.5 300.417L171.667 300.417 171.667 326.167 128.75 326.167 128.75 351.917 283.25 351.917 283.25 326.167 240.333 326.167 240.333 300.417 360.5 300.417C369.941 300.417 377.666 292.691 377.666 283.25L377.666 77.25C377.666 67.8083 369.941 60.0833 360.5 60.0833Z" transform="matrix(1.15534 0 0 1 2663 764)"/></g></g></g><g clip-path="url(#clip25)"><g clip-path="url(#clip26)"><g clip-path="url(#clip27)"><path d="M44.7157 33.3125 78.0282 33.3125 78.0282 38.4375 44.7157 38.4375Z" transform="matrix(1.15447 0 0 1 2937 847)"/><path d="M44.7157 43.5625 78.0282 43.5625 78.0282 48.6875 44.7157 48.6875Z" transform="matrix(1.15447 0 0 1 2937 847)"/><path d="M44.7157 53.8125 78.0282 53.8125 78.0282 58.9375 44.7157 58.9375Z" transform="matrix(1.15447 0 0 1 2937 847)"/><path d="M106.344 107.113 80.7188 82.7688 106.344 58.425 106.344 107.113ZM23.3188 110.188 48.6875 86.2282 50.4813 84.5625C57.4 78.0282 68.2907 78.0282 75.2094 84.5625L77.0032 86.2282 102.244 110.188 23.3188 110.188ZM19.2188 58.2969 44.8438 82.6407 19.2188 106.984 19.2188 58.2969ZM37.1563 25.625 88.4063 25.625 88.4063 68.2907 76.875 79.3094C68.5469 72.9032 57.0157 72.9032 48.6875 79.3094L37.1563 68.2907 37.1563 25.625ZM96.0938 29.0844 96.0938 17.9375 78.1563 17.9375 62.7813 5.125 47.4063 17.9375 29.4688 17.9375 29.4688 29.2125 11.5313 46.2531 11.5313 117.875 114.031 117.875 114.031 46.2531 96.0938 29.0844Z" transform="matrix(1.15447 0 0 1 2937 847)"/></g></g></g><g clip-path="url(#clip28)"><g clip-path="url(#clip29)"><g clip-path="url(#clip30)"><path d="M69.7915 46.0624C69.7915 47.6042 68.5416 48.8541 66.9999 48.8541 65.4581 48.8541 64.2082 47.6042 64.2082 46.0624 64.2082 44.5206 65.4581 43.2707 66.9999 43.2707 68.5416 43.2707 69.7915 44.5206 69.7915 46.0624Z" transform="matrix(1.06717 0 0 1 2719 929)"/><path d="M69.7915 101.896C69.7915 103.437 68.5416 104.687 66.9999 104.687 65.4581 104.687 64.2082 103.437 64.2082 101.896 64.2082 100.354 65.4581 99.104 66.9999 99.104 68.5416 99.104 69.7915 100.354 69.7915 101.896Z" transform="matrix(1.06717 0 0 1 2719 929)"/><path d="M97.7081 72.5832C97.7081 74.125 96.4583 75.3748 94.9165 75.3748 93.3747 75.3748 92.1248 74.125 92.1248 72.5832 92.1248 71.0414 93.3747 69.7915 94.9165 69.7915 96.4583 69.7915 97.7081 71.0414 97.7081 72.5832Z" transform="matrix(1.06717 0 0 1 2719 929)"/><path d="M41.8749 72.5832C41.8749 74.125 40.625 75.3748 39.0832 75.3748 37.5415 75.3748 36.2916 74.125 36.2916 72.5832 36.2916 71.0414 37.5415 69.7915 39.0832 69.7915 40.625 69.7915 41.8749 71.0414 41.8749 72.5832Z" transform="matrix(1.06717 0 0 1 2719 929)"/><path d="M69.7915 53.0415 64.2082 53.0415 64.2082 72.5832C64.2082 73.2811 64.4874 73.979 65.0457 74.5373L78.8644 88.3561 82.7727 84.4477 69.7915 71.4665 69.7915 53.0415Z" transform="matrix(1.06717 0 0 1 2719 929)"/><path d="M66.9999 113.062C45.3645 113.062 27.9166 95.6144 27.9166 73.979 27.9166 52.3436 45.3645 34.8958 66.9999 34.8958 88.6352 34.8958 106.083 52.3436 106.083 73.979 106.083 95.6144 88.6352 113.062 66.9999 113.062L66.9999 113.062ZM100.081 39.9207 104.269 35.7333C105.804 34.0583 105.804 31.5458 104.129 29.8708 102.594 28.3354 99.9414 28.1958 98.2665 29.7312L93.5206 34.6166C86.8206 30.1499 79.1436 27.3583 71.1873 26.7999L71.1873 20.9375 83.7498 20.9375 83.7498 12.5625 50.2499 12.5625 50.2499 20.9375 62.8124 20.9375 62.8124 26.6604C40.6187 28.6145 22.752 45.7832 19.9604 67.9769 17.1687 90.1706 30.1499 111.248 51.227 118.646 72.304 126.043 95.6144 117.948 107.479 98.9644 119.343 79.9811 115.993 55.4145 100.081 39.9207L100.081 39.9207Z" transform="matrix(1.06717 0 0 1 2719 929)"/></g></g></g><text fill="#333333" font-family="Calibri,Calibri_MSFontService,sans-serif" font-weight="400" font-size="50" transform="matrix(1 0 0 1 2702.5 1356)">Bundle.timestamp</text><g clip-path="url(#clip31)"><g clip-path="url(#clip32)"><g clip-path="url(#clip33)"><path d="M10.4167 26.0417 10.4167 98.9584 114.583 98.9584 114.583 26.0417 10.4167 26.0417ZM64.323 71.4845C63.2813 72.5261 61.7188 72.5261 60.6771 71.4845L22.1354 33.8542 102.995 33.8542 64.323 71.4845ZM43.6198 62.1094 18.2292 87.6303 18.2292 37.2396 43.6198 62.1094ZM47.3959 65.7553 57.1615 75.2605C58.724 76.6928 60.6771 77.474 62.6303 77.474 64.5834 77.474 66.5365 76.6928 68.099 75.2605L77.8647 65.7553 103.125 91.1459 22.0052 91.1459 47.3959 65.7553ZM81.3803 62.1094 106.771 37.3698 106.771 87.5001 81.3803 62.1094Z" transform="matrix(1.144 0 0 1 3754 826)"/></g></g></g><g clip-path="url(#clip34)"><g clip-path="url(#clip35)"><g clip-path="url(#clip36)"><path d="M369 288 63 288 63 90 369 90 369 288ZM378 63 54 63C44.1 63 36 71.1 36 81L36 297C36 306.9 44.1 315 54 315L180 315 180 342 135 342 135 369 297 369 297 342 252 342 252 315 378 315C387.9 315 396 306.9 396 297L396 81C396 71.1 387.9 63 378 63Z" transform="matrix(1.1412 0 0 1 3483 754)"/></g></g></g><g clip-path="url(#clip37)"><g clip-path="url(#clip38)"><g clip-path="url(#clip39)"><path d="M65.104 42.9687C65.104 44.4069 63.9381 45.5728 62.4999 45.5728 61.0616 45.5728 59.8957 44.4069 59.8957 42.9687 59.8957 41.5304 61.0616 40.3645 62.4999 40.3645 63.9381 40.3645 65.104 41.5304 65.104 42.9687Z" transform="matrix(1.064 0 0 1 3534 915)"/><path d="M65.104 95.0519C65.104 96.4902 63.9381 97.6561 62.4999 97.6561 61.0616 97.6561 59.8957 96.4902 59.8957 95.0519 59.8957 93.6137 61.0616 92.4478 62.4999 92.4478 63.9381 92.4478 65.104 93.6137 65.104 95.0519Z" transform="matrix(1.064 0 0 1 3534 915)"/><path d="M91.1457 67.7082C91.1457 69.1464 89.9797 70.3124 88.5415 70.3124 87.1033 70.3124 85.9373 69.1464 85.9373 67.7082 85.9373 66.27 87.1033 65.104 88.5415 65.104 89.9797 65.104 91.1457 66.27 91.1457 67.7082Z" transform="matrix(1.064 0 0 1 3534 915)"/><path d="M39.0624 67.7082C39.0624 69.1464 37.8965 70.3124 36.4583 70.3124 35.02 70.3124 33.8541 69.1464 33.8541 67.7082 33.8541 66.27 35.02 65.104 36.4583 65.104 37.8965 65.104 39.0624 66.27 39.0624 67.7082Z" transform="matrix(1.064 0 0 1 3534 915)"/><path d="M65.104 49.4791 59.8957 49.4791 59.8957 67.7082C59.8957 68.3593 60.1561 69.0103 60.677 69.5311L73.5676 82.4217 77.2134 78.7759 65.104 66.6665 65.104 49.4791Z" transform="matrix(1.064 0 0 1 3534 915)"/><path d="M62.4999 105.469C42.3176 105.469 26.0416 89.1926 26.0416 69.0103 26.0416 48.828 42.3176 32.552 62.4999 32.552 82.6821 32.552 98.9582 48.828 98.9582 69.0103 98.9582 89.1926 82.6821 105.469 62.4999 105.469L62.4999 105.469ZM93.3592 37.2395 97.2654 33.3333C98.6977 31.7708 98.6977 29.427 97.1352 27.8645 95.7029 26.4322 93.229 26.302 91.6665 27.7343L87.2394 32.2916C80.9894 28.125 73.828 25.5208 66.4061 25L66.4061 19.5312 78.1249 19.5312 78.1249 11.7187 46.8749 11.7187 46.8749 19.5312 58.5936 19.5312 58.5936 24.8697C37.8906 26.6927 21.2239 42.7083 18.6198 63.4113 16.0156 84.1144 28.125 103.776 47.7864 110.677 67.4478 117.578 89.1926 110.026 100.26 92.3175 111.328 74.6092 108.203 51.6926 93.3592 37.2395L93.3592 37.2395Z" transform="matrix(1.064 0 0 1 3534 915)"/></g></g></g><text fill="#333333" font-family="Arial,Arial_MSFontService,sans-serif" font-weight="400" font-size="46" transform="matrix(1 0 0 1 3500.8 1333)">Provenance.recorded<tspan font-size="46" x="2.76123" y="91">Provenance.occuredDateTim</tspan><tspan font-size="46" x="285.507" y="146">e</tspan></text><path d="M3726.15 1135 3726.15 1228.89 3723.85 1228.89 3723.85 1135ZM3738.75 1224.31 3725 1251.81 3711.25 1224.31Z" fill="#2C415C"/><path d="M2895.15 1142 2895.15 1235.89 2892.85 1235.89 2892.85 1142ZM2907.75 1231.31 2894 1258.81 2880.25 1231.31Z" fill="#2C415C"/><path d="M1967.15 1280 1967.15 1373.89 1964.85 1373.89 1964.85 1280ZM1979.75 1369.31 1966 1396.81 1952.25 1369.31Z" fill="#2C415C"/><path d="M1207.15 1266 1207.15 1359.89 1204.85 1359.89 1204.85 1266ZM1219.75 1355.31 1206 1382.81 1192.25 1355.31Z" fill="#2C415C"/><path d="M725 932.854 930.959 932.854 930.959 935.146 725 935.146ZM926.376 920.25 953.876 934 926.376 947.75Z" fill="#4472C4"/><path d="M1547 944.854 1752.96 944.854 1752.96 947.146 1547 947.146ZM1748.38 932.25 1775.88 946 1748.38 959.75Z" fill="#4472C4"/><path d="M2353 977.854 2558.96 977.854 2558.96 980.146 2353 980.146ZM2554.38 965.25 2581.88 979 2554.38 992.75Z" fill="#4472C4"/><path d="M3161 968.854 3366.96 968.855 3366.96 971.146 3161 971.146ZM3362.38 956.25 3389.88 970 3362.38 983.75Z" fill="#4472C4"/><text fill="#2C415C" font-family="Calibri,Calibri_MSFontService,sans-serif" font-weight="700" font-size="50" transform="matrix(1 0 0 1 260.617 287)">Healthcare <tspan font-size="50" x="239.479" y="0">professional</tspan><tspan font-size="50" x="0" y="61">writes</tspan><tspan font-size="50" x="142.656" y="61">the message </tspan><tspan font-size="50" x="752.099" y="-10">Healthcare professional </tspan><tspan font-size="50" x="752.099" y="51">saves the message </tspan>text<tspan fill="#333333" font-weight="400" font-size="50" x="557.485" y="1136">Communication.payload:string.extension:</tspan><tspan fill="#333333" font-weight="400" font-size="50" x="557.485" y="1197">date</tspan><tspan font-family="Arial,Arial_MSFontService,sans-serif" font-size="50" x="2349.26" y="472">CareCommunication</tspan><tspan font-family="Arial,Arial_MSFontService,sans-serif" font-size="50" x="2856.29" y="472">created</tspan><tspan font-family="Arial,Arial_MSFontService,sans-serif" font-size="50" x="3185.26" y="463">CareCommunication</tspan><tspan font-family="Arial,Arial_MSFontService,sans-serif" font-size="50" x="3692.29" y="463">sent </tspan><tspan font-size="50" x="1441.53" y="-4">Healthcare professional </tspan><tspan font-size="50" x="1441.53" y="57">presses send </tspan><tspan font-size="50" x="1718.82" y="57">button</tspan></text></g></svg>