<svg width="3910" height="2314" xmlns="http://www.w3.org/2000/svg" xmlns:xlink="http://www.w3.org/1999/xlink" xml:space="preserve" overflow="hidden"><defs><clipPath id="clip0"><rect x="132" y="-5" width="3910" height="2314"/></clipPath><clipPath id="clip1"><rect x="1986" y="905" width="92" height="91"/></clipPath><clipPath id="clip2"><rect x="1986" y="905" width="92" height="91"/></clipPath><clipPath id="clip3"><rect x="1986" y="905" width="92" height="91"/></clipPath><clipPath id="clip4"><rect x="1640" y="356" width="543" height="542"/></clipPath><clipPath id="clip5"><rect x="1640" y="356" width="543" height="542"/></clipPath><clipPath id="clip6"><rect x="1640" y="356" width="543" height="542"/></clipPath><clipPath id="clip7"><rect x="2422" y="797" width="548" height="514"/></clipPath><clipPath id="clip8"><rect x="2422" y="797" width="548" height="514"/></clipPath><clipPath id="clip9"><rect x="2422" y="797" width="548" height="514"/></clipPath><clipPath id="clip10"><rect x="2712" y="905" width="147" height="136"/></clipPath><clipPath id="clip11"><rect x="2712" y="905" width="147" height="136"/></clipPath><clipPath id="clip12"><rect x="2712" y="905" width="147" height="136"/></clipPath><clipPath id="clip13"><rect x="2488" y="995" width="147" height="149"/></clipPath><clipPath id="clip14"><rect x="2488" y="995" width="147" height="149"/></clipPath><clipPath id="clip15"><rect x="2488" y="995" width="147" height="149"/></clipPath><clipPath id="clip16"><rect x="3580" y="899" width="147" height="141"/></clipPath><clipPath id="clip17"><rect x="3580" y="899" width="147" height="141"/></clipPath><clipPath id="clip18"><rect x="3580" y="899" width="147" height="141"/></clipPath><clipPath id="clip19"><rect x="3302" y="819" width="508" height="481"/></clipPath><clipPath id="clip20"><rect x="3302" y="819" width="508" height="481"/></clipPath><clipPath id="clip21"><rect x="3302" y="819" width="508" height="481"/></clipPath><clipPath id="clip22"><rect x="3353" y="997" width="139" height="141"/></clipPath><clipPath id="clip23"><rect x="3353" y="997" width="139" height="141"/></clipPath><clipPath id="clip24"><rect x="3353" y="997" width="139" height="141"/></clipPath><clipPath id="clip25"><rect x="1712" y="478" width="74" height="74"/></clipPath><clipPath id="clip26"><rect x="1712" y="478" width="74" height="74"/></clipPath><clipPath id="clip27"><rect x="1712" y="478" width="74" height="74"/></clipPath><clipPath id="clip28"><rect x="364" y="44" width="592" height="439"/></clipPath><clipPath id="clip29"><rect x="364" y="44" width="592" height="439"/></clipPath><clipPath id="clip30"><rect x="364" y="44" width="592" height="439"/></clipPath><clipPath id="clip31"><rect x="486" y="357" width="316" height="236"/></clipPath><clipPath id="clip32"><rect x="486" y="357" width="316" height="236"/></clipPath><clipPath id="clip33"><rect x="486" y="357" width="316" height="236"/></clipPath><clipPath id="clip34"><rect x="489" y="191" width="50" height="37"/></clipPath><clipPath id="clip35"><rect x="489" y="191" width="50" height="37"/></clipPath><clipPath id="clip36"><rect x="489" y="191" width="50" height="37"/></clipPath><clipPath id="clip37"><rect x="490" y="223" width="52" height="37"/></clipPath><clipPath id="clip38"><rect x="490" y="223" width="52" height="37"/></clipPath><clipPath id="clip39"><rect x="490" y="223" width="52" height="37"/></clipPath><clipPath id="clip40"><path d="M524.389 179.227 604.178 132.859 657.721 224.992 577.932 271.361Z" fill-rule="evenodd" clip-rule="evenodd"/></clipPath><clipPath id="clip41"><path d="M524.389 179.227 604.178 132.859 657.721 224.992 577.932 271.361Z" fill-rule="evenodd" clip-rule="evenodd"/></clipPath><clipPath id="clip42"><path d="M524.389 179.227 604.178 132.859 657.721 224.992 577.932 271.361Z" fill-rule="evenodd" clip-rule="evenodd"/></clipPath><clipPath id="clip43"><rect x="387" y="1137" width="495" height="500"/></clipPath><clipPath id="clip44"><rect x="387" y="1137" width="495" height="500"/></clipPath><clipPath id="clip45"><rect x="387" y="1137" width="495" height="500"/></clipPath><clipPath id="clip46"><rect x="676" y="1575" width="93" height="93"/></clipPath><clipPath id="clip47"><rect x="676" y="1575" width="93" height="93"/></clipPath><clipPath id="clip48"><rect x="676" y="1575" width="93" height="93"/></clipPath><clipPath id="clip49"><rect x="456" y="1251" width="75" height="75"/></clipPath><clipPath id="clip50"><rect x="456" y="1251" width="75" height="75"/></clipPath><clipPath id="clip51"><rect x="456" y="1251" width="75" height="75"/></clipPath><clipPath id="clip52"><rect x="781" y="280" width="74" height="76"/></clipPath><clipPath id="clip53"><rect x="781" y="280" width="74" height="76"/></clipPath><clipPath id="clip54"><rect x="781" y="280" width="74" height="76"/></clipPath></defs><g clip-path="url(#clip0)" transform="translate(-132 5)"><path d="M2334.5 696.337C2334.5 586.522 2423.52 497.5 2533.34 497.5L3840.66 497.5C3950.48 497.5 4039.5 586.522 4039.5 696.337L4039.5 1491.66C4039.5 1601.48 3950.48 1690.5 3840.66 1690.5L2533.34 1690.5C2423.52 1690.5 2334.5 1601.48 2334.5 1491.66Z" stroke="#2F528F" stroke-width="4.58333" stroke-miterlimit="8" stroke-dasharray="18.3333 13.75" fill="#DFE7F5" fill-rule="evenodd"/><path d="M134.5 346.84C134.5 153.905 290.905-2.4999 483.84-2.4999L1881.16-2.4999C2074.1-2.4999 2230.5 153.905 2230.5 346.84L2230.5 1957.16C2230.5 2150.1 2074.1 2306.5 1881.16 2306.5L483.84 2306.5C290.905 2306.5 134.5 2150.1 134.5 1957.16Z" stroke="#2F528F" stroke-width="4.58333" stroke-miterlimit="8" stroke-dasharray="18.3333 13.75" fill="#E2F0D9" fill-rule="evenodd"/><g clip-path="url(#clip1)"><g clip-path="url(#clip2)"><g clip-path="url(#clip3)"><path d="M45.4999 22.7499C43.8936 22.7861 42.6207 24.1173 42.6561 25.7235L42.6561 34.1249C42.6561 35.6955 43.9293 36.9686 45.4999 36.9686 47.0705 36.9686 48.3436 35.6955 48.3436 34.1249L48.3436 25.7235C48.3791 24.1173 47.1061 22.7861 45.4999 22.7499Z" transform="matrix(1 0 0 1 1987 905)"/><path d="M68.4394 58.5214C67.8032 53.4458 67.4415 48.3395 67.3559 43.2249 67.3559 39.0541 67.5455 35.124 67.8213 31.5997 68.784 19.8725 60.0576 9.5854 48.3304 8.62278 48.0549 8.60017 47.779 8.58292 47.5028 8.57104 46.8253 8.5445 46.135 8.53123 45.4316 8.53123 44.7283 8.53123 44.0379 8.5445 43.3604 8.57104 31.6047 9.0767 22.4847 19.0166 22.9904 30.7722 23.0023 31.0474 23.0194 31.3223 23.0419 31.5968 23.3187 35.1212 23.5083 39.0541 23.5083 43.2249 23.4215 48.3405 23.0586 53.4478 22.421 58.5242 20.9691 70.7272 29.6846 81.7967 41.8876 83.2486 42.4455 83.315 43.0057 83.3602 43.5671 83.3842 44.1775 83.4051 44.7991 83.4158 45.4316 83.4164 46.0642 83.4171 46.6864 83.4063 47.2981 83.3842 59.5753 82.858 69.1015 72.4787 68.5753 60.2014 68.5512 59.6399 68.5059 59.0795 68.4394 58.5214ZM52.1353 34.1249C52.1488 37.0912 50.2265 39.7197 47.3957 40.6058L47.3957 54.979C47.3957 56.0261 46.5469 56.8748 45.4999 56.8748 44.4528 56.8748 43.604 56.0261 43.604 54.979L43.604 40.6058C40.7736 39.7191 38.8516 37.091 38.8645 34.1249L38.8645 25.7245C38.8505 22.7578 40.7728 20.1289 43.604 19.2427L43.604 14.2187C43.604 13.1716 44.4528 12.3229 45.4999 12.3229 46.5469 12.3229 47.3957 13.1716 47.3957 14.2187L47.3957 19.2427C50.2265 20.1294 52.1486 22.758 52.1353 25.7245Z" transform="matrix(1 0 0 1 1987 905)"/></g></g></g><g clip-path="url(#clip4)"><g clip-path="url(#clip5)"><g clip-path="url(#clip6)"><path d="M462.958 361.333 79.0416 361.333 79.0416 112.917 462.958 112.917 462.958 361.333ZM474.25 79.0416 67.75 79.0416C55.3291 79.0416 45.1666 89.2041 45.1666 101.625L45.1666 372.625C45.1666 385.046 55.3291 395.208 67.75 395.208L225.833 395.208 225.833 429.083 169.375 429.083 169.375 462.958 372.625 462.958 372.625 429.083 316.167 429.083 316.167 395.208 474.25 395.208C486.671 395.208 496.833 385.046 496.833 372.625L496.833 101.625C496.833 89.2041 486.671 79.0416 474.25 79.0416Z" transform="matrix(1 0 0 1 1640 356)"/></g></g></g><rect x="1833.5" y="502.5" width="146" height="198" stroke="#000000" stroke-width="4.58333" stroke-miterlimit="8" fill="#FFFFFF"/><path d="M1848 535 1910.58 535" stroke="#333333" stroke-width="2.29167" stroke-miterlimit="8" fill="none" fill-rule="evenodd"/><path d="M1848 560 1957.14 560" stroke="#333333" stroke-width="2.29167" stroke-miterlimit="8" fill="none" fill-rule="evenodd"/><path d="M1848 580 1957.14 580" stroke="#333333" stroke-width="2.29167" stroke-miterlimit="8" fill="none" fill-rule="evenodd"/><path d="M1848 600 1957.14 600" stroke="#333333" stroke-width="2.29167" stroke-miterlimit="8" fill="none" fill-rule="evenodd"/><path d="M1848 618 1957.14 618" stroke="#333333" stroke-width="2.29167" stroke-miterlimit="8" fill="none" fill-rule="evenodd"/><path d="M1848 635 1957.14 635" stroke="#333333" stroke-width="2.29167" stroke-miterlimit="8" fill="none" fill-rule="evenodd"/><path d="M1848 656 1939.52 656" stroke="#333333" stroke-width="2.29167" stroke-miterlimit="8" fill="none" fill-rule="evenodd"/><text font-family="Arial,Arial_MSFontService,sans-serif" font-weight="400" font-size="14" transform="matrix(1 0 0 1 1922.05 527)">20<tspan font-size="14" x="14.8958" y="0">-</tspan><tspan font-size="14" x="19.4791" y="0">10</tspan><tspan font-size="14" x="34.375" y="0">-</tspan><tspan font-size="14" x="38.9583" y="0">22</tspan></text><path d="M2004.5 647.667C2004.5 645.365 2006.37 643.5 2008.67 643.5L2082.33 643.5C2084.63 643.5 2086.5 645.365 2086.5 647.667L2086.5 664.333C2086.5 666.635 2084.63 668.5 2082.33 668.5L2008.67 668.5C2006.37 668.5 2004.5 666.635 2004.5 664.333Z" stroke="#4472C4" stroke-width="4.58333" stroke-miterlimit="8" fill="#4472C4" fill-rule="evenodd"/><text font-family="Arial,Arial_MSFontService,sans-serif" font-weight="700" font-size="32" transform="matrix(1 0 0 1 2006.9 667)">SEND</text><path d="M2043.74 700.676 2036.81 687.742 2038.83 686.66 2045.76 699.594ZM2027.86 697.734 2027 667 2052.1 684.75Z" fill="#A5A5A5"/><path d="M1818.5 824C1818.5 773.466 1855.66 732.5 1901.5 732.5 1947.34 732.5 1984.5 773.466 1984.5 824 1984.5 874.534 1947.34 915.5 1901.5 915.5 1855.66 915.5 1818.5 874.534 1818.5 824Z" stroke="#000000" stroke-width="4.58333" stroke-miterlimit="8" fill="#FBE5D6" fill-rule="evenodd"/><path d="M1818.5 949.167C1818.5 933.887 1830.89 921.5 1846.17 921.5L1956.83 921.5C1972.11 921.5 1984.5 933.887 1984.5 949.167L1984.5 1177.83C1984.5 1193.11 1972.11 1205.5 1956.83 1205.5L1846.17 1205.5C1830.89 1205.5 1818.5 1193.11 1818.5 1177.83Z" stroke="#2F528F" stroke-width="4.58333" stroke-miterlimit="8" fill="#4472C4" fill-rule="evenodd"/><path d="M1782.5 1065.67C1782.5 1057.84 1788.84 1051.5 1796.67 1051.5L2009.33 1051.5C2017.16 1051.5 2023.5 1057.84 2023.5 1065.67L2023.5 1122.33C2023.5 1130.16 2017.16 1136.5 2009.33 1136.5L1796.67 1136.5C1788.84 1136.5 1782.5 1130.16 1782.5 1122.33Z" stroke="#2F528F" stroke-width="4.58333" stroke-miterlimit="8" fill="#AD6D5B" fill-rule="evenodd"/><rect x="1893.5" y="1136.5" width="16.0001" height="74.9999" stroke="#787878" stroke-width="4.58333" stroke-miterlimit="8" fill="#A5A5A5"/><path d="M1789.5 1213.33C1789.5 1211.77 1790.77 1210.5 1792.33 1210.5L2020.67 1210.5C2022.23 1210.5 2023.5 1211.77 2023.5 1213.33L2023.5 1224.67C2023.5 1226.23 2022.23 1227.5 2020.67 1227.5L1792.33 1227.5C1790.77 1227.5 1789.5 1226.23 1789.5 1224.67Z" stroke="#2F528F" stroke-width="4.58333" stroke-miterlimit="8" fill="#AD6D5B" fill-rule="evenodd"/><rect x="1839.5" y="1227.5" width="39.0002" height="119" stroke="#000000" stroke-width="4.58333" stroke-miterlimit="8"/><rect x="1936.5" y="1227.5" width="39.0002" height="119" stroke="#000000" stroke-width="4.58333" stroke-miterlimit="8"/><path d="M1983 991.158C1994.74 999.448 2006.48 1007.74 2016.14 1002.21 2025.81 996.685 2041 958 2041 958L2041 958" stroke="#2F528F" stroke-width="27.5" stroke-miterlimit="8" fill="none" fill-rule="evenodd"/><text fill="#333333" font-family="Calibri,Calibri_MSFontService,sans-serif" font-weight="400" font-size="50" transform="matrix(1 0 0 1 1704.42 1535)">Communication.sent</text><g clip-path="url(#clip7)"><g clip-path="url(#clip8)"><g clip-path="url(#clip9)"><path d="M437.333 341.333 74.6667 341.333 74.6667 106.667 437.333 106.667 437.333 341.333ZM448 74.6667 64 74.6667C52.2667 74.6667 42.6667 84.2667 42.6667 96L42.6667 352C42.6667 363.733 52.2667 373.333 64 373.333L213.333 373.333 213.333 405.333 160 405.333 160 437.333 352 437.333 352 405.333 298.667 405.333 298.667 373.333 448 373.333C459.733 373.333 469.334 363.733 469.334 352L469.334 96C469.334 84.2667 459.733 74.6667 448 74.6667Z" transform="matrix(1.07031 0 0 1 2422 798)"/></g></g></g><g clip-path="url(#clip10)"><g clip-path="url(#clip11)"><g clip-path="url(#clip12)"><path d="M49.4416 36.8333 86.2749 36.8333 86.2749 42.4999 49.4416 42.4999Z" transform="matrix(1.07353 0 0 1 2713 905)"/><path d="M49.4416 48.1666 86.2749 48.1666 86.2749 53.8332 49.4416 53.8332Z" transform="matrix(1.07353 0 0 1 2713 905)"/><path d="M49.4416 59.4999 86.2749 59.4999 86.2749 65.1666 49.4416 65.1666Z" transform="matrix(1.07353 0 0 1 2713 905)"/><path d="M117.583 118.433 89.2498 91.5165 117.583 64.5999 117.583 118.433ZM25.7833 121.833 53.8332 95.3415 55.8166 93.4998C63.4666 86.2749 75.5082 86.2749 83.1582 93.4998L85.1415 95.3415 113.05 121.833 25.7833 121.833ZM21.25 64.4582 49.5832 91.3748 21.25 118.291 21.25 64.4582ZM41.0833 28.3333 97.7498 28.3333 97.7498 75.5082 84.9999 87.6915C75.7915 80.6082 63.0416 80.6082 53.8332 87.6915L41.0833 75.5082 41.0833 28.3333ZM106.25 32.1583 106.25 19.8333 86.4165 19.8333 69.4165 5.66666 52.4166 19.8333 32.5833 19.8333 32.5833 32.2999 12.75 51.1416 12.75 130.333 126.083 130.333 126.083 51.1416 106.25 32.1583Z" transform="matrix(1.07353 0 0 1 2713 905)"/></g></g></g><g clip-path="url(#clip13)"><g clip-path="url(#clip14)"><g clip-path="url(#clip15)"><path d="M76.5624 50.5312C76.5624 52.2225 75.1913 53.5937 73.4999 53.5937 71.8085 53.5937 70.4374 52.2225 70.4374 50.5312 70.4374 48.8398 71.8085 47.4687 73.4999 47.4687 75.1913 47.4687 76.5624 48.8398 76.5624 50.5312Z" transform="matrix(1 0 0 1.00681 2488 996)"/><path d="M76.5624 111.781C76.5624 113.472 75.1913 114.844 73.4999 114.844 71.8085 114.844 70.4374 113.472 70.4374 111.781 70.4374 110.09 71.8085 108.719 73.4999 108.719 75.1913 108.719 76.5624 110.09 76.5624 111.781Z" transform="matrix(1 0 0 1.00681 2488 996)"/><path d="M107.187 79.6249C107.187 81.3162 105.816 82.6874 104.125 82.6874 102.433 82.6874 101.062 81.3162 101.062 79.6249 101.062 77.9335 102.433 76.5624 104.125 76.5624 105.816 76.5624 107.187 77.9335 107.187 79.6249Z" transform="matrix(1 0 0 1.00681 2488 996)"/><path d="M45.9374 79.6249C45.9374 81.3162 44.5663 82.6874 42.8749 82.6874 41.1836 82.6874 39.8124 81.3162 39.8124 79.6249 39.8124 77.9335 41.1836 76.5624 42.8749 76.5624 44.5663 76.5624 45.9374 77.9335 45.9374 79.6249Z" transform="matrix(1 0 0 1.00681 2488 996)"/><path d="M76.5624 58.1874 70.4374 58.1874 70.4374 79.6249C70.4374 80.3905 70.7436 81.1561 71.3561 81.7686L86.5155 96.928 90.803 92.6405 76.5624 78.3999 76.5624 58.1874Z" transform="matrix(1 0 0 1.00681 2488 996)"/><path d="M73.4999 124.031C49.7655 124.031 30.625 104.89 30.625 81.1561 30.625 57.4218 49.7655 38.2812 73.4999 38.2812 97.2342 38.2812 116.375 57.4218 116.375 81.1561 116.375 104.89 97.2342 124.031 73.4999 124.031L73.4999 124.031ZM109.79 43.7937 114.384 39.1999C116.069 37.3624 116.069 34.6062 114.231 32.7687 112.547 31.0843 109.637 30.9312 107.8 32.6156L102.594 37.9749C95.2436 33.0749 86.8217 30.0125 78.0936 29.4L78.0936 22.9687 91.8749 22.9687 91.8749 13.7812 55.1249 13.7812 55.1249 22.9687 68.9061 22.9687 68.9061 29.2468C44.5593 31.3906 24.9593 50.2249 21.8968 74.5718 18.8343 98.9186 33.0749 122.04 56.1968 130.156 79.3186 138.272 104.89 129.39 117.906 108.565 130.922 87.7405 127.247 60.7905 109.79 43.7937L109.79 43.7937Z" transform="matrix(1 0 0 1.00681 2488 996)"/></g></g></g><text fill="#333333" font-family="Calibri,Calibri_MSFontService,sans-serif" font-weight="400" font-size="50" transform="matrix(1 0 0 1 2497.98 1480)">Bundle.timestamp</text><g clip-path="url(#clip16)"><g clip-path="url(#clip17)"><g clip-path="url(#clip18)"><path d="M11.5834 28.9584 11.5834 110.042 127.417 110.042 127.417 28.9584 11.5834 28.9584ZM71.5272 79.4908C70.3689 80.6491 68.6314 80.6491 67.473 79.4908L24.6146 37.6459 114.53 37.6459 71.5272 79.4908ZM48.5053 69.0657 20.2709 97.445 20.2709 41.4105 48.5053 69.0657ZM52.7043 73.1199 63.5636 83.6897C65.3011 85.2824 67.473 86.1512 69.6449 86.1512 71.8168 86.1512 73.9887 85.2824 75.7262 83.6897L86.5856 73.1199 114.675 101.354 24.4698 101.354 52.7043 73.1199ZM90.4949 69.0657 118.729 41.5553 118.729 97.3002 90.4949 69.0657Z" transform="matrix(1.05036 0 0 1 3581 900)"/></g></g></g><g clip-path="url(#clip19)"><g clip-path="url(#clip20)"><g clip-path="url(#clip21)"><path d="M410 320 70 320 70 100 410 100 410 320ZM420 70 60 70C49 70 40 79 40 90L40 330C40 341 49 350 60 350L200 350 200 380 150 380 150 410 330 410 330 380 280 380 280 350 420 350C431 350 440 341 440 330L440 90C440 79 431 70 420 70Z" transform="matrix(1.05625 0 0 1 3302 819)"/></g></g></g><g clip-path="url(#clip22)"><g clip-path="url(#clip23)"><g clip-path="url(#clip24)"><path d="M71.3543 47.0938C71.3543 48.6701 70.0764 49.948 68.5001 49.948 66.9238 49.948 65.6459 48.6701 65.6459 47.0938 65.6459 45.5175 66.9238 44.2396 68.5001 44.2396 70.0764 44.2396 71.3543 45.5175 71.3543 47.0938Z" transform="matrix(1 0 0 1.0146 3354 998)"/><path d="M71.3543 104.177C71.3543 105.754 70.0764 107.031 68.5001 107.031 66.9238 107.031 65.6459 105.754 65.6459 104.177 65.6459 102.601 66.9238 101.323 68.5001 101.323 70.0764 101.323 71.3543 102.601 71.3543 104.177Z" transform="matrix(1 0 0 1.0146 3354 998)"/><path d="M99.896 74.2084C99.896 75.7847 98.6181 77.0626 97.0418 77.0626 95.4655 77.0626 94.1876 75.7847 94.1876 74.2084 94.1876 72.6321 95.4655 71.3543 97.0418 71.3543 98.6181 71.3543 99.896 72.6321 99.896 74.2084Z" transform="matrix(1 0 0 1.0146 3354 998)"/><path d="M42.8125 74.2084C42.8125 75.7847 41.5347 77.0626 39.9584 77.0626 38.3821 77.0626 37.1042 75.7847 37.1042 74.2084 37.1042 72.6321 38.3821 71.3543 39.9584 71.3543 41.5347 71.3543 42.8125 72.6321 42.8125 74.2084Z" transform="matrix(1 0 0 1.0146 3354 998)"/><path d="M71.3543 54.2292 65.6459 54.2292 65.6459 74.2084C65.6459 74.922 65.9313 75.6355 66.5022 76.2063L80.6303 90.3345 84.6261 86.3386 71.3543 73.0668 71.3543 54.2292Z" transform="matrix(1 0 0 1.0146 3354 998)"/><path d="M68.5001 115.594C46.3803 115.594 28.5417 97.7553 28.5417 75.6355 28.5417 53.5157 46.3803 35.6771 68.5001 35.6771 90.6199 35.6771 108.458 53.5157 108.458 75.6355 108.458 97.7553 90.6199 115.594 68.5001 115.594L68.5001 115.594ZM102.322 40.8146 106.603 36.5334C108.173 34.8209 108.173 32.2521 106.461 30.5396 104.891 28.9698 102.179 28.8271 100.467 30.3969L95.6147 35.3917C88.7647 30.825 80.9157 27.9709 72.7813 27.4L72.7813 21.4063 85.6251 21.4063 85.6251 12.8438 51.3751 12.8438 51.3751 21.4063 64.2188 21.4063 64.2188 27.2573C41.5282 29.2552 23.2615 46.8084 20.4073 69.499 17.5531 92.1897 30.825 113.739 52.374 121.302 73.923 128.866 97.7553 120.589 109.886 101.18 122.016 81.772 118.591 56.6553 102.322 40.8146L102.322 40.8146Z" transform="matrix(1 0 0 1.0146 3354 998)"/></g></g></g><text fill="#333333" font-family="Arial,Arial_MSFontService,sans-serif" font-weight="400" font-size="46" transform="matrix(1 0 0 1 3321.9 1457)">Provenance.recorded<tspan font-size="46" x="5.35327" y="100">Provenance.occuredDateTi</tspan><tspan font-size="46" x="249.691" y="155">me</tspan></text><path d="M3552.15 1242 3552.15 1348.48 3549.85 1348.48 3549.85 1242ZM3564.75 1343.9 3551 1371.4 3537.25 1343.9Z" fill="#2C415C"/><path d="M2697.15 1250 2697.15 1356.48 2694.85 1356.48 2694.85 1250ZM2709.75 1351.9 2696 1379.4 2682.25 1351.9Z" fill="#2C415C"/><path d="M1903.15 1363 1903.15 1469.48 1900.85 1469.48 1900.85 1363ZM1915.75 1464.9 1902 1492.4 1888.25 1464.9Z" fill="#2C415C"/><text fill="#2C415C" font-family="Calibri,Calibri_MSFontService,sans-serif" font-weight="700" font-size="50" transform="matrix(1 0 0 1 1693.72 323)">Healthcare professional <tspan font-size="50" x="0" y="61">presses send </tspan><tspan font-size="50" x="277.292" y="61">button</tspan></text><path d="M3008 1049.85 3220.5 1049.85 3220.5 1052.15 3008 1052.15ZM3215.91 1037.25 3243.41 1051 3215.91 1064.75Z" fill="#4472C4"/><text fill="#2C415C" font-family="Arial,Arial_MSFontService,sans-serif" font-weight="700" font-size="50" transform="matrix(1 0 0 1 2406.04 826)">CareCommunication<tspan font-size="50" x="507.031" y="0">created</tspan></text><g clip-path="url(#clip25)"><g clip-path="url(#clip26)"><g clip-path="url(#clip27)"><path d="M1750.5 503.75C1750.5 504.578 1749.83 505.25 1749 505.25 1748.17 505.25 1747.5 504.578 1747.5 503.75 1747.5 502.921 1748.17 502.25 1749 502.25 1749.83 502.25 1750.5 502.921 1750.5 503.75Z"/><path d="M1750.5 533.75C1750.5 534.578 1749.83 535.25 1749 535.25 1748.17 535.25 1747.5 534.578 1747.5 533.75 1747.5 532.922 1748.17 532.25 1749 532.25 1749.83 532.25 1750.5 532.922 1750.5 533.75Z"/><path d="M1765.5 518C1765.5 518.828 1764.83 519.5 1764 519.5 1763.17 519.5 1762.5 518.828 1762.5 518 1762.5 517.172 1763.17 516.5 1764 516.5 1764.83 516.5 1765.5 517.172 1765.5 518Z"/><path d="M1735.5 518C1735.5 518.828 1734.83 519.5 1734 519.5 1733.17 519.5 1732.5 518.828 1732.5 518 1732.5 517.172 1733.17 516.5 1734 516.5 1734.83 516.5 1735.5 517.172 1735.5 518Z"/><path d="M1750.5 507.5 1747.5 507.5 1747.5 518C1747.5 518.375 1747.65 518.75 1747.95 519.05L1755.38 526.475 1757.47 524.375 1750.5 517.4 1750.5 507.5Z"/><path d="M1749 539.75C1737.38 539.75 1728 530.375 1728 518.75 1728 507.125 1737.38 497.75 1749 497.75 1760.62 497.75 1770 507.125 1770 518.75 1770 530.375 1760.62 539.75 1749 539.75L1749 539.75ZM1766.78 500.45 1769.03 498.2C1769.85 497.3 1769.85 495.95 1768.95 495.05 1768.12 494.225 1766.7 494.15 1765.8 494.975L1763.25 497.6C1759.65 495.2 1755.53 493.7 1751.25 493.4L1751.25 490.25 1758 490.25 1758 485.75 1740 485.75 1740 490.25 1746.75 490.25 1746.75 493.325C1734.82 494.375 1725.22 503.6 1723.72 515.525 1722.22 527.45 1729.2 538.775 1740.52 542.75 1751.85 546.725 1764.38 542.375 1770.75 532.175 1777.12 521.975 1775.33 508.775 1766.78 500.45L1766.78 500.45Z"/></g></g></g><text fill="#2C415C" font-family="Arial,Arial_MSFontService,sans-serif" font-weight="700" font-size="50" transform="matrix(1 0 0 1 3290.39 805)">CareCommunication<tspan font-size="50" x="507.031" y="0">sent </tspan></text><g clip-path="url(#clip28)"><g clip-path="url(#clip29)"><g clip-path="url(#clip30)"><path d="M374.979 292.667 64.0208 292.667 64.0208 91.4583 374.979 91.4583 374.979 292.667ZM384.125 64.0208 54.875 64.0208C44.8146 64.0208 36.5833 72.2521 36.5833 82.3125L36.5833 301.812C36.5833 311.873 44.8146 320.104 54.875 320.104L182.917 320.104 182.917 347.542 137.188 347.542 137.188 374.979 301.812 374.979 301.812 347.542 256.083 347.542 256.083 320.104 384.125 320.104C394.185 320.104 402.417 311.873 402.417 301.812L402.417 82.3125C402.417 72.2521 394.185 64.0208 384.125 64.0208Z" transform="matrix(1.34852 0 0 1 364 44)"/></g></g></g><g clip-path="url(#clip31)"><g clip-path="url(#clip32)"><g clip-path="url(#clip33)"><path d="M220.327 68.5417 14.7022 68.5417C9.2944 68.5417 4.91052 72.9257 4.91052 78.3334L4.91052 156.667C4.91052 162.074 9.2944 166.458 14.7022 166.458L220.327 166.458C225.735 166.458 230.119 162.074 230.119 156.667L230.119 78.3334C230.119 72.9257 225.735 68.5417 220.327 68.5417ZM122.411 85.6771 137.098 85.6771 137.098 100.365 122.411 100.365ZM122.411 110.156 137.098 110.156 137.098 124.844 122.411 124.844ZM97.9314 85.6771 112.619 85.6771 112.619 100.365 97.9314 100.365ZM97.9314 110.156 112.619 110.156 112.619 124.844 97.9314 124.844ZM73.4522 85.6771 88.1397 85.6771 88.1397 100.365 73.4522 100.365ZM73.4522 110.156 88.1397 110.156 88.1397 124.844 73.4522 124.844ZM39.1814 149.323 24.4939 149.323 24.4939 134.635 39.1814 134.635ZM39.1814 124.844 24.4939 124.844 24.4939 110.156 39.1814 110.156ZM39.1814 100.365 24.4939 100.365 24.4939 85.6771 39.1814 85.6771ZM63.6606 149.323 48.973 149.323 48.973 134.635 63.6606 134.635ZM63.6606 124.844 48.973 124.844 48.973 110.156 63.6606 110.156ZM63.6606 100.365 48.973 100.365 48.973 85.6771 63.6606 85.6771ZM161.577 149.323 73.4522 149.323 73.4522 134.635 161.577 134.635ZM161.577 124.844 146.89 124.844 146.89 110.156 161.577 110.156ZM161.577 100.365 146.89 100.365 146.89 85.6771 161.577 85.6771ZM186.056 149.323 171.369 149.323 171.369 134.635 186.056 134.635ZM186.056 124.844 171.369 124.844 171.369 110.156 186.056 110.156ZM186.056 100.365 171.369 100.365 171.369 85.6771 186.056 85.6771ZM210.536 149.323 195.848 149.323 195.848 134.635 210.536 134.635ZM210.536 124.844 195.848 124.844 195.848 110.156 210.536 110.156ZM210.536 100.365 195.848 100.365 195.848 85.6771 210.536 85.6771Z" transform="matrix(1.34468 0 0 1 486 358)"/></g></g></g><path d="M507.5 481.001C507.5 466.365 519.365 454.5 534 454.5L639.999 454.5C654.635 454.5 666.5 466.365 666.5 481.001L666.5 630C666.5 644.635 654.635 656.5 639.999 656.5L534 656.5C519.365 656.5 507.5 644.635 507.5 630Z" stroke="#2F528F" stroke-width="4.58333" stroke-miterlimit="8" fill="#4472C4" fill-rule="evenodd"/><path d="M473.5 556.667C473.5 551.052 478.052 546.5 483.667 546.5L694.333 546.5C699.948 546.5 704.5 551.052 704.5 556.667L704.5 597.333C704.5 602.948 699.948 607.5 694.333 607.5L483.667 607.5C478.052 607.5 473.5 602.948 473.5 597.333Z" stroke="#2F528F" stroke-width="4.58333" stroke-miterlimit="8" fill="#AD6D5B" fill-rule="evenodd"/><rect x="579.5" y="607.5" width="14.9998" height="52.9999" stroke="#787878" stroke-width="4.58333" stroke-miterlimit="8" fill="#A5A5A5"/><path d="M479.5 662.333C479.5 661.321 480.321 660.5 481.333 660.5L702.666 660.5C703.679 660.5 704.5 661.321 704.5 662.333L704.5 669.666C704.5 670.679 703.679 671.5 702.666 671.5L481.333 671.5C480.321 671.5 479.5 670.679 479.5 669.666Z" stroke="#2F528F" stroke-width="4.58333" stroke-miterlimit="8" fill="#AD6D5B" fill-rule="evenodd"/><rect x="527.5" y="671.5" width="36.9998" height="85.0002" stroke="#000000" stroke-width="4.58333" stroke-miterlimit="8"/><rect x="620.5" y="671.5" width="37.0001" height="85.0002" stroke="#000000" stroke-width="4.58333" stroke-miterlimit="8"/><path d="M665 504.066C676.333 509.833 687.667 515.6 697 511.755 706.333 507.911 721 481 721 481L721 481" stroke="#2F528F" stroke-width="27.5" stroke-miterlimit="8" fill="none" fill-rule="evenodd"/><path d="M510.5 385.5C510.5 349.601 546.093 320.5 590 320.5 633.907 320.5 669.5 349.601 669.5 385.5 669.5 421.399 633.907 450.5 590 450.5 546.093 450.5 510.5 421.399 510.5 385.5Z" stroke="#000000" stroke-width="4.58333" stroke-miterlimit="8" fill="#FBE5D6" fill-rule="evenodd"/><rect x="458.5" y="144.5" width="403" height="178" stroke="#000000" stroke-width="4.58333" stroke-miterlimit="8" fill="none"/><path d="M456.5 187.5 859.038 187.5" stroke="#000000" stroke-width="4.58333" stroke-miterlimit="8" fill="none" fill-rule="evenodd"/><path d="M826 168.5C826 170.985 822.642 173 818.5 173 814.358 173 811 170.985 811 168.5 811 166.015 814.358 164 818.5 164 822.642 164 826 166.015 826 168.5Z" fill-rule="evenodd"/><path d="M852.001 167.5C852.001 169.985 848.643 172 844.5 172 840.358 172 837 169.985 837 167.5 837 165.015 840.358 163 844.5 163 848.643 163 852.001 165.015 852.001 167.5Z" fill-rule="evenodd"/><path d="M800 168.5C800 170.985 796.642 173 792.5 173 788.358 173 785 170.985 785 168.5 785 166.015 788.358 164 792.5 164 796.642 164 800 166.015 800 168.5Z" fill-rule="evenodd"/><path d="M637 210 858.453 210" stroke="#333333" stroke-width="2.29167" stroke-miterlimit="8" fill="none" fill-rule="evenodd"/><path d="M644 233 857.547 233" stroke="#333333" stroke-width="2.29167" stroke-miterlimit="8" fill="none" fill-rule="evenodd"/><path d="M668 251 858.136 251" stroke="#333333" stroke-width="2.29167" stroke-miterlimit="8" fill="none" fill-rule="evenodd"/><path d="M486.5 208C486.5 198.335 494.335 190.5 504 190.5L574 190.5C583.665 190.5 591.5 198.335 591.5 208L591.5 296C591.5 305.665 583.665 313.5 574 313.5L504 313.5C494.335 313.5 486.5 305.665 486.5 296Z" stroke="#000000" stroke-width="4.58333" stroke-miterlimit="8" fill="#FFFFFF" fill-rule="evenodd"/><g clip-path="url(#clip34)"><g clip-path="url(#clip35)"><g clip-path="url(#clip36)"><path d="M5.78121 29.2996 31.2186 29.2996C32.0689 29.2968 32.7575 28.6082 32.7602 27.7579L32.7602 12.3367C32.7575 11.4864 32.0689 10.7978 31.2186 10.7951L18.1145 10.7951 13.8749 7.98154C13.6323 7.7957 13.3324 7.70031 13.027 7.71175L5.78121 7.71175C4.93084 7.7143 4.2421 8.40303 4.23956 9.25341L4.23956 27.7575C4.24187 28.6081 4.93068 29.297 5.78121 29.2996ZM5.01039 9.25264C5.01039 8.82691 5.35549 8.48181 5.78121 8.48181L13.027 8.48181C13.1518 8.47302 13.2761 8.50494 13.3812 8.57277L13.4136 8.59975 13.4486 8.62287 17.6882 11.4364 17.8809 11.5651 31.2186 11.5651C31.6443 11.5651 31.9894 11.9102 31.9894 12.336L31.9894 27.7575C31.9894 28.1833 31.6443 28.5284 31.2186 28.5284L5.78121 28.5284C5.35549 28.5284 5.01039 28.1833 5.01039 27.7575Z" stroke="#70AD47" stroke-width="3.28887" fill="#FFFFFF" transform="matrix(1.32434 0 0 1 490 191)"/></g></g></g><g clip-path="url(#clip37)"><g clip-path="url(#clip38)"><g clip-path="url(#clip39)"><path d="M5.78121 29.2996 31.2186 29.2996C32.0689 29.2968 32.7575 28.6082 32.7602 27.7579L32.7602 12.3367C32.7575 11.4864 32.0689 10.7978 31.2186 10.7951L18.1145 10.7951 13.8749 7.98154C13.6323 7.7957 13.3324 7.70031 13.027 7.71175L5.78121 7.71175C4.93084 7.7143 4.2421 8.40303 4.23956 9.25341L4.23956 27.7575C4.24187 28.6081 4.93068 29.297 5.78121 29.2996ZM5.01039 9.25264C5.01039 8.82691 5.35549 8.48181 5.78121 8.48181L13.027 8.48181C13.1518 8.47302 13.2761 8.50494 13.3812 8.57277L13.4136 8.59975 13.4486 8.62287 17.6882 11.4364 17.8809 11.5651 31.2186 11.5651C31.6443 11.5651 31.9894 11.9102 31.9894 12.336L31.9894 27.7575C31.9894 28.1833 31.6443 28.5284 31.2186 28.5284L5.78121 28.5284C5.35549 28.5284 5.01039 28.1833 5.01039 27.7575Z" transform="matrix(1.35137 0 0 1 491 223)"/></g></g></g><path d="M496.5 287C496.5 285.067 498.067 283.5 500 283.5L578 283.5C579.933 283.5 581.5 285.067 581.5 287L581.5 301C581.5 302.933 579.933 304.5 578 304.5L500 304.5C498.067 304.5 496.5 302.933 496.5 301Z" stroke="#2F528F" stroke-width="4.58333" stroke-miterlimit="8" fill="#4472C4" fill-rule="evenodd"/><text font-family="Arial,Arial_MSFontService,sans-serif" font-weight="700" font-size="28" transform="matrix(1 0 0 1 507.147 305)">SAVE</text><path d="M1.03138-0.499196 11.6169 21.3712 9.55412 22.3696-1.03138 0.499196ZM20.9652 11.7546 20.5694 42.498-3.7878 23.7353Z" fill="#A5A5A5" transform="matrix(1 0 0 -1 482 339.498)"/><g clip-path="url(#clip40)"><g clip-path="url(#clip41)"><g clip-path="url(#clip42)"><path d="M46.1417 86.5157C36.0482 86.5157 27.8773 78.3448 27.8773 68.2513L27.8773 19.2257C27.8773 11.8238 33.9334 5.76771 41.3353 5.76771 48.7372 5.76771 54.7933 11.8238 54.7933 19.2257L54.7933 64.4061C54.7933 69.2126 50.9481 73.0577 46.1417 73.0577 41.3353 73.0577 37.4901 69.2126 37.4901 64.4061L37.4901 41.3353 43.2579 41.3353 43.2579 64.4061C43.2579 66.0403 44.5075 67.29 46.1417 67.29 47.7759 67.29 49.0256 66.0403 49.0256 64.4061L49.0256 19.2257C49.0256 14.9961 45.5649 11.5354 41.3353 11.5354 37.1056 11.5354 33.645 14.9961 33.645 19.2257L33.645 68.2513C33.645 75.1725 39.2205 80.748 46.1417 80.748 53.063 80.748 58.6384 75.1725 58.6384 68.2513L58.6384 48.0643 64.4061 48.0643 64.4061 68.2513C64.4061 78.3448 56.2352 86.5157 46.1417 86.5157Z" stroke="#00B050" stroke-width="1.53806" fill="#00B050" transform="matrix(0.864602 -0.502457 0.580198 0.998376 524.389 179.227)"/></g></g></g><text fill="#333333" font-family="Calibri,Calibri_MSFontService,sans-serif" font-weight="400" font-size="50" transform="matrix(1 0 0 1 204.635 2082)">Communication.payload:string.extension:<tspan font-size="50" x="0" y="61">date</tspan></text><g clip-path="url(#clip43)"><g clip-path="url(#clip44)"><g clip-path="url(#clip45)"><path d="M421.958 329.333 72.0417 329.333 72.0417 102.917 421.958 102.917 421.958 329.333ZM432.25 72.0417 61.75 72.0417C50.4292 72.0417 41.1667 81.3042 41.1667 92.625L41.1667 339.625C41.1667 350.946 50.4292 360.208 61.75 360.208L205.833 360.208 205.833 391.083 154.375 391.083 154.375 421.958 339.625 421.958 339.625 391.083 288.167 391.083 288.167 360.208 432.25 360.208C443.571 360.208 452.833 350.946 452.833 339.625L452.833 92.625C452.833 81.3042 443.571 72.0417 432.25 72.0417Z" transform="matrix(1 0 0 1.01215 387 1137)"/></g></g></g><rect x="563.5" y="1272.5" width="133" height="183" stroke="#000000" stroke-width="4.58333" stroke-miterlimit="8" fill="#FFFFFF"/><path d="M577 1303 634.072 1303" stroke="#333333" stroke-width="2.29167" stroke-miterlimit="8" fill="none" fill-rule="evenodd"/><path d="M577 1326 676.529 1326" stroke="#333333" stroke-width="2.29167" stroke-miterlimit="8" fill="none" fill-rule="evenodd"/><path d="M577 1344 676.529 1344" stroke="#333333" stroke-width="2.29167" stroke-miterlimit="8" fill="none" fill-rule="evenodd"/><path d="M577 1362 676.529 1362" stroke="#333333" stroke-width="2.29167" stroke-miterlimit="8" fill="none" fill-rule="evenodd"/><path d="M577 1379 676.529 1379" stroke="#333333" stroke-width="2.29167" stroke-miterlimit="8" fill="none" fill-rule="evenodd"/><path d="M577 1395 676.529 1395" stroke="#333333" stroke-width="2.29167" stroke-miterlimit="8" fill="none" fill-rule="evenodd"/><path d="M577 1414 660.463 1414" stroke="#333333" stroke-width="2.29167" stroke-miterlimit="8" fill="none" fill-rule="evenodd"/><text font-family="Arial,Arial_MSFontService,sans-serif" font-weight="400" font-size="14" transform="matrix(1 0 0 1 647.028 1298)">20<tspan font-size="14" x="14.8958" y="0">-</tspan><tspan font-size="14" x="19.4791" y="0">10</tspan><tspan font-size="14" x="34.375" y="0">-</tspan><tspan font-size="14" x="0" y="17">22</tspan></text><path d="M716.5 1446.5C716.5 1444.29 718.291 1442.5 720.5 1442.5L786.5 1442.5C788.709 1442.5 790.5 1444.29 790.5 1446.5L790.5 1462.5C790.5 1464.71 788.709 1466.5 786.5 1466.5L720.5 1466.5C718.291 1466.5 716.5 1464.71 716.5 1462.5Z" stroke="#4472C4" stroke-width="4.58333" stroke-miterlimit="8" fill="#4472C4" fill-rule="evenodd"/><text font-family="Arial,Arial_MSFontService,sans-serif" font-weight="700" font-size="32" transform="matrix(1 0 0 1 723.49 1468)">SAVE</text><path d="M1.08705-0.362299 5.87251 13.9961 3.69841 14.7207-1.08705 0.362299ZM16.3808 5.6626 12.0314 36.0993-9.70832 14.3578Z" fill="#A5A5A5" transform="matrix(1 0 0 -1 700 1475.1)"/><g clip-path="url(#clip46)"><g clip-path="url(#clip47)"><g clip-path="url(#clip48)"><path d="M722.5 1598.25C720.859 1598.29 719.558 1599.65 719.594 1601.29L719.594 1609.88C719.594 1611.48 720.895 1612.78 722.5 1612.78 724.105 1612.78 725.406 1611.48 725.406 1609.88L725.406 1601.29C725.443 1599.65 724.142 1598.29 722.5 1598.25Z"/><path d="M745.944 1634.81C745.294 1629.62 744.924 1624.4 744.836 1619.18 744.836 1614.91 745.03 1610.9 745.312 1607.29 746.296 1595.31 737.378 1584.8 725.393 1583.81 725.111 1583.79 724.829 1583.77 724.547 1583.76 723.855 1583.73 723.149 1583.72 722.43 1583.72 721.712 1583.72 721.006 1583.73 720.314 1583.76 708.299 1584.28 698.979 1594.43 699.496 1606.45 699.508 1606.73 699.526 1607.01 699.549 1607.29 699.831 1610.89 700.025 1614.91 700.025 1619.18 699.937 1624.4 699.566 1629.62 698.914 1634.81 697.43 1647.28 706.337 1658.59 718.808 1660.08 719.379 1660.15 719.951 1660.19 720.525 1660.22 721.149 1660.24 721.784 1660.25 722.43 1660.25 723.077 1660.25 723.713 1660.24 724.338 1660.22 736.885 1659.68 746.62 1649.07 746.083 1636.52 746.058 1635.95 746.012 1635.38 745.944 1634.81ZM729.281 1609.88C729.295 1612.91 727.331 1615.59 724.438 1616.5L724.438 1631.19C724.438 1632.26 723.57 1633.12 722.5 1633.12 721.43 1633.12 720.563 1632.26 720.563 1631.19L720.563 1616.5C717.67 1615.59 715.706 1612.91 715.719 1609.88L715.719 1601.29C715.705 1598.26 717.669 1595.57 720.563 1594.67L720.563 1589.53C720.563 1588.46 721.43 1587.59 722.5 1587.59 723.57 1587.59 724.438 1588.46 724.438 1589.53L724.438 1594.67C727.331 1595.57 729.295 1598.26 729.281 1601.29Z"/></g></g></g><path d="M505.5 1525.5C505.5 1486.84 541.317 1455.5 585.5 1455.5 629.683 1455.5 665.5 1486.84 665.5 1525.5 665.5 1564.16 629.683 1595.5 585.5 1595.5 541.317 1595.5 505.5 1564.16 505.5 1525.5Z" stroke="#000000" stroke-width="4.58333" stroke-miterlimit="8" fill="#FBE5D6" fill-rule="evenodd"/><path d="M505.5 1627.17C505.5 1612.44 517.439 1600.5 532.167 1600.5L638.833 1600.5C653.561 1600.5 665.5 1612.44 665.5 1627.17L665.5 1791.83C665.5 1806.56 653.561 1818.5 638.833 1818.5L532.167 1818.5C517.439 1818.5 505.5 1806.56 505.5 1791.83Z" stroke="#2F528F" stroke-width="4.58333" stroke-miterlimit="8" fill="#4472C4" fill-rule="evenodd"/><path d="M470.5 1711.33C470.5 1705.35 475.35 1700.5 481.334 1700.5L691.667 1700.5C697.65 1700.5 702.5 1705.35 702.5 1711.33L702.5 1754.67C702.5 1760.65 697.65 1765.5 691.667 1765.5L481.334 1765.5C475.35 1765.5 470.5 1760.65 470.5 1754.67Z" stroke="#2F528F" stroke-width="4.58333" stroke-miterlimit="8" fill="#AD6D5B" fill-rule="evenodd"/><rect x="577.5" y="1765.5" width="16.0002" height="57.0001" stroke="#787878" stroke-width="4.58333" stroke-miterlimit="8" fill="#A5A5A5"/><path d="M476.5 1824.5C476.5 1823.4 477.395 1822.5 478.5 1822.5L700.5 1822.5C701.605 1822.5 702.5 1823.4 702.5 1824.5L702.5 1832.5C702.5 1833.6 701.605 1834.5 700.5 1834.5L478.5 1834.5C477.395 1834.5 476.5 1833.6 476.5 1832.5Z" stroke="#2F528F" stroke-width="4.58333" stroke-miterlimit="8" fill="#AD6D5B" fill-rule="evenodd"/><rect x="524.5" y="1834.5" width="37.9998" height="91.9998" stroke="#000000" stroke-width="4.58333" stroke-miterlimit="8"/><rect x="618.5" y="1834.5" width="38.0002" height="91.9998" stroke="#000000" stroke-width="4.58333" stroke-miterlimit="8"/><path d="M664 1653.23C675.333 1659.54 686.667 1665.84 696 1661.64 705.333 1657.43 720 1628 720 1628L720 1628" stroke="#2F528F" stroke-width="27.5" stroke-miterlimit="8" fill="none" fill-rule="evenodd"/><g clip-path="url(#clip49)"><g clip-path="url(#clip50)"><g clip-path="url(#clip51)"><path d="M494.542 1277.44C494.542 1278.29 493.852 1278.98 493 1278.98 492.149 1278.98 491.458 1278.29 491.458 1277.44 491.458 1276.59 492.149 1275.9 493 1275.9 493.852 1275.9 494.542 1276.59 494.542 1277.44Z"/><path d="M494.542 1308.27C494.542 1309.12 493.852 1309.81 493 1309.81 492.149 1309.81 491.458 1309.12 491.458 1308.27 491.458 1307.42 492.149 1306.73 493 1306.73 493.852 1306.73 494.542 1307.42 494.542 1308.27Z"/><path d="M509.958 1292.08C509.958 1292.93 509.268 1293.62 508.417 1293.62 507.565 1293.62 506.875 1292.93 506.875 1292.08 506.875 1291.23 507.565 1290.54 508.417 1290.54 509.268 1290.54 509.958 1291.23 509.958 1292.08Z"/><path d="M479.125 1292.08C479.125 1292.93 478.435 1293.62 477.583 1293.62 476.732 1293.62 476.042 1292.93 476.042 1292.08 476.042 1291.23 476.732 1290.54 477.583 1290.54 478.435 1290.54 479.125 1291.23 479.125 1292.08Z"/><path d="M494.542 1281.29 491.458 1281.29 491.458 1292.08C491.458 1292.47 491.613 1292.85 491.921 1293.16L499.552 1300.79 501.711 1298.64 494.542 1291.47 494.542 1281.29Z"/><path d="M493 1314.44C481.052 1314.44 471.417 1304.8 471.417 1292.85 471.417 1280.91 481.052 1271.27 493 1271.27 504.948 1271.27 514.583 1280.91 514.583 1292.85 514.583 1304.8 504.948 1314.44 493 1314.44L493 1314.44ZM511.269 1274.05 513.581 1271.73C514.429 1270.81 514.429 1269.42 513.504 1268.5 512.656 1267.65 511.192 1267.57 510.267 1268.42L507.646 1271.12C503.946 1268.65 499.706 1267.11 495.313 1266.8L495.313 1263.56 502.25 1263.56 502.25 1258.94 483.75 1258.94 483.75 1263.56 490.688 1263.56 490.688 1266.72C478.431 1267.8 468.565 1277.28 467.023 1289.54 465.481 1301.8 472.65 1313.44 484.29 1317.52 495.929 1321.61 508.802 1317.14 515.354 1306.65 521.906 1296.17 520.056 1282.6 511.269 1274.05L511.269 1274.05Z"/></g></g></g><path d="M577.146 1887 577.146 1995.84 574.855 1995.84 574.854 1887ZM589.75 1991.25 576 2018.75 562.25 1991.25Z" fill="#2C415C"/><text fill="#2C415C" font-family="Calibri,Calibri_MSFontService,sans-serif" font-weight="700" font-size="50" transform="matrix(1 0 0 1 330.63 1117)">Healthcare professional saves the <tspan font-size="50" x="0" y="61">message </tspan><tspan font-size="50" x="191.927" y="61">text</tspan><tspan font-size="50" x="55.6002" y="-1056">Healthcare professional  saves the </tspan><tspan font-size="50" x="781.486" y="-1056">attachment</tspan></text><g clip-path="url(#clip52)"><g clip-path="url(#clip53)"><g clip-path="url(#clip54)"><path d="M38.5416 25.4375C38.5416 26.2889 37.8514 26.9791 37 26.9791 36.1485 26.9791 35.4583 26.2889 35.4583 25.4375 35.4583 24.586 36.1485 23.8958 37 23.8958 37.8514 23.8958 38.5416 24.586 38.5416 25.4375Z" transform="matrix(1 0 0 1 781 281)"/><path d="M38.5416 56.2708C38.5416 57.1222 37.8514 57.8124 37 57.8124 36.1485 57.8124 35.4583 57.1222 35.4583 56.2708 35.4583 55.4193 36.1485 54.7291 37 54.7291 37.8514 54.7291 38.5416 55.4193 38.5416 56.2708Z" transform="matrix(1 0 0 1 781 281)"/><path d="M53.9583 40.0833C53.9583 40.9347 53.268 41.6249 52.4166 41.6249 51.5652 41.6249 50.8749 40.9347 50.8749 40.0833 50.8749 39.2318 51.5652 38.5416 52.4166 38.5416 53.268 38.5416 53.9583 39.2318 53.9583 40.0833Z" transform="matrix(1 0 0 1 781 281)"/><path d="M23.125 40.0833C23.125 40.9347 22.4347 41.6249 21.5833 41.6249 20.7319 41.6249 20.0416 40.9347 20.0416 40.0833 20.0416 39.2318 20.7319 38.5416 21.5833 38.5416 22.4347 38.5416 23.125 39.2318 23.125 40.0833Z" transform="matrix(1 0 0 1 781 281)"/><path d="M38.5416 29.2916 35.4583 29.2916 35.4583 40.0833C35.4583 40.4687 35.6125 40.8541 35.9208 41.1624L43.552 48.7937 45.7104 46.6354 38.5416 39.4666 38.5416 29.2916Z" transform="matrix(1 0 0 1 781 281)"/><path d="M37 62.4374C25.052 62.4374 15.4166 52.802 15.4166 40.8541 15.4166 28.9062 25.052 19.2708 37 19.2708 48.9478 19.2708 58.5833 28.9062 58.5833 40.8541 58.5833 52.802 48.9478 62.4374 37 62.4374L37 62.4374ZM55.2687 22.0458 57.5812 19.7333C58.4291 18.8083 58.4291 17.4208 57.5041 16.4958 56.6562 15.6479 55.1916 15.5708 54.2666 16.4187L51.6458 19.1166C47.9458 16.65 43.7062 15.1083 39.3124 14.8L39.3124 11.5625 46.2499 11.5625 46.2499 6.93749 27.75 6.93749 27.75 11.5625 34.6875 11.5625 34.6875 14.7229C22.4312 15.8021 12.5646 25.2833 11.0229 37.5395 9.48124 49.7958 16.65 61.4353 28.2895 65.5207 39.9291 69.6062 52.802 65.1353 59.3541 54.652 65.9062 44.1687 64.0562 30.602 55.2687 22.0458L55.2687 22.0458Z" transform="matrix(1 0 0 1 781 281)"/></g></g></g><text fill="#333333" font-family="Calibri,Calibri_MSFontService,sans-serif" font-weight="400" font-size="50" transform="matrix(1 0 0 1 184.048 864)">Communication.payload:attachment.extension:<tspan font-size="50" x="0" y="61">date</tspan></text><path d="M1000 480.854 1354.01 480.854 1354.01 1070.55 1352.86 1069.41 1682.81 1069.41 1682.81 1071.7 1351.72 1071.7 1351.72 482 1352.86 483.146 1000 483.146ZM1678.23 1056.8 1705.73 1070.55 1678.23 1084.3Z" fill="#4472C4"/><path d="M0 0 210.445 0 210.445 319.707 534.218 319.707" stroke="#4472C4" stroke-width="2.29167" stroke-miterlimit="8" fill="none" fill-rule="evenodd" transform="matrix(1 0 0 -1 1144 1390.71)"/><path d="M2144.02 1066.85 2372.82 1070.15 2372.78 1072.44 2143.98 1069.15ZM2368.41 1057.48 2395.71 1071.62 2368.02 1084.97Z" fill="#4472C4"/></g></svg>