<?xml version="1.0" encoding="UTF-8" standalone="no"?><svg xmlns="http://www.w3.org/2000/svg" xmlns:xlink="http://www.w3.org/1999/xlink" contentStyleType="text/css" height="508px" preserveAspectRatio="none" style="width:872px;height:508px;background:#FFFFFF;" version="1.1" viewBox="0 0 872 508" width="872px" zoomAndPan="magnify"><defs/><g><!--MD5=[8450471b43f9def5175bba9f4f9f2aaf]
class messageheader--><g id="elem_messageheader"><rect codeLine="6" fill="#F1F1F1" height="42.7031" id="messageheader" rx="2.5" ry="2.5" style="stroke:#181818;stroke-width:0.5;" width="319" x="229" y="7"/><ellipse cx="244" cy="28.3516" fill="#ADD1B2" rx="11" ry="11" style="stroke:#181818;stroke-width:1.0;"/><path d="M246.7656,24.2266 Q246.9219,24.0078 247.1094,23.8984 Q247.2969,23.7891 247.5156,23.7891 Q247.8906,23.7891 248.125,24.0547 Q248.3594,24.3047 248.3594,24.9141 L248.3594,26.3672 Q248.3594,26.9766 248.125,27.2422 Q247.8906,27.5078 247.5156,27.5078 Q247.1719,27.5078 246.9688,27.3047 Q246.7656,27.1172 246.6563,26.6016 Q246.6094,26.2422 246.4219,26.0547 Q246.0938,25.6797 245.4844,25.4609 Q244.875,25.2422 244.25,25.2422 Q243.4844,25.2422 242.8438,25.5703 Q242.2188,25.8984 241.7188,26.6484 Q241.2344,27.3984 241.2344,28.4297 L241.2344,29.5234 Q241.2344,30.7578 242.125,31.5859 Q243.0156,32.3984 244.6094,32.3984 Q245.5469,32.3984 246.2031,32.1484 Q246.5938,31.9922 247.0156,31.5547 Q247.2813,31.2891 247.4219,31.2109 Q247.5781,31.1328 247.7813,31.1328 Q248.1094,31.1328 248.3594,31.3984 Q248.625,31.6484 248.625,31.9922 Q248.625,32.3359 248.2813,32.7422 Q247.7813,33.3203 246.9844,33.6484 Q245.9063,34.1016 244.6094,34.1016 Q243.0938,34.1016 241.8906,33.4766 Q240.9063,32.9766 240.2188,31.9141 Q239.5313,30.8359 239.5313,29.5547 L239.5313,28.3984 Q239.5313,27.0703 240.1406,25.9297 Q240.7656,24.7734 241.8594,24.1641 Q242.9531,23.5391 244.1875,23.5391 Q244.9219,23.5391 245.5625,23.7109 Q246.2188,23.8672 246.7656,24.2266 Z " fill="#000000"/><text fill="#000000" font-family="sans-serif" font-size="12" font-style="italic" lengthAdjust="spacing" textLength="213" x="295" y="24.457">«MedComMessagingMessageHeader»</text><text fill="#000000" font-family="sans-serif" font-size="14" lengthAdjust="spacing" textLength="287" x="258" y="41.627">MedComCareCommunicationMessageHeader</text></g><!--MD5=[5495acc25b34ab1dab9fd35d8e775d03]
class messagingOrganization--><g id="elem_messagingOrganization"><rect codeLine="7" fill="#F1F1F1" height="42.7031" id="messagingOrganization" rx="2.5" ry="2.5" style="stroke:#181818;stroke-width:0.5;" width="236" x="184.5" y="128"/><ellipse cx="199.5" cy="149.3516" fill="#ADD1B2" rx="11" ry="11" style="stroke:#181818;stroke-width:1.0;"/><path d="M202.2656,145.2266 Q202.4219,145.0078 202.6094,144.8984 Q202.7969,144.7891 203.0156,144.7891 Q203.3906,144.7891 203.625,145.0547 Q203.8594,145.3047 203.8594,145.9141 L203.8594,147.3672 Q203.8594,147.9766 203.625,148.2422 Q203.3906,148.5078 203.0156,148.5078 Q202.6719,148.5078 202.4688,148.3047 Q202.2656,148.1172 202.1563,147.6016 Q202.1094,147.2422 201.9219,147.0547 Q201.5938,146.6797 200.9844,146.4609 Q200.375,146.2422 199.75,146.2422 Q198.9844,146.2422 198.3438,146.5703 Q197.7188,146.8984 197.2188,147.6484 Q196.7344,148.3984 196.7344,149.4297 L196.7344,150.5234 Q196.7344,151.7578 197.625,152.5859 Q198.5156,153.3984 200.1094,153.3984 Q201.0469,153.3984 201.7031,153.1484 Q202.0938,152.9922 202.5156,152.5547 Q202.7813,152.2891 202.9219,152.2109 Q203.0781,152.1328 203.2813,152.1328 Q203.6094,152.1328 203.8594,152.3984 Q204.125,152.6484 204.125,152.9922 Q204.125,153.3359 203.7813,153.7422 Q203.2813,154.3203 202.4844,154.6484 Q201.4063,155.1016 200.1094,155.1016 Q198.5938,155.1016 197.3906,154.4766 Q196.4063,153.9766 195.7188,152.9141 Q195.0313,151.8359 195.0313,150.5547 L195.0313,149.3984 Q195.0313,148.0703 195.6406,146.9297 Q196.2656,145.7734 197.3594,145.1641 Q198.4531,144.5391 199.6875,144.5391 Q200.4219,144.5391 201.0625,144.7109 Q201.7188,144.8672 202.2656,145.2266 Z " fill="#000000"/><text fill="#000000" font-family="sans-serif" font-size="12" font-style="italic" lengthAdjust="spacing" textLength="162" x="234.5" y="145.457">«MedComCoreOrganization»</text><text fill="#000000" font-family="sans-serif" font-size="14" lengthAdjust="spacing" textLength="204" x="213.5" y="162.627">MedComMessagingOrganization</text></g><!--MD5=[e2e901c2214a1f61ae0bb3d13c40a618]
class communication--><g id="elem_communication"><rect codeLine="8" fill="#F1F1F1" height="32" id="communication" rx="2.5" ry="2.5" style="stroke:#181818;stroke-width:0.5;" width="216" x="288.5" y="249"/><ellipse cx="303.5" cy="265" fill="#ADD1B2" rx="11" ry="11" style="stroke:#181818;stroke-width:1.0;"/><path d="M306.2656,260.875 Q306.4219,260.6563 306.6094,260.5469 Q306.7969,260.4375 307.0156,260.4375 Q307.3906,260.4375 307.625,260.7031 Q307.8594,260.9531 307.8594,261.5625 L307.8594,263.0156 Q307.8594,263.625 307.625,263.8906 Q307.3906,264.1563 307.0156,264.1563 Q306.6719,264.1563 306.4688,263.9531 Q306.2656,263.7656 306.1563,263.25 Q306.1094,262.8906 305.9219,262.7031 Q305.5938,262.3281 304.9844,262.1094 Q304.375,261.8906 303.75,261.8906 Q302.9844,261.8906 302.3438,262.2188 Q301.7188,262.5469 301.2188,263.2969 Q300.7344,264.0469 300.7344,265.0781 L300.7344,266.1719 Q300.7344,267.4063 301.625,268.2344 Q302.5156,269.0469 304.1094,269.0469 Q305.0469,269.0469 305.7031,268.7969 Q306.0938,268.6406 306.5156,268.2031 Q306.7813,267.9375 306.9219,267.8594 Q307.0781,267.7813 307.2813,267.7813 Q307.6094,267.7813 307.8594,268.0469 Q308.125,268.2969 308.125,268.6406 Q308.125,268.9844 307.7813,269.3906 Q307.2813,269.9688 306.4844,270.2969 Q305.4063,270.75 304.1094,270.75 Q302.5938,270.75 301.3906,270.125 Q300.4063,269.625 299.7188,268.5625 Q299.0313,267.4844 299.0313,266.2031 L299.0313,265.0469 Q299.0313,263.7188 299.6406,262.5781 Q300.2656,261.4219 301.3594,260.8125 Q302.4531,260.1875 303.6875,260.1875 Q304.4219,260.1875 305.0625,260.3594 Q305.7188,260.5156 306.2656,260.875 Z " fill="#000000"/><text fill="#000000" font-family="sans-serif" font-size="14" lengthAdjust="spacing" textLength="184" x="317.5" y="270.7285">MedComCareCommunication</text></g><!--MD5=[86fcfc7a3ddeef2443f03e9b03bcacd4]
class patient--><g id="elem_patient"><rect codeLine="9" fill="#F1F1F1" height="32" id="patient" rx="2.5" ry="2.5" style="stroke:#181818;stroke-width:0.5;" width="163" x="7" y="359"/><ellipse cx="22" cy="375" fill="#ADD1B2" rx="11" ry="11" style="stroke:#181818;stroke-width:1.0;"/><path d="M24.7656,370.875 Q24.9219,370.6563 25.1094,370.5469 Q25.2969,370.4375 25.5156,370.4375 Q25.8906,370.4375 26.125,370.7031 Q26.3594,370.9531 26.3594,371.5625 L26.3594,373.0156 Q26.3594,373.625 26.125,373.8906 Q25.8906,374.1563 25.5156,374.1563 Q25.1719,374.1563 24.9688,373.9531 Q24.7656,373.7656 24.6563,373.25 Q24.6094,372.8906 24.4219,372.7031 Q24.0938,372.3281 23.4844,372.1094 Q22.875,371.8906 22.25,371.8906 Q21.4844,371.8906 20.8438,372.2188 Q20.2188,372.5469 19.7188,373.2969 Q19.2344,374.0469 19.2344,375.0781 L19.2344,376.1719 Q19.2344,377.4063 20.125,378.2344 Q21.0156,379.0469 22.6094,379.0469 Q23.5469,379.0469 24.2031,378.7969 Q24.5938,378.6406 25.0156,378.2031 Q25.2813,377.9375 25.4219,377.8594 Q25.5781,377.7813 25.7813,377.7813 Q26.1094,377.7813 26.3594,378.0469 Q26.625,378.2969 26.625,378.6406 Q26.625,378.9844 26.2813,379.3906 Q25.7813,379.9688 24.9844,380.2969 Q23.9063,380.75 22.6094,380.75 Q21.0938,380.75 19.8906,380.125 Q18.9063,379.625 18.2188,378.5625 Q17.5313,377.4844 17.5313,376.2031 L17.5313,375.0469 Q17.5313,373.7188 18.1406,372.5781 Q18.7656,371.4219 19.8594,370.8125 Q20.9531,370.1875 22.1875,370.1875 Q22.9219,370.1875 23.5625,370.3594 Q24.2188,370.5156 24.7656,370.875 Z " fill="#000000"/><text fill="#000000" font-family="sans-serif" font-size="14" lengthAdjust="spacing" textLength="131" x="36" y="380.7285">MedComCorePatient</text></g><!--MD5=[7d1630a95e3a15a0a4f20baedc130ecf]
class pracRole--><g id="elem_pracRole"><rect codeLine="10" fill="#F1F1F1" height="32" id="pracRole" rx="2.5" ry="2.5" style="stroke:#181818;stroke-width:0.5;" width="220" x="205.5" y="359"/><ellipse cx="220.5" cy="375" fill="#ADD1B2" rx="11" ry="11" style="stroke:#181818;stroke-width:1.0;"/><path d="M223.2656,370.875 Q223.4219,370.6563 223.6094,370.5469 Q223.7969,370.4375 224.0156,370.4375 Q224.3906,370.4375 224.625,370.7031 Q224.8594,370.9531 224.8594,371.5625 L224.8594,373.0156 Q224.8594,373.625 224.625,373.8906 Q224.3906,374.1563 224.0156,374.1563 Q223.6719,374.1563 223.4688,373.9531 Q223.2656,373.7656 223.1563,373.25 Q223.1094,372.8906 222.9219,372.7031 Q222.5938,372.3281 221.9844,372.1094 Q221.375,371.8906 220.75,371.8906 Q219.9844,371.8906 219.3438,372.2188 Q218.7188,372.5469 218.2188,373.2969 Q217.7344,374.0469 217.7344,375.0781 L217.7344,376.1719 Q217.7344,377.4063 218.625,378.2344 Q219.5156,379.0469 221.1094,379.0469 Q222.0469,379.0469 222.7031,378.7969 Q223.0938,378.6406 223.5156,378.2031 Q223.7813,377.9375 223.9219,377.8594 Q224.0781,377.7813 224.2813,377.7813 Q224.6094,377.7813 224.8594,378.0469 Q225.125,378.2969 225.125,378.6406 Q225.125,378.9844 224.7813,379.3906 Q224.2813,379.9688 223.4844,380.2969 Q222.4063,380.75 221.1094,380.75 Q219.5938,380.75 218.3906,380.125 Q217.4063,379.625 216.7188,378.5625 Q216.0313,377.4844 216.0313,376.2031 L216.0313,375.0469 Q216.0313,373.7188 216.6406,372.5781 Q217.2656,371.4219 218.3594,370.8125 Q219.4531,370.1875 220.6875,370.1875 Q221.4219,370.1875 222.0625,370.3594 Q222.7188,370.5156 223.2656,370.875 Z " fill="#000000"/><text fill="#000000" font-family="sans-serif" font-size="14" lengthAdjust="spacing" textLength="188" x="234.5" y="380.7285">MedComCorePractitionerRole</text></g><!--MD5=[84cfacbcd31b21cbbb16279cbfd3fe0d]
class careteam--><g id="elem_careteam"><rect codeLine="11" fill="#F1F1F1" height="32" id="careteam" rx="2.5" ry="2.5" style="stroke:#181818;stroke-width:0.5;" width="186" x="460.5" y="359"/><ellipse cx="475.5" cy="375" fill="#ADD1B2" rx="11" ry="11" style="stroke:#181818;stroke-width:1.0;"/><path d="M478.2656,370.875 Q478.4219,370.6563 478.6094,370.5469 Q478.7969,370.4375 479.0156,370.4375 Q479.3906,370.4375 479.625,370.7031 Q479.8594,370.9531 479.8594,371.5625 L479.8594,373.0156 Q479.8594,373.625 479.625,373.8906 Q479.3906,374.1563 479.0156,374.1563 Q478.6719,374.1563 478.4688,373.9531 Q478.2656,373.7656 478.1563,373.25 Q478.1094,372.8906 477.9219,372.7031 Q477.5938,372.3281 476.9844,372.1094 Q476.375,371.8906 475.75,371.8906 Q474.9844,371.8906 474.3438,372.2188 Q473.7188,372.5469 473.2188,373.2969 Q472.7344,374.0469 472.7344,375.0781 L472.7344,376.1719 Q472.7344,377.4063 473.625,378.2344 Q474.5156,379.0469 476.1094,379.0469 Q477.0469,379.0469 477.7031,378.7969 Q478.0938,378.6406 478.5156,378.2031 Q478.7813,377.9375 478.9219,377.8594 Q479.0781,377.7813 479.2813,377.7813 Q479.6094,377.7813 479.8594,378.0469 Q480.125,378.2969 480.125,378.6406 Q480.125,378.9844 479.7813,379.3906 Q479.2813,379.9688 478.4844,380.2969 Q477.4063,380.75 476.1094,380.75 Q474.5938,380.75 473.3906,380.125 Q472.4063,379.625 471.7188,378.5625 Q471.0313,377.4844 471.0313,376.2031 L471.0313,375.0469 Q471.0313,373.7188 471.6406,372.5781 Q472.2656,371.4219 473.3594,370.8125 Q474.4531,370.1875 475.6875,370.1875 Q476.4219,370.1875 477.0625,370.3594 Q477.7188,370.5156 478.2656,370.875 Z " fill="#000000"/><text fill="#000000" font-family="sans-serif" font-size="14" lengthAdjust="spacing" textLength="154" x="489.5" y="380.7285">MedComCoreCareTeam</text></g><!--MD5=[7f6a6782ff085de027a43e4e291de663]
class author--><g id="elem_author"><rect codeLine="12" fill="#F1F1F1" height="32" id="author" rx="2.5" ry="2.5" style="stroke:#181818;stroke-width:0.5;" width="191" x="220" y="469"/><ellipse cx="235" cy="485" fill="#ADD1B2" rx="11" ry="11" style="stroke:#181818;stroke-width:1.0;"/><path d="M237.7656,480.875 Q237.9219,480.6563 238.1094,480.5469 Q238.2969,480.4375 238.5156,480.4375 Q238.8906,480.4375 239.125,480.7031 Q239.3594,480.9531 239.3594,481.5625 L239.3594,483.0156 Q239.3594,483.625 239.125,483.8906 Q238.8906,484.1563 238.5156,484.1563 Q238.1719,484.1563 237.9688,483.9531 Q237.7656,483.7656 237.6563,483.25 Q237.6094,482.8906 237.4219,482.7031 Q237.0938,482.3281 236.4844,482.1094 Q235.875,481.8906 235.25,481.8906 Q234.4844,481.8906 233.8438,482.2188 Q233.2188,482.5469 232.7188,483.2969 Q232.2344,484.0469 232.2344,485.0781 L232.2344,486.1719 Q232.2344,487.4063 233.125,488.2344 Q234.0156,489.0469 235.6094,489.0469 Q236.5469,489.0469 237.2031,488.7969 Q237.5938,488.6406 238.0156,488.2031 Q238.2813,487.9375 238.4219,487.8594 Q238.5781,487.7813 238.7813,487.7813 Q239.1094,487.7813 239.3594,488.0469 Q239.625,488.2969 239.625,488.6406 Q239.625,488.9844 239.2813,489.3906 Q238.7813,489.9688 237.9844,490.2969 Q236.9063,490.75 235.6094,490.75 Q234.0938,490.75 232.8906,490.125 Q231.9063,489.625 231.2188,488.5625 Q230.5313,487.4844 230.5313,486.2031 L230.5313,485.0469 Q230.5313,483.7188 231.1406,482.5781 Q231.7656,481.4219 232.8594,480.8125 Q233.9531,480.1875 235.1875,480.1875 Q235.9219,480.1875 236.5625,480.3594 Q237.2188,480.5156 237.7656,480.875 Z " fill="#000000"/><text fill="#000000" font-family="sans-serif" font-size="14" lengthAdjust="spacing" textLength="159" x="249" y="490.7285">MedComCorePractitioner</text></g><!--MD5=[c3fd6fd70c1f956c0aa70d5a42fdf9cf]
class encounter--><g id="elem_encounter"><rect codeLine="13" fill="#F1F1F1" height="32" id="encounter" rx="2.5" ry="2.5" style="stroke:#181818;stroke-width:0.5;" width="184" x="681.5" y="359"/><ellipse cx="696.5" cy="375" fill="#ADD1B2" rx="11" ry="11" style="stroke:#181818;stroke-width:1.0;"/><path d="M699.2656,370.875 Q699.4219,370.6563 699.6094,370.5469 Q699.7969,370.4375 700.0156,370.4375 Q700.3906,370.4375 700.625,370.7031 Q700.8594,370.9531 700.8594,371.5625 L700.8594,373.0156 Q700.8594,373.625 700.625,373.8906 Q700.3906,374.1563 700.0156,374.1563 Q699.6719,374.1563 699.4688,373.9531 Q699.2656,373.7656 699.1563,373.25 Q699.1094,372.8906 698.9219,372.7031 Q698.5938,372.3281 697.9844,372.1094 Q697.375,371.8906 696.75,371.8906 Q695.9844,371.8906 695.3438,372.2188 Q694.7188,372.5469 694.2188,373.2969 Q693.7344,374.0469 693.7344,375.0781 L693.7344,376.1719 Q693.7344,377.4063 694.625,378.2344 Q695.5156,379.0469 697.1094,379.0469 Q698.0469,379.0469 698.7031,378.7969 Q699.0938,378.6406 699.5156,378.2031 Q699.7813,377.9375 699.9219,377.8594 Q700.0781,377.7813 700.2813,377.7813 Q700.6094,377.7813 700.8594,378.0469 Q701.125,378.2969 701.125,378.6406 Q701.125,378.9844 700.7813,379.3906 Q700.2813,379.9688 699.4844,380.2969 Q698.4063,380.75 697.1094,380.75 Q695.5938,380.75 694.3906,380.125 Q693.4063,379.625 692.7188,378.5625 Q692.0313,377.4844 692.0313,376.2031 L692.0313,375.0469 Q692.0313,373.7188 692.6406,372.5781 Q693.2656,371.4219 694.3594,370.8125 Q695.4531,370.1875 696.6875,370.1875 Q697.4219,370.1875 698.0625,370.3594 Q698.7188,370.5156 699.2656,370.875 Z " fill="#000000"/><text fill="#000000" font-family="sans-serif" font-size="14" lengthAdjust="spacing" textLength="152" x="710.5" y="380.7285">MedComCoreEncounter</text></g><!--MD5=[d64d5c7357c79f774106f79272da7625]
class organization--><g id="elem_organization"><rect codeLine="14" fill="#F1F1F1" height="32" id="organization" rx="2.5" ry="2.5" style="stroke:#181818;stroke-width:0.5;" width="199" x="450" y="469"/><ellipse cx="465" cy="485" fill="#ADD1B2" rx="11" ry="11" style="stroke:#181818;stroke-width:1.0;"/><path d="M467.7656,480.875 Q467.9219,480.6563 468.1094,480.5469 Q468.2969,480.4375 468.5156,480.4375 Q468.8906,480.4375 469.125,480.7031 Q469.3594,480.9531 469.3594,481.5625 L469.3594,483.0156 Q469.3594,483.625 469.125,483.8906 Q468.8906,484.1563 468.5156,484.1563 Q468.1719,484.1563 467.9688,483.9531 Q467.7656,483.7656 467.6563,483.25 Q467.6094,482.8906 467.4219,482.7031 Q467.0938,482.3281 466.4844,482.1094 Q465.875,481.8906 465.25,481.8906 Q464.4844,481.8906 463.8438,482.2188 Q463.2188,482.5469 462.7188,483.2969 Q462.2344,484.0469 462.2344,485.0781 L462.2344,486.1719 Q462.2344,487.4063 463.125,488.2344 Q464.0156,489.0469 465.6094,489.0469 Q466.5469,489.0469 467.2031,488.7969 Q467.5938,488.6406 468.0156,488.2031 Q468.2813,487.9375 468.4219,487.8594 Q468.5781,487.7813 468.7813,487.7813 Q469.1094,487.7813 469.3594,488.0469 Q469.625,488.2969 469.625,488.6406 Q469.625,488.9844 469.2813,489.3906 Q468.7813,489.9688 467.9844,490.2969 Q466.9063,490.75 465.6094,490.75 Q464.0938,490.75 462.8906,490.125 Q461.9063,489.625 461.2188,488.5625 Q460.5313,487.4844 460.5313,486.2031 L460.5313,485.0469 Q460.5313,483.7188 461.1406,482.5781 Q461.7656,481.4219 462.8594,480.8125 Q463.9531,480.1875 465.1875,480.1875 Q465.9219,480.1875 466.5625,480.3594 Q467.2188,480.5156 467.7656,480.875 Z " fill="#000000"/><text fill="#000000" font-family="sans-serif" font-size="14" lengthAdjust="spacing" textLength="167" x="479" y="490.7285">MedComCoreOrganization</text></g><!--MD5=[79a620f53515237a9de9d0a655fadcca]
link messageheader to communication--><g id="link_messageheader_communication"><path codeLine="16" d="M402.43,50.31 C414.41,69.54 430.77,99.37 437.5,128 C447.37,169.98 424.62,218.07 409.21,244.33 " fill="none" id="messageheader-to-communication" style="stroke:#181818;stroke-width:1.0;"/><polygon fill="#181818" points="406.62,248.67,414.6804,243.0105,409.1925,244.3825,407.8205,238.8946,406.62,248.67" style="stroke:#181818;stroke-width:1.0;"/><text fill="#000000" font-family="sans-serif" font-size="13" lengthAdjust="spacing" textLength="31" x="441.5" y="154.9951">focus</text></g><!--MD5=[e372636a977ce2c485cbccc561780bd6]
link communication to patient--><g id="link_communication_patient"><path codeLine="17" d="M288.23,279.39 C252.35,286.15 212.83,296.19 178.5,311 C152.83,322.07 127.05,341.12 109.7,355.38 " fill="none" id="communication-to-patient" style="stroke:#181818;stroke-width:1.0;"/><polygon fill="#181818" points="105.48,358.89,114.9557,356.2047,109.3223,355.6905,109.8365,350.057,105.48,358.89" style="stroke:#181818;stroke-width:1.0;"/><text fill="#000000" font-family="sans-serif" font-size="13" lengthAdjust="spacing" textLength="42" x="179.5" y="325.4951">subject</text></g><!--MD5=[7eeef3c8709ed22b8e61e45e2ea7d532]
link communication to pracRole--><g id="link_communication_pracRole"><path codeLine="18" d="M306.68,281.05 C274.64,288.39 244.08,298.39 234.5,311 C220.39,329.56 241.87,345.61 266.24,356.86 " fill="none" id="communication-to-pracRole" style="stroke:#181818;stroke-width:1.0;"/><polygon fill="#181818" points="270.82,358.9,264.2436,351.5685,266.2575,356.8547,260.9712,358.8685,270.82,358.9" style="stroke:#181818;stroke-width:1.0;"/><text fill="#000000" font-family="sans-serif" font-size="13" lengthAdjust="spacing" textLength="36" x="235.5" y="325.4951">author</text></g><!--MD5=[7eeef3c8709ed22b8e61e45e2ea7d532]
link communication to pracRole--><g id="link_communication_pracRole"><path codeLine="21" d="M348.2,281.01 C334.22,287.84 320.57,297.52 312.5,311 C304.85,323.77 306.17,340.75 309.09,353.86 " fill="none" id="communication-to-pracRole-1" style="stroke:#181818;stroke-width:1.0;"/><polygon fill="#181818" points="310.33,358.86,312.0546,349.1633,309.1308,354.0059,304.2881,351.0821,310.33,358.86" style="stroke:#181818;stroke-width:1.0;"/><text fill="#000000" font-family="sans-serif" font-size="13" lengthAdjust="spacing" textLength="39" x="313.5" y="325.4951">sender</text></g><!--MD5=[7eeef3c8709ed22b8e61e45e2ea7d532]
link communication to pracRole--><g id="link_communication_pracRole"><path codeLine="22" d="M388.3,281.05 C380.9,294.17 369.37,313.47 357.5,329 C350.58,338.05 342.15,347.36 334.66,355.15 " fill="none" id="communication-to-pracRole-2" style="stroke:#181818;stroke-width:1.0;"/><polygon fill="#181818" points="331.07,358.84,340.2115,355.1748,334.5552,355.2548,334.4752,349.5985,331.07,358.84" style="stroke:#181818;stroke-width:1.0;"/><text fill="#000000" font-family="sans-serif" font-size="13" lengthAdjust="spacing" textLength="49" x="370.5" y="325.4951">recipient</text></g><!--MD5=[91c54a72d122703e0856c70b938ed7ef]
link communication to careteam--><g id="link_communication_careteam"><path codeLine="19" d="M416.95,281.02 C434.67,293.95 461.08,312.99 484.5,329 C497.75,338.06 512.64,347.82 525.19,355.93 " fill="none" id="communication-to-careteam" style="stroke:#181818;stroke-width:1.0;"/><polygon fill="#181818" points="529.7,358.84,524.3122,350.5955,525.5006,356.1261,519.97,357.3145,529.7,358.84" style="stroke:#181818;stroke-width:1.0;"/><text fill="#000000" font-family="sans-serif" font-size="13" lengthAdjust="spacing" textLength="39" x="485.5" y="325.4951">sender</text></g><!--MD5=[91c54a72d122703e0856c70b938ed7ef]
link communication to careteam--><g id="link_communication_careteam"><path codeLine="20" d="M477.7,281.01 C496.51,287.65 515.19,297.22 529.5,311 C541.19,322.25 547.25,339.79 550.36,353.5 " fill="none" id="communication-to-careteam-1" style="stroke:#181818;stroke-width:1.0;"/><polygon fill="#181818" points="551.45,358.74,553.5371,349.1148,550.4337,353.8444,545.7041,350.741,551.45,358.74" style="stroke:#181818;stroke-width:1.0;"/><text fill="#000000" font-family="sans-serif" font-size="13" lengthAdjust="spacing" textLength="49" x="542.5" y="325.4951">recipient</text></g><!--MD5=[9b1f8c7e11d1cd008c3b9606b5711660]
reverse link messagingOrganization to communication--><g id="link_messagingOrganization_communication"><path codeLine="23" d="M322.88,175.11 C341.42,197.49 368.19,229.81 383.82,248.69 " fill="none" id="messagingOrganization-backto-communication" style="stroke:#181818;stroke-width:1.0;"/><polygon fill="#181818" points="319.52,171.05,322.1672,180.5364,322.704,174.9051,328.3354,175.442,319.52,171.05" style="stroke:#181818;stroke-width:1.0;"/><text fill="#000000" font-family="sans-serif" font-size="13" lengthAdjust="spacing" textLength="49" x="359.5" y="215.4951">assigner</text></g><!--MD5=[cee96dd921aad29c6dd1b1c4d88bf68f]
link pracRole to author--><g id="link_pracRole_author"><path codeLine="24" d="M315.5,391.02 C315.5,409.93 315.5,442.51 315.5,463.65 " fill="none" id="pracRole-to-author" style="stroke:#181818;stroke-width:1.0;"/><polygon fill="#181818" points="315.5,468.76,319.5,459.76,315.5,463.76,311.5,459.76,315.5,468.76" style="stroke:#181818;stroke-width:1.0;"/><text fill="#000000" font-family="sans-serif" font-size="13" lengthAdjust="spacing" textLength="64" x="316.5" y="435.4951">practitioner</text></g><!--MD5=[b16d23625f6fab7cff697318abd55cf8]
link pracRole to organization--><g id="link_pracRole_organization"><path codeLine="25" d="M348.04,391.02 C391.14,410.91 466.98,445.91 512.3,466.83 " fill="none" id="pracRole-to-organization" style="stroke:#181818;stroke-width:1.0;"/><polygon fill="#181818" points="516.86,468.94,510.369,461.5328,512.3215,466.842,507.0122,468.7944,516.86,468.94" style="stroke:#181818;stroke-width:1.0;"/><text fill="#000000" font-family="sans-serif" font-size="13" lengthAdjust="spacing" textLength="70" x="448.5" y="435.4951">organization</text></g><!--MD5=[c568f13314ba7e86cfb79b992a7ef51a]
link careteam to organization--><g id="link_careteam_organization"><path codeLine="26" d="M552.94,391.02 C552.24,409.93 551.04,442.51 550.25,463.65 " fill="none" id="careteam-to-organization" style="stroke:#181818;stroke-width:1.0;"/><polygon fill="#181818" points="550.06,468.76,554.3913,459.9147,550.2456,463.7634,546.3968,459.6177,550.06,468.76" style="stroke:#181818;stroke-width:1.0;"/><text fill="#000000" font-family="sans-serif" font-size="13" lengthAdjust="spacing" textLength="129" x="552.5" y="435.4951">managingOrganization</text></g><!--MD5=[0d2d54a2349697619971ea3c455f8bf9]
link communication to encounter--><g id="link_communication_encounter"><path codeLine="27" d="M476.07,281.01 C514.04,288.81 559.93,299.19 600.5,311 C645.99,324.24 696.79,343.26 731.51,356.94 " fill="none" id="communication-to-encounter" style="stroke:#181818;stroke-width:1.0;"/><polygon fill="#181818" points="736.51,358.92,729.6132,351.8891,731.8608,357.0803,726.6696,359.3279,736.51,358.92" style="stroke:#181818;stroke-width:1.0;"/><text fill="#000000" font-family="sans-serif" font-size="13" lengthAdjust="spacing" textLength="57" x="653.5" y="325.4951">encounter</text></g><!--MD5=[7068c6a302bec6a421fbf6e526f1486a]
link messageheader to messagingOrganization--><g id="link_messageheader_messagingOrganization"><path codeLine="29" d="M331.67,50.06 C318.88,57.47 306.92,67.26 299.5,80 C292.1,92.71 292.54,109.12 294.98,122.69 " fill="none" id="messageheader-to-messagingOrganization" style="stroke:#181818;stroke-width:1.0;"/><polygon fill="#181818" points="296.04,127.92,298.1596,118.3019,295.0402,123.021,290.3211,119.9016,296.04,127.92" style="stroke:#181818;stroke-width:1.0;"/><text fill="#000000" font-family="sans-serif" font-size="13" lengthAdjust="spacing" textLength="44" x="300.5" y="94.4951">receiver</text></g><!--MD5=[7068c6a302bec6a421fbf6e526f1486a]
link messageheader to messagingOrganization--><g id="link_messageheader_messagingOrganization"><path codeLine="30" d="M378.41,50.04 C371.14,64.06 360.68,82.78 349.5,98 C342.92,106.96 334.93,116.06 327.42,124.02 " fill="none" id="messageheader-to-messagingOrganization-1" style="stroke:#181818;stroke-width:1.0;"/><polygon fill="#181818" points="323.78,127.83,332.8916,124.0911,327.2361,124.2168,327.1104,118.5613,323.78,127.83" style="stroke:#181818;stroke-width:1.0;"/><text fill="#000000" font-family="sans-serif" font-size="13" lengthAdjust="spacing" textLength="39" x="363.5" y="94.4951">sender</text></g><!--MD5=[7b27dab8b0f3123a3d13ddc23b0eb37c]
@startuml CareCommunicationMessageHeader

hide empty members

top to bottom direction

class "MedComCareCommunicationMessageHeader" as messageheader <<MedComMessagingMessageHeader>>
class "MedComMessagingOrganization" as messagingOrganization <<MedComCoreOrganization>>
class "MedComCareCommunication" as communication
class "MedComCorePatient" as patient
class "MedComCorePractitionerRole" as pracRole
class "MedComCoreCareTeam" as careteam
class "MedComCorePractitioner" as author
class "MedComCoreEncounter" as encounter
class "MedComCoreOrganization" as organization

messageheader - -> communication : "focus"
communication - -> patient : "subject"
communication - -> pracRole : "author"
communication - -> careteam : "sender"
communication - -> careteam : "recipient"
communication - -> pracRole : "sender"
communication - -> pracRole : "recipient"
messagingOrganization <- - communication : "assigner"
pracRole - -> author : "practitioner"
pracRole - -> organization : "organization"
careteam - -> organization : "managingOrganization"
communication - -> encounter : "encounter"

messageheader - -> messagingOrganization : "receiver"
messageheader - -> messagingOrganization : "sender"
@enduml

PlantUML version 1.2022.7(Mon Aug 22 19:01:30 CEST 2022)
(GPL source distribution)
Java Runtime: Java(TM) SE Runtime Environment
JVM: Java HotSpot(TM) 64-Bit Server VM
Default Encoding: Cp1252
Language: da
Country: DK
--></g></svg>