<?xml version="1.0" encoding="UTF-8" standalone="no"?><svg xmlns="http://www.w3.org/2000/svg" xmlns:xlink="http://www.w3.org/1999/xlink" contentStyleType="text/css" height="398px" preserveAspectRatio="none" style="width:695px;height:398px;background:#FFFFFF;" version="1.1" viewBox="0 0 695 398" width="695px" zoomAndPan="magnify"><defs/><g><!--MD5=[8450471b43f9def5175bba9f4f9f2aaf]
class messageheader--><g id="elem_messageheader"><rect codeLine="6" fill="#F1F1F1" height="42.7031" id="messageheader" rx="2.5" ry="2.5" style="stroke:#181818;stroke-width:0.5;" width="319" x="51.5" y="7"/><ellipse cx="66.5" cy="28.3516" fill="#ADD1B2" rx="11" ry="11" style="stroke:#181818;stroke-width:1.0;"/><path d="M69.2656,24.2266 Q69.4219,24.0078 69.6094,23.8984 Q69.7969,23.7891 70.0156,23.7891 Q70.3906,23.7891 70.625,24.0469 Q70.8594,24.3047 70.8594,24.9141 L70.8594,26.3672 Q70.8594,26.9766 70.625,27.2422 Q70.3906,27.5078 70.0156,27.5078 Q69.6719,27.5078 69.4688,27.3047 Q69.2656,27.1172 69.1563,26.6016 Q69.1094,26.2422 68.9219,26.0547 Q68.5938,25.6797 67.9844,25.4609 Q67.375,25.2422 66.75,25.2422 Q65.9844,25.2422 65.3516,25.5703 Q64.7188,25.8984 64.2266,26.6484 Q63.7344,27.3984 63.7344,28.4297 L63.7344,29.5234 Q63.7344,30.7578 64.625,31.5781 Q65.5156,32.3984 67.1094,32.3984 Q68.0469,32.3984 68.7031,32.1484 Q69.0938,31.9922 69.5156,31.5547 Q69.7813,31.2891 69.9297,31.2109 Q70.0781,31.1328 70.2813,31.1328 Q70.6094,31.1328 70.8672,31.3906 Q71.125,31.6484 71.125,31.9922 Q71.125,32.3359 70.7813,32.7422 Q70.2813,33.3203 69.4844,33.6484 Q68.4063,34.1016 67.1094,34.1016 Q65.5938,34.1016 64.3906,33.4766 Q63.4063,32.9766 62.7188,31.9063 Q62.0313,30.8359 62.0313,29.5547 L62.0313,28.3984 Q62.0313,27.0703 62.6484,25.9219 Q63.2656,24.7734 64.3594,24.1563 Q65.4531,23.5391 66.6875,23.5391 Q67.4219,23.5391 68.0703,23.7031 Q68.7188,23.8672 69.2656,24.2266 Z " fill="#000000"/><text fill="#000000" font-family="sans-serif" font-size="12" font-style="italic" lengthAdjust="spacing" textLength="213" x="117.5" y="24.457">«MedComMessagingMessageHeader»</text><text fill="#000000" font-family="sans-serif" font-size="14" lengthAdjust="spacing" textLength="287" x="80.5" y="41.627">MedComCareCommunicationMessageHeader</text></g><!--MD5=[5495acc25b34ab1dab9fd35d8e775d03]
class messagingOrganization--><g id="elem_messagingOrganization"><rect codeLine="7" fill="#F1F1F1" height="42.7031" id="messagingOrganization" rx="2.5" ry="2.5" style="stroke:#181818;stroke-width:0.5;" width="236" x="7" y="128"/><ellipse cx="22" cy="149.3516" fill="#ADD1B2" rx="11" ry="11" style="stroke:#181818;stroke-width:1.0;"/><path d="M24.7656,145.2266 Q24.9219,145.0078 25.1094,144.8984 Q25.2969,144.7891 25.5156,144.7891 Q25.8906,144.7891 26.125,145.0469 Q26.3594,145.3047 26.3594,145.9141 L26.3594,147.3672 Q26.3594,147.9766 26.125,148.2422 Q25.8906,148.5078 25.5156,148.5078 Q25.1719,148.5078 24.9688,148.3047 Q24.7656,148.1172 24.6563,147.6016 Q24.6094,147.2422 24.4219,147.0547 Q24.0938,146.6797 23.4844,146.4609 Q22.875,146.2422 22.25,146.2422 Q21.4844,146.2422 20.8516,146.5703 Q20.2188,146.8984 19.7266,147.6484 Q19.2344,148.3984 19.2344,149.4297 L19.2344,150.5234 Q19.2344,151.7578 20.125,152.5781 Q21.0156,153.3984 22.6094,153.3984 Q23.5469,153.3984 24.2031,153.1484 Q24.5938,152.9922 25.0156,152.5547 Q25.2813,152.2891 25.4297,152.2109 Q25.5781,152.1328 25.7813,152.1328 Q26.1094,152.1328 26.3672,152.3906 Q26.625,152.6484 26.625,152.9922 Q26.625,153.3359 26.2813,153.7422 Q25.7813,154.3203 24.9844,154.6484 Q23.9063,155.1016 22.6094,155.1016 Q21.0938,155.1016 19.8906,154.4766 Q18.9063,153.9766 18.2188,152.9063 Q17.5313,151.8359 17.5313,150.5547 L17.5313,149.3984 Q17.5313,148.0703 18.1484,146.9219 Q18.7656,145.7734 19.8594,145.1563 Q20.9531,144.5391 22.1875,144.5391 Q22.9219,144.5391 23.5703,144.7031 Q24.2188,144.8672 24.7656,145.2266 Z " fill="#000000"/><text fill="#000000" font-family="sans-serif" font-size="12" font-style="italic" lengthAdjust="spacing" textLength="162" x="57" y="145.457">«MedComCoreOrganization»</text><text fill="#000000" font-family="sans-serif" font-size="14" lengthAdjust="spacing" textLength="204" x="36" y="162.627">MedComMessagingOrganization</text></g><!--MD5=[e2e901c2214a1f61ae0bb3d13c40a618]
class communication--><g id="elem_communication"><rect codeLine="8" fill="#F1F1F1" height="32" id="communication" rx="2.5" ry="2.5" style="stroke:#181818;stroke-width:0.5;" width="216" x="278" y="133.5"/><ellipse cx="293" cy="149.5" fill="#ADD1B2" rx="11" ry="11" style="stroke:#181818;stroke-width:1.0;"/><path d="M295.7656,145.375 Q295.9219,145.1563 296.1094,145.0469 Q296.2969,144.9375 296.5156,144.9375 Q296.8906,144.9375 297.125,145.1953 Q297.3594,145.4531 297.3594,146.0625 L297.3594,147.5156 Q297.3594,148.125 297.125,148.3906 Q296.8906,148.6563 296.5156,148.6563 Q296.1719,148.6563 295.9688,148.4531 Q295.7656,148.2656 295.6563,147.75 Q295.6094,147.3906 295.4219,147.2031 Q295.0938,146.8281 294.4844,146.6094 Q293.875,146.3906 293.25,146.3906 Q292.4844,146.3906 291.8516,146.7188 Q291.2188,147.0469 290.7266,147.7969 Q290.2344,148.5469 290.2344,149.5781 L290.2344,150.6719 Q290.2344,151.9063 291.125,152.7266 Q292.0156,153.5469 293.6094,153.5469 Q294.5469,153.5469 295.2031,153.2969 Q295.5938,153.1406 296.0156,152.7031 Q296.2813,152.4375 296.4297,152.3594 Q296.5781,152.2813 296.7813,152.2813 Q297.1094,152.2813 297.3672,152.5391 Q297.625,152.7969 297.625,153.1406 Q297.625,153.4844 297.2813,153.8906 Q296.7813,154.4688 295.9844,154.7969 Q294.9063,155.25 293.6094,155.25 Q292.0938,155.25 290.8906,154.625 Q289.9063,154.125 289.2188,153.0547 Q288.5313,151.9844 288.5313,150.7031 L288.5313,149.5469 Q288.5313,148.2188 289.1484,147.0703 Q289.7656,145.9219 290.8594,145.3047 Q291.9531,144.6875 293.1875,144.6875 Q293.9219,144.6875 294.5703,144.8516 Q295.2188,145.0156 295.7656,145.375 Z " fill="#000000"/><text fill="#000000" font-family="sans-serif" font-size="14" lengthAdjust="spacing" textLength="184" x="307" y="155.2285">MedComCareCommunication</text></g><!--MD5=[86fcfc7a3ddeef2443f03e9b03bcacd4]
class patient--><g id="elem_patient"><rect codeLine="9" fill="#F1F1F1" height="32" id="patient" rx="2.5" ry="2.5" style="stroke:#181818;stroke-width:0.5;" width="163" x="41.5" y="249"/><ellipse cx="56.5" cy="265" fill="#ADD1B2" rx="11" ry="11" style="stroke:#181818;stroke-width:1.0;"/><path d="M59.2656,260.875 Q59.4219,260.6563 59.6094,260.5469 Q59.7969,260.4375 60.0156,260.4375 Q60.3906,260.4375 60.625,260.6953 Q60.8594,260.9531 60.8594,261.5625 L60.8594,263.0156 Q60.8594,263.625 60.625,263.8906 Q60.3906,264.1563 60.0156,264.1563 Q59.6719,264.1563 59.4688,263.9531 Q59.2656,263.7656 59.1563,263.25 Q59.1094,262.8906 58.9219,262.7031 Q58.5938,262.3281 57.9844,262.1094 Q57.375,261.8906 56.75,261.8906 Q55.9844,261.8906 55.3516,262.2188 Q54.7188,262.5469 54.2266,263.2969 Q53.7344,264.0469 53.7344,265.0781 L53.7344,266.1719 Q53.7344,267.4063 54.625,268.2266 Q55.5156,269.0469 57.1094,269.0469 Q58.0469,269.0469 58.7031,268.7969 Q59.0938,268.6406 59.5156,268.2031 Q59.7813,267.9375 59.9297,267.8594 Q60.0781,267.7813 60.2813,267.7813 Q60.6094,267.7813 60.8672,268.0391 Q61.125,268.2969 61.125,268.6406 Q61.125,268.9844 60.7813,269.3906 Q60.2813,269.9688 59.4844,270.2969 Q58.4063,270.75 57.1094,270.75 Q55.5938,270.75 54.3906,270.125 Q53.4063,269.625 52.7188,268.5547 Q52.0313,267.4844 52.0313,266.2031 L52.0313,265.0469 Q52.0313,263.7188 52.6484,262.5703 Q53.2656,261.4219 54.3594,260.8047 Q55.4531,260.1875 56.6875,260.1875 Q57.4219,260.1875 58.0703,260.3516 Q58.7188,260.5156 59.2656,260.875 Z " fill="#000000"/><text fill="#000000" font-family="sans-serif" font-size="14" lengthAdjust="spacing" textLength="131" x="70.5" y="270.7285">MedComCorePatient</text></g><!--MD5=[7d1630a95e3a15a0a4f20baedc130ecf]
class pracRole--><g id="elem_pracRole"><rect codeLine="10" fill="#F1F1F1" height="32" id="pracRole" rx="2.5" ry="2.5" style="stroke:#181818;stroke-width:0.5;" width="220" x="240" y="249"/><ellipse cx="255" cy="265" fill="#ADD1B2" rx="11" ry="11" style="stroke:#181818;stroke-width:1.0;"/><path d="M257.7656,260.875 Q257.9219,260.6563 258.1094,260.5469 Q258.2969,260.4375 258.5156,260.4375 Q258.8906,260.4375 259.125,260.6953 Q259.3594,260.9531 259.3594,261.5625 L259.3594,263.0156 Q259.3594,263.625 259.125,263.8906 Q258.8906,264.1563 258.5156,264.1563 Q258.1719,264.1563 257.9688,263.9531 Q257.7656,263.7656 257.6563,263.25 Q257.6094,262.8906 257.4219,262.7031 Q257.0938,262.3281 256.4844,262.1094 Q255.875,261.8906 255.25,261.8906 Q254.4844,261.8906 253.8516,262.2188 Q253.2188,262.5469 252.7266,263.2969 Q252.2344,264.0469 252.2344,265.0781 L252.2344,266.1719 Q252.2344,267.4063 253.125,268.2266 Q254.0156,269.0469 255.6094,269.0469 Q256.5469,269.0469 257.2031,268.7969 Q257.5938,268.6406 258.0156,268.2031 Q258.2813,267.9375 258.4297,267.8594 Q258.5781,267.7813 258.7813,267.7813 Q259.1094,267.7813 259.3672,268.0391 Q259.625,268.2969 259.625,268.6406 Q259.625,268.9844 259.2813,269.3906 Q258.7813,269.9688 257.9844,270.2969 Q256.9063,270.75 255.6094,270.75 Q254.0938,270.75 252.8906,270.125 Q251.9063,269.625 251.2188,268.5547 Q250.5313,267.4844 250.5313,266.2031 L250.5313,265.0469 Q250.5313,263.7188 251.1484,262.5703 Q251.7656,261.4219 252.8594,260.8047 Q253.9531,260.1875 255.1875,260.1875 Q255.9219,260.1875 256.5703,260.3516 Q257.2188,260.5156 257.7656,260.875 Z " fill="#000000"/><text fill="#000000" font-family="sans-serif" font-size="14" lengthAdjust="spacing" textLength="188" x="269" y="270.7285">MedComCorePractitionerRole</text></g><!--MD5=[84cfacbcd31b21cbbb16279cbfd3fe0d]
class careteam--><g id="elem_careteam"><rect codeLine="11" fill="#F1F1F1" height="32" id="careteam" rx="2.5" ry="2.5" style="stroke:#181818;stroke-width:0.5;" width="186" x="502" y="249"/><ellipse cx="517" cy="265" fill="#ADD1B2" rx="11" ry="11" style="stroke:#181818;stroke-width:1.0;"/><path d="M519.7656,260.875 Q519.9219,260.6563 520.1094,260.5469 Q520.2969,260.4375 520.5156,260.4375 Q520.8906,260.4375 521.125,260.6953 Q521.3594,260.9531 521.3594,261.5625 L521.3594,263.0156 Q521.3594,263.625 521.125,263.8906 Q520.8906,264.1563 520.5156,264.1563 Q520.1719,264.1563 519.9688,263.9531 Q519.7656,263.7656 519.6563,263.25 Q519.6094,262.8906 519.4219,262.7031 Q519.0938,262.3281 518.4844,262.1094 Q517.875,261.8906 517.25,261.8906 Q516.4844,261.8906 515.8516,262.2188 Q515.2188,262.5469 514.7266,263.2969 Q514.2344,264.0469 514.2344,265.0781 L514.2344,266.1719 Q514.2344,267.4063 515.125,268.2266 Q516.0156,269.0469 517.6094,269.0469 Q518.5469,269.0469 519.2031,268.7969 Q519.5938,268.6406 520.0156,268.2031 Q520.2813,267.9375 520.4297,267.8594 Q520.5781,267.7813 520.7813,267.7813 Q521.1094,267.7813 521.3672,268.0391 Q521.625,268.2969 521.625,268.6406 Q521.625,268.9844 521.2813,269.3906 Q520.7813,269.9688 519.9844,270.2969 Q518.9063,270.75 517.6094,270.75 Q516.0938,270.75 514.8906,270.125 Q513.9063,269.625 513.2188,268.5547 Q512.5313,267.4844 512.5313,266.2031 L512.5313,265.0469 Q512.5313,263.7188 513.1484,262.5703 Q513.7656,261.4219 514.8594,260.8047 Q515.9531,260.1875 517.1875,260.1875 Q517.9219,260.1875 518.5703,260.3516 Q519.2188,260.5156 519.7656,260.875 Z " fill="#000000"/><text fill="#000000" font-family="sans-serif" font-size="14" lengthAdjust="spacing" textLength="154" x="531" y="270.7285">MedComCoreCareTeam</text></g><!--MD5=[7f6a6782ff085de027a43e4e291de663]
class author--><g id="elem_author"><rect codeLine="12" fill="#F1F1F1" height="32" id="author" rx="2.5" ry="2.5" style="stroke:#181818;stroke-width:0.5;" width="191" x="254.5" y="359"/><ellipse cx="269.5" cy="375" fill="#ADD1B2" rx="11" ry="11" style="stroke:#181818;stroke-width:1.0;"/><path d="M272.2656,370.875 Q272.4219,370.6563 272.6094,370.5469 Q272.7969,370.4375 273.0156,370.4375 Q273.3906,370.4375 273.625,370.6953 Q273.8594,370.9531 273.8594,371.5625 L273.8594,373.0156 Q273.8594,373.625 273.625,373.8906 Q273.3906,374.1563 273.0156,374.1563 Q272.6719,374.1563 272.4688,373.9531 Q272.2656,373.7656 272.1563,373.25 Q272.1094,372.8906 271.9219,372.7031 Q271.5938,372.3281 270.9844,372.1094 Q270.375,371.8906 269.75,371.8906 Q268.9844,371.8906 268.3516,372.2188 Q267.7188,372.5469 267.2266,373.2969 Q266.7344,374.0469 266.7344,375.0781 L266.7344,376.1719 Q266.7344,377.4063 267.625,378.2266 Q268.5156,379.0469 270.1094,379.0469 Q271.0469,379.0469 271.7031,378.7969 Q272.0938,378.6406 272.5156,378.2031 Q272.7813,377.9375 272.9297,377.8594 Q273.0781,377.7813 273.2813,377.7813 Q273.6094,377.7813 273.8672,378.0391 Q274.125,378.2969 274.125,378.6406 Q274.125,378.9844 273.7813,379.3906 Q273.2813,379.9688 272.4844,380.2969 Q271.4063,380.75 270.1094,380.75 Q268.5938,380.75 267.3906,380.125 Q266.4063,379.625 265.7188,378.5547 Q265.0313,377.4844 265.0313,376.2031 L265.0313,375.0469 Q265.0313,373.7188 265.6484,372.5703 Q266.2656,371.4219 267.3594,370.8047 Q268.4531,370.1875 269.6875,370.1875 Q270.4219,370.1875 271.0703,370.3516 Q271.7188,370.5156 272.2656,370.875 Z " fill="#000000"/><text fill="#000000" font-family="sans-serif" font-size="14" lengthAdjust="spacing" textLength="159" x="283.5" y="380.7285">MedComCorePractitioner</text></g><!--MD5=[79a620f53515237a9de9d0a655fadcca]
link messageheader to communication--><g id="link_messageheader_communication"><path codeLine="15" d="M241.48,50.23 C276.44,74 332.91,112.4 363.9,133.47 " fill="none" id="messageheader-communication" style="stroke:#181818;stroke-width:1.0;"/><text fill="#000000" font-family="sans-serif" font-size="13" lengthAdjust="spacing" textLength="31" x="310" y="94.4951">focus</text></g><!--MD5=[e372636a977ce2c485cbccc561780bd6]
link communication to patient--><g id="link_communication_patient"><path codeLine="16" d="M312.4,165.56 C280.04,173.7 242.15,185.35 210,201 C183.68,213.82 156.92,234.61 140.16,248.77 " fill="none" id="communication-patient" style="stroke:#181818;stroke-width:1.0;"/><text fill="#000000" font-family="sans-serif" font-size="13" lengthAdjust="spacing" textLength="42" x="211" y="215.4951">subject</text></g><!--MD5=[7eeef3c8709ed22b8e61e45e2ea7d532]
link communication to pracRole--><g id="link_communication_pracRole"><path codeLine="17" d="M312.73,165.54 C294.08,173.03 276.17,184.23 265,201 C251.25,221.64 275.64,238.03 301.77,248.91 " fill="none" id="communication-pracRole" style="stroke:#181818;stroke-width:1.0;"/><text fill="#000000" font-family="sans-serif" font-size="13" lengthAdjust="spacing" textLength="36" x="266" y="215.4951">author</text></g><!--MD5=[7eeef3c8709ed22b8e61e45e2ea7d532]
link communication to pracRole--><g id="link_communication_pracRole"><path codeLine="20" d="M367.87,165.81 C358.51,174.94 348.01,187.38 343,201 C337.26,216.59 340.73,235.71 344.54,248.77 " fill="none" id="communication-pracRole-1" style="stroke:#181818;stroke-width:1.0;"/><text fill="#000000" font-family="sans-serif" font-size="13" lengthAdjust="spacing" textLength="39" x="344" y="215.4951">sender</text></g><!--MD5=[7eeef3c8709ed22b8e61e45e2ea7d532]
link communication to pracRole--><g id="link_communication_pracRole"><path codeLine="21" d="M389.6,165.71 C392.24,179.95 394.38,201.57 388,219 C383.86,230.33 375.46,240.78 367.61,248.75 " fill="none" id="communication-pracRole-2" style="stroke:#181818;stroke-width:1.0;"/><text fill="#000000" font-family="sans-serif" font-size="13" lengthAdjust="spacing" textLength="49" x="393" y="215.4951">recipient</text></g><!--MD5=[91c54a72d122703e0856c70b938ed7ef]
link communication to careteam--><g id="link_communication_careteam"><path codeLine="18" d="M413.75,165.57 C453.73,187.28 527.09,227.12 567.13,248.87 " fill="none" id="communication-careteam" style="stroke:#181818;stroke-width:1.0;"/><text fill="#000000" font-family="sans-serif" font-size="13" lengthAdjust="spacing" textLength="39" x="511" y="215.4951">sender</text></g><!--MD5=[91c54a72d122703e0856c70b938ed7ef]
link communication to careteam--><g id="link_communication_careteam"><path codeLine="19" d="M485.15,165.56 C511.11,173.04 537.75,184.24 559,201 C574.63,213.33 584.68,234.44 590.08,248.79 " fill="none" id="communication-careteam-1" style="stroke:#181818;stroke-width:1.0;"/><text fill="#000000" font-family="sans-serif" font-size="13" lengthAdjust="spacing" textLength="49" x="575" y="215.4951">recipient</text></g><!--MD5=[cee96dd921aad29c6dd1b1c4d88bf68f]
link pracRole to author--><g id="link_pracRole_author"><path codeLine="22" d="M350,281.02 C350,301.53 350,338.13 350,358.76 " fill="none" id="pracRole-author" style="stroke:#181818;stroke-width:1.0;"/><text fill="#000000" font-family="sans-serif" font-size="13" lengthAdjust="spacing" textLength="64" x="351" y="325.4951">practitioner</text></g><!--MD5=[7068c6a302bec6a421fbf6e526f1486a]
link messageheader to messagingOrganization--><g id="link_messageheader_messagingOrganization"><path codeLine="25" d="M154.17,50.06 C141.38,57.47 129.42,67.26 122,80 C113.61,94.4 115.3,113.54 118.54,127.92 " fill="none" id="messageheader-messagingOrganization" style="stroke:#181818;stroke-width:1.0;"/><text fill="#000000" font-family="sans-serif" font-size="13" lengthAdjust="spacing" textLength="44" x="123" y="94.4951">receiver</text></g><!--MD5=[7068c6a302bec6a421fbf6e526f1486a]
link messageheader to messagingOrganization--><g id="link_messageheader_messagingOrganization"><path codeLine="26" d="M200.91,50.04 C193.64,64.06 183.18,82.78 172,98 C164.34,108.42 154.78,119.04 146.28,127.83 " fill="none" id="messageheader-messagingOrganization-1" style="stroke:#181818;stroke-width:1.0;"/><text fill="#000000" font-family="sans-serif" font-size="13" lengthAdjust="spacing" textLength="39" x="186" y="94.4951">sender</text></g><!--MD5=[420394e2542335abf3e3b753f686e218]
@startuml CareCommunicationMessageHeader

hide empty members

top to bottom direction

class "MedComCareCommunicationMessageHeader" as messageheader <<MedComMessagingMessageHeader>>
class "MedComMessagingOrganization" as messagingOrganization <<MedComCoreOrganization>>
class "MedComCareCommunication" as communication
class "MedComCorePatient" as patient
class "MedComCorePractitionerRole" as pracRole
class "MedComCoreCareTeam" as careteam
class "MedComCorePractitioner" as author


messageheader - - communication : "focus"
communication - - patient : "subject"
communication - - pracRole : "author"
communication - - careteam : "sender"
communication - - careteam : "recipient"
communication - - pracRole : "sender"
communication - - pracRole : "recipient"
pracRole - - author : "practitioner"


messageheader - - messagingOrganization : "receiver"
messageheader - - messagingOrganization : "sender"
@enduml

PlantUML version 1.2022.7(Mon Aug 22 19:01:30 CEST 2022)
(GPL source distribution)
Java Runtime: Java(TM) SE Runtime Environment
JVM: Java HotSpot(TM) 64-Bit Server VM
Default Encoding: Cp1252
Language: da
Country: DK
--></g></svg>