<?xml version="1.0" encoding="UTF-8" standalone="no"?><svg xmlns="http://www.w3.org/2000/svg" xmlns:xlink="http://www.w3.org/1999/xlink" contentStyleType="text/css" height="266px" preserveAspectRatio="none" style="width:660px;height:266px;background:#FFFFFF;" version="1.1" viewBox="0 0 660 266" width="660px" zoomAndPan="magnify"><defs/><g><!--MD5=[e2e901c2214a1f61ae0bb3d13c40a618]
class communication--><g id="elem_communication"><rect codeLine="4" fill="#F1F1F1" height="32" id="communication" rx="2.5" ry="2.5" style="stroke:#181818;stroke-width:0.5;" width="216" x="243.5" y="7"/><ellipse cx="258.5" cy="23" fill="#ADD1B2" rx="11" ry="11" style="stroke:#181818;stroke-width:1.0;"/><path d="M261.2656,18.875 Q261.4219,18.6563 261.6094,18.5469 Q261.7969,18.4375 262.0156,18.4375 Q262.3906,18.4375 262.625,18.6953 Q262.8594,18.9531 262.8594,19.5625 L262.8594,21.0156 Q262.8594,21.625 262.625,21.8906 Q262.3906,22.1563 262.0156,22.1563 Q261.6719,22.1563 261.4688,21.9531 Q261.2656,21.7656 261.1563,21.25 Q261.1094,20.8906 260.9219,20.7031 Q260.5938,20.3281 259.9844,20.1094 Q259.375,19.8906 258.75,19.8906 Q257.9844,19.8906 257.3516,20.2188 Q256.7188,20.5469 256.2266,21.2969 Q255.7344,22.0469 255.7344,23.0781 L255.7344,24.1719 Q255.7344,25.4063 256.625,26.2266 Q257.5156,27.0469 259.1094,27.0469 Q260.0469,27.0469 260.7031,26.7969 Q261.0938,26.6406 261.5156,26.2031 Q261.7813,25.9375 261.9297,25.8594 Q262.0781,25.7813 262.2813,25.7813 Q262.6094,25.7813 262.8672,26.0391 Q263.125,26.2969 263.125,26.6406 Q263.125,26.9844 262.7813,27.3906 Q262.2813,27.9688 261.4844,28.2969 Q260.4063,28.75 259.1094,28.75 Q257.5938,28.75 256.3906,28.125 Q255.4063,27.625 254.7188,26.5547 Q254.0313,25.4844 254.0313,24.2031 L254.0313,23.0469 Q254.0313,21.7188 254.6484,20.5703 Q255.2656,19.4219 256.3594,18.8047 Q257.4531,18.1875 258.6875,18.1875 Q259.4219,18.1875 260.0703,18.3516 Q260.7188,18.5156 261.2656,18.875 Z " fill="#000000"/><text fill="#000000" font-family="sans-serif" font-size="14" lengthAdjust="spacing" textLength="184" x="272.5" y="28.7285">MedComCareCommunication</text></g><!--MD5=[86fcfc7a3ddeef2443f03e9b03bcacd4]
class patient--><g id="elem_patient"><rect codeLine="5" fill="#F1F1F1" height="32" id="patient" rx="2.5" ry="2.5" style="stroke:#181818;stroke-width:0.5;" width="163" x="7" y="117"/><ellipse cx="22" cy="133" fill="#ADD1B2" rx="11" ry="11" style="stroke:#181818;stroke-width:1.0;"/><path d="M24.7656,128.875 Q24.9219,128.6563 25.1094,128.5469 Q25.2969,128.4375 25.5156,128.4375 Q25.8906,128.4375 26.125,128.6953 Q26.3594,128.9531 26.3594,129.5625 L26.3594,131.0156 Q26.3594,131.625 26.125,131.8906 Q25.8906,132.1563 25.5156,132.1563 Q25.1719,132.1563 24.9688,131.9531 Q24.7656,131.7656 24.6563,131.25 Q24.6094,130.8906 24.4219,130.7031 Q24.0938,130.3281 23.4844,130.1094 Q22.875,129.8906 22.25,129.8906 Q21.4844,129.8906 20.8516,130.2188 Q20.2188,130.5469 19.7266,131.2969 Q19.2344,132.0469 19.2344,133.0781 L19.2344,134.1719 Q19.2344,135.4063 20.125,136.2266 Q21.0156,137.0469 22.6094,137.0469 Q23.5469,137.0469 24.2031,136.7969 Q24.5938,136.6406 25.0156,136.2031 Q25.2813,135.9375 25.4297,135.8594 Q25.5781,135.7813 25.7813,135.7813 Q26.1094,135.7813 26.3672,136.0391 Q26.625,136.2969 26.625,136.6406 Q26.625,136.9844 26.2813,137.3906 Q25.7813,137.9688 24.9844,138.2969 Q23.9063,138.75 22.6094,138.75 Q21.0938,138.75 19.8906,138.125 Q18.9063,137.625 18.2188,136.5547 Q17.5313,135.4844 17.5313,134.2031 L17.5313,133.0469 Q17.5313,131.7188 18.1484,130.5703 Q18.7656,129.4219 19.8594,128.8047 Q20.9531,128.1875 22.1875,128.1875 Q22.9219,128.1875 23.5703,128.3516 Q24.2188,128.5156 24.7656,128.875 Z " fill="#000000"/><text fill="#000000" font-family="sans-serif" font-size="14" lengthAdjust="spacing" textLength="131" x="36" y="138.7285">MedComCorePatient</text></g><!--MD5=[7d1630a95e3a15a0a4f20baedc130ecf]
class pracRole--><g id="elem_pracRole"><rect codeLine="6" fill="#F1F1F1" height="32" id="pracRole" rx="2.5" ry="2.5" style="stroke:#181818;stroke-width:0.5;" width="220" x="205.5" y="117"/><ellipse cx="220.5" cy="133" fill="#ADD1B2" rx="11" ry="11" style="stroke:#181818;stroke-width:1.0;"/><path d="M223.2656,128.875 Q223.4219,128.6563 223.6094,128.5469 Q223.7969,128.4375 224.0156,128.4375 Q224.3906,128.4375 224.625,128.6953 Q224.8594,128.9531 224.8594,129.5625 L224.8594,131.0156 Q224.8594,131.625 224.625,131.8906 Q224.3906,132.1563 224.0156,132.1563 Q223.6719,132.1563 223.4688,131.9531 Q223.2656,131.7656 223.1563,131.25 Q223.1094,130.8906 222.9219,130.7031 Q222.5938,130.3281 221.9844,130.1094 Q221.375,129.8906 220.75,129.8906 Q219.9844,129.8906 219.3516,130.2188 Q218.7188,130.5469 218.2266,131.2969 Q217.7344,132.0469 217.7344,133.0781 L217.7344,134.1719 Q217.7344,135.4063 218.625,136.2266 Q219.5156,137.0469 221.1094,137.0469 Q222.0469,137.0469 222.7031,136.7969 Q223.0938,136.6406 223.5156,136.2031 Q223.7813,135.9375 223.9297,135.8594 Q224.0781,135.7813 224.2813,135.7813 Q224.6094,135.7813 224.8672,136.0391 Q225.125,136.2969 225.125,136.6406 Q225.125,136.9844 224.7813,137.3906 Q224.2813,137.9688 223.4844,138.2969 Q222.4063,138.75 221.1094,138.75 Q219.5938,138.75 218.3906,138.125 Q217.4063,137.625 216.7188,136.5547 Q216.0313,135.4844 216.0313,134.2031 L216.0313,133.0469 Q216.0313,131.7188 216.6484,130.5703 Q217.2656,129.4219 218.3594,128.8047 Q219.4531,128.1875 220.6875,128.1875 Q221.4219,128.1875 222.0703,128.3516 Q222.7188,128.5156 223.2656,128.875 Z " fill="#000000"/><text fill="#000000" font-family="sans-serif" font-size="14" lengthAdjust="spacing" textLength="188" x="234.5" y="138.7285">MedComCorePractitionerRole</text></g><!--MD5=[84cfacbcd31b21cbbb16279cbfd3fe0d]
class careteam--><g id="elem_careteam"><rect codeLine="7" fill="#F1F1F1" height="32" id="careteam" rx="2.5" ry="2.5" style="stroke:#181818;stroke-width:0.5;" width="186" x="467.5" y="117"/><ellipse cx="482.5" cy="133" fill="#ADD1B2" rx="11" ry="11" style="stroke:#181818;stroke-width:1.0;"/><path d="M485.2656,128.875 Q485.4219,128.6563 485.6094,128.5469 Q485.7969,128.4375 486.0156,128.4375 Q486.3906,128.4375 486.625,128.6953 Q486.8594,128.9531 486.8594,129.5625 L486.8594,131.0156 Q486.8594,131.625 486.625,131.8906 Q486.3906,132.1563 486.0156,132.1563 Q485.6719,132.1563 485.4688,131.9531 Q485.2656,131.7656 485.1563,131.25 Q485.1094,130.8906 484.9219,130.7031 Q484.5938,130.3281 483.9844,130.1094 Q483.375,129.8906 482.75,129.8906 Q481.9844,129.8906 481.3516,130.2188 Q480.7188,130.5469 480.2266,131.2969 Q479.7344,132.0469 479.7344,133.0781 L479.7344,134.1719 Q479.7344,135.4063 480.625,136.2266 Q481.5156,137.0469 483.1094,137.0469 Q484.0469,137.0469 484.7031,136.7969 Q485.0938,136.6406 485.5156,136.2031 Q485.7813,135.9375 485.9297,135.8594 Q486.0781,135.7813 486.2813,135.7813 Q486.6094,135.7813 486.8672,136.0391 Q487.125,136.2969 487.125,136.6406 Q487.125,136.9844 486.7813,137.3906 Q486.2813,137.9688 485.4844,138.2969 Q484.4063,138.75 483.1094,138.75 Q481.5938,138.75 480.3906,138.125 Q479.4063,137.625 478.7188,136.5547 Q478.0313,135.4844 478.0313,134.2031 L478.0313,133.0469 Q478.0313,131.7188 478.6484,130.5703 Q479.2656,129.4219 480.3594,128.8047 Q481.4531,128.1875 482.6875,128.1875 Q483.4219,128.1875 484.0703,128.3516 Q484.7188,128.5156 485.2656,128.875 Z " fill="#000000"/><text fill="#000000" font-family="sans-serif" font-size="14" lengthAdjust="spacing" textLength="154" x="496.5" y="138.7285">MedComCoreCareTeam</text></g><!--MD5=[7f6a6782ff085de027a43e4e291de663]
class author--><g id="elem_author"><rect codeLine="8" fill="#F1F1F1" height="32" id="author" rx="2.5" ry="2.5" style="stroke:#181818;stroke-width:0.5;" width="191" x="220" y="227"/><ellipse cx="235" cy="243" fill="#ADD1B2" rx="11" ry="11" style="stroke:#181818;stroke-width:1.0;"/><path d="M237.7656,238.875 Q237.9219,238.6563 238.1094,238.5469 Q238.2969,238.4375 238.5156,238.4375 Q238.8906,238.4375 239.125,238.6953 Q239.3594,238.9531 239.3594,239.5625 L239.3594,241.0156 Q239.3594,241.625 239.125,241.8906 Q238.8906,242.1563 238.5156,242.1563 Q238.1719,242.1563 237.9688,241.9531 Q237.7656,241.7656 237.6563,241.25 Q237.6094,240.8906 237.4219,240.7031 Q237.0938,240.3281 236.4844,240.1094 Q235.875,239.8906 235.25,239.8906 Q234.4844,239.8906 233.8516,240.2188 Q233.2188,240.5469 232.7266,241.2969 Q232.2344,242.0469 232.2344,243.0781 L232.2344,244.1719 Q232.2344,245.4063 233.125,246.2266 Q234.0156,247.0469 235.6094,247.0469 Q236.5469,247.0469 237.2031,246.7969 Q237.5938,246.6406 238.0156,246.2031 Q238.2813,245.9375 238.4297,245.8594 Q238.5781,245.7813 238.7813,245.7813 Q239.1094,245.7813 239.3672,246.0391 Q239.625,246.2969 239.625,246.6406 Q239.625,246.9844 239.2813,247.3906 Q238.7813,247.9688 237.9844,248.2969 Q236.9063,248.75 235.6094,248.75 Q234.0938,248.75 232.8906,248.125 Q231.9063,247.625 231.2188,246.5547 Q230.5313,245.4844 230.5313,244.2031 L230.5313,243.0469 Q230.5313,241.7188 231.1484,240.5703 Q231.7656,239.4219 232.8594,238.8047 Q233.9531,238.1875 235.1875,238.1875 Q235.9219,238.1875 236.5703,238.3516 Q237.2188,238.5156 237.7656,238.875 Z " fill="#000000"/><text fill="#000000" font-family="sans-serif" font-size="14" lengthAdjust="spacing" textLength="159" x="249" y="248.7285">MedComCorePractitioner</text></g><!--MD5=[e372636a977ce2c485cbccc561780bd6]
link communication to patient--><g id="link_communication_patient"><path codeLine="12" d="M265.02,39.02 C235.46,45.95 202.75,55.68 174.5,69 C148.05,81.47 121.49,102.55 105.03,116.85 " fill="none" id="communication-patient" style="stroke:#181818;stroke-width:1.0;"/><text fill="#000000" font-family="sans-serif" font-size="13" lengthAdjust="spacing" textLength="42" x="175.5" y="83.4951">subject</text></g><!--MD5=[7eeef3c8709ed22b8e61e45e2ea7d532]
link communication to pracRole--><g id="link_communication_pracRole"><path codeLine="13" d="M269.65,39.11 C254.26,45.75 240.03,55.29 230.5,69 C216.24,89.51 241.12,106.01 267.58,116.97 " fill="none" id="communication-pracRole" style="stroke:#181818;stroke-width:1.0;"/><text fill="#000000" font-family="sans-serif" font-size="13" lengthAdjust="spacing" textLength="36" x="231.5" y="83.4951">author</text></g><!--MD5=[7eeef3c8709ed22b8e61e45e2ea7d532]
link communication to pracRole--><g id="link_communication_pracRole"><path codeLine="16" d="M331.17,39.22 C322.43,47.04 313.16,57.37 308.5,69 C302.27,84.53 305.91,103.82 309.89,116.94 " fill="none" id="communication-pracRole-1" style="stroke:#181818;stroke-width:1.0;"/><text fill="#000000" font-family="sans-serif" font-size="13" lengthAdjust="spacing" textLength="39" x="309.5" y="83.4951">sender</text></g><!--MD5=[7eeef3c8709ed22b8e61e45e2ea7d532]
link communication to pracRole--><g id="link_communication_pracRole"><path codeLine="17" d="M355.05,39.01 C357.44,52.1 359.21,71.38 353.5,87 C349.36,98.33 340.96,108.78 333.11,116.75 " fill="none" id="communication-pracRole-2" style="stroke:#181818;stroke-width:1.0;"/><text fill="#000000" font-family="sans-serif" font-size="13" lengthAdjust="spacing" textLength="49" x="358.5" y="83.4951">recipient</text></g><!--MD5=[91c54a72d122703e0856c70b938ed7ef]
link communication to careteam--><g id="link_communication_careteam"><path codeLine="14" d="M380.56,39.02 C420.38,59.59 491.49,96.34 531.35,116.94 " fill="none" id="communication-careteam" style="stroke:#181818;stroke-width:1.0;"/><text fill="#000000" font-family="sans-serif" font-size="13" lengthAdjust="spacing" textLength="39" x="470.5" y="83.4951">sender</text></g><!--MD5=[91c54a72d122703e0856c70b938ed7ef]
link communication to careteam--><g id="link_communication_careteam"><path codeLine="15" d="M453.41,39.07 C476.25,45.7 499.36,55.25 518.5,69 C535.47,81.2 547.57,102.54 554.29,116.97 " fill="none" id="communication-careteam-1" style="stroke:#181818;stroke-width:1.0;"/><text fill="#000000" font-family="sans-serif" font-size="13" lengthAdjust="spacing" textLength="49" x="536.5" y="83.4951">recipient</text></g><!--MD5=[cee96dd921aad29c6dd1b1c4d88bf68f]
link pracRole to author--><g id="link_pracRole_author"><path codeLine="18" d="M315.5,149.02 C315.5,169.53 315.5,206.13 315.5,226.76 " fill="none" id="pracRole-author" style="stroke:#181818;stroke-width:1.0;"/><text fill="#000000" font-family="sans-serif" font-size="13" lengthAdjust="spacing" textLength="64" x="316.5" y="193.4951">practitioner</text></g><!--MD5=[a26f4a3793fd6d3470bb4d2c5958bf22]
@startuml CareCommunicationCommunication

hide empty members

class "MedComCareCommunication" as communication
class "MedComCorePatient" as patient
class "MedComCorePractitionerRole" as pracRole
class "MedComCoreCareTeam" as careteam
class "MedComCorePractitioner" as author



communication - - patient : "subject"
communication - - pracRole : "author"
communication - - careteam : "sender"
communication - - careteam : "recipient"
communication - - pracRole : "sender"
communication - - pracRole : "recipient"
pracRole - - author : "practitioner"

@enduml

PlantUML version 1.2022.7(Mon Aug 22 19:01:30 CEST 2022)
(GPL source distribution)
Java Runtime: Java(TM) SE Runtime Environment
JVM: Java HotSpot(TM) 64-Bit Server VM
Default Encoding: Cp1252
Language: da
Country: DK
--></g></svg>