<?xml version="1.0" encoding="UTF-8" standalone="no"?><svg xmlns="http://www.w3.org/2000/svg" xmlns:xlink="http://www.w3.org/1999/xlink" contentStyleType="text/css" height="277px" preserveAspectRatio="none" style="width:630px;height:277px;background:#FFFFFF;" version="1.1" viewBox="0 0 630 277" width="630px" zoomAndPan="magnify"><defs/><g><!--MD5=[e2e901c2214a1f61ae0bb3d13c40a618]
class communication--><g id="elem_communication"><rect codeLine="4" fill="#F1F1F1" height="32" id="communication" rx="2.5" ry="2.5" style="stroke:#181818;stroke-width:0.5;" width="216" x="192.5" y="128"/><ellipse cx="207.5" cy="144" fill="#ADD1B2" rx="11" ry="11" style="stroke:#181818;stroke-width:1.0;"/><path d="M210.2656,139.875 Q210.4219,139.6563 210.6094,139.5469 Q210.7969,139.4375 211.0156,139.4375 Q211.3906,139.4375 211.625,139.6953 Q211.8594,139.9531 211.8594,140.5625 L211.8594,142.0156 Q211.8594,142.625 211.625,142.8906 Q211.3906,143.1563 211.0156,143.1563 Q210.6719,143.1563 210.4688,142.9531 Q210.2656,142.7656 210.1563,142.25 Q210.1094,141.8906 209.9219,141.7031 Q209.5938,141.3281 208.9844,141.1094 Q208.375,140.8906 207.75,140.8906 Q206.9844,140.8906 206.3516,141.2188 Q205.7188,141.5469 205.2266,142.2969 Q204.7344,143.0469 204.7344,144.0781 L204.7344,145.1719 Q204.7344,146.4063 205.625,147.2266 Q206.5156,148.0469 208.1094,148.0469 Q209.0469,148.0469 209.7031,147.7969 Q210.0938,147.6406 210.5156,147.2031 Q210.7813,146.9375 210.9297,146.8594 Q211.0781,146.7813 211.2813,146.7813 Q211.6094,146.7813 211.8672,147.0391 Q212.125,147.2969 212.125,147.6406 Q212.125,147.9844 211.7813,148.3906 Q211.2813,148.9688 210.4844,149.2969 Q209.4063,149.75 208.1094,149.75 Q206.5938,149.75 205.3906,149.125 Q204.4063,148.625 203.7188,147.5547 Q203.0313,146.4844 203.0313,145.2031 L203.0313,144.0469 Q203.0313,142.7188 203.6484,141.5703 Q204.2656,140.4219 205.3594,139.8047 Q206.4531,139.1875 207.6875,139.1875 Q208.4219,139.1875 209.0703,139.3516 Q209.7188,139.5156 210.2656,139.875 Z " fill="#000000"/><text fill="#000000" font-family="sans-serif" font-size="14" lengthAdjust="spacing" textLength="184" x="221.5" y="149.7285">MedComCareCommunication</text></g><!--MD5=[86fcfc7a3ddeef2443f03e9b03bcacd4]
class patient--><g id="elem_patient"><rect codeLine="5" fill="#F1F1F1" height="32" id="patient" rx="2.5" ry="2.5" style="stroke:#181818;stroke-width:0.5;" width="163" x="7" y="238"/><ellipse cx="22" cy="254" fill="#ADD1B2" rx="11" ry="11" style="stroke:#181818;stroke-width:1.0;"/><path d="M24.7656,249.875 Q24.9219,249.6563 25.1094,249.5469 Q25.2969,249.4375 25.5156,249.4375 Q25.8906,249.4375 26.125,249.6953 Q26.3594,249.9531 26.3594,250.5625 L26.3594,252.0156 Q26.3594,252.625 26.125,252.8906 Q25.8906,253.1563 25.5156,253.1563 Q25.1719,253.1563 24.9688,252.9531 Q24.7656,252.7656 24.6563,252.25 Q24.6094,251.8906 24.4219,251.7031 Q24.0938,251.3281 23.4844,251.1094 Q22.875,250.8906 22.25,250.8906 Q21.4844,250.8906 20.8516,251.2188 Q20.2188,251.5469 19.7266,252.2969 Q19.2344,253.0469 19.2344,254.0781 L19.2344,255.1719 Q19.2344,256.4063 20.125,257.2266 Q21.0156,258.0469 22.6094,258.0469 Q23.5469,258.0469 24.2031,257.7969 Q24.5938,257.6406 25.0156,257.2031 Q25.2813,256.9375 25.4297,256.8594 Q25.5781,256.7813 25.7813,256.7813 Q26.1094,256.7813 26.3672,257.0391 Q26.625,257.2969 26.625,257.6406 Q26.625,257.9844 26.2813,258.3906 Q25.7813,258.9688 24.9844,259.2969 Q23.9063,259.75 22.6094,259.75 Q21.0938,259.75 19.8906,259.125 Q18.9063,258.625 18.2188,257.5547 Q17.5313,256.4844 17.5313,255.2031 L17.5313,254.0469 Q17.5313,252.7188 18.1484,251.5703 Q18.7656,250.4219 19.8594,249.8047 Q20.9531,249.1875 22.1875,249.1875 Q22.9219,249.1875 23.5703,249.3516 Q24.2188,249.5156 24.7656,249.875 Z " fill="#000000"/><text fill="#000000" font-family="sans-serif" font-size="14" lengthAdjust="spacing" textLength="131" x="36" y="259.7285">MedComCorePatient</text></g><!--MD5=[7f6a6782ff085de027a43e4e291de663]
class author--><g id="elem_author"><rect codeLine="6" fill="#F1F1F1" height="32" id="author" rx="2.5" ry="2.5" style="stroke:#181818;stroke-width:0.5;" width="191" x="205" y="238"/><ellipse cx="220" cy="254" fill="#ADD1B2" rx="11" ry="11" style="stroke:#181818;stroke-width:1.0;"/><path d="M222.7656,249.875 Q222.9219,249.6563 223.1094,249.5469 Q223.2969,249.4375 223.5156,249.4375 Q223.8906,249.4375 224.125,249.6953 Q224.3594,249.9531 224.3594,250.5625 L224.3594,252.0156 Q224.3594,252.625 224.125,252.8906 Q223.8906,253.1563 223.5156,253.1563 Q223.1719,253.1563 222.9688,252.9531 Q222.7656,252.7656 222.6563,252.25 Q222.6094,251.8906 222.4219,251.7031 Q222.0938,251.3281 221.4844,251.1094 Q220.875,250.8906 220.25,250.8906 Q219.4844,250.8906 218.8516,251.2188 Q218.2188,251.5469 217.7266,252.2969 Q217.2344,253.0469 217.2344,254.0781 L217.2344,255.1719 Q217.2344,256.4063 218.125,257.2266 Q219.0156,258.0469 220.6094,258.0469 Q221.5469,258.0469 222.2031,257.7969 Q222.5938,257.6406 223.0156,257.2031 Q223.2813,256.9375 223.4297,256.8594 Q223.5781,256.7813 223.7813,256.7813 Q224.1094,256.7813 224.3672,257.0391 Q224.625,257.2969 224.625,257.6406 Q224.625,257.9844 224.2813,258.3906 Q223.7813,258.9688 222.9844,259.2969 Q221.9063,259.75 220.6094,259.75 Q219.0938,259.75 217.8906,259.125 Q216.9063,258.625 216.2188,257.5547 Q215.5313,256.4844 215.5313,255.2031 L215.5313,254.0469 Q215.5313,252.7188 216.1484,251.5703 Q216.7656,250.4219 217.8594,249.8047 Q218.9531,249.1875 220.1875,249.1875 Q220.9219,249.1875 221.5703,249.3516 Q222.2188,249.5156 222.7656,249.875 Z " fill="#000000"/><text fill="#000000" font-family="sans-serif" font-size="14" lengthAdjust="spacing" textLength="159" x="234" y="259.7285">MedComCorePractitioner</text></g><!--MD5=[bf0e659e8df8c2802d52f74fdc234bc7]
class senderRec--><g id="elem_senderRec"><rect codeLine="7" fill="#F1F1F1" height="32" id="senderRec" rx="2.5" ry="2.5" style="stroke:#181818;stroke-width:0.5;" width="153" x="431" y="238"/><ellipse cx="446" cy="254" fill="#ADD1B2" rx="11" ry="11" style="stroke:#181818;stroke-width:1.0;"/><path d="M448.7656,249.875 Q448.9219,249.6563 449.1094,249.5469 Q449.2969,249.4375 449.5156,249.4375 Q449.8906,249.4375 450.125,249.6953 Q450.3594,249.9531 450.3594,250.5625 L450.3594,252.0156 Q450.3594,252.625 450.125,252.8906 Q449.8906,253.1563 449.5156,253.1563 Q449.1719,253.1563 448.9688,252.9531 Q448.7656,252.7656 448.6563,252.25 Q448.6094,251.8906 448.4219,251.7031 Q448.0938,251.3281 447.4844,251.1094 Q446.875,250.8906 446.25,250.8906 Q445.4844,250.8906 444.8516,251.2188 Q444.2188,251.5469 443.7266,252.2969 Q443.2344,253.0469 443.2344,254.0781 L443.2344,255.1719 Q443.2344,256.4063 444.125,257.2266 Q445.0156,258.0469 446.6094,258.0469 Q447.5469,258.0469 448.2031,257.7969 Q448.5938,257.6406 449.0156,257.2031 Q449.2813,256.9375 449.4297,256.8594 Q449.5781,256.7813 449.7813,256.7813 Q450.1094,256.7813 450.3672,257.0391 Q450.625,257.2969 450.625,257.6406 Q450.625,257.9844 450.2813,258.3906 Q449.7813,258.9688 448.9844,259.2969 Q447.9063,259.75 446.6094,259.75 Q445.0938,259.75 443.8906,259.125 Q442.9063,258.625 442.2188,257.5547 Q441.5313,256.4844 441.5313,255.2031 L441.5313,254.0469 Q441.5313,252.7188 442.1484,251.5703 Q442.7656,250.4219 443.8594,249.8047 Q444.9531,249.1875 446.1875,249.1875 Q446.9219,249.1875 447.5703,249.3516 Q448.2188,249.5156 448.7656,249.875 Z " fill="#000000"/><text fill="#000000" font-family="sans-serif" font-size="14" lengthAdjust="spacing" textLength="121" x="460" y="259.7285">Sender or recipient</text></g><!--MD5=[8450471b43f9def5175bba9f4f9f2aaf]
class messageheader--><g id="elem_messageheader"><rect codeLine="8" fill="#F1F1F1" height="42.7031" id="messageheader" rx="2.5" ry="2.5" style="stroke:#181818;stroke-width:0.5;" width="319" x="288" y="7"/><ellipse cx="303" cy="28.3516" fill="#ADD1B2" rx="11" ry="11" style="stroke:#181818;stroke-width:1.0;"/><path d="M305.7656,24.2266 Q305.9219,24.0078 306.1094,23.8984 Q306.2969,23.7891 306.5156,23.7891 Q306.8906,23.7891 307.125,24.0469 Q307.3594,24.3047 307.3594,24.9141 L307.3594,26.3672 Q307.3594,26.9766 307.125,27.2422 Q306.8906,27.5078 306.5156,27.5078 Q306.1719,27.5078 305.9688,27.3047 Q305.7656,27.1172 305.6563,26.6016 Q305.6094,26.2422 305.4219,26.0547 Q305.0938,25.6797 304.4844,25.4609 Q303.875,25.2422 303.25,25.2422 Q302.4844,25.2422 301.8516,25.5703 Q301.2188,25.8984 300.7266,26.6484 Q300.2344,27.3984 300.2344,28.4297 L300.2344,29.5234 Q300.2344,30.7578 301.125,31.5781 Q302.0156,32.3984 303.6094,32.3984 Q304.5469,32.3984 305.2031,32.1484 Q305.5938,31.9922 306.0156,31.5547 Q306.2813,31.2891 306.4297,31.2109 Q306.5781,31.1328 306.7813,31.1328 Q307.1094,31.1328 307.3672,31.3906 Q307.625,31.6484 307.625,31.9922 Q307.625,32.3359 307.2813,32.7422 Q306.7813,33.3203 305.9844,33.6484 Q304.9063,34.1016 303.6094,34.1016 Q302.0938,34.1016 300.8906,33.4766 Q299.9063,32.9766 299.2188,31.9063 Q298.5313,30.8359 298.5313,29.5547 L298.5313,28.3984 Q298.5313,27.0703 299.1484,25.9219 Q299.7656,24.7734 300.8594,24.1563 Q301.9531,23.5391 303.1875,23.5391 Q303.9219,23.5391 304.5703,23.7031 Q305.2188,23.8672 305.7656,24.2266 Z " fill="#000000"/><text fill="#000000" font-family="sans-serif" font-size="12" font-style="italic" lengthAdjust="spacing" textLength="213" x="354" y="24.457">«MedComMessagingMessageHeader»</text><text fill="#000000" font-family="sans-serif" font-size="14" lengthAdjust="spacing" textLength="287" x="317" y="41.627">MedComCareCommunicationMessageHeader</text></g><!--MD5=[5495acc25b34ab1dab9fd35d8e775d03]
class messagingOrganization--><g id="elem_messagingOrganization"><rect fill="#F1F1F1" height="32" id="messagingOrganization" rx="2.5" ry="2.5" style="stroke:#181818;stroke-width:0.5;" width="180" x="443.5" y="128"/><ellipse cx="458.5" cy="144" fill="#ADD1B2" rx="11" ry="11" style="stroke:#181818;stroke-width:1.0;"/><path d="M461.2656,139.875 Q461.4219,139.6563 461.6094,139.5469 Q461.7969,139.4375 462.0156,139.4375 Q462.3906,139.4375 462.625,139.6953 Q462.8594,139.9531 462.8594,140.5625 L462.8594,142.0156 Q462.8594,142.625 462.625,142.8906 Q462.3906,143.1563 462.0156,143.1563 Q461.6719,143.1563 461.4688,142.9531 Q461.2656,142.7656 461.1563,142.25 Q461.1094,141.8906 460.9219,141.7031 Q460.5938,141.3281 459.9844,141.1094 Q459.375,140.8906 458.75,140.8906 Q457.9844,140.8906 457.3516,141.2188 Q456.7188,141.5469 456.2266,142.2969 Q455.7344,143.0469 455.7344,144.0781 L455.7344,145.1719 Q455.7344,146.4063 456.625,147.2266 Q457.5156,148.0469 459.1094,148.0469 Q460.0469,148.0469 460.7031,147.7969 Q461.0938,147.6406 461.5156,147.2031 Q461.7813,146.9375 461.9297,146.8594 Q462.0781,146.7813 462.2813,146.7813 Q462.6094,146.7813 462.8672,147.0391 Q463.125,147.2969 463.125,147.6406 Q463.125,147.9844 462.7813,148.3906 Q462.2813,148.9688 461.4844,149.2969 Q460.4063,149.75 459.1094,149.75 Q457.5938,149.75 456.3906,149.125 Q455.4063,148.625 454.7188,147.5547 Q454.0313,146.4844 454.0313,145.2031 L454.0313,144.0469 Q454.0313,142.7188 454.6484,141.5703 Q455.2656,140.4219 456.3594,139.8047 Q457.4531,139.1875 458.6875,139.1875 Q459.4219,139.1875 460.0703,139.3516 Q460.7188,139.5156 461.2656,139.875 Z " fill="#000000"/><text fill="#000000" font-family="sans-serif" font-size="14" lengthAdjust="spacing" textLength="148" x="472.5" y="149.7285">messagingOrganization</text></g><!--MD5=[79a620f53515237a9de9d0a655fadcca]
link messageheader to communication--><g id="link_messageheader_communication"><path codeLine="10" d="M420.88,50.05 C391.92,72.41 346.3,107.64 320.33,127.69 " fill="none" id="messageheader-communication" style="stroke:#181818;stroke-width:1.0;"/><text fill="#000000" font-family="sans-serif" font-size="13" lengthAdjust="spacing" textLength="31" x="378.5" y="94.4951">focus</text></g><!--MD5=[e372636a977ce2c485cbccc561780bd6]
link communication to patient--><g id="link_communication_patient"><path codeLine="11" d="M271.02,160.02 C230.63,180.59 158.51,217.34 118.07,237.94 " fill="none" id="communication-patient" style="stroke:#181818;stroke-width:1.0;"/><text fill="#000000" font-family="sans-serif" font-size="13" lengthAdjust="spacing" textLength="42" x="208.5" y="204.4951">subject</text></g><!--MD5=[4c28f4d529642a4a475443d56aae15f6]
link communication to author--><g id="link_communication_author"><path codeLine="12" d="M300.5,160.02 C300.5,180.53 300.5,217.13 300.5,237.76 " fill="none" id="communication-author" style="stroke:#181818;stroke-width:1.0;"/><text fill="#000000" font-family="sans-serif" font-size="13" lengthAdjust="spacing" textLength="85" x="301.5" y="204.4951">payload author</text></g><!--MD5=[26fe2a2d4f0b543bf88f60b06314f104]
link communication to senderRec--><g id="link_communication_senderRec"><path codeLine="13" d="M333.75,160.06 C352.11,168.54 375.24,179.52 395.5,190 C425.62,205.58 459.46,224.87 481.98,237.97 " fill="none" id="communication-senderRec" style="stroke:#181818;stroke-width:1.0;"/><text fill="#000000" font-family="sans-serif" font-size="13" lengthAdjust="spacing" textLength="92" x="427.5" y="204.4951">sender/recipient</text></g><!--MD5=[7068c6a302bec6a421fbf6e526f1486a]
link messageheader to messagingOrganization--><g id="link_messageheader_messagingOrganization"><path codeLine="16" d="M440.83,50.2 C437.49,64.65 435.77,83.8 444.5,98 C452.84,111.57 466.69,121.2 480.99,127.96 " fill="none" id="messageheader-messagingOrganization" style="stroke:#181818;stroke-width:1.0;"/><text fill="#000000" font-family="sans-serif" font-size="13" lengthAdjust="spacing" textLength="44" x="445.5" y="94.4951">receiver</text></g><!--MD5=[7068c6a302bec6a421fbf6e526f1486a]
link messageheader to messagingOrganization--><g id="link_messageheader_messagingOrganization"><path codeLine="17" d="M468.59,50.31 C477.06,59.12 486.65,69.72 494.5,80 C506.36,95.54 517.89,114.84 525.29,127.95 " fill="none" id="messageheader-messagingOrganization-1" style="stroke:#181818;stroke-width:1.0;"/><text fill="#000000" font-family="sans-serif" font-size="13" lengthAdjust="spacing" textLength="39" x="506.5" y="94.4951">sender</text></g><!--MD5=[7dd6cda2d549df9a5c0caaee2d507678]
@startuml CareCommunicationCommunication

hide empty members

class "MedComCareCommunication" as communication
class "MedComCorePatient" as patient
class "MedComCorePractitioner" as author
class "Sender or recipient" as senderRec
class "MedComCareCommunicationMessageHeader" as messageheader <<MedComMessagingMessageHeader>>

messageheader - - communication : "focus"
communication - - patient : "subject"
communication - - author : "payload author"
communication - - senderRec : "sender/recipient"


messageheader - - messagingOrganization : "receiver"
messageheader - - messagingOrganization : "sender"
@enduml

PlantUML version 1.2022.7(Mon Aug 22 19:01:30 CEST 2022)
(GPL source distribution)
Java Runtime: Java(TM) SE Runtime Environment
JVM: Java HotSpot(TM) 64-Bit Server VM
Default Encoding: Cp1252
Language: da
Country: DK
--></g></svg>