<?xml version="1.0" encoding="UTF-8" standalone="no"?><svg xmlns="http://www.w3.org/2000/svg" xmlns:xlink="http://www.w3.org/1999/xlink" contentStyleType="text/css" height="629px" preserveAspectRatio="none" style="width:737px;height:629px;background:#FFFFFF;" version="1.1" viewBox="0 0 737 629" width="737px" zoomAndPan="magnify"><defs/><g><!--MD5=[76410cda49e5d7b75c5bd06aa47a685f]
class message--><g id="elem_message"><rect codeLine="6" fill="#F1F1F1" height="42.7031" id="message" rx="2.5" ry="2.5" style="stroke:#181818;stroke-width:0.5;" width="273" x="312" y="7"/><ellipse cx="327" cy="28.3516" fill="#ADD1B2" rx="11" ry="11" style="stroke:#181818;stroke-width:1.0;"/><path d="M329.7656,24.2266 Q329.9219,24.0078 330.1094,23.8984 Q330.2969,23.7891 330.5156,23.7891 Q330.8906,23.7891 331.125,24.0469 Q331.3594,24.3047 331.3594,24.9141 L331.3594,26.3672 Q331.3594,26.9766 331.125,27.2422 Q330.8906,27.5078 330.5156,27.5078 Q330.1719,27.5078 329.9688,27.3047 Q329.7656,27.1172 329.6563,26.6016 Q329.6094,26.2422 329.4219,26.0547 Q329.0938,25.6797 328.4844,25.4609 Q327.875,25.2422 327.25,25.2422 Q326.4844,25.2422 325.8516,25.5703 Q325.2188,25.8984 324.7266,26.6484 Q324.2344,27.3984 324.2344,28.4297 L324.2344,29.5234 Q324.2344,30.7578 325.125,31.5781 Q326.0156,32.3984 327.6094,32.3984 Q328.5469,32.3984 329.2031,32.1484 Q329.5938,31.9922 330.0156,31.5547 Q330.2813,31.2891 330.4297,31.2109 Q330.5781,31.1328 330.7813,31.1328 Q331.1094,31.1328 331.3672,31.3906 Q331.625,31.6484 331.625,31.9922 Q331.625,32.3359 331.2813,32.7422 Q330.7813,33.3203 329.9844,33.6484 Q328.9063,34.1016 327.6094,34.1016 Q326.0938,34.1016 324.8906,33.4766 Q323.9063,32.9766 323.2188,31.9063 Q322.5313,30.8359 322.5313,29.5547 L322.5313,28.3984 Q322.5313,27.0703 323.1484,25.9219 Q323.7656,24.7734 324.8594,24.1563 Q325.9531,23.5391 327.1875,23.5391 Q327.9219,23.5391 328.5703,23.7031 Q329.2188,23.8672 329.7656,24.2266 Z " fill="#000000"/><text fill="#000000" font-family="sans-serif" font-size="12" font-style="italic" lengthAdjust="spacing" textLength="172" x="375.5" y="24.457">«MedComMessagingMessage»</text><text fill="#000000" font-family="sans-serif" font-size="14" lengthAdjust="spacing" textLength="241" x="341" y="41.627">MedComCareCommunicationMessage</text></g><!--MD5=[8450471b43f9def5175bba9f4f9f2aaf]
class messageheader--><g id="elem_messageheader"><rect codeLine="7" fill="#F1F1F1" height="42.7031" id="messageheader" rx="2.5" ry="2.5" style="stroke:#181818;stroke-width:0.5;" width="319" x="260" y="238"/><ellipse cx="275" cy="259.3516" fill="#ADD1B2" rx="11" ry="11" style="stroke:#181818;stroke-width:1.0;"/><path d="M277.7656,255.2266 Q277.9219,255.0078 278.1094,254.8984 Q278.2969,254.7891 278.5156,254.7891 Q278.8906,254.7891 279.125,255.0469 Q279.3594,255.3047 279.3594,255.9141 L279.3594,257.3672 Q279.3594,257.9766 279.125,258.2422 Q278.8906,258.5078 278.5156,258.5078 Q278.1719,258.5078 277.9688,258.3047 Q277.7656,258.1172 277.6563,257.6016 Q277.6094,257.2422 277.4219,257.0547 Q277.0938,256.6797 276.4844,256.4609 Q275.875,256.2422 275.25,256.2422 Q274.4844,256.2422 273.8516,256.5703 Q273.2188,256.8984 272.7266,257.6484 Q272.2344,258.3984 272.2344,259.4297 L272.2344,260.5234 Q272.2344,261.7578 273.125,262.5781 Q274.0156,263.3984 275.6094,263.3984 Q276.5469,263.3984 277.2031,263.1484 Q277.5938,262.9922 278.0156,262.5547 Q278.2813,262.2891 278.4297,262.2109 Q278.5781,262.1328 278.7813,262.1328 Q279.1094,262.1328 279.3672,262.3906 Q279.625,262.6484 279.625,262.9922 Q279.625,263.3359 279.2813,263.7422 Q278.7813,264.3203 277.9844,264.6484 Q276.9063,265.1016 275.6094,265.1016 Q274.0938,265.1016 272.8906,264.4766 Q271.9063,263.9766 271.2188,262.9063 Q270.5313,261.8359 270.5313,260.5547 L270.5313,259.3984 Q270.5313,258.0703 271.1484,256.9219 Q271.7656,255.7734 272.8594,255.1563 Q273.9531,254.5391 275.1875,254.5391 Q275.9219,254.5391 276.5703,254.7031 Q277.2188,254.8672 277.7656,255.2266 Z " fill="#000000"/><text fill="#000000" font-family="sans-serif" font-size="12" font-style="italic" lengthAdjust="spacing" textLength="213" x="326" y="255.457">«MedComMessagingMessageHeader»</text><text fill="#000000" font-family="sans-serif" font-size="14" lengthAdjust="spacing" textLength="287" x="289" y="272.627">MedComCareCommunicationMessageHeader</text></g><!--MD5=[134450525739527685064faa304c6b67]
class provenance--><g id="elem_provenance"><rect codeLine="8" fill="#F1F1F1" height="32" id="provenance" rx="2.5" ry="2.5" style="stroke:#181818;stroke-width:0.5;" width="232" x="485.5" y="128"/><ellipse cx="500.5" cy="144" fill="#ADD1B2" rx="11" ry="11" style="stroke:#181818;stroke-width:1.0;"/><path d="M503.2656,139.875 Q503.4219,139.6563 503.6094,139.5469 Q503.7969,139.4375 504.0156,139.4375 Q504.3906,139.4375 504.625,139.6953 Q504.8594,139.9531 504.8594,140.5625 L504.8594,142.0156 Q504.8594,142.625 504.625,142.8906 Q504.3906,143.1563 504.0156,143.1563 Q503.6719,143.1563 503.4688,142.9531 Q503.2656,142.7656 503.1563,142.25 Q503.1094,141.8906 502.9219,141.7031 Q502.5938,141.3281 501.9844,141.1094 Q501.375,140.8906 500.75,140.8906 Q499.9844,140.8906 499.3516,141.2188 Q498.7188,141.5469 498.2266,142.2969 Q497.7344,143.0469 497.7344,144.0781 L497.7344,145.1719 Q497.7344,146.4063 498.625,147.2266 Q499.5156,148.0469 501.1094,148.0469 Q502.0469,148.0469 502.7031,147.7969 Q503.0938,147.6406 503.5156,147.2031 Q503.7813,146.9375 503.9297,146.8594 Q504.0781,146.7813 504.2813,146.7813 Q504.6094,146.7813 504.8672,147.0391 Q505.125,147.2969 505.125,147.6406 Q505.125,147.9844 504.7813,148.3906 Q504.2813,148.9688 503.4844,149.2969 Q502.4063,149.75 501.1094,149.75 Q499.5938,149.75 498.3906,149.125 Q497.4063,148.625 496.7188,147.5547 Q496.0313,146.4844 496.0313,145.2031 L496.0313,144.0469 Q496.0313,142.7188 496.6484,141.5703 Q497.2656,140.4219 498.3594,139.8047 Q499.4531,139.1875 500.6875,139.1875 Q501.4219,139.1875 502.0703,139.3516 Q502.7188,139.5156 503.2656,139.875 Z " fill="#000000"/><text fill="#000000" font-family="sans-serif" font-size="14" lengthAdjust="spacing" textLength="200" x="514.5" y="149.7285">MedComMessagingProvenance</text></g><!--MD5=[5495acc25b34ab1dab9fd35d8e775d03]
class messagingOrganization--><g id="elem_messagingOrganization"><rect codeLine="9" fill="#F1F1F1" height="42.7031" id="messagingOrganization" rx="2.5" ry="2.5" style="stroke:#181818;stroke-width:0.5;" width="236" x="494.5" y="359"/><ellipse cx="509.5" cy="380.3516" fill="#ADD1B2" rx="11" ry="11" style="stroke:#181818;stroke-width:1.0;"/><path d="M512.2656,376.2266 Q512.4219,376.0078 512.6094,375.8984 Q512.7969,375.7891 513.0156,375.7891 Q513.3906,375.7891 513.625,376.0469 Q513.8594,376.3047 513.8594,376.9141 L513.8594,378.3672 Q513.8594,378.9766 513.625,379.2422 Q513.3906,379.5078 513.0156,379.5078 Q512.6719,379.5078 512.4688,379.3047 Q512.2656,379.1172 512.1563,378.6016 Q512.1094,378.2422 511.9219,378.0547 Q511.5938,377.6797 510.9844,377.4609 Q510.375,377.2422 509.75,377.2422 Q508.9844,377.2422 508.3516,377.5703 Q507.7188,377.8984 507.2266,378.6484 Q506.7344,379.3984 506.7344,380.4297 L506.7344,381.5234 Q506.7344,382.7578 507.625,383.5781 Q508.5156,384.3984 510.1094,384.3984 Q511.0469,384.3984 511.7031,384.1484 Q512.0938,383.9922 512.5156,383.5547 Q512.7813,383.2891 512.9297,383.2109 Q513.0781,383.1328 513.2813,383.1328 Q513.6094,383.1328 513.8672,383.3906 Q514.125,383.6484 514.125,383.9922 Q514.125,384.3359 513.7813,384.7422 Q513.2813,385.3203 512.4844,385.6484 Q511.4063,386.1016 510.1094,386.1016 Q508.5938,386.1016 507.3906,385.4766 Q506.4063,384.9766 505.7188,383.9063 Q505.0313,382.8359 505.0313,381.5547 L505.0313,380.3984 Q505.0313,379.0703 505.6484,377.9219 Q506.2656,376.7734 507.3594,376.1563 Q508.4531,375.5391 509.6875,375.5391 Q510.4219,375.5391 511.0703,375.7031 Q511.7188,375.8672 512.2656,376.2266 Z " fill="#000000"/><text fill="#000000" font-family="sans-serif" font-size="12" font-style="italic" lengthAdjust="spacing" textLength="162" x="544.5" y="376.457">«MedComCoreOrganization»</text><text fill="#000000" font-family="sans-serif" font-size="14" lengthAdjust="spacing" textLength="204" x="523.5" y="393.627">MedComMessagingOrganization</text></g><!--MD5=[e2e901c2214a1f61ae0bb3d13c40a618]
class communication--><g id="elem_communication"><rect codeLine="10" fill="#F1F1F1" height="32" id="communication" rx="2.5" ry="2.5" style="stroke:#181818;stroke-width:0.5;" width="216" x="243.5" y="364.5"/><ellipse cx="258.5" cy="380.5" fill="#ADD1B2" rx="11" ry="11" style="stroke:#181818;stroke-width:1.0;"/><path d="M261.2656,376.375 Q261.4219,376.1563 261.6094,376.0469 Q261.7969,375.9375 262.0156,375.9375 Q262.3906,375.9375 262.625,376.1953 Q262.8594,376.4531 262.8594,377.0625 L262.8594,378.5156 Q262.8594,379.125 262.625,379.3906 Q262.3906,379.6563 262.0156,379.6563 Q261.6719,379.6563 261.4688,379.4531 Q261.2656,379.2656 261.1563,378.75 Q261.1094,378.3906 260.9219,378.2031 Q260.5938,377.8281 259.9844,377.6094 Q259.375,377.3906 258.75,377.3906 Q257.9844,377.3906 257.3516,377.7188 Q256.7188,378.0469 256.2266,378.7969 Q255.7344,379.5469 255.7344,380.5781 L255.7344,381.6719 Q255.7344,382.9063 256.625,383.7266 Q257.5156,384.5469 259.1094,384.5469 Q260.0469,384.5469 260.7031,384.2969 Q261.0938,384.1406 261.5156,383.7031 Q261.7813,383.4375 261.9297,383.3594 Q262.0781,383.2813 262.2813,383.2813 Q262.6094,383.2813 262.8672,383.5391 Q263.125,383.7969 263.125,384.1406 Q263.125,384.4844 262.7813,384.8906 Q262.2813,385.4688 261.4844,385.7969 Q260.4063,386.25 259.1094,386.25 Q257.5938,386.25 256.3906,385.625 Q255.4063,385.125 254.7188,384.0547 Q254.0313,382.9844 254.0313,381.7031 L254.0313,380.5469 Q254.0313,379.2188 254.6484,378.0703 Q255.2656,376.9219 256.3594,376.3047 Q257.4531,375.6875 258.6875,375.6875 Q259.4219,375.6875 260.0703,375.8516 Q260.7188,376.0156 261.2656,376.375 Z " fill="#000000"/><text fill="#000000" font-family="sans-serif" font-size="14" lengthAdjust="spacing" textLength="184" x="272.5" y="386.2285">MedComCareCommunication</text></g><!--MD5=[86fcfc7a3ddeef2443f03e9b03bcacd4]
class patient--><g id="elem_patient"><rect codeLine="11" fill="#F1F1F1" height="32" id="patient" rx="2.5" ry="2.5" style="stroke:#181818;stroke-width:0.5;" width="163" x="7" y="480"/><ellipse cx="22" cy="496" fill="#ADD1B2" rx="11" ry="11" style="stroke:#181818;stroke-width:1.0;"/><path d="M24.7656,491.875 Q24.9219,491.6563 25.1094,491.5469 Q25.2969,491.4375 25.5156,491.4375 Q25.8906,491.4375 26.125,491.6953 Q26.3594,491.9531 26.3594,492.5625 L26.3594,494.0156 Q26.3594,494.625 26.125,494.8906 Q25.8906,495.1563 25.5156,495.1563 Q25.1719,495.1563 24.9688,494.9531 Q24.7656,494.7656 24.6563,494.25 Q24.6094,493.8906 24.4219,493.7031 Q24.0938,493.3281 23.4844,493.1094 Q22.875,492.8906 22.25,492.8906 Q21.4844,492.8906 20.8516,493.2188 Q20.2188,493.5469 19.7266,494.2969 Q19.2344,495.0469 19.2344,496.0781 L19.2344,497.1719 Q19.2344,498.4063 20.125,499.2266 Q21.0156,500.0469 22.6094,500.0469 Q23.5469,500.0469 24.2031,499.7969 Q24.5938,499.6406 25.0156,499.2031 Q25.2813,498.9375 25.4297,498.8594 Q25.5781,498.7813 25.7813,498.7813 Q26.1094,498.7813 26.3672,499.0391 Q26.625,499.2969 26.625,499.6406 Q26.625,499.9844 26.2813,500.3906 Q25.7813,500.9688 24.9844,501.2969 Q23.9063,501.75 22.6094,501.75 Q21.0938,501.75 19.8906,501.125 Q18.9063,500.625 18.2188,499.5547 Q17.5313,498.4844 17.5313,497.2031 L17.5313,496.0469 Q17.5313,494.7188 18.1484,493.5703 Q18.7656,492.4219 19.8594,491.8047 Q20.9531,491.1875 22.1875,491.1875 Q22.9219,491.1875 23.5703,491.3516 Q24.2188,491.5156 24.7656,491.875 Z " fill="#000000"/><text fill="#000000" font-family="sans-serif" font-size="14" lengthAdjust="spacing" textLength="131" x="36" y="501.7285">MedComCorePatient</text></g><!--MD5=[7d1630a95e3a15a0a4f20baedc130ecf]
class pracRole--><g id="elem_pracRole"><rect codeLine="12" fill="#F1F1F1" height="32" id="pracRole" rx="2.5" ry="2.5" style="stroke:#181818;stroke-width:0.5;" width="220" x="205.5" y="480"/><ellipse cx="220.5" cy="496" fill="#ADD1B2" rx="11" ry="11" style="stroke:#181818;stroke-width:1.0;"/><path d="M223.2656,491.875 Q223.4219,491.6563 223.6094,491.5469 Q223.7969,491.4375 224.0156,491.4375 Q224.3906,491.4375 224.625,491.6953 Q224.8594,491.9531 224.8594,492.5625 L224.8594,494.0156 Q224.8594,494.625 224.625,494.8906 Q224.3906,495.1563 224.0156,495.1563 Q223.6719,495.1563 223.4688,494.9531 Q223.2656,494.7656 223.1563,494.25 Q223.1094,493.8906 222.9219,493.7031 Q222.5938,493.3281 221.9844,493.1094 Q221.375,492.8906 220.75,492.8906 Q219.9844,492.8906 219.3516,493.2188 Q218.7188,493.5469 218.2266,494.2969 Q217.7344,495.0469 217.7344,496.0781 L217.7344,497.1719 Q217.7344,498.4063 218.625,499.2266 Q219.5156,500.0469 221.1094,500.0469 Q222.0469,500.0469 222.7031,499.7969 Q223.0938,499.6406 223.5156,499.2031 Q223.7813,498.9375 223.9297,498.8594 Q224.0781,498.7813 224.2813,498.7813 Q224.6094,498.7813 224.8672,499.0391 Q225.125,499.2969 225.125,499.6406 Q225.125,499.9844 224.7813,500.3906 Q224.2813,500.9688 223.4844,501.2969 Q222.4063,501.75 221.1094,501.75 Q219.5938,501.75 218.3906,501.125 Q217.4063,500.625 216.7188,499.5547 Q216.0313,498.4844 216.0313,497.2031 L216.0313,496.0469 Q216.0313,494.7188 216.6484,493.5703 Q217.2656,492.4219 218.3594,491.8047 Q219.4531,491.1875 220.6875,491.1875 Q221.4219,491.1875 222.0703,491.3516 Q222.7188,491.5156 223.2656,491.875 Z " fill="#000000"/><text fill="#000000" font-family="sans-serif" font-size="14" lengthAdjust="spacing" textLength="188" x="234.5" y="501.7285">MedComCorePractitionerRole</text></g><!--MD5=[84cfacbcd31b21cbbb16279cbfd3fe0d]
class careteam--><g id="elem_careteam"><rect codeLine="13" fill="#F1F1F1" height="32" id="careteam" rx="2.5" ry="2.5" style="stroke:#181818;stroke-width:0.5;" width="186" x="467.5" y="480"/><ellipse cx="482.5" cy="496" fill="#ADD1B2" rx="11" ry="11" style="stroke:#181818;stroke-width:1.0;"/><path d="M485.2656,491.875 Q485.4219,491.6563 485.6094,491.5469 Q485.7969,491.4375 486.0156,491.4375 Q486.3906,491.4375 486.625,491.6953 Q486.8594,491.9531 486.8594,492.5625 L486.8594,494.0156 Q486.8594,494.625 486.625,494.8906 Q486.3906,495.1563 486.0156,495.1563 Q485.6719,495.1563 485.4688,494.9531 Q485.2656,494.7656 485.1563,494.25 Q485.1094,493.8906 484.9219,493.7031 Q484.5938,493.3281 483.9844,493.1094 Q483.375,492.8906 482.75,492.8906 Q481.9844,492.8906 481.3516,493.2188 Q480.7188,493.5469 480.2266,494.2969 Q479.7344,495.0469 479.7344,496.0781 L479.7344,497.1719 Q479.7344,498.4063 480.625,499.2266 Q481.5156,500.0469 483.1094,500.0469 Q484.0469,500.0469 484.7031,499.7969 Q485.0938,499.6406 485.5156,499.2031 Q485.7813,498.9375 485.9297,498.8594 Q486.0781,498.7813 486.2813,498.7813 Q486.6094,498.7813 486.8672,499.0391 Q487.125,499.2969 487.125,499.6406 Q487.125,499.9844 486.7813,500.3906 Q486.2813,500.9688 485.4844,501.2969 Q484.4063,501.75 483.1094,501.75 Q481.5938,501.75 480.3906,501.125 Q479.4063,500.625 478.7188,499.5547 Q478.0313,498.4844 478.0313,497.2031 L478.0313,496.0469 Q478.0313,494.7188 478.6484,493.5703 Q479.2656,492.4219 480.3594,491.8047 Q481.4531,491.1875 482.6875,491.1875 Q483.4219,491.1875 484.0703,491.3516 Q484.7188,491.5156 485.2656,491.875 Z " fill="#000000"/><text fill="#000000" font-family="sans-serif" font-size="14" lengthAdjust="spacing" textLength="154" x="496.5" y="501.7285">MedComCoreCareTeam</text></g><!--MD5=[7f6a6782ff085de027a43e4e291de663]
class author--><g id="elem_author"><rect codeLine="14" fill="#F1F1F1" height="32" id="author" rx="2.5" ry="2.5" style="stroke:#181818;stroke-width:0.5;" width="191" x="220" y="590"/><ellipse cx="235" cy="606" fill="#ADD1B2" rx="11" ry="11" style="stroke:#181818;stroke-width:1.0;"/><path d="M237.7656,601.875 Q237.9219,601.6563 238.1094,601.5469 Q238.2969,601.4375 238.5156,601.4375 Q238.8906,601.4375 239.125,601.6953 Q239.3594,601.9531 239.3594,602.5625 L239.3594,604.0156 Q239.3594,604.625 239.125,604.8906 Q238.8906,605.1563 238.5156,605.1563 Q238.1719,605.1563 237.9688,604.9531 Q237.7656,604.7656 237.6563,604.25 Q237.6094,603.8906 237.4219,603.7031 Q237.0938,603.3281 236.4844,603.1094 Q235.875,602.8906 235.25,602.8906 Q234.4844,602.8906 233.8516,603.2188 Q233.2188,603.5469 232.7266,604.2969 Q232.2344,605.0469 232.2344,606.0781 L232.2344,607.1719 Q232.2344,608.4063 233.125,609.2266 Q234.0156,610.0469 235.6094,610.0469 Q236.5469,610.0469 237.2031,609.7969 Q237.5938,609.6406 238.0156,609.2031 Q238.2813,608.9375 238.4297,608.8594 Q238.5781,608.7813 238.7813,608.7813 Q239.1094,608.7813 239.3672,609.0391 Q239.625,609.2969 239.625,609.6406 Q239.625,609.9844 239.2813,610.3906 Q238.7813,610.9688 237.9844,611.2969 Q236.9063,611.75 235.6094,611.75 Q234.0938,611.75 232.8906,611.125 Q231.9063,610.625 231.2188,609.5547 Q230.5313,608.4844 230.5313,607.2031 L230.5313,606.0469 Q230.5313,604.7188 231.1484,603.5703 Q231.7656,602.4219 232.8594,601.8047 Q233.9531,601.1875 235.1875,601.1875 Q235.9219,601.1875 236.5703,601.3516 Q237.2188,601.5156 237.7656,601.875 Z " fill="#000000"/><text fill="#000000" font-family="sans-serif" font-size="14" lengthAdjust="spacing" textLength="159" x="249" y="611.7285">MedComCorePractitioner</text></g><!--MD5=[81a74f5327845c2ce954842e4f46c391]
link message to messageheader--><g id="link_message_messageheader"><path codeLine="17" d="M445.88,50.23 C440.35,93.83 427.6,194.57 422.1,237.99 " fill="none" id="message-messageheader" style="stroke:#181818;stroke-width:1.0;"/><text fill="#000000" font-family="sans-serif" font-size="13" lengthAdjust="spacing" textLength="29" x="437.5" y="149.4951">entry</text></g><!--MD5=[79a620f53515237a9de9d0a655fadcca]
link messageheader to communication--><g id="link_messageheader_communication"><path codeLine="18" d="M407.66,281.23 C394.11,304.93 372.25,343.18 360.19,364.29 " fill="none" id="messageheader-communication" style="stroke:#181818;stroke-width:1.0;"/><text fill="#000000" font-family="sans-serif" font-size="13" lengthAdjust="spacing" textLength="31" x="391.5" y="325.4951">focus</text></g><!--MD5=[e372636a977ce2c485cbccc561780bd6]
link communication to patient--><g id="link_communication_patient"><path codeLine="19" d="M277.9,396.56 C245.54,404.7 207.65,416.35 175.5,432 C149.18,444.82 122.42,465.61 105.66,479.77 " fill="none" id="communication-patient" style="stroke:#181818;stroke-width:1.0;"/><text fill="#000000" font-family="sans-serif" font-size="13" lengthAdjust="spacing" textLength="42" x="176.5" y="446.4951">subject</text></g><!--MD5=[7eeef3c8709ed22b8e61e45e2ea7d532]
link communication to pracRole--><g id="link_communication_pracRole"><path codeLine="20" d="M278.23,396.54 C259.58,404.03 241.67,415.23 230.5,432 C216.75,452.64 241.14,469.03 267.27,479.91 " fill="none" id="communication-pracRole" style="stroke:#181818;stroke-width:1.0;"/><text fill="#000000" font-family="sans-serif" font-size="13" lengthAdjust="spacing" textLength="36" x="231.5" y="446.4951">author</text></g><!--MD5=[7eeef3c8709ed22b8e61e45e2ea7d532]
link communication to pracRole--><g id="link_communication_pracRole"><path codeLine="26" d="M333.37,396.81 C324.01,405.94 313.51,418.38 308.5,432 C302.76,447.59 306.23,466.71 310.04,479.77 " fill="none" id="communication-pracRole-1" style="stroke:#181818;stroke-width:1.0;"/><text fill="#000000" font-family="sans-serif" font-size="13" lengthAdjust="spacing" textLength="39" x="309.5" y="446.4951">sender</text></g><!--MD5=[7eeef3c8709ed22b8e61e45e2ea7d532]
link communication to pracRole--><g id="link_communication_pracRole"><path codeLine="27" d="M355.1,396.71 C357.74,410.95 359.88,432.57 353.5,450 C349.36,461.33 340.96,471.78 333.11,479.75 " fill="none" id="communication-pracRole-2" style="stroke:#181818;stroke-width:1.0;"/><text fill="#000000" font-family="sans-serif" font-size="13" lengthAdjust="spacing" textLength="49" x="358.5" y="446.4951">recipient</text></g><!--MD5=[81f298224060e516a9ea14ff98c71ca4]
link message to provenance--><g id="link_message_provenance"><path codeLine="21" d="M476.21,50.05 C506.35,72.41 553.83,107.64 580.86,127.69 " fill="none" id="message-provenance" style="stroke:#181818;stroke-width:1.0;"/><text fill="#000000" font-family="sans-serif" font-size="13" lengthAdjust="spacing" textLength="29" x="539.5" y="94.4951">entry</text></g><!--MD5=[1aa5b919a36df47450e1a6a7cdb64b45]
link provenance to messageheader--><g id="link_provenance_messageheader"><path codeLine="22" d="M577.33,160.07 C545.23,180.09 488.4,215.53 452.4,237.98 " fill="none" id="provenance-messageheader" style="stroke:#181818;stroke-width:1.0;"/><text fill="#000000" font-family="sans-serif" font-size="13" lengthAdjust="spacing" textLength="33" x="527.5" y="204.4951">target</text></g><!--MD5=[f47a36da2de5ae8806a1be3932325292]
link provenance to messagingOrganization--><g id="link_provenance_messagingOrganization"><path codeLine="23" d="M602.25,160.11 C603.69,189.27 606.94,255.37 609.5,311 C610.24,327.05 611.03,345.22 611.62,358.82 " fill="none" id="provenance-messagingOrganization" style="stroke:#181818;stroke-width:1.0;"/><text fill="#000000" font-family="sans-serif" font-size="13" lengthAdjust="spacing" textLength="59" x="608.5" y="264.9951">agent.who</text></g><!--MD5=[91c54a72d122703e0856c70b938ed7ef]
link communication to careteam--><g id="link_communication_careteam"><path codeLine="24" d="M379.25,396.57 C419.23,418.28 492.59,458.12 532.63,479.87 " fill="none" id="communication-careteam" style="stroke:#181818;stroke-width:1.0;"/><text fill="#000000" font-family="sans-serif" font-size="13" lengthAdjust="spacing" textLength="39" x="476.5" y="446.4951">sender</text></g><!--MD5=[91c54a72d122703e0856c70b938ed7ef]
link communication to careteam--><g id="link_communication_careteam"><path codeLine="25" d="M450.65,396.56 C476.61,404.04 503.25,415.24 524.5,432 C540.13,444.33 550.18,465.44 555.58,479.79 " fill="none" id="communication-careteam-1" style="stroke:#181818;stroke-width:1.0;"/><text fill="#000000" font-family="sans-serif" font-size="13" lengthAdjust="spacing" textLength="49" x="540.5" y="446.4951">recipient</text></g><!--MD5=[cee96dd921aad29c6dd1b1c4d88bf68f]
link pracRole to author--><g id="link_pracRole_author"><path codeLine="28" d="M315.5,512.02 C315.5,532.53 315.5,569.13 315.5,589.76 " fill="none" id="pracRole-author" style="stroke:#181818;stroke-width:1.0;"/><text fill="#000000" font-family="sans-serif" font-size="13" lengthAdjust="spacing" textLength="64" x="316.5" y="556.4951">practitioner</text></g><!--MD5=[7068c6a302bec6a421fbf6e526f1486a]
link messageheader to messagingOrganization--><g id="link_messageheader_messagingOrganization"><path codeLine="31" d="M474.02,281.1 C493.13,289.29 514.34,299.51 532.5,311 C554.29,324.79 576.34,344.17 591.76,358.8 " fill="none" id="messageheader-messagingOrganization" style="stroke:#181818;stroke-width:1.0;"/><text fill="#000000" font-family="sans-serif" font-size="13" lengthAdjust="spacing" textLength="44" x="556.5" y="325.4951">receiver</text></g><!--MD5=[7068c6a302bec6a421fbf6e526f1486a]
link messageheader to messagingOrganization--><g id="link_messageheader_messagingOrganization"><path codeLine="32" d="M434.64,281.12 C446.53,296.09 464.24,315.93 483.5,329 C501.61,341.29 523.14,351.22 543.38,358.92 " fill="none" id="messageheader-messagingOrganization-1" style="stroke:#181818;stroke-width:1.0;"/><text fill="#000000" font-family="sans-serif" font-size="13" lengthAdjust="spacing" textLength="39" x="484.5" y="325.4951">sender</text></g><!--MD5=[eb89cedfd3191396c6852ad8e899f65a]
@startuml CareCommunication

hide empty members

top to bottom direction

class "MedComCareCommunicationMessage" as message <<MedComMessagingMessage>>
class "MedComCareCommunicationMessageHeader" as messageheader <<MedComMessagingMessageHeader>>
class "MedComMessagingProvenance" as provenance
class "MedComMessagingOrganization" as messagingOrganization <<MedComCoreOrganization>>
class "MedComCareCommunication" as communication
class "MedComCorePatient" as patient
class "MedComCorePractitionerRole" as pracRole
class "MedComCoreCareTeam" as careteam
class "MedComCorePractitioner" as author


message - - messageheader : "entry"
messageheader - - communication : "focus"
communication - - patient : "subject"
communication - - pracRole : "author"
message - - provenance : "entry"
provenance - - messageheader : "target" 
provenance - - messagingOrganization : "agent.who"
communication - - careteam : "sender"
communication - - careteam : "recipient"
communication - - pracRole : "sender"
communication - - pracRole : "recipient"
pracRole - - author : "practitioner"


messageheader - - messagingOrganization : "receiver"
messageheader - - messagingOrganization : "sender"
@enduml

PlantUML version 1.2022.7(Mon Aug 22 19:01:30 CEST 2022)
(GPL source distribution)
Java Runtime: Java(TM) SE Runtime Environment
JVM: Java HotSpot(TM) 64-Bit Server VM
Default Encoding: Cp1252
Language: da
Country: DK
--></g></svg>