<?xml version="1.0" encoding="UTF-8" standalone="no"?><svg xmlns="http://www.w3.org/2000/svg" xmlns:xlink="http://www.w3.org/1999/xlink" contentStyleType="text/css" height="629px" preserveAspectRatio="none" style="width:701px;height:629px;background:#FFFFFF;" version="1.1" viewBox="0 0 701 629" width="701px" zoomAndPan="magnify"><defs/><g><!--MD5=[76410cda49e5d7b75c5bd06aa47a685f]
class message--><g id="elem_message"><rect codeLine="6" fill="#F1F1F1" height="42.7031" id="message" rx="2.5" ry="2.5" style="stroke:#181818;stroke-width:0.5;" width="273" x="276" y="7"/><ellipse cx="291" cy="28.3516" fill="#ADD1B2" rx="11" ry="11" style="stroke:#181818;stroke-width:1.0;"/><path d="M293.7656,24.2266 Q293.9219,24.0078 294.1094,23.8984 Q294.2969,23.7891 294.5156,23.7891 Q294.8906,23.7891 295.125,24.0469 Q295.3594,24.3047 295.3594,24.9141 L295.3594,26.3672 Q295.3594,26.9766 295.125,27.2422 Q294.8906,27.5078 294.5156,27.5078 Q294.1719,27.5078 293.9688,27.3047 Q293.7656,27.1172 293.6563,26.6016 Q293.6094,26.2422 293.4219,26.0547 Q293.0938,25.6797 292.4844,25.4609 Q291.875,25.2422 291.25,25.2422 Q290.4844,25.2422 289.8516,25.5703 Q289.2188,25.8984 288.7266,26.6484 Q288.2344,27.3984 288.2344,28.4297 L288.2344,29.5234 Q288.2344,30.7578 289.125,31.5781 Q290.0156,32.3984 291.6094,32.3984 Q292.5469,32.3984 293.2031,32.1484 Q293.5938,31.9922 294.0156,31.5547 Q294.2813,31.2891 294.4297,31.2109 Q294.5781,31.1328 294.7813,31.1328 Q295.1094,31.1328 295.3672,31.3906 Q295.625,31.6484 295.625,31.9922 Q295.625,32.3359 295.2813,32.7422 Q294.7813,33.3203 293.9844,33.6484 Q292.9063,34.1016 291.6094,34.1016 Q290.0938,34.1016 288.8906,33.4766 Q287.9063,32.9766 287.2188,31.9063 Q286.5313,30.8359 286.5313,29.5547 L286.5313,28.3984 Q286.5313,27.0703 287.1484,25.9219 Q287.7656,24.7734 288.8594,24.1563 Q289.9531,23.5391 291.1875,23.5391 Q291.9219,23.5391 292.5703,23.7031 Q293.2188,23.8672 293.7656,24.2266 Z " fill="#000000"/><text fill="#000000" font-family="sans-serif" font-size="12" font-style="italic" lengthAdjust="spacing" textLength="172" x="339.5" y="24.457">«MedComMessagingMessage»</text><text fill="#000000" font-family="sans-serif" font-size="14" lengthAdjust="spacing" textLength="241" x="305" y="41.627">MedComCareCommunicationMessage</text></g><!--MD5=[8450471b43f9def5175bba9f4f9f2aaf]
class messageheader--><g id="elem_messageheader"><rect codeLine="7" fill="#F1F1F1" height="42.7031" id="messageheader" rx="2.5" ry="2.5" style="stroke:#181818;stroke-width:0.5;" width="319" x="224" y="238"/><ellipse cx="239" cy="259.3516" fill="#ADD1B2" rx="11" ry="11" style="stroke:#181818;stroke-width:1.0;"/><path d="M241.7656,255.2266 Q241.9219,255.0078 242.1094,254.8984 Q242.2969,254.7891 242.5156,254.7891 Q242.8906,254.7891 243.125,255.0469 Q243.3594,255.3047 243.3594,255.9141 L243.3594,257.3672 Q243.3594,257.9766 243.125,258.2422 Q242.8906,258.5078 242.5156,258.5078 Q242.1719,258.5078 241.9688,258.3047 Q241.7656,258.1172 241.6563,257.6016 Q241.6094,257.2422 241.4219,257.0547 Q241.0938,256.6797 240.4844,256.4609 Q239.875,256.2422 239.25,256.2422 Q238.4844,256.2422 237.8516,256.5703 Q237.2188,256.8984 236.7266,257.6484 Q236.2344,258.3984 236.2344,259.4297 L236.2344,260.5234 Q236.2344,261.7578 237.125,262.5781 Q238.0156,263.3984 239.6094,263.3984 Q240.5469,263.3984 241.2031,263.1484 Q241.5938,262.9922 242.0156,262.5547 Q242.2813,262.2891 242.4297,262.2109 Q242.5781,262.1328 242.7813,262.1328 Q243.1094,262.1328 243.3672,262.3906 Q243.625,262.6484 243.625,262.9922 Q243.625,263.3359 243.2813,263.7422 Q242.7813,264.3203 241.9844,264.6484 Q240.9063,265.1016 239.6094,265.1016 Q238.0938,265.1016 236.8906,264.4766 Q235.9063,263.9766 235.2188,262.9063 Q234.5313,261.8359 234.5313,260.5547 L234.5313,259.3984 Q234.5313,258.0703 235.1484,256.9219 Q235.7656,255.7734 236.8594,255.1563 Q237.9531,254.5391 239.1875,254.5391 Q239.9219,254.5391 240.5703,254.7031 Q241.2188,254.8672 241.7656,255.2266 Z " fill="#000000"/><text fill="#000000" font-family="sans-serif" font-size="12" font-style="italic" lengthAdjust="spacing" textLength="213" x="290" y="255.457">«MedComMessagingMessageHeader»</text><text fill="#000000" font-family="sans-serif" font-size="14" lengthAdjust="spacing" textLength="287" x="253" y="272.627">MedComCareCommunicationMessageHeader</text></g><!--MD5=[134450525739527685064faa304c6b67]
class provenance--><g id="elem_provenance"><rect codeLine="8" fill="#F1F1F1" height="32" id="provenance" rx="2.5" ry="2.5" style="stroke:#181818;stroke-width:0.5;" width="232" x="449.5" y="128"/><ellipse cx="464.5" cy="144" fill="#ADD1B2" rx="11" ry="11" style="stroke:#181818;stroke-width:1.0;"/><path d="M467.2656,139.875 Q467.4219,139.6563 467.6094,139.5469 Q467.7969,139.4375 468.0156,139.4375 Q468.3906,139.4375 468.625,139.6953 Q468.8594,139.9531 468.8594,140.5625 L468.8594,142.0156 Q468.8594,142.625 468.625,142.8906 Q468.3906,143.1563 468.0156,143.1563 Q467.6719,143.1563 467.4688,142.9531 Q467.2656,142.7656 467.1563,142.25 Q467.1094,141.8906 466.9219,141.7031 Q466.5938,141.3281 465.9844,141.1094 Q465.375,140.8906 464.75,140.8906 Q463.9844,140.8906 463.3516,141.2188 Q462.7188,141.5469 462.2266,142.2969 Q461.7344,143.0469 461.7344,144.0781 L461.7344,145.1719 Q461.7344,146.4063 462.625,147.2266 Q463.5156,148.0469 465.1094,148.0469 Q466.0469,148.0469 466.7031,147.7969 Q467.0938,147.6406 467.5156,147.2031 Q467.7813,146.9375 467.9297,146.8594 Q468.0781,146.7813 468.2813,146.7813 Q468.6094,146.7813 468.8672,147.0391 Q469.125,147.2969 469.125,147.6406 Q469.125,147.9844 468.7813,148.3906 Q468.2813,148.9688 467.4844,149.2969 Q466.4063,149.75 465.1094,149.75 Q463.5938,149.75 462.3906,149.125 Q461.4063,148.625 460.7188,147.5547 Q460.0313,146.4844 460.0313,145.2031 L460.0313,144.0469 Q460.0313,142.7188 460.6484,141.5703 Q461.2656,140.4219 462.3594,139.8047 Q463.4531,139.1875 464.6875,139.1875 Q465.4219,139.1875 466.0703,139.3516 Q466.7188,139.5156 467.2656,139.875 Z " fill="#000000"/><text fill="#000000" font-family="sans-serif" font-size="14" lengthAdjust="spacing" textLength="200" x="478.5" y="149.7285">MedComMessagingProvenance</text></g><!--MD5=[5495acc25b34ab1dab9fd35d8e775d03]
class messagingOrganization--><g id="elem_messagingOrganization"><rect codeLine="9" fill="#F1F1F1" height="42.7031" id="messagingOrganization" rx="2.5" ry="2.5" style="stroke:#181818;stroke-width:0.5;" width="236" x="458.5" y="359"/><ellipse cx="473.5" cy="380.3516" fill="#ADD1B2" rx="11" ry="11" style="stroke:#181818;stroke-width:1.0;"/><path d="M476.2656,376.2266 Q476.4219,376.0078 476.6094,375.8984 Q476.7969,375.7891 477.0156,375.7891 Q477.3906,375.7891 477.625,376.0469 Q477.8594,376.3047 477.8594,376.9141 L477.8594,378.3672 Q477.8594,378.9766 477.625,379.2422 Q477.3906,379.5078 477.0156,379.5078 Q476.6719,379.5078 476.4688,379.3047 Q476.2656,379.1172 476.1563,378.6016 Q476.1094,378.2422 475.9219,378.0547 Q475.5938,377.6797 474.9844,377.4609 Q474.375,377.2422 473.75,377.2422 Q472.9844,377.2422 472.3516,377.5703 Q471.7188,377.8984 471.2266,378.6484 Q470.7344,379.3984 470.7344,380.4297 L470.7344,381.5234 Q470.7344,382.7578 471.625,383.5781 Q472.5156,384.3984 474.1094,384.3984 Q475.0469,384.3984 475.7031,384.1484 Q476.0938,383.9922 476.5156,383.5547 Q476.7813,383.2891 476.9297,383.2109 Q477.0781,383.1328 477.2813,383.1328 Q477.6094,383.1328 477.8672,383.3906 Q478.125,383.6484 478.125,383.9922 Q478.125,384.3359 477.7813,384.7422 Q477.2813,385.3203 476.4844,385.6484 Q475.4063,386.1016 474.1094,386.1016 Q472.5938,386.1016 471.3906,385.4766 Q470.4063,384.9766 469.7188,383.9063 Q469.0313,382.8359 469.0313,381.5547 L469.0313,380.3984 Q469.0313,379.0703 469.6484,377.9219 Q470.2656,376.7734 471.3594,376.1563 Q472.4531,375.5391 473.6875,375.5391 Q474.4219,375.5391 475.0703,375.7031 Q475.7188,375.8672 476.2656,376.2266 Z " fill="#000000"/><text fill="#000000" font-family="sans-serif" font-size="12" font-style="italic" lengthAdjust="spacing" textLength="162" x="508.5" y="376.457">«MedComCoreOrganization»</text><text fill="#000000" font-family="sans-serif" font-size="14" lengthAdjust="spacing" textLength="204" x="487.5" y="393.627">MedComMessagingOrganization</text></g><!--MD5=[e2e901c2214a1f61ae0bb3d13c40a618]
class communication--><g id="elem_communication"><rect codeLine="10" fill="#F1F1F1" height="32" id="communication" rx="2.5" ry="2.5" style="stroke:#181818;stroke-width:0.5;" width="216" x="207.5" y="364.5"/><ellipse cx="222.5" cy="380.5" fill="#ADD1B2" rx="11" ry="11" style="stroke:#181818;stroke-width:1.0;"/><path d="M225.2656,376.375 Q225.4219,376.1563 225.6094,376.0469 Q225.7969,375.9375 226.0156,375.9375 Q226.3906,375.9375 226.625,376.1953 Q226.8594,376.4531 226.8594,377.0625 L226.8594,378.5156 Q226.8594,379.125 226.625,379.3906 Q226.3906,379.6563 226.0156,379.6563 Q225.6719,379.6563 225.4688,379.4531 Q225.2656,379.2656 225.1563,378.75 Q225.1094,378.3906 224.9219,378.2031 Q224.5938,377.8281 223.9844,377.6094 Q223.375,377.3906 222.75,377.3906 Q221.9844,377.3906 221.3516,377.7188 Q220.7188,378.0469 220.2266,378.7969 Q219.7344,379.5469 219.7344,380.5781 L219.7344,381.6719 Q219.7344,382.9063 220.625,383.7266 Q221.5156,384.5469 223.1094,384.5469 Q224.0469,384.5469 224.7031,384.2969 Q225.0938,384.1406 225.5156,383.7031 Q225.7813,383.4375 225.9297,383.3594 Q226.0781,383.2813 226.2813,383.2813 Q226.6094,383.2813 226.8672,383.5391 Q227.125,383.7969 227.125,384.1406 Q227.125,384.4844 226.7813,384.8906 Q226.2813,385.4688 225.4844,385.7969 Q224.4063,386.25 223.1094,386.25 Q221.5938,386.25 220.3906,385.625 Q219.4063,385.125 218.7188,384.0547 Q218.0313,382.9844 218.0313,381.7031 L218.0313,380.5469 Q218.0313,379.2188 218.6484,378.0703 Q219.2656,376.9219 220.3594,376.3047 Q221.4531,375.6875 222.6875,375.6875 Q223.4219,375.6875 224.0703,375.8516 Q224.7188,376.0156 225.2656,376.375 Z " fill="#000000"/><text fill="#000000" font-family="sans-serif" font-size="14" lengthAdjust="spacing" textLength="184" x="236.5" y="386.2285">MedComCareCommunication</text></g><!--MD5=[86fcfc7a3ddeef2443f03e9b03bcacd4]
class patient--><g id="elem_patient"><rect codeLine="11" fill="#F1F1F1" height="32" id="patient" rx="2.5" ry="2.5" style="stroke:#181818;stroke-width:0.5;" width="163" x="7" y="480"/><ellipse cx="22" cy="496" fill="#ADD1B2" rx="11" ry="11" style="stroke:#181818;stroke-width:1.0;"/><path d="M24.7656,491.875 Q24.9219,491.6563 25.1094,491.5469 Q25.2969,491.4375 25.5156,491.4375 Q25.8906,491.4375 26.125,491.6953 Q26.3594,491.9531 26.3594,492.5625 L26.3594,494.0156 Q26.3594,494.625 26.125,494.8906 Q25.8906,495.1563 25.5156,495.1563 Q25.1719,495.1563 24.9688,494.9531 Q24.7656,494.7656 24.6563,494.25 Q24.6094,493.8906 24.4219,493.7031 Q24.0938,493.3281 23.4844,493.1094 Q22.875,492.8906 22.25,492.8906 Q21.4844,492.8906 20.8516,493.2188 Q20.2188,493.5469 19.7266,494.2969 Q19.2344,495.0469 19.2344,496.0781 L19.2344,497.1719 Q19.2344,498.4063 20.125,499.2266 Q21.0156,500.0469 22.6094,500.0469 Q23.5469,500.0469 24.2031,499.7969 Q24.5938,499.6406 25.0156,499.2031 Q25.2813,498.9375 25.4297,498.8594 Q25.5781,498.7813 25.7813,498.7813 Q26.1094,498.7813 26.3672,499.0391 Q26.625,499.2969 26.625,499.6406 Q26.625,499.9844 26.2813,500.3906 Q25.7813,500.9688 24.9844,501.2969 Q23.9063,501.75 22.6094,501.75 Q21.0938,501.75 19.8906,501.125 Q18.9063,500.625 18.2188,499.5547 Q17.5313,498.4844 17.5313,497.2031 L17.5313,496.0469 Q17.5313,494.7188 18.1484,493.5703 Q18.7656,492.4219 19.8594,491.8047 Q20.9531,491.1875 22.1875,491.1875 Q22.9219,491.1875 23.5703,491.3516 Q24.2188,491.5156 24.7656,491.875 Z " fill="#000000"/><text fill="#000000" font-family="sans-serif" font-size="14" lengthAdjust="spacing" textLength="131" x="36" y="501.7285">MedComCorePatient</text></g><!--MD5=[c5ddc2160e628279c55e986000f625db]
class authorRole--><g id="elem_authorRole"><rect codeLine="12" fill="#F1F1F1" height="32" id="authorRole" rx="2.5" ry="2.5" style="stroke:#181818;stroke-width:0.5;" width="220" x="205.5" y="480"/><ellipse cx="220.5" cy="496" fill="#ADD1B2" rx="11" ry="11" style="stroke:#181818;stroke-width:1.0;"/><path d="M223.2656,491.875 Q223.4219,491.6563 223.6094,491.5469 Q223.7969,491.4375 224.0156,491.4375 Q224.3906,491.4375 224.625,491.6953 Q224.8594,491.9531 224.8594,492.5625 L224.8594,494.0156 Q224.8594,494.625 224.625,494.8906 Q224.3906,495.1563 224.0156,495.1563 Q223.6719,495.1563 223.4688,494.9531 Q223.2656,494.7656 223.1563,494.25 Q223.1094,493.8906 222.9219,493.7031 Q222.5938,493.3281 221.9844,493.1094 Q221.375,492.8906 220.75,492.8906 Q219.9844,492.8906 219.3516,493.2188 Q218.7188,493.5469 218.2266,494.2969 Q217.7344,495.0469 217.7344,496.0781 L217.7344,497.1719 Q217.7344,498.4063 218.625,499.2266 Q219.5156,500.0469 221.1094,500.0469 Q222.0469,500.0469 222.7031,499.7969 Q223.0938,499.6406 223.5156,499.2031 Q223.7813,498.9375 223.9297,498.8594 Q224.0781,498.7813 224.2813,498.7813 Q224.6094,498.7813 224.8672,499.0391 Q225.125,499.2969 225.125,499.6406 Q225.125,499.9844 224.7813,500.3906 Q224.2813,500.9688 223.4844,501.2969 Q222.4063,501.75 221.1094,501.75 Q219.5938,501.75 218.3906,501.125 Q217.4063,500.625 216.7188,499.5547 Q216.0313,498.4844 216.0313,497.2031 L216.0313,496.0469 Q216.0313,494.7188 216.6484,493.5703 Q217.2656,492.4219 218.3594,491.8047 Q219.4531,491.1875 220.6875,491.1875 Q221.4219,491.1875 222.0703,491.3516 Q222.7188,491.5156 223.2656,491.875 Z " fill="#000000"/><text fill="#000000" font-family="sans-serif" font-size="14" lengthAdjust="spacing" textLength="188" x="234.5" y="501.7285">MedComCorePractitionerRole</text></g><!--MD5=[bf0e659e8df8c2802d52f74fdc234bc7]
class senderRec--><g id="elem_senderRec"><rect codeLine="13" fill="#F1F1F1" height="32" id="senderRec" rx="2.5" ry="2.5" style="stroke:#181818;stroke-width:0.5;" width="153" x="461" y="480"/><ellipse cx="476" cy="496" fill="#ADD1B2" rx="11" ry="11" style="stroke:#181818;stroke-width:1.0;"/><path d="M478.7656,491.875 Q478.9219,491.6563 479.1094,491.5469 Q479.2969,491.4375 479.5156,491.4375 Q479.8906,491.4375 480.125,491.6953 Q480.3594,491.9531 480.3594,492.5625 L480.3594,494.0156 Q480.3594,494.625 480.125,494.8906 Q479.8906,495.1563 479.5156,495.1563 Q479.1719,495.1563 478.9688,494.9531 Q478.7656,494.7656 478.6563,494.25 Q478.6094,493.8906 478.4219,493.7031 Q478.0938,493.3281 477.4844,493.1094 Q476.875,492.8906 476.25,492.8906 Q475.4844,492.8906 474.8516,493.2188 Q474.2188,493.5469 473.7266,494.2969 Q473.2344,495.0469 473.2344,496.0781 L473.2344,497.1719 Q473.2344,498.4063 474.125,499.2266 Q475.0156,500.0469 476.6094,500.0469 Q477.5469,500.0469 478.2031,499.7969 Q478.5938,499.6406 479.0156,499.2031 Q479.2813,498.9375 479.4297,498.8594 Q479.5781,498.7813 479.7813,498.7813 Q480.1094,498.7813 480.3672,499.0391 Q480.625,499.2969 480.625,499.6406 Q480.625,499.9844 480.2813,500.3906 Q479.7813,500.9688 478.9844,501.2969 Q477.9063,501.75 476.6094,501.75 Q475.0938,501.75 473.8906,501.125 Q472.9063,500.625 472.2188,499.5547 Q471.5313,498.4844 471.5313,497.2031 L471.5313,496.0469 Q471.5313,494.7188 472.1484,493.5703 Q472.7656,492.4219 473.8594,491.8047 Q474.9531,491.1875 476.1875,491.1875 Q476.9219,491.1875 477.5703,491.3516 Q478.2188,491.5156 478.7656,491.875 Z " fill="#000000"/><text fill="#000000" font-family="sans-serif" font-size="14" lengthAdjust="spacing" textLength="121" x="490" y="501.7285">Sender or recipient</text></g><!--MD5=[7f6a6782ff085de027a43e4e291de663]
class author--><g id="elem_author"><rect codeLine="14" fill="#F1F1F1" height="32" id="author" rx="2.5" ry="2.5" style="stroke:#181818;stroke-width:0.5;" width="191" x="220" y="590"/><ellipse cx="235" cy="606" fill="#ADD1B2" rx="11" ry="11" style="stroke:#181818;stroke-width:1.0;"/><path d="M237.7656,601.875 Q237.9219,601.6563 238.1094,601.5469 Q238.2969,601.4375 238.5156,601.4375 Q238.8906,601.4375 239.125,601.6953 Q239.3594,601.9531 239.3594,602.5625 L239.3594,604.0156 Q239.3594,604.625 239.125,604.8906 Q238.8906,605.1563 238.5156,605.1563 Q238.1719,605.1563 237.9688,604.9531 Q237.7656,604.7656 237.6563,604.25 Q237.6094,603.8906 237.4219,603.7031 Q237.0938,603.3281 236.4844,603.1094 Q235.875,602.8906 235.25,602.8906 Q234.4844,602.8906 233.8516,603.2188 Q233.2188,603.5469 232.7266,604.2969 Q232.2344,605.0469 232.2344,606.0781 L232.2344,607.1719 Q232.2344,608.4063 233.125,609.2266 Q234.0156,610.0469 235.6094,610.0469 Q236.5469,610.0469 237.2031,609.7969 Q237.5938,609.6406 238.0156,609.2031 Q238.2813,608.9375 238.4297,608.8594 Q238.5781,608.7813 238.7813,608.7813 Q239.1094,608.7813 239.3672,609.0391 Q239.625,609.2969 239.625,609.6406 Q239.625,609.9844 239.2813,610.3906 Q238.7813,610.9688 237.9844,611.2969 Q236.9063,611.75 235.6094,611.75 Q234.0938,611.75 232.8906,611.125 Q231.9063,610.625 231.2188,609.5547 Q230.5313,608.4844 230.5313,607.2031 L230.5313,606.0469 Q230.5313,604.7188 231.1484,603.5703 Q231.7656,602.4219 232.8594,601.8047 Q233.9531,601.1875 235.1875,601.1875 Q235.9219,601.1875 236.5703,601.3516 Q237.2188,601.5156 237.7656,601.875 Z " fill="#000000"/><text fill="#000000" font-family="sans-serif" font-size="14" lengthAdjust="spacing" textLength="159" x="249" y="611.7285">MedComCorePractitioner</text></g><!--MD5=[81a74f5327845c2ce954842e4f46c391]
link message to messageheader--><g id="link_message_messageheader"><path codeLine="17" d="M409.88,50.23 C404.35,93.83 391.6,194.57 386.1,237.99 " fill="none" id="message-messageheader" style="stroke:#181818;stroke-width:1.0;"/><text fill="#000000" font-family="sans-serif" font-size="13" lengthAdjust="spacing" textLength="29" x="400.5" y="149.4951">entry</text></g><!--MD5=[79a620f53515237a9de9d0a655fadcca]
link messageheader to communication--><g id="link_messageheader_communication"><path codeLine="18" d="M371.66,281.23 C358.11,304.93 336.25,343.18 324.19,364.29 " fill="none" id="messageheader-communication" style="stroke:#181818;stroke-width:1.0;"/><text fill="#000000" font-family="sans-serif" font-size="13" lengthAdjust="spacing" textLength="31" x="355.5" y="325.4951">focus</text></g><!--MD5=[e372636a977ce2c485cbccc561780bd6]
link communication to patient--><g id="link_communication_patient"><path codeLine="19" d="M285.36,396.57 C241.94,418.28 162.25,458.12 118.77,479.87 " fill="none" id="communication-patient" style="stroke:#181818;stroke-width:1.0;"/><text fill="#000000" font-family="sans-serif" font-size="13" lengthAdjust="spacing" textLength="42" x="210.5" y="446.4951">subject</text></g><!--MD5=[0e828b82618ba1a8fc585223612c2567]
link communication to authorRole--><g id="link_communication_authorRole"><path codeLine="20" d="M315.5,396.81 C315.5,418.59 315.5,458.29 315.5,479.94 " fill="none" id="communication-authorRole" style="stroke:#181818;stroke-width:1.0;"/><text fill="#000000" font-family="sans-serif" font-size="13" lengthAdjust="spacing" textLength="85" x="316.5" y="446.4951">payload author</text></g><!--MD5=[81f298224060e516a9ea14ff98c71ca4]
link message to provenance--><g id="link_message_provenance"><path codeLine="21" d="M440.21,50.05 C470.35,72.41 517.83,107.64 544.86,127.69 " fill="none" id="message-provenance" style="stroke:#181818;stroke-width:1.0;"/><text fill="#000000" font-family="sans-serif" font-size="13" lengthAdjust="spacing" textLength="29" x="503.5" y="94.4951">entry</text></g><!--MD5=[1aa5b919a36df47450e1a6a7cdb64b45]
link provenance to messageheader--><g id="link_provenance_messageheader"><path codeLine="22" d="M541.33,160.07 C509.23,180.09 452.4,215.53 416.4,237.98 " fill="none" id="provenance-messageheader" style="stroke:#181818;stroke-width:1.0;"/><text fill="#000000" font-family="sans-serif" font-size="13" lengthAdjust="spacing" textLength="33" x="491.5" y="204.4951">target</text></g><!--MD5=[f47a36da2de5ae8806a1be3932325292]
link provenance to messagingOrganization--><g id="link_provenance_messagingOrganization"><path codeLine="23" d="M566.25,160.11 C567.69,189.27 570.94,255.37 573.5,311 C574.24,327.05 575.03,345.22 575.62,358.82 " fill="none" id="provenance-messagingOrganization" style="stroke:#181818;stroke-width:1.0;"/><text fill="#000000" font-family="sans-serif" font-size="13" lengthAdjust="spacing" textLength="59" x="572.5" y="264.9951">agent.who</text></g><!--MD5=[26fe2a2d4f0b543bf88f60b06314f104]
link communication to senderRec--><g id="link_communication_senderRec"><path codeLine="24" d="M344.98,396.57 C387.44,418.28 465.37,458.12 507.9,479.87 " fill="none" id="communication-senderRec" style="stroke:#181818;stroke-width:1.0;"/><text fill="#000000" font-family="sans-serif" font-size="13" lengthAdjust="spacing" textLength="92" x="446.5" y="446.4951">sender/recipient</text></g><!--MD5=[0d81dae17e776aae849b283c67309a8c]
link authorRole to author--><g id="link_authorRole_author"><path codeLine="25" d="M315.5,512.02 C315.5,532.53 315.5,569.13 315.5,589.76 " fill="none" id="authorRole-author" style="stroke:#181818;stroke-width:1.0;"/><text fill="#000000" font-family="sans-serif" font-size="13" lengthAdjust="spacing" textLength="36" x="316.5" y="556.4951">author</text></g><!--MD5=[7068c6a302bec6a421fbf6e526f1486a]
link messageheader to messagingOrganization--><g id="link_messageheader_messagingOrganization"><path codeLine="28" d="M438.02,281.1 C457.13,289.29 478.34,299.51 496.5,311 C518.29,324.79 540.34,344.17 555.76,358.8 " fill="none" id="messageheader-messagingOrganization" style="stroke:#181818;stroke-width:1.0;"/><text fill="#000000" font-family="sans-serif" font-size="13" lengthAdjust="spacing" textLength="44" x="520.5" y="325.4951">receiver</text></g><!--MD5=[7068c6a302bec6a421fbf6e526f1486a]
link messageheader to messagingOrganization--><g id="link_messageheader_messagingOrganization"><path codeLine="29" d="M398.64,281.12 C410.53,296.09 428.24,315.93 447.5,329 C465.61,341.29 487.14,351.22 507.38,358.92 " fill="none" id="messageheader-messagingOrganization-1" style="stroke:#181818;stroke-width:1.0;"/><text fill="#000000" font-family="sans-serif" font-size="13" lengthAdjust="spacing" textLength="39" x="448.5" y="325.4951">sender</text></g><!--MD5=[80ce79f507d803bff84e0fb59c59a763]
@startuml CareCommunication

hide empty members

top to bottom direction

class "MedComCareCommunicationMessage" as message <<MedComMessagingMessage>>
class "MedComCareCommunicationMessageHeader" as messageheader <<MedComMessagingMessageHeader>>
class "MedComMessagingProvenance" as provenance
class "MedComMessagingOrganization" as messagingOrganization <<MedComCoreOrganization>>
class "MedComCareCommunication" as communication
class "MedComCorePatient" as patient
class "MedComCorePractitionerRole" as authorRole
class "Sender or recipient" as senderRec
class "MedComCorePractitioner" as author


message - - messageheader : "entry"
messageheader - - communication : "focus"
communication - - patient : "subject"
communication - - authorRole : "payload author"
message - - provenance : "entry"
provenance - - messageheader : "target" 
provenance - - messagingOrganization : "agent.who"
communication - - senderRec : "sender/recipient"
authorRole - - author : "author"


messageheader - - messagingOrganization : "receiver"
messageheader - - messagingOrganization : "sender"
@enduml

PlantUML version 1.2022.7(Mon Aug 22 19:01:30 CEST 2022)
(GPL source distribution)
Java Runtime: Java(TM) SE Runtime Environment
JVM: Java HotSpot(TM) 64-Bit Server VM
Default Encoding: Cp1252
Language: da
Country: DK
--></g></svg>