<?xml version="1.0" encoding="UTF-8" standalone="no"?><svg xmlns="http://www.w3.org/2000/svg" xmlns:xlink="http://www.w3.org/1999/xlink" contentStyleType="text/css" height="277px" preserveAspectRatio="none" style="width:1143px;height:277px;background:#FFFFFF;" version="1.1" viewBox="0 0 1143 277" width="1143px" zoomAndPan="magnify"><defs/><g><!--MD5=[e2e901c2214a1f61ae0bb3d13c40a618]
class communication--><g id="elem_communication"><rect codeLine="4" fill="#F1F1F1" height="32" id="communication" rx="2.5" ry="2.5" style="stroke:#181818;stroke-width:0.5;" width="216" x="366.5" y="7"/><ellipse cx="381.5" cy="23" fill="#ADD1B2" rx="11" ry="11" style="stroke:#181818;stroke-width:1.0;"/><path d="M384.2656,18.875 Q384.4219,18.6563 384.6094,18.5469 Q384.7969,18.4375 385.0156,18.4375 Q385.3906,18.4375 385.625,18.7031 Q385.8594,18.9531 385.8594,19.5625 L385.8594,21.0156 Q385.8594,21.625 385.625,21.8906 Q385.3906,22.1563 385.0156,22.1563 Q384.6719,22.1563 384.4688,21.9531 Q384.2656,21.7656 384.1563,21.25 Q384.1094,20.8906 383.9219,20.7031 Q383.5938,20.3281 382.9844,20.1094 Q382.375,19.8906 381.75,19.8906 Q380.9844,19.8906 380.3438,20.2188 Q379.7188,20.5469 379.2188,21.2969 Q378.7344,22.0469 378.7344,23.0781 L378.7344,24.1719 Q378.7344,25.4063 379.625,26.2344 Q380.5156,27.0469 382.1094,27.0469 Q383.0469,27.0469 383.7031,26.7969 Q384.0938,26.6406 384.5156,26.2031 Q384.7813,25.9375 384.9219,25.8594 Q385.0781,25.7813 385.2813,25.7813 Q385.6094,25.7813 385.8594,26.0469 Q386.125,26.2969 386.125,26.6406 Q386.125,26.9844 385.7813,27.3906 Q385.2813,27.9688 384.4844,28.2969 Q383.4063,28.75 382.1094,28.75 Q380.5938,28.75 379.3906,28.125 Q378.4063,27.625 377.7188,26.5625 Q377.0313,25.4844 377.0313,24.2031 L377.0313,23.0469 Q377.0313,21.7188 377.6406,20.5781 Q378.2656,19.4219 379.3594,18.8125 Q380.4531,18.1875 381.6875,18.1875 Q382.4219,18.1875 383.0625,18.3594 Q383.7188,18.5156 384.2656,18.875 Z " fill="#000000"/><text fill="#000000" font-family="sans-serif" font-size="14" lengthAdjust="spacing" textLength="184" x="395.5" y="28.7285">MedComCareCommunication</text></g><!--MD5=[86fcfc7a3ddeef2443f03e9b03bcacd4]
class patient--><g id="elem_patient"><rect codeLine="5" fill="#F1F1F1" height="32" id="patient" rx="2.5" ry="2.5" style="stroke:#181818;stroke-width:0.5;" width="163" x="7" y="122.5"/><ellipse cx="22" cy="138.5" fill="#ADD1B2" rx="11" ry="11" style="stroke:#181818;stroke-width:1.0;"/><path d="M24.7656,134.375 Q24.9219,134.1563 25.1094,134.0469 Q25.2969,133.9375 25.5156,133.9375 Q25.8906,133.9375 26.125,134.2031 Q26.3594,134.4531 26.3594,135.0625 L26.3594,136.5156 Q26.3594,137.125 26.125,137.3906 Q25.8906,137.6563 25.5156,137.6563 Q25.1719,137.6563 24.9688,137.4531 Q24.7656,137.2656 24.6563,136.75 Q24.6094,136.3906 24.4219,136.2031 Q24.0938,135.8281 23.4844,135.6094 Q22.875,135.3906 22.25,135.3906 Q21.4844,135.3906 20.8438,135.7188 Q20.2188,136.0469 19.7188,136.7969 Q19.2344,137.5469 19.2344,138.5781 L19.2344,139.6719 Q19.2344,140.9063 20.125,141.7344 Q21.0156,142.5469 22.6094,142.5469 Q23.5469,142.5469 24.2031,142.2969 Q24.5938,142.1406 25.0156,141.7031 Q25.2813,141.4375 25.4219,141.3594 Q25.5781,141.2813 25.7813,141.2813 Q26.1094,141.2813 26.3594,141.5469 Q26.625,141.7969 26.625,142.1406 Q26.625,142.4844 26.2813,142.8906 Q25.7813,143.4688 24.9844,143.7969 Q23.9063,144.25 22.6094,144.25 Q21.0938,144.25 19.8906,143.625 Q18.9063,143.125 18.2188,142.0625 Q17.5313,140.9844 17.5313,139.7031 L17.5313,138.5469 Q17.5313,137.2188 18.1406,136.0781 Q18.7656,134.9219 19.8594,134.3125 Q20.9531,133.6875 22.1875,133.6875 Q22.9219,133.6875 23.5625,133.8594 Q24.2188,134.0156 24.7656,134.375 Z " fill="#000000"/><text fill="#000000" font-family="sans-serif" font-size="14" lengthAdjust="spacing" textLength="131" x="36" y="144.2285">MedComCorePatient</text></g><!--MD5=[7d1630a95e3a15a0a4f20baedc130ecf]
class pracRole--><g id="elem_pracRole"><rect codeLine="6" fill="#F1F1F1" height="32" id="pracRole" rx="2.5" ry="2.5" style="stroke:#181818;stroke-width:0.5;" width="220" x="205.5" y="122.5"/><ellipse cx="220.5" cy="138.5" fill="#ADD1B2" rx="11" ry="11" style="stroke:#181818;stroke-width:1.0;"/><path d="M223.2656,134.375 Q223.4219,134.1563 223.6094,134.0469 Q223.7969,133.9375 224.0156,133.9375 Q224.3906,133.9375 224.625,134.2031 Q224.8594,134.4531 224.8594,135.0625 L224.8594,136.5156 Q224.8594,137.125 224.625,137.3906 Q224.3906,137.6563 224.0156,137.6563 Q223.6719,137.6563 223.4688,137.4531 Q223.2656,137.2656 223.1563,136.75 Q223.1094,136.3906 222.9219,136.2031 Q222.5938,135.8281 221.9844,135.6094 Q221.375,135.3906 220.75,135.3906 Q219.9844,135.3906 219.3438,135.7188 Q218.7188,136.0469 218.2188,136.7969 Q217.7344,137.5469 217.7344,138.5781 L217.7344,139.6719 Q217.7344,140.9063 218.625,141.7344 Q219.5156,142.5469 221.1094,142.5469 Q222.0469,142.5469 222.7031,142.2969 Q223.0938,142.1406 223.5156,141.7031 Q223.7813,141.4375 223.9219,141.3594 Q224.0781,141.2813 224.2813,141.2813 Q224.6094,141.2813 224.8594,141.5469 Q225.125,141.7969 225.125,142.1406 Q225.125,142.4844 224.7813,142.8906 Q224.2813,143.4688 223.4844,143.7969 Q222.4063,144.25 221.1094,144.25 Q219.5938,144.25 218.3906,143.625 Q217.4063,143.125 216.7188,142.0625 Q216.0313,140.9844 216.0313,139.7031 L216.0313,138.5469 Q216.0313,137.2188 216.6406,136.0781 Q217.2656,134.9219 218.3594,134.3125 Q219.4531,133.6875 220.6875,133.6875 Q221.4219,133.6875 222.0625,133.8594 Q222.7188,134.0156 223.2656,134.375 Z " fill="#000000"/><text fill="#000000" font-family="sans-serif" font-size="14" lengthAdjust="spacing" textLength="188" x="234.5" y="144.2285">MedComCorePractitionerRole</text></g><!--MD5=[84cfacbcd31b21cbbb16279cbfd3fe0d]
class careteam--><g id="elem_careteam"><rect codeLine="7" fill="#F1F1F1" height="32" id="careteam" rx="2.5" ry="2.5" style="stroke:#181818;stroke-width:0.5;" width="186" x="460.5" y="122.5"/><ellipse cx="475.5" cy="138.5" fill="#ADD1B2" rx="11" ry="11" style="stroke:#181818;stroke-width:1.0;"/><path d="M478.2656,134.375 Q478.4219,134.1563 478.6094,134.0469 Q478.7969,133.9375 479.0156,133.9375 Q479.3906,133.9375 479.625,134.2031 Q479.8594,134.4531 479.8594,135.0625 L479.8594,136.5156 Q479.8594,137.125 479.625,137.3906 Q479.3906,137.6563 479.0156,137.6563 Q478.6719,137.6563 478.4688,137.4531 Q478.2656,137.2656 478.1563,136.75 Q478.1094,136.3906 477.9219,136.2031 Q477.5938,135.8281 476.9844,135.6094 Q476.375,135.3906 475.75,135.3906 Q474.9844,135.3906 474.3438,135.7188 Q473.7188,136.0469 473.2188,136.7969 Q472.7344,137.5469 472.7344,138.5781 L472.7344,139.6719 Q472.7344,140.9063 473.625,141.7344 Q474.5156,142.5469 476.1094,142.5469 Q477.0469,142.5469 477.7031,142.2969 Q478.0938,142.1406 478.5156,141.7031 Q478.7813,141.4375 478.9219,141.3594 Q479.0781,141.2813 479.2813,141.2813 Q479.6094,141.2813 479.8594,141.5469 Q480.125,141.7969 480.125,142.1406 Q480.125,142.4844 479.7813,142.8906 Q479.2813,143.4688 478.4844,143.7969 Q477.4063,144.25 476.1094,144.25 Q474.5938,144.25 473.3906,143.625 Q472.4063,143.125 471.7188,142.0625 Q471.0313,140.9844 471.0313,139.7031 L471.0313,138.5469 Q471.0313,137.2188 471.6406,136.0781 Q472.2656,134.9219 473.3594,134.3125 Q474.4531,133.6875 475.6875,133.6875 Q476.4219,133.6875 477.0625,133.8594 Q477.7188,134.0156 478.2656,134.375 Z " fill="#000000"/><text fill="#000000" font-family="sans-serif" font-size="14" lengthAdjust="spacing" textLength="154" x="489.5" y="144.2285">MedComCoreCareTeam</text></g><!--MD5=[7f6a6782ff085de027a43e4e291de663]
class author--><g id="elem_author"><rect codeLine="8" fill="#F1F1F1" height="32" id="author" rx="2.5" ry="2.5" style="stroke:#181818;stroke-width:0.5;" width="191" x="220" y="238"/><ellipse cx="235" cy="254" fill="#ADD1B2" rx="11" ry="11" style="stroke:#181818;stroke-width:1.0;"/><path d="M237.7656,249.875 Q237.9219,249.6563 238.1094,249.5469 Q238.2969,249.4375 238.5156,249.4375 Q238.8906,249.4375 239.125,249.7031 Q239.3594,249.9531 239.3594,250.5625 L239.3594,252.0156 Q239.3594,252.625 239.125,252.8906 Q238.8906,253.1563 238.5156,253.1563 Q238.1719,253.1563 237.9688,252.9531 Q237.7656,252.7656 237.6563,252.25 Q237.6094,251.8906 237.4219,251.7031 Q237.0938,251.3281 236.4844,251.1094 Q235.875,250.8906 235.25,250.8906 Q234.4844,250.8906 233.8438,251.2188 Q233.2188,251.5469 232.7188,252.2969 Q232.2344,253.0469 232.2344,254.0781 L232.2344,255.1719 Q232.2344,256.4063 233.125,257.2344 Q234.0156,258.0469 235.6094,258.0469 Q236.5469,258.0469 237.2031,257.7969 Q237.5938,257.6406 238.0156,257.2031 Q238.2813,256.9375 238.4219,256.8594 Q238.5781,256.7813 238.7813,256.7813 Q239.1094,256.7813 239.3594,257.0469 Q239.625,257.2969 239.625,257.6406 Q239.625,257.9844 239.2813,258.3906 Q238.7813,258.9688 237.9844,259.2969 Q236.9063,259.75 235.6094,259.75 Q234.0938,259.75 232.8906,259.125 Q231.9063,258.625 231.2188,257.5625 Q230.5313,256.4844 230.5313,255.2031 L230.5313,254.0469 Q230.5313,252.7188 231.1406,251.5781 Q231.7656,250.4219 232.8594,249.8125 Q233.9531,249.1875 235.1875,249.1875 Q235.9219,249.1875 236.5625,249.3594 Q237.2188,249.5156 237.7656,249.875 Z " fill="#000000"/><text fill="#000000" font-family="sans-serif" font-size="14" lengthAdjust="spacing" textLength="159" x="249" y="259.7285">MedComCorePractitioner</text></g><!--MD5=[c3fd6fd70c1f956c0aa70d5a42fdf9cf]
class encounter--><g id="elem_encounter"><rect codeLine="9" fill="#F1F1F1" height="32" id="encounter" rx="2.5" ry="2.5" style="stroke:#181818;stroke-width:0.5;" width="184" x="681.5" y="122.5"/><ellipse cx="696.5" cy="138.5" fill="#ADD1B2" rx="11" ry="11" style="stroke:#181818;stroke-width:1.0;"/><path d="M699.2656,134.375 Q699.4219,134.1563 699.6094,134.0469 Q699.7969,133.9375 700.0156,133.9375 Q700.3906,133.9375 700.625,134.2031 Q700.8594,134.4531 700.8594,135.0625 L700.8594,136.5156 Q700.8594,137.125 700.625,137.3906 Q700.3906,137.6563 700.0156,137.6563 Q699.6719,137.6563 699.4688,137.4531 Q699.2656,137.2656 699.1563,136.75 Q699.1094,136.3906 698.9219,136.2031 Q698.5938,135.8281 697.9844,135.6094 Q697.375,135.3906 696.75,135.3906 Q695.9844,135.3906 695.3438,135.7188 Q694.7188,136.0469 694.2188,136.7969 Q693.7344,137.5469 693.7344,138.5781 L693.7344,139.6719 Q693.7344,140.9063 694.625,141.7344 Q695.5156,142.5469 697.1094,142.5469 Q698.0469,142.5469 698.7031,142.2969 Q699.0938,142.1406 699.5156,141.7031 Q699.7813,141.4375 699.9219,141.3594 Q700.0781,141.2813 700.2813,141.2813 Q700.6094,141.2813 700.8594,141.5469 Q701.125,141.7969 701.125,142.1406 Q701.125,142.4844 700.7813,142.8906 Q700.2813,143.4688 699.4844,143.7969 Q698.4063,144.25 697.1094,144.25 Q695.5938,144.25 694.3906,143.625 Q693.4063,143.125 692.7188,142.0625 Q692.0313,140.9844 692.0313,139.7031 L692.0313,138.5469 Q692.0313,137.2188 692.6406,136.0781 Q693.2656,134.9219 694.3594,134.3125 Q695.4531,133.6875 696.6875,133.6875 Q697.4219,133.6875 698.0625,133.8594 Q698.7188,134.0156 699.2656,134.375 Z " fill="#000000"/><text fill="#000000" font-family="sans-serif" font-size="14" lengthAdjust="spacing" textLength="152" x="710.5" y="144.2285">MedComCoreEncounter</text></g><!--MD5=[d64d5c7357c79f774106f79272da7625]
class organization--><g id="elem_organization"><rect codeLine="10" fill="#F1F1F1" height="32" id="organization" rx="2.5" ry="2.5" style="stroke:#181818;stroke-width:0.5;" width="199" x="450" y="238"/><ellipse cx="465" cy="254" fill="#ADD1B2" rx="11" ry="11" style="stroke:#181818;stroke-width:1.0;"/><path d="M467.7656,249.875 Q467.9219,249.6563 468.1094,249.5469 Q468.2969,249.4375 468.5156,249.4375 Q468.8906,249.4375 469.125,249.7031 Q469.3594,249.9531 469.3594,250.5625 L469.3594,252.0156 Q469.3594,252.625 469.125,252.8906 Q468.8906,253.1563 468.5156,253.1563 Q468.1719,253.1563 467.9688,252.9531 Q467.7656,252.7656 467.6563,252.25 Q467.6094,251.8906 467.4219,251.7031 Q467.0938,251.3281 466.4844,251.1094 Q465.875,250.8906 465.25,250.8906 Q464.4844,250.8906 463.8438,251.2188 Q463.2188,251.5469 462.7188,252.2969 Q462.2344,253.0469 462.2344,254.0781 L462.2344,255.1719 Q462.2344,256.4063 463.125,257.2344 Q464.0156,258.0469 465.6094,258.0469 Q466.5469,258.0469 467.2031,257.7969 Q467.5938,257.6406 468.0156,257.2031 Q468.2813,256.9375 468.4219,256.8594 Q468.5781,256.7813 468.7813,256.7813 Q469.1094,256.7813 469.3594,257.0469 Q469.625,257.2969 469.625,257.6406 Q469.625,257.9844 469.2813,258.3906 Q468.7813,258.9688 467.9844,259.2969 Q466.9063,259.75 465.6094,259.75 Q464.0938,259.75 462.8906,259.125 Q461.9063,258.625 461.2188,257.5625 Q460.5313,256.4844 460.5313,255.2031 L460.5313,254.0469 Q460.5313,252.7188 461.1406,251.5781 Q461.7656,250.4219 462.8594,249.8125 Q463.9531,249.1875 465.1875,249.1875 Q465.9219,249.1875 466.5625,249.3594 Q467.2188,249.5156 467.7656,249.875 Z " fill="#000000"/><text fill="#000000" font-family="sans-serif" font-size="14" lengthAdjust="spacing" textLength="167" x="479" y="259.7285">MedComCoreOrganization</text></g><!--MD5=[5495acc25b34ab1dab9fd35d8e775d03]
class messagingOrganization--><g id="elem_messagingOrganization"><rect codeLine="11" fill="#F1F1F1" height="42.7031" id="messagingOrganization" rx="2.5" ry="2.5" style="stroke:#181818;stroke-width:0.5;" width="236" x="900.5" y="117"/><ellipse cx="915.5" cy="138.3516" fill="#ADD1B2" rx="11" ry="11" style="stroke:#181818;stroke-width:1.0;"/><path d="M918.2656,134.2266 Q918.4219,134.0078 918.6094,133.8984 Q918.7969,133.7891 919.0156,133.7891 Q919.3906,133.7891 919.625,134.0547 Q919.8594,134.3047 919.8594,134.9141 L919.8594,136.3672 Q919.8594,136.9766 919.625,137.2422 Q919.3906,137.5078 919.0156,137.5078 Q918.6719,137.5078 918.4688,137.3047 Q918.2656,137.1172 918.1563,136.6016 Q918.1094,136.2422 917.9219,136.0547 Q917.5938,135.6797 916.9844,135.4609 Q916.375,135.2422 915.75,135.2422 Q914.9844,135.2422 914.3438,135.5703 Q913.7188,135.8984 913.2188,136.6484 Q912.7344,137.3984 912.7344,138.4297 L912.7344,139.5234 Q912.7344,140.7578 913.625,141.5859 Q914.5156,142.3984 916.1094,142.3984 Q917.0469,142.3984 917.7031,142.1484 Q918.0938,141.9922 918.5156,141.5547 Q918.7813,141.2891 918.9219,141.2109 Q919.0781,141.1328 919.2813,141.1328 Q919.6094,141.1328 919.8594,141.3984 Q920.125,141.6484 920.125,141.9922 Q920.125,142.3359 919.7813,142.7422 Q919.2813,143.3203 918.4844,143.6484 Q917.4063,144.1016 916.1094,144.1016 Q914.5938,144.1016 913.3906,143.4766 Q912.4063,142.9766 911.7188,141.9141 Q911.0313,140.8359 911.0313,139.5547 L911.0313,138.3984 Q911.0313,137.0703 911.6406,135.9297 Q912.2656,134.7734 913.3594,134.1641 Q914.4531,133.5391 915.6875,133.5391 Q916.4219,133.5391 917.0625,133.7109 Q917.7188,133.8672 918.2656,134.2266 Z " fill="#000000"/><text fill="#000000" font-family="sans-serif" font-size="12" font-style="italic" lengthAdjust="spacing" textLength="162" x="950.5" y="134.457">«MedComCoreOrganization»</text><text fill="#000000" font-family="sans-serif" font-size="14" lengthAdjust="spacing" textLength="204" x="929.5" y="151.627">MedComMessagingOrganization</text></g><!--MD5=[0d2d54a2349697619971ea3c455f8bf9]
link communication to encounter--><g id="link_communication_encounter"><path codeLine="15" d="M533.31,39.03 C562.06,46.95 596.95,57.42 627.5,69 C667.14,84.03 710.96,105.24 740.15,120.06 " fill="none" id="communication-to-encounter" style="stroke:#181818;stroke-width:1.0;"/><polygon fill="#181818" points="744.7,122.39,738.5074,114.7316,740.2481,120.1139,734.8657,121.8546,744.7,122.39" style="stroke:#181818;stroke-width:1.0;"/><text fill="#000000" font-family="sans-serif" font-size="13" lengthAdjust="spacing" textLength="57" x="669.5" y="83.4951">encounter</text></g><!--MD5=[e372636a977ce2c485cbccc561780bd6]
link communication to patient--><g id="link_communication_patient"><path codeLine="16" d="M366.2,34.15 C317.9,40.8 260.87,51.6 211.5,69 C175.91,81.54 138.51,103.87 114.43,119.62 " fill="none" id="communication-to-patient" style="stroke:#181818;stroke-width:1.0;"/><polygon fill="#181818" points="110.09,122.48,119.8038,120.8544,114.2612,119.723,115.3926,114.1804,110.09,122.48" style="stroke:#181818;stroke-width:1.0;"/><text fill="#000000" font-family="sans-serif" font-size="13" lengthAdjust="spacing" textLength="42" x="212.5" y="83.4951">subject</text></g><!--MD5=[7eeef3c8709ed22b8e61e45e2ea7d532]
link communication to pracRole--><g id="link_communication_pracRole"><path codeLine="17" d="M366.23,35.11 C323.14,41.97 280.65,52.68 267.5,69 C254.28,85.4 271.45,105.2 288.81,119.29 " fill="none" id="communication-to-pracRole" style="stroke:#181818;stroke-width:1.0;"/><polygon fill="#181818" points="292.74,122.38,288.1526,113.6648,288.8149,119.2827,283.1969,119.945,292.74,122.38" style="stroke:#181818;stroke-width:1.0;"/><text fill="#000000" font-family="sans-serif" font-size="13" lengthAdjust="spacing" textLength="36" x="268.5" y="83.4951">author</text></g><!--MD5=[7eeef3c8709ed22b8e61e45e2ea7d532]
link communication to pracRole--><g id="link_communication_pracRole"><path codeLine="20" d="M398.53,39.08 C379.49,45.74 360.3,55.3 345.5,69 C331.63,81.84 323.84,102.22 319.69,117.42 " fill="none" id="communication-to-pracRole-1" style="stroke:#181818;stroke-width:1.0;"/><polygon fill="#181818" points="318.42,122.35,324.5317,114.6268,319.6629,117.5069,316.7828,112.6382,318.42,122.35" style="stroke:#181818;stroke-width:1.0;"/><text fill="#000000" font-family="sans-serif" font-size="13" lengthAdjust="spacing" textLength="39" x="346.5" y="83.4951">sender</text></g><!--MD5=[7eeef3c8709ed22b8e61e45e2ea7d532]
link communication to pracRole--><g id="link_communication_pracRole"><path codeLine="21" d="M455.02,39.05 C438.13,52 412.93,71.05 390.5,87 C374.96,98.05 357.29,109.98 343,119.47 " fill="none" id="communication-to-pracRole-2" style="stroke:#181818;stroke-width:1.0;"/><polygon fill="#181818" points="338.68,122.33,348.3912,120.689,342.8468,119.5664,343.9695,114.0221,338.68,122.33" style="stroke:#181818;stroke-width:1.0;"/><text fill="#000000" font-family="sans-serif" font-size="13" lengthAdjust="spacing" textLength="49" x="415.5" y="83.4951">recipient</text></g><!--MD5=[91c54a72d122703e0856c70b938ed7ef]
link communication to careteam--><g id="link_communication_careteam"><path codeLine="18" d="M484.67,39.08 C493.33,51.88 506.14,70.71 517.5,87 C524.66,97.26 532.74,108.61 539.42,117.95 " fill="none" id="communication-to-careteam" style="stroke:#181818;stroke-width:1.0;"/><polygon fill="#181818" points="542.39,122.09,540.4042,112.4434,539.4798,118.0242,533.899,117.0998,542.39,122.09" style="stroke:#181818;stroke-width:1.0;"/><text fill="#000000" font-family="sans-serif" font-size="13" lengthAdjust="spacing" textLength="39" x="518.5" y="83.4951">sender</text></g><!--MD5=[91c54a72d122703e0856c70b938ed7ef]
link communication to careteam--><g id="link_communication_careteam"><path codeLine="19" d="M526.43,39.16 C540.58,45.93 554.26,55.53 562.5,69 C571.44,83.62 567.6,103.25 562.46,117.75 " fill="none" id="communication-to-careteam-1" style="stroke:#181818;stroke-width:1.0;"/><polygon fill="#181818" points="560.68,122.46,567.6042,115.456,562.4481,117.7831,560.121,112.627,560.68,122.46" style="stroke:#181818;stroke-width:1.0;"/><text fill="#000000" font-family="sans-serif" font-size="13" lengthAdjust="spacing" textLength="49" x="569.5" y="83.4951">recipient</text></g><!--MD5=[e5dbdda42ef8b95b41d2386d17bad8be]
link communication to messagingOrganization--><g id="link_communication_messagingOrganization"><path codeLine="22" d="M570.86,39.04 C620.24,47.14 681.24,57.77 735.5,69 C802.89,82.95 878.64,101.43 934.8,115.69 " fill="none" id="communication-to-messagingOrganization" style="stroke:#181818;stroke-width:1.0;"/><polygon fill="#181818" points="939.83,116.97,932.1068,110.8583,934.9869,115.7271,930.1182,118.6072,939.83,116.97" style="stroke:#181818;stroke-width:1.0;"/><text fill="#000000" font-family="sans-serif" font-size="13" lengthAdjust="spacing" textLength="49" x="815.5" y="83.4951">assigner</text></g><!--MD5=[cee96dd921aad29c6dd1b1c4d88bf68f]
link pracRole to author--><g id="link_pracRole_author"><path codeLine="23" d="M315.5,154.81 C315.5,174.97 315.5,210.49 315.5,232.83 " fill="none" id="pracRole-to-author" style="stroke:#181818;stroke-width:1.0;"/><polygon fill="#181818" points="315.5,237.94,319.5,228.94,315.5,232.94,311.5,228.94,315.5,237.94" style="stroke:#181818;stroke-width:1.0;"/><text fill="#000000" font-family="sans-serif" font-size="13" lengthAdjust="spacing" textLength="64" x="316.5" y="204.4951">practitioner</text></g><!--MD5=[b16d23625f6fab7cff697318abd55cf8]
link pracRole to organization--><g id="link_pracRole_organization"><path codeLine="24" d="M346.57,154.57 C389.84,175.56 468.06,213.5 513.71,235.64 " fill="none" id="pracRole-to-organization" style="stroke:#181818;stroke-width:1.0;"/><polygon fill="#181818" points="518.3,237.87,511.9327,230.3562,513.7969,235.6971,508.456,237.5612,518.3,237.87" style="stroke:#181818;stroke-width:1.0;"/><text fill="#000000" font-family="sans-serif" font-size="13" lengthAdjust="spacing" textLength="70" x="454.5" y="204.4951">organization</text></g><!--MD5=[c568f13314ba7e86cfb79b992a7ef51a]
link careteam to organization--><g id="link_careteam_organization"><path codeLine="25" d="M552.96,154.81 C552.25,174.97 551,210.49 550.21,232.83 " fill="none" id="careteam-to-organization" style="stroke:#181818;stroke-width:1.0;"/><polygon fill="#181818" points="550.03,237.94,554.336,229.0823,550.2013,232.9429,546.3407,228.8082,550.03,237.94" style="stroke:#181818;stroke-width:1.0;"/><text fill="#000000" font-family="sans-serif" font-size="13" lengthAdjust="spacing" textLength="129" x="553.5" y="204.4951">managingOrganization</text></g><!--MD5=[d09e18d656f99428ac0d0103d32f6988]
@startuml CareCommunicationCommunication

hide empty members

class "MedComCareCommunication" as communication
class "MedComCorePatient" as patient
class "MedComCorePractitionerRole" as pracRole
class "MedComCoreCareTeam" as careteam
class "MedComCorePractitioner" as author
class "MedComCoreEncounter" as encounter
class "MedComCoreOrganization" as organization
class "MedComMessagingOrganization" as messagingOrganization <<MedComCoreOrganization>>



communication - -> encounter : "encounter"
communication - -> patient : "subject"
communication - -> pracRole : "author"
communication - -> careteam : "sender"
communication - -> careteam : "recipient"
communication - -> pracRole : "sender"
communication - -> pracRole : "recipient"
communication - -> messagingOrganization : "assigner"
pracRole - -> author : "practitioner"
pracRole - -> organization : "organization"
careteam - -> organization : "managingOrganization"

@enduml

PlantUML version 1.2022.7(Mon Aug 22 19:01:30 CEST 2022)
(GPL source distribution)
Java Runtime: Java(TM) SE Runtime Environment
JVM: Java HotSpot(TM) 64-Bit Server VM
Default Encoding: Cp1252
Language: da
Country: DK
--></g></svg>