<?xml version="1.0" encoding="us-ascii" standalone="no"?><svg xmlns="http://www.w3.org/2000/svg" xmlns:xlink="http://www.w3.org/1999/xlink" contentStyleType="text/css" height="750px" preserveAspectRatio="none" style="width:872px;height:750px;background:#FFFFFF;" version="1.1" viewBox="0 0 872 750" width="872px" zoomAndPan="magnify"><defs/><g><!--class message--><g id="elem_message"><rect codeLine="6" fill="#F1F1F1" height="42.7031" id="message" rx="2.5" ry="2.5" style="stroke:#181818;stroke-width:0.5;" width="273" x="272" y="7"/><ellipse cx="287" cy="28.3516" fill="#ADD1B2" rx="11" ry="11" style="stroke:#181818;stroke-width:1.0;"/><path d="M289.7656,24.2266 Q289.9219,24.0078 290.1094,23.8984 Q290.2969,23.7891 290.5156,23.7891 Q290.8906,23.7891 291.125,24.0547 Q291.3594,24.3047 291.3594,24.9141 L291.3594,26.3672 Q291.3594,26.9766 291.125,27.2422 Q290.8906,27.5078 290.5156,27.5078 Q290.1719,27.5078 289.9688,27.3047 Q289.7656,27.1172 289.6563,26.6016 Q289.6094,26.2422 289.4219,26.0547 Q289.0938,25.6797 288.4844,25.4609 Q287.875,25.2422 287.25,25.2422 Q286.4844,25.2422 285.8438,25.5703 Q285.2188,25.8984 284.7188,26.6484 Q284.2344,27.3984 284.2344,28.4297 L284.2344,29.5234 Q284.2344,30.7578 285.125,31.5859 Q286.0156,32.3984 287.6094,32.3984 Q288.5469,32.3984 289.2031,32.1484 Q289.5938,31.9922 290.0156,31.5547 Q290.2813,31.2891 290.4219,31.2109 Q290.5781,31.1328 290.7813,31.1328 Q291.1094,31.1328 291.3594,31.3984 Q291.625,31.6484 291.625,31.9922 Q291.625,32.3359 291.2813,32.7422 Q290.7813,33.3203 289.9844,33.6484 Q288.9063,34.1016 287.6094,34.1016 Q286.0938,34.1016 284.8906,33.4766 Q283.9063,32.9766 283.2188,31.9141 Q282.5313,30.8359 282.5313,29.5547 L282.5313,28.3984 Q282.5313,27.0703 283.1406,25.9297 Q283.7656,24.7734 284.8594,24.1641 Q285.9531,23.5391 287.1875,23.5391 Q287.9219,23.5391 288.5625,23.7109 Q289.2188,23.8672 289.7656,24.2266 Z " fill="#000000"/><text fill="#000000" font-family="sans-serif" font-size="12" font-style="italic" lengthAdjust="spacing" textLength="172" x="335.5" y="24.457">&#171;MedComMessagingMessage&#187;</text><text fill="#000000" font-family="sans-serif" font-size="14" lengthAdjust="spacing" textLength="241" x="301" y="41.627">MedComCareCommunicationMessage</text></g><!--class messageheader--><g id="elem_messageheader"><rect codeLine="7" fill="#F1F1F1" height="42.7031" id="messageheader" rx="2.5" ry="2.5" style="stroke:#181818;stroke-width:0.5;" width="319" x="220" y="249"/><ellipse cx="235" cy="270.3516" fill="#ADD1B2" rx="11" ry="11" style="stroke:#181818;stroke-width:1.0;"/><path d="M237.7656,266.2266 Q237.9219,266.0078 238.1094,265.8984 Q238.2969,265.7891 238.5156,265.7891 Q238.8906,265.7891 239.125,266.0547 Q239.3594,266.3047 239.3594,266.9141 L239.3594,268.3672 Q239.3594,268.9766 239.125,269.2422 Q238.8906,269.5078 238.5156,269.5078 Q238.1719,269.5078 237.9688,269.3047 Q237.7656,269.1172 237.6563,268.6016 Q237.6094,268.2422 237.4219,268.0547 Q237.0938,267.6797 236.4844,267.4609 Q235.875,267.2422 235.25,267.2422 Q234.4844,267.2422 233.8438,267.5703 Q233.2188,267.8984 232.7188,268.6484 Q232.2344,269.3984 232.2344,270.4297 L232.2344,271.5234 Q232.2344,272.7578 233.125,273.5859 Q234.0156,274.3984 235.6094,274.3984 Q236.5469,274.3984 237.2031,274.1484 Q237.5938,273.9922 238.0156,273.5547 Q238.2813,273.2891 238.4219,273.2109 Q238.5781,273.1328 238.7813,273.1328 Q239.1094,273.1328 239.3594,273.3984 Q239.625,273.6484 239.625,273.9922 Q239.625,274.3359 239.2813,274.7422 Q238.7813,275.3203 237.9844,275.6484 Q236.9063,276.1016 235.6094,276.1016 Q234.0938,276.1016 232.8906,275.4766 Q231.9063,274.9766 231.2188,273.9141 Q230.5313,272.8359 230.5313,271.5547 L230.5313,270.3984 Q230.5313,269.0703 231.1406,267.9297 Q231.7656,266.7734 232.8594,266.1641 Q233.9531,265.5391 235.1875,265.5391 Q235.9219,265.5391 236.5625,265.7109 Q237.2188,265.8672 237.7656,266.2266 Z " fill="#000000"/><text fill="#000000" font-family="sans-serif" font-size="12" font-style="italic" lengthAdjust="spacing" textLength="213" x="286" y="266.457">&#171;MedComMessagingMessageHeader&#187;</text><text fill="#000000" font-family="sans-serif" font-size="14" lengthAdjust="spacing" textLength="287" x="249" y="283.627">MedComCareCommunicationMessageHeader</text></g><!--class provenance--><g id="elem_provenance"><rect codeLine="8" fill="#F1F1F1" height="42.7031" id="provenance" rx="2.5" ry="2.5" style="stroke:#181818;stroke-width:0.5;" width="292" x="445.5" y="128"/><ellipse cx="460.5" cy="149.3516" fill="#ADD1B2" rx="11" ry="11" style="stroke:#181818;stroke-width:1.0;"/><path d="M463.2656,145.2266 Q463.4219,145.0078 463.6094,144.8984 Q463.7969,144.7891 464.0156,144.7891 Q464.3906,144.7891 464.625,145.0547 Q464.8594,145.3047 464.8594,145.9141 L464.8594,147.3672 Q464.8594,147.9766 464.625,148.2422 Q464.3906,148.5078 464.0156,148.5078 Q463.6719,148.5078 463.4688,148.3047 Q463.2656,148.1172 463.1563,147.6016 Q463.1094,147.2422 462.9219,147.0547 Q462.5938,146.6797 461.9844,146.4609 Q461.375,146.2422 460.75,146.2422 Q459.9844,146.2422 459.3438,146.5703 Q458.7188,146.8984 458.2188,147.6484 Q457.7344,148.3984 457.7344,149.4297 L457.7344,150.5234 Q457.7344,151.7578 458.625,152.5859 Q459.5156,153.3984 461.1094,153.3984 Q462.0469,153.3984 462.7031,153.1484 Q463.0938,152.9922 463.5156,152.5547 Q463.7813,152.2891 463.9219,152.2109 Q464.0781,152.1328 464.2813,152.1328 Q464.6094,152.1328 464.8594,152.3984 Q465.125,152.6484 465.125,152.9922 Q465.125,153.3359 464.7813,153.7422 Q464.2813,154.3203 463.4844,154.6484 Q462.4063,155.1016 461.1094,155.1016 Q459.5938,155.1016 458.3906,154.4766 Q457.4063,153.9766 456.7188,152.9141 Q456.0313,151.8359 456.0313,150.5547 L456.0313,149.3984 Q456.0313,148.0703 456.6406,146.9297 Q457.2656,145.7734 458.3594,145.1641 Q459.4531,144.5391 460.6875,144.5391 Q461.4219,144.5391 462.0625,144.7109 Q462.7188,144.8672 463.2656,145.2266 Z " fill="#000000"/><text fill="#000000" font-family="sans-serif" font-size="12" font-style="italic" lengthAdjust="spacing" textLength="189" x="510" y="145.457">&#171;MedComMessagingProvenance&#187;</text><text fill="#000000" font-family="sans-serif" font-size="14" lengthAdjust="spacing" textLength="260" x="474.5" y="162.627">MedComCareCommunicationProvenance</text></g><!--class messagingOrganization--><g id="elem_messagingOrganization"><rect codeLine="9" fill="#F1F1F1" height="42.7031" id="messagingOrganization" rx="2.5" ry="2.5" style="stroke:#181818;stroke-width:0.5;" width="236" x="435.5" y="370"/><ellipse cx="450.5" cy="391.3516" fill="#ADD1B2" rx="11" ry="11" style="stroke:#181818;stroke-width:1.0;"/><path d="M453.2656,387.2266 Q453.4219,387.0078 453.6094,386.8984 Q453.7969,386.7891 454.0156,386.7891 Q454.3906,386.7891 454.625,387.0547 Q454.8594,387.3047 454.8594,387.9141 L454.8594,389.3672 Q454.8594,389.9766 454.625,390.2422 Q454.3906,390.5078 454.0156,390.5078 Q453.6719,390.5078 453.4688,390.3047 Q453.2656,390.1172 453.1563,389.6016 Q453.1094,389.2422 452.9219,389.0547 Q452.5938,388.6797 451.9844,388.4609 Q451.375,388.2422 450.75,388.2422 Q449.9844,388.2422 449.3438,388.5703 Q448.7188,388.8984 448.2188,389.6484 Q447.7344,390.3984 447.7344,391.4297 L447.7344,392.5234 Q447.7344,393.7578 448.625,394.5859 Q449.5156,395.3984 451.1094,395.3984 Q452.0469,395.3984 452.7031,395.1484 Q453.0938,394.9922 453.5156,394.5547 Q453.7813,394.2891 453.9219,394.2109 Q454.0781,394.1328 454.2813,394.1328 Q454.6094,394.1328 454.8594,394.3984 Q455.125,394.6484 455.125,394.9922 Q455.125,395.3359 454.7813,395.7422 Q454.2813,396.3203 453.4844,396.6484 Q452.4063,397.1016 451.1094,397.1016 Q449.5938,397.1016 448.3906,396.4766 Q447.4063,395.9766 446.7188,394.9141 Q446.0313,393.8359 446.0313,392.5547 L446.0313,391.3984 Q446.0313,390.0703 446.6406,388.9297 Q447.2656,387.7734 448.3594,387.1641 Q449.4531,386.5391 450.6875,386.5391 Q451.4219,386.5391 452.0625,386.7109 Q452.7188,386.8672 453.2656,387.2266 Z " fill="#000000"/><text fill="#000000" font-family="sans-serif" font-size="12" font-style="italic" lengthAdjust="spacing" textLength="162" x="485.5" y="387.457">&#171;MedComCoreOrganization&#187;</text><text fill="#000000" font-family="sans-serif" font-size="14" lengthAdjust="spacing" textLength="204" x="464.5" y="404.627">MedComMessagingOrganization</text></g><!--class communication--><g id="elem_communication"><rect codeLine="10" fill="#F1F1F1" height="32" id="communication" rx="2.5" ry="2.5" style="stroke:#181818;stroke-width:0.5;" width="216" x="288.5" y="491"/><ellipse cx="303.5" cy="507" fill="#ADD1B2" rx="11" ry="11" style="stroke:#181818;stroke-width:1.0;"/><path d="M306.2656,502.875 Q306.4219,502.6563 306.6094,502.5469 Q306.7969,502.4375 307.0156,502.4375 Q307.3906,502.4375 307.625,502.7031 Q307.8594,502.9531 307.8594,503.5625 L307.8594,505.0156 Q307.8594,505.625 307.625,505.8906 Q307.3906,506.1563 307.0156,506.1563 Q306.6719,506.1563 306.4688,505.9531 Q306.2656,505.7656 306.1563,505.25 Q306.1094,504.8906 305.9219,504.7031 Q305.5938,504.3281 304.9844,504.1094 Q304.375,503.8906 303.75,503.8906 Q302.9844,503.8906 302.3438,504.2188 Q301.7188,504.5469 301.2188,505.2969 Q300.7344,506.0469 300.7344,507.0781 L300.7344,508.1719 Q300.7344,509.4063 301.625,510.2344 Q302.5156,511.0469 304.1094,511.0469 Q305.0469,511.0469 305.7031,510.7969 Q306.0938,510.6406 306.5156,510.2031 Q306.7813,509.9375 306.9219,509.8594 Q307.0781,509.7813 307.2813,509.7813 Q307.6094,509.7813 307.8594,510.0469 Q308.125,510.2969 308.125,510.6406 Q308.125,510.9844 307.7813,511.3906 Q307.2813,511.9688 306.4844,512.2969 Q305.4063,512.75 304.1094,512.75 Q302.5938,512.75 301.3906,512.125 Q300.4063,511.625 299.7188,510.5625 Q299.0313,509.4844 299.0313,508.2031 L299.0313,507.0469 Q299.0313,505.7188 299.6406,504.5781 Q300.2656,503.4219 301.3594,502.8125 Q302.4531,502.1875 303.6875,502.1875 Q304.4219,502.1875 305.0625,502.3594 Q305.7188,502.5156 306.2656,502.875 Z " fill="#000000"/><text fill="#000000" font-family="sans-serif" font-size="14" lengthAdjust="spacing" textLength="184" x="317.5" y="512.7285">MedComCareCommunication</text></g><!--class patient--><g id="elem_patient"><rect codeLine="11" fill="#F1F1F1" height="32" id="patient" rx="2.5" ry="2.5" style="stroke:#181818;stroke-width:0.5;" width="163" x="7" y="601"/><ellipse cx="22" cy="617" fill="#ADD1B2" rx="11" ry="11" style="stroke:#181818;stroke-width:1.0;"/><path d="M24.7656,612.875 Q24.9219,612.6563 25.1094,612.5469 Q25.2969,612.4375 25.5156,612.4375 Q25.8906,612.4375 26.125,612.7031 Q26.3594,612.9531 26.3594,613.5625 L26.3594,615.0156 Q26.3594,615.625 26.125,615.8906 Q25.8906,616.1563 25.5156,616.1563 Q25.1719,616.1563 24.9688,615.9531 Q24.7656,615.7656 24.6563,615.25 Q24.6094,614.8906 24.4219,614.7031 Q24.0938,614.3281 23.4844,614.1094 Q22.875,613.8906 22.25,613.8906 Q21.4844,613.8906 20.8438,614.2188 Q20.2188,614.5469 19.7188,615.2969 Q19.2344,616.0469 19.2344,617.0781 L19.2344,618.1719 Q19.2344,619.4063 20.125,620.2344 Q21.0156,621.0469 22.6094,621.0469 Q23.5469,621.0469 24.2031,620.7969 Q24.5938,620.6406 25.0156,620.2031 Q25.2813,619.9375 25.4219,619.8594 Q25.5781,619.7813 25.7813,619.7813 Q26.1094,619.7813 26.3594,620.0469 Q26.625,620.2969 26.625,620.6406 Q26.625,620.9844 26.2813,621.3906 Q25.7813,621.9688 24.9844,622.2969 Q23.9063,622.75 22.6094,622.75 Q21.0938,622.75 19.8906,622.125 Q18.9063,621.625 18.2188,620.5625 Q17.5313,619.4844 17.5313,618.2031 L17.5313,617.0469 Q17.5313,615.7188 18.1406,614.5781 Q18.7656,613.4219 19.8594,612.8125 Q20.9531,612.1875 22.1875,612.1875 Q22.9219,612.1875 23.5625,612.3594 Q24.2188,612.5156 24.7656,612.875 Z " fill="#000000"/><text fill="#000000" font-family="sans-serif" font-size="14" lengthAdjust="spacing" textLength="131" x="36" y="622.7285">MedComCorePatient</text></g><!--class pracRole--><g id="elem_pracRole"><rect codeLine="12" fill="#F1F1F1" height="32" id="pracRole" rx="2.5" ry="2.5" style="stroke:#181818;stroke-width:0.5;" width="220" x="205.5" y="601"/><ellipse cx="220.5" cy="617" fill="#ADD1B2" rx="11" ry="11" style="stroke:#181818;stroke-width:1.0;"/><path d="M223.2656,612.875 Q223.4219,612.6563 223.6094,612.5469 Q223.7969,612.4375 224.0156,612.4375 Q224.3906,612.4375 224.625,612.7031 Q224.8594,612.9531 224.8594,613.5625 L224.8594,615.0156 Q224.8594,615.625 224.625,615.8906 Q224.3906,616.1563 224.0156,616.1563 Q223.6719,616.1563 223.4688,615.9531 Q223.2656,615.7656 223.1563,615.25 Q223.1094,614.8906 222.9219,614.7031 Q222.5938,614.3281 221.9844,614.1094 Q221.375,613.8906 220.75,613.8906 Q219.9844,613.8906 219.3438,614.2188 Q218.7188,614.5469 218.2188,615.2969 Q217.7344,616.0469 217.7344,617.0781 L217.7344,618.1719 Q217.7344,619.4063 218.625,620.2344 Q219.5156,621.0469 221.1094,621.0469 Q222.0469,621.0469 222.7031,620.7969 Q223.0938,620.6406 223.5156,620.2031 Q223.7813,619.9375 223.9219,619.8594 Q224.0781,619.7813 224.2813,619.7813 Q224.6094,619.7813 224.8594,620.0469 Q225.125,620.2969 225.125,620.6406 Q225.125,620.9844 224.7813,621.3906 Q224.2813,621.9688 223.4844,622.2969 Q222.4063,622.75 221.1094,622.75 Q219.5938,622.75 218.3906,622.125 Q217.4063,621.625 216.7188,620.5625 Q216.0313,619.4844 216.0313,618.2031 L216.0313,617.0469 Q216.0313,615.7188 216.6406,614.5781 Q217.2656,613.4219 218.3594,612.8125 Q219.4531,612.1875 220.6875,612.1875 Q221.4219,612.1875 222.0625,612.3594 Q222.7188,612.5156 223.2656,612.875 Z " fill="#000000"/><text fill="#000000" font-family="sans-serif" font-size="14" lengthAdjust="spacing" textLength="188" x="234.5" y="622.7285">MedComCorePractitionerRole</text></g><!--class careteam--><g id="elem_careteam"><rect codeLine="13" fill="#F1F1F1" height="32" id="careteam" rx="2.5" ry="2.5" style="stroke:#181818;stroke-width:0.5;" width="186" x="460.5" y="601"/><ellipse cx="475.5" cy="617" fill="#ADD1B2" rx="11" ry="11" style="stroke:#181818;stroke-width:1.0;"/><path d="M478.2656,612.875 Q478.4219,612.6563 478.6094,612.5469 Q478.7969,612.4375 479.0156,612.4375 Q479.3906,612.4375 479.625,612.7031 Q479.8594,612.9531 479.8594,613.5625 L479.8594,615.0156 Q479.8594,615.625 479.625,615.8906 Q479.3906,616.1563 479.0156,616.1563 Q478.6719,616.1563 478.4688,615.9531 Q478.2656,615.7656 478.1563,615.25 Q478.1094,614.8906 477.9219,614.7031 Q477.5938,614.3281 476.9844,614.1094 Q476.375,613.8906 475.75,613.8906 Q474.9844,613.8906 474.3438,614.2188 Q473.7188,614.5469 473.2188,615.2969 Q472.7344,616.0469 472.7344,617.0781 L472.7344,618.1719 Q472.7344,619.4063 473.625,620.2344 Q474.5156,621.0469 476.1094,621.0469 Q477.0469,621.0469 477.7031,620.7969 Q478.0938,620.6406 478.5156,620.2031 Q478.7813,619.9375 478.9219,619.8594 Q479.0781,619.7813 479.2813,619.7813 Q479.6094,619.7813 479.8594,620.0469 Q480.125,620.2969 480.125,620.6406 Q480.125,620.9844 479.7813,621.3906 Q479.2813,621.9688 478.4844,622.2969 Q477.4063,622.75 476.1094,622.75 Q474.5938,622.75 473.3906,622.125 Q472.4063,621.625 471.7188,620.5625 Q471.0313,619.4844 471.0313,618.2031 L471.0313,617.0469 Q471.0313,615.7188 471.6406,614.5781 Q472.2656,613.4219 473.3594,612.8125 Q474.4531,612.1875 475.6875,612.1875 Q476.4219,612.1875 477.0625,612.3594 Q477.7188,612.5156 478.2656,612.875 Z " fill="#000000"/><text fill="#000000" font-family="sans-serif" font-size="14" lengthAdjust="spacing" textLength="154" x="489.5" y="622.7285">MedComCoreCareTeam</text></g><!--class author--><g id="elem_author"><rect codeLine="14" fill="#F1F1F1" height="32" id="author" rx="2.5" ry="2.5" style="stroke:#181818;stroke-width:0.5;" width="191" x="220" y="711"/><ellipse cx="235" cy="727" fill="#ADD1B2" rx="11" ry="11" style="stroke:#181818;stroke-width:1.0;"/><path d="M237.7656,722.875 Q237.9219,722.6563 238.1094,722.5469 Q238.2969,722.4375 238.5156,722.4375 Q238.8906,722.4375 239.125,722.7031 Q239.3594,722.9531 239.3594,723.5625 L239.3594,725.0156 Q239.3594,725.625 239.125,725.8906 Q238.8906,726.1563 238.5156,726.1563 Q238.1719,726.1563 237.9688,725.9531 Q237.7656,725.7656 237.6563,725.25 Q237.6094,724.8906 237.4219,724.7031 Q237.0938,724.3281 236.4844,724.1094 Q235.875,723.8906 235.25,723.8906 Q234.4844,723.8906 233.8438,724.2188 Q233.2188,724.5469 232.7188,725.2969 Q232.2344,726.0469 232.2344,727.0781 L232.2344,728.1719 Q232.2344,729.4063 233.125,730.2344 Q234.0156,731.0469 235.6094,731.0469 Q236.5469,731.0469 237.2031,730.7969 Q237.5938,730.6406 238.0156,730.2031 Q238.2813,729.9375 238.4219,729.8594 Q238.5781,729.7813 238.7813,729.7813 Q239.1094,729.7813 239.3594,730.0469 Q239.625,730.2969 239.625,730.6406 Q239.625,730.9844 239.2813,731.3906 Q238.7813,731.9688 237.9844,732.2969 Q236.9063,732.75 235.6094,732.75 Q234.0938,732.75 232.8906,732.125 Q231.9063,731.625 231.2188,730.5625 Q230.5313,729.4844 230.5313,728.2031 L230.5313,727.0469 Q230.5313,725.7188 231.1406,724.5781 Q231.7656,723.4219 232.8594,722.8125 Q233.9531,722.1875 235.1875,722.1875 Q235.9219,722.1875 236.5625,722.3594 Q237.2188,722.5156 237.7656,722.875 Z " fill="#000000"/><text fill="#000000" font-family="sans-serif" font-size="14" lengthAdjust="spacing" textLength="159" x="249" y="732.7285">MedComCorePractitioner</text></g><!--class encounter--><g id="elem_encounter"><rect codeLine="15" fill="#F1F1F1" height="32" id="encounter" rx="2.5" ry="2.5" style="stroke:#181818;stroke-width:0.5;" width="184" x="681.5" y="601"/><ellipse cx="696.5" cy="617" fill="#ADD1B2" rx="11" ry="11" style="stroke:#181818;stroke-width:1.0;"/><path d="M699.2656,612.875 Q699.4219,612.6563 699.6094,612.5469 Q699.7969,612.4375 700.0156,612.4375 Q700.3906,612.4375 700.625,612.7031 Q700.8594,612.9531 700.8594,613.5625 L700.8594,615.0156 Q700.8594,615.625 700.625,615.8906 Q700.3906,616.1563 700.0156,616.1563 Q699.6719,616.1563 699.4688,615.9531 Q699.2656,615.7656 699.1563,615.25 Q699.1094,614.8906 698.9219,614.7031 Q698.5938,614.3281 697.9844,614.1094 Q697.375,613.8906 696.75,613.8906 Q695.9844,613.8906 695.3438,614.2188 Q694.7188,614.5469 694.2188,615.2969 Q693.7344,616.0469 693.7344,617.0781 L693.7344,618.1719 Q693.7344,619.4063 694.625,620.2344 Q695.5156,621.0469 697.1094,621.0469 Q698.0469,621.0469 698.7031,620.7969 Q699.0938,620.6406 699.5156,620.2031 Q699.7813,619.9375 699.9219,619.8594 Q700.0781,619.7813 700.2813,619.7813 Q700.6094,619.7813 700.8594,620.0469 Q701.125,620.2969 701.125,620.6406 Q701.125,620.9844 700.7813,621.3906 Q700.2813,621.9688 699.4844,622.2969 Q698.4063,622.75 697.1094,622.75 Q695.5938,622.75 694.3906,622.125 Q693.4063,621.625 692.7188,620.5625 Q692.0313,619.4844 692.0313,618.2031 L692.0313,617.0469 Q692.0313,615.7188 692.6406,614.5781 Q693.2656,613.4219 694.3594,612.8125 Q695.4531,612.1875 696.6875,612.1875 Q697.4219,612.1875 698.0625,612.3594 Q698.7188,612.5156 699.2656,612.875 Z " fill="#000000"/><text fill="#000000" font-family="sans-serif" font-size="14" lengthAdjust="spacing" textLength="152" x="710.5" y="622.7285">MedComCoreEncounter</text></g><!--class organization--><g id="elem_organization"><rect codeLine="16" fill="#F1F1F1" height="32" id="organization" rx="2.5" ry="2.5" style="stroke:#181818;stroke-width:0.5;" width="199" x="450" y="711"/><ellipse cx="465" cy="727" fill="#ADD1B2" rx="11" ry="11" style="stroke:#181818;stroke-width:1.0;"/><path d="M467.7656,722.875 Q467.9219,722.6563 468.1094,722.5469 Q468.2969,722.4375 468.5156,722.4375 Q468.8906,722.4375 469.125,722.7031 Q469.3594,722.9531 469.3594,723.5625 L469.3594,725.0156 Q469.3594,725.625 469.125,725.8906 Q468.8906,726.1563 468.5156,726.1563 Q468.1719,726.1563 467.9688,725.9531 Q467.7656,725.7656 467.6563,725.25 Q467.6094,724.8906 467.4219,724.7031 Q467.0938,724.3281 466.4844,724.1094 Q465.875,723.8906 465.25,723.8906 Q464.4844,723.8906 463.8438,724.2188 Q463.2188,724.5469 462.7188,725.2969 Q462.2344,726.0469 462.2344,727.0781 L462.2344,728.1719 Q462.2344,729.4063 463.125,730.2344 Q464.0156,731.0469 465.6094,731.0469 Q466.5469,731.0469 467.2031,730.7969 Q467.5938,730.6406 468.0156,730.2031 Q468.2813,729.9375 468.4219,729.8594 Q468.5781,729.7813 468.7813,729.7813 Q469.1094,729.7813 469.3594,730.0469 Q469.625,730.2969 469.625,730.6406 Q469.625,730.9844 469.2813,731.3906 Q468.7813,731.9688 467.9844,732.2969 Q466.9063,732.75 465.6094,732.75 Q464.0938,732.75 462.8906,732.125 Q461.9063,731.625 461.2188,730.5625 Q460.5313,729.4844 460.5313,728.2031 L460.5313,727.0469 Q460.5313,725.7188 461.1406,724.5781 Q461.7656,723.4219 462.8594,722.8125 Q463.9531,722.1875 465.1875,722.1875 Q465.9219,722.1875 466.5625,722.3594 Q467.2188,722.5156 467.7656,722.875 Z " fill="#000000"/><text fill="#000000" font-family="sans-serif" font-size="14" lengthAdjust="spacing" textLength="167" x="479" y="732.7285">MedComCoreOrganization</text></g><!--link message to messageheader--><g id="link_message_messageheader"><path codeLine="18" d="M405.96,50.25 C403.53,70.19 399.75,101.15 396.5,128 C391.3,170.99 385.9715,215.3723 382.6815,242.9223 " fill="none" id="message-to-messageheader" style="stroke:#181818;stroke-width:1.0;"/><polygon fill="#181818" points="381.97,248.88,387.009,240.4178,382.5629,243.9153,379.0654,239.4692,381.97,248.88" style="stroke:#181818;stroke-width:1.0;"/><text fill="#000000" font-family="sans-serif" font-size="13" lengthAdjust="spacing" textLength="29" x="397.5" y="154.9951">entry</text></g><!--link messageheader to communication--><g id="link_messageheader_communication"><path codeLine="19" d="M379.63,292.16 C379.94,319.75 380.98,370.13 384.5,413 C386.76,440.58 390.4054,466.6086 393.2054,484.9686 " fill="none" id="messageheader-to-communication" style="stroke:#181818;stroke-width:1.0;"/><polygon fill="#181818" points="394.11,490.9,396.7074,481.3998,393.3562,485.9571,388.7989,482.6059,394.11,490.9" style="stroke:#181818;stroke-width:1.0;"/><text fill="#000000" font-family="sans-serif" font-size="13" lengthAdjust="spacing" textLength="31" x="385.5" y="396.9951">focus</text></g><!--link communication to patient--><g id="link_communication_patient"><path codeLine="20" d="M288.23,521.39 C252.35,528.15 212.83,538.19 178.5,553 C150.65,565.01 127.2687,582.5343 110.0687,597.0243 " fill="none" id="communication-to-patient" style="stroke:#181818;stroke-width:1.0;"/><polygon fill="#181818" points="105.48,600.89,114.9402,598.1506,109.3039,597.6686,109.7859,592.0323,105.48,600.89" style="stroke:#181818;stroke-width:1.0;"/><text fill="#000000" font-family="sans-serif" font-size="13" lengthAdjust="spacing" textLength="42" x="179.5" y="567.4951">subject</text></g><!--link communication to pracRole--><g id="link_communication_pracRole"><path codeLine="21" d="M306.68,523.05 C274.64,530.39 244.08,540.39 234.5,553 C219.52,572.71 239.1733,587.2074 265.3133,598.5174 " fill="none" id="communication-to-pracRole" style="stroke:#181818;stroke-width:1.0;"/><polygon fill="#181818" points="270.82,600.9,264.1484,593.655,266.2311,598.9145,260.9716,600.9973,270.82,600.9" style="stroke:#181818;stroke-width:1.0;"/><text fill="#000000" font-family="sans-serif" font-size="13" lengthAdjust="spacing" textLength="36" x="235.5" y="567.4951">author</text></g><!--link communication to pracRole--><g id="link_communication_pracRole"><path codeLine="27" d="M348.2,523.01 C334.22,529.84 320.57,539.52 312.5,553 C303.84,567.47 305.1172,581.5371 308.7672,595.0671 " fill="none" id="communication-to-pracRole-1" style="stroke:#181818;stroke-width:1.0;"/><polygon fill="#181818" points="310.33,600.86,311.8478,591.1288,309.0277,596.0326,304.1239,593.2125,310.33,600.86" style="stroke:#181818;stroke-width:1.0;"/><text fill="#000000" font-family="sans-serif" font-size="13" lengthAdjust="spacing" textLength="39" x="313.5" y="567.4951">sender</text></g><!--link communication to pracRole--><g id="link_communication_pracRole"><path codeLine="28" d="M388.3,523.05 C380.9,536.17 369.37,555.47 357.5,571 C349.45,581.53 343.5569,588.1419 335.2769,596.5619 " fill="none" id="communication-to-pracRole-2" style="stroke:#181818;stroke-width:1.0;"/><polygon fill="#181818" points="331.07,600.84,340.2324,597.2275,334.5758,597.275,334.5284,591.6183,331.07,600.84" style="stroke:#181818;stroke-width:1.0;"/><text fill="#000000" font-family="sans-serif" font-size="13" lengthAdjust="spacing" textLength="49" x="370.5" y="567.4951">recipient</text></g><!--link message to provenance--><g id="link_message_provenance"><path codeLine="22" d="M440.38,50.23 C473.86,72 521.1901,102.7789 554.6501,124.5389 " fill="none" id="message-to-provenance" style="stroke:#181818;stroke-width:1.0;"/><polygon fill="#181818" points="559.68,127.81,554.3159,119.5501,555.4884,125.0841,549.9544,126.2566,559.68,127.81" style="stroke:#181818;stroke-width:1.0;"/><text fill="#000000" font-family="sans-serif" font-size="13" lengthAdjust="spacing" textLength="29" x="511.5" y="94.4951">entry</text></g><!--link provenance to messageheader--><g id="link_provenance_messageheader"><path codeLine="23" d="M554.57,171.23 C515.78,193 460.3622,224.1134 421.5922,245.8734 " fill="none" id="provenance-to-messageheader" style="stroke:#181818;stroke-width:1.0;"/><polygon fill="#181818" points="416.36,248.81,426.1661,247.8932,420.7202,246.3628,422.2506,240.9169,416.36,248.81" style="stroke:#181818;stroke-width:1.0;"/><text fill="#000000" font-family="sans-serif" font-size="13" lengthAdjust="spacing" textLength="33" x="498.5" y="215.4951">target</text></g><!--link provenance to messagingOrganization--><g id="link_provenance_messagingOrganization"><path codeLine="24" d="M588.19,171.38 C580.99,216.88 564.878,318.6138 557.708,363.9138 " fill="none" id="provenance-to-messagingOrganization" style="stroke:#181818;stroke-width:1.0;"/><polygon fill="#181818" points="556.77,369.84,562.1278,361.576,557.5517,364.9015,554.2262,360.3253,556.77,369.84" style="stroke:#181818;stroke-width:1.0;"/><text fill="#000000" font-family="sans-serif" font-size="13" lengthAdjust="spacing" textLength="59" x="576.5" y="275.9951">agent.who</text></g><!--link communication to careteam--><g id="link_communication_careteam"><path codeLine="25" d="M416.95,523.02 C434.67,535.95 461.08,554.99 484.5,571 C499.38,581.17 511.2744,588.9832 524.6544,597.5932 " fill="none" id="communication-to-careteam" style="stroke:#181818;stroke-width:1.0;"/><polygon fill="#181818" points="529.7,600.84,524.2962,592.606,525.4953,598.1343,519.967,599.3335,529.7,600.84" style="stroke:#181818;stroke-width:1.0;"/><text fill="#000000" font-family="sans-serif" font-size="13" lengthAdjust="spacing" textLength="39" x="485.5" y="567.4951">sender</text></g><!--link communication to careteam--><g id="link_communication_careteam"><path codeLine="26" d="M477.7,523.01 C496.51,529.65 515.19,539.22 529.5,553 C542.74,565.75 547.6425,580.655 550.3325,594.845 " fill="none" id="communication-to-careteam-1" style="stroke:#181818;stroke-width:1.0;"/><polygon fill="#181818" points="551.45,600.74,553.7037,591.1525,550.5187,595.8275,545.8437,592.6425,551.45,600.74" style="stroke:#181818;stroke-width:1.0;"/><text fill="#000000" font-family="sans-serif" font-size="13" lengthAdjust="spacing" textLength="49" x="542.5" y="567.4951">recipient</text></g><!--reverse link messagingOrganization to communication--><g id="link_messagingOrganization_communication"><path codeLine="29" d="M520.2075,416.5652 C489.2775,438.9252 445.42,470.64 417.68,490.69 " fill="none" id="messagingOrganization-backto-communication" style="stroke:#181818;stroke-width:1.0;"/><polygon fill="#181818" points="525.07,413.05,515.4329,415.0811,521.018,415.9793,520.1198,421.5644,525.07,413.05" style="stroke:#181818;stroke-width:1.0;"/><text fill="#000000" font-family="sans-serif" font-size="13" lengthAdjust="spacing" textLength="49" x="480.5" y="457.4951">assigner</text></g><!--link pracRole to author--><g id="link_pracRole_author"><path codeLine="30" d="M315.5,633.02 C315.5,653.53 315.5,684.13 315.5,704.76 " fill="none" id="pracRole-to-author" style="stroke:#181818;stroke-width:1.0;"/><polygon fill="#181818" points="315.5,710.76,319.5,701.76,315.5,705.76,311.5,701.76,315.5,710.76" style="stroke:#181818;stroke-width:1.0;"/><text fill="#000000" font-family="sans-serif" font-size="13" lengthAdjust="spacing" textLength="64" x="316.5" y="677.4951">practitioner</text></g><!--link pracRole to organization--><g id="link_pracRole_organization"><path codeLine="31" d="M348.04,633.02 C392.62,653.59 466.7823,687.8255 511.4123,708.4255 " fill="none" id="pracRole-to-organization" style="stroke:#181818;stroke-width:1.0;"/><polygon fill="#181818" points="516.86,710.94,510.3648,703.5365,512.3203,708.8446,507.0121,710.8,516.86,710.94" style="stroke:#181818;stroke-width:1.0;"/><text fill="#000000" font-family="sans-serif" font-size="13" lengthAdjust="spacing" textLength="70" x="448.5" y="677.4951">organization</text></g><!--link careteam to organization--><g id="link_careteam_organization"><path codeLine="32" d="M552.94,633.02 C552.18,653.53 551.0538,684.1342 550.2838,704.7642 " fill="none" id="careteam-to-organization" style="stroke:#181818;stroke-width:1.0;"/><polygon fill="#181818" points="550.06,710.76,554.3929,701.9155,550.2465,705.7635,546.3985,701.6171,550.06,710.76" style="stroke:#181818;stroke-width:1.0;"/><text fill="#000000" font-family="sans-serif" font-size="13" lengthAdjust="spacing" textLength="129" x="552.5" y="677.4951">managingOrganization</text></g><!--link communication to encounter--><g id="link_communication_encounter"><path codeLine="33" d="M476.07,523.01 C514.04,530.81 559.93,541.19 600.5,553 C648.22,566.89 696.2228,584.9375 730.9328,598.7075 " fill="none" id="communication-to-encounter" style="stroke:#181818;stroke-width:1.0;"/><polygon fill="#181818" points="736.51,600.92,729.6193,593.8831,731.8624,599.0762,726.6692,601.3193,736.51,600.92" style="stroke:#181818;stroke-width:1.0;"/><text fill="#000000" font-family="sans-serif" font-size="13" lengthAdjust="spacing" textLength="57" x="653.5" y="567.4951">encounter</text></g><!--link messageheader to messagingOrganization--><g id="link_messageheader_messagingOrganization"><path codeLine="36" d="M430.01,292.03 C447.63,300.21 467.09,310.45 483.5,322 C503.11,335.8 518.3075,350.7463 531.6375,365.3663 " fill="none" id="messageheader-to-messagingOrganization" style="stroke:#181818;stroke-width:1.0;"/><polygon fill="#181818" points="535.68,369.8,532.572,360.4544,532.3112,366.1052,526.6604,365.8444,535.68,369.8" style="stroke:#181818;stroke-width:1.0;"/><text fill="#000000" font-family="sans-serif" font-size="13" lengthAdjust="spacing" textLength="44" x="504.5" y="336.4951">receiver</text></g><!--link messageheader to messagingOrganization--><g id="link_messageheader_messagingOrganization"><path codeLine="37" d="M392.02,292.06 C401.99,307.01 417.11,326.84 434.5,340 C450.79,352.32 464.9824,359.9845 483.6724,367.6845 " fill="none" id="messageheader-to-messagingOrganization-1" style="stroke:#181818;stroke-width:1.0;"/><polygon fill="#181818" points="489.22,369.97,482.4222,362.8433,484.597,368.0654,479.3748,370.2401,489.22,369.97" style="stroke:#181818;stroke-width:1.0;"/><text fill="#000000" font-family="sans-serif" font-size="13" lengthAdjust="spacing" textLength="39" x="435.5" y="336.4951">sender</text></g><!--SRC=[bPDDReCm48NtFeN5dXwWghA9AdKJDQfw0STCmLNiGRP9bPw-Omp4W6dQ5Spuup4_pusgW8Dk_PLhq2UmZZ6FBVV8J-WzQbuf2z8hD8p9it2E5mUezgZtmW8zT6UK5E7y0Cw96Wek76drx_pfASBnJ9bwW7QxluczWAZ0ff9DdzaKZX_SbJzQl80HHiPosobS2z_GfUg4lDfQ6FNTAoUrBaucwJrQI0_kLjjhoZIp-804ZvG7usCxyJq3MK6h309Wt_0yDYza2DPuAEGTX8x_fy1JyBjgZuhEDsZNuBEHs1a_K316Qt0rK4mIZ8tkAilTmXQFlA36xRLWytmWPmCCv0VApXLidW_aCB_0kExqIVRFKiFS0XOxBcQL9QQwbPKaizLxOMkWBUR1fQF2dsjIVlXgC5VYkBE-4p3XAjsXwAwhjZVIdOwtvL8gaTku4sMvNWovGTN1J6pI2i9no05eKyVD8LpC9usfsh7L7Ag5ML_dJ8EJSUDUHqypbZ7TvjveCg0kO8l_V3GC_GS0]--></g></svg>