<?xml version="1.0" encoding="UTF-8" standalone="no"?><svg xmlns="http://www.w3.org/2000/svg" xmlns:xlink="http://www.w3.org/1999/xlink" contentStyleType="text/css" height="398px" preserveAspectRatio="none" style="width:691px;height:398px;background:#FFFFFF;" version="1.1" viewBox="0 0 691 398" width="691px" zoomAndPan="magnify"><defs/><g><!--MD5=[8450471b43f9def5175bba9f4f9f2aaf]
class messageheader--><g id="elem_messageheader"><rect codeLine="6" fill="#F1F1F1" height="42.7031" id="messageheader" rx="2.5" ry="2.5" style="stroke:#181818;stroke-width:0.5;" width="319" x="51.5" y="7"/><ellipse cx="66.5" cy="28.3516" fill="#ADD1B2" rx="11" ry="11" style="stroke:#181818;stroke-width:1.0;"/><path d="M69.2656,24.2266 Q69.4219,24.0078 69.6094,23.8984 Q69.7969,23.7891 70.0156,23.7891 Q70.3906,23.7891 70.625,24.0469 Q70.8594,24.3047 70.8594,24.9141 L70.8594,26.3672 Q70.8594,26.9766 70.625,27.2422 Q70.3906,27.5078 70.0156,27.5078 Q69.6719,27.5078 69.4688,27.3047 Q69.2656,27.1172 69.1563,26.6016 Q69.1094,26.2422 68.9219,26.0547 Q68.5938,25.6797 67.9844,25.4609 Q67.375,25.2422 66.75,25.2422 Q65.9844,25.2422 65.3516,25.5703 Q64.7188,25.8984 64.2266,26.6484 Q63.7344,27.3984 63.7344,28.4297 L63.7344,29.5234 Q63.7344,30.7578 64.625,31.5781 Q65.5156,32.3984 67.1094,32.3984 Q68.0469,32.3984 68.7031,32.1484 Q69.0938,31.9922 69.5156,31.5547 Q69.7813,31.2891 69.9297,31.2109 Q70.0781,31.1328 70.2813,31.1328 Q70.6094,31.1328 70.8672,31.3906 Q71.125,31.6484 71.125,31.9922 Q71.125,32.3359 70.7813,32.7422 Q70.2813,33.3203 69.4844,33.6484 Q68.4063,34.1016 67.1094,34.1016 Q65.5938,34.1016 64.3906,33.4766 Q63.4063,32.9766 62.7188,31.9063 Q62.0313,30.8359 62.0313,29.5547 L62.0313,28.3984 Q62.0313,27.0703 62.6484,25.9219 Q63.2656,24.7734 64.3594,24.1563 Q65.4531,23.5391 66.6875,23.5391 Q67.4219,23.5391 68.0703,23.7031 Q68.7188,23.8672 69.2656,24.2266 Z " fill="#000000"/><text fill="#000000" font-family="sans-serif" font-size="12" font-style="italic" lengthAdjust="spacing" textLength="213" x="117.5" y="24.457">«MedComMessagingMessageHeader»</text><text fill="#000000" font-family="sans-serif" font-size="14" lengthAdjust="spacing" textLength="287" x="80.5" y="41.627">MedComCareCommunicationMessageHeader</text></g><!--MD5=[5495acc25b34ab1dab9fd35d8e775d03]
class messagingOrganization--><g id="elem_messagingOrganization"><rect codeLine="7" fill="#F1F1F1" height="42.7031" id="messagingOrganization" rx="2.5" ry="2.5" style="stroke:#181818;stroke-width:0.5;" width="236" x="7" y="128"/><ellipse cx="22" cy="149.3516" fill="#ADD1B2" rx="11" ry="11" style="stroke:#181818;stroke-width:1.0;"/><path d="M24.7656,145.2266 Q24.9219,145.0078 25.1094,144.8984 Q25.2969,144.7891 25.5156,144.7891 Q25.8906,144.7891 26.125,145.0469 Q26.3594,145.3047 26.3594,145.9141 L26.3594,147.3672 Q26.3594,147.9766 26.125,148.2422 Q25.8906,148.5078 25.5156,148.5078 Q25.1719,148.5078 24.9688,148.3047 Q24.7656,148.1172 24.6563,147.6016 Q24.6094,147.2422 24.4219,147.0547 Q24.0938,146.6797 23.4844,146.4609 Q22.875,146.2422 22.25,146.2422 Q21.4844,146.2422 20.8516,146.5703 Q20.2188,146.8984 19.7266,147.6484 Q19.2344,148.3984 19.2344,149.4297 L19.2344,150.5234 Q19.2344,151.7578 20.125,152.5781 Q21.0156,153.3984 22.6094,153.3984 Q23.5469,153.3984 24.2031,153.1484 Q24.5938,152.9922 25.0156,152.5547 Q25.2813,152.2891 25.4297,152.2109 Q25.5781,152.1328 25.7813,152.1328 Q26.1094,152.1328 26.3672,152.3906 Q26.625,152.6484 26.625,152.9922 Q26.625,153.3359 26.2813,153.7422 Q25.7813,154.3203 24.9844,154.6484 Q23.9063,155.1016 22.6094,155.1016 Q21.0938,155.1016 19.8906,154.4766 Q18.9063,153.9766 18.2188,152.9063 Q17.5313,151.8359 17.5313,150.5547 L17.5313,149.3984 Q17.5313,148.0703 18.1484,146.9219 Q18.7656,145.7734 19.8594,145.1563 Q20.9531,144.5391 22.1875,144.5391 Q22.9219,144.5391 23.5703,144.7031 Q24.2188,144.8672 24.7656,145.2266 Z " fill="#000000"/><text fill="#000000" font-family="sans-serif" font-size="12" font-style="italic" lengthAdjust="spacing" textLength="162" x="57" y="145.457">«MedComCoreOrganization»</text><text fill="#000000" font-family="sans-serif" font-size="14" lengthAdjust="spacing" textLength="204" x="36" y="162.627">MedComMessagingOrganization</text></g><!--MD5=[e2e901c2214a1f61ae0bb3d13c40a618]
class communication--><g id="elem_communication"><rect codeLine="8" fill="#F1F1F1" height="32" id="communication" rx="2.5" ry="2.5" style="stroke:#181818;stroke-width:0.5;" width="216" x="278" y="133.5"/><ellipse cx="293" cy="149.5" fill="#ADD1B2" rx="11" ry="11" style="stroke:#181818;stroke-width:1.0;"/><path d="M295.7656,145.375 Q295.9219,145.1563 296.1094,145.0469 Q296.2969,144.9375 296.5156,144.9375 Q296.8906,144.9375 297.125,145.1953 Q297.3594,145.4531 297.3594,146.0625 L297.3594,147.5156 Q297.3594,148.125 297.125,148.3906 Q296.8906,148.6563 296.5156,148.6563 Q296.1719,148.6563 295.9688,148.4531 Q295.7656,148.2656 295.6563,147.75 Q295.6094,147.3906 295.4219,147.2031 Q295.0938,146.8281 294.4844,146.6094 Q293.875,146.3906 293.25,146.3906 Q292.4844,146.3906 291.8516,146.7188 Q291.2188,147.0469 290.7266,147.7969 Q290.2344,148.5469 290.2344,149.5781 L290.2344,150.6719 Q290.2344,151.9063 291.125,152.7266 Q292.0156,153.5469 293.6094,153.5469 Q294.5469,153.5469 295.2031,153.2969 Q295.5938,153.1406 296.0156,152.7031 Q296.2813,152.4375 296.4297,152.3594 Q296.5781,152.2813 296.7813,152.2813 Q297.1094,152.2813 297.3672,152.5391 Q297.625,152.7969 297.625,153.1406 Q297.625,153.4844 297.2813,153.8906 Q296.7813,154.4688 295.9844,154.7969 Q294.9063,155.25 293.6094,155.25 Q292.0938,155.25 290.8906,154.625 Q289.9063,154.125 289.2188,153.0547 Q288.5313,151.9844 288.5313,150.7031 L288.5313,149.5469 Q288.5313,148.2188 289.1484,147.0703 Q289.7656,145.9219 290.8594,145.3047 Q291.9531,144.6875 293.1875,144.6875 Q293.9219,144.6875 294.5703,144.8516 Q295.2188,145.0156 295.7656,145.375 Z " fill="#000000"/><text fill="#000000" font-family="sans-serif" font-size="14" lengthAdjust="spacing" textLength="184" x="307" y="155.2285">MedComCareCommunication</text></g><!--MD5=[86fcfc7a3ddeef2443f03e9b03bcacd4]
class patient--><g id="elem_patient"><rect codeLine="9" fill="#F1F1F1" height="32" id="patient" rx="2.5" ry="2.5" style="stroke:#181818;stroke-width:0.5;" width="163" x="77.5" y="249"/><ellipse cx="92.5" cy="265" fill="#ADD1B2" rx="11" ry="11" style="stroke:#181818;stroke-width:1.0;"/><path d="M95.2656,260.875 Q95.4219,260.6563 95.6094,260.5469 Q95.7969,260.4375 96.0156,260.4375 Q96.3906,260.4375 96.625,260.6953 Q96.8594,260.9531 96.8594,261.5625 L96.8594,263.0156 Q96.8594,263.625 96.625,263.8906 Q96.3906,264.1563 96.0156,264.1563 Q95.6719,264.1563 95.4688,263.9531 Q95.2656,263.7656 95.1563,263.25 Q95.1094,262.8906 94.9219,262.7031 Q94.5938,262.3281 93.9844,262.1094 Q93.375,261.8906 92.75,261.8906 Q91.9844,261.8906 91.3516,262.2188 Q90.7188,262.5469 90.2266,263.2969 Q89.7344,264.0469 89.7344,265.0781 L89.7344,266.1719 Q89.7344,267.4063 90.625,268.2266 Q91.5156,269.0469 93.1094,269.0469 Q94.0469,269.0469 94.7031,268.7969 Q95.0938,268.6406 95.5156,268.2031 Q95.7813,267.9375 95.9297,267.8594 Q96.0781,267.7813 96.2813,267.7813 Q96.6094,267.7813 96.8672,268.0391 Q97.125,268.2969 97.125,268.6406 Q97.125,268.9844 96.7813,269.3906 Q96.2813,269.9688 95.4844,270.2969 Q94.4063,270.75 93.1094,270.75 Q91.5938,270.75 90.3906,270.125 Q89.4063,269.625 88.7188,268.5547 Q88.0313,267.4844 88.0313,266.2031 L88.0313,265.0469 Q88.0313,263.7188 88.6484,262.5703 Q89.2656,261.4219 90.3594,260.8047 Q91.4531,260.1875 92.6875,260.1875 Q93.4219,260.1875 94.0703,260.3516 Q94.7188,260.5156 95.2656,260.875 Z " fill="#000000"/><text fill="#000000" font-family="sans-serif" font-size="14" lengthAdjust="spacing" textLength="131" x="106.5" y="270.7285">MedComCorePatient</text></g><!--MD5=[c5ddc2160e628279c55e986000f625db]
class authorRole--><g id="elem_authorRole"><rect codeLine="10" fill="#F1F1F1" height="32" id="authorRole" rx="2.5" ry="2.5" style="stroke:#181818;stroke-width:0.5;" width="220" x="276" y="249"/><ellipse cx="291" cy="265" fill="#ADD1B2" rx="11" ry="11" style="stroke:#181818;stroke-width:1.0;"/><path d="M293.7656,260.875 Q293.9219,260.6563 294.1094,260.5469 Q294.2969,260.4375 294.5156,260.4375 Q294.8906,260.4375 295.125,260.6953 Q295.3594,260.9531 295.3594,261.5625 L295.3594,263.0156 Q295.3594,263.625 295.125,263.8906 Q294.8906,264.1563 294.5156,264.1563 Q294.1719,264.1563 293.9688,263.9531 Q293.7656,263.7656 293.6563,263.25 Q293.6094,262.8906 293.4219,262.7031 Q293.0938,262.3281 292.4844,262.1094 Q291.875,261.8906 291.25,261.8906 Q290.4844,261.8906 289.8516,262.2188 Q289.2188,262.5469 288.7266,263.2969 Q288.2344,264.0469 288.2344,265.0781 L288.2344,266.1719 Q288.2344,267.4063 289.125,268.2266 Q290.0156,269.0469 291.6094,269.0469 Q292.5469,269.0469 293.2031,268.7969 Q293.5938,268.6406 294.0156,268.2031 Q294.2813,267.9375 294.4297,267.8594 Q294.5781,267.7813 294.7813,267.7813 Q295.1094,267.7813 295.3672,268.0391 Q295.625,268.2969 295.625,268.6406 Q295.625,268.9844 295.2813,269.3906 Q294.7813,269.9688 293.9844,270.2969 Q292.9063,270.75 291.6094,270.75 Q290.0938,270.75 288.8906,270.125 Q287.9063,269.625 287.2188,268.5547 Q286.5313,267.4844 286.5313,266.2031 L286.5313,265.0469 Q286.5313,263.7188 287.1484,262.5703 Q287.7656,261.4219 288.8594,260.8047 Q289.9531,260.1875 291.1875,260.1875 Q291.9219,260.1875 292.5703,260.3516 Q293.2188,260.5156 293.7656,260.875 Z " fill="#000000"/><text fill="#000000" font-family="sans-serif" font-size="14" lengthAdjust="spacing" textLength="188" x="305" y="270.7285">MedComCorePractitionerRole</text></g><!--MD5=[bf0e659e8df8c2802d52f74fdc234bc7]
class senderRec--><g id="elem_senderRec"><rect codeLine="11" fill="#F1F1F1" height="32" id="senderRec" rx="2.5" ry="2.5" style="stroke:#181818;stroke-width:0.5;" width="153" x="531.5" y="249"/><ellipse cx="546.5" cy="265" fill="#ADD1B2" rx="11" ry="11" style="stroke:#181818;stroke-width:1.0;"/><path d="M549.2656,260.875 Q549.4219,260.6563 549.6094,260.5469 Q549.7969,260.4375 550.0156,260.4375 Q550.3906,260.4375 550.625,260.6953 Q550.8594,260.9531 550.8594,261.5625 L550.8594,263.0156 Q550.8594,263.625 550.625,263.8906 Q550.3906,264.1563 550.0156,264.1563 Q549.6719,264.1563 549.4688,263.9531 Q549.2656,263.7656 549.1563,263.25 Q549.1094,262.8906 548.9219,262.7031 Q548.5938,262.3281 547.9844,262.1094 Q547.375,261.8906 546.75,261.8906 Q545.9844,261.8906 545.3516,262.2188 Q544.7188,262.5469 544.2266,263.2969 Q543.7344,264.0469 543.7344,265.0781 L543.7344,266.1719 Q543.7344,267.4063 544.625,268.2266 Q545.5156,269.0469 547.1094,269.0469 Q548.0469,269.0469 548.7031,268.7969 Q549.0938,268.6406 549.5156,268.2031 Q549.7813,267.9375 549.9297,267.8594 Q550.0781,267.7813 550.2813,267.7813 Q550.6094,267.7813 550.8672,268.0391 Q551.125,268.2969 551.125,268.6406 Q551.125,268.9844 550.7813,269.3906 Q550.2813,269.9688 549.4844,270.2969 Q548.4063,270.75 547.1094,270.75 Q545.5938,270.75 544.3906,270.125 Q543.4063,269.625 542.7188,268.5547 Q542.0313,267.4844 542.0313,266.2031 L542.0313,265.0469 Q542.0313,263.7188 542.6484,262.5703 Q543.2656,261.4219 544.3594,260.8047 Q545.4531,260.1875 546.6875,260.1875 Q547.4219,260.1875 548.0703,260.3516 Q548.7188,260.5156 549.2656,260.875 Z " fill="#000000"/><text fill="#000000" font-family="sans-serif" font-size="14" lengthAdjust="spacing" textLength="121" x="560.5" y="270.7285">Sender or recipient</text></g><!--MD5=[7f6a6782ff085de027a43e4e291de663]
class author--><g id="elem_author"><rect codeLine="12" fill="#F1F1F1" height="32" id="author" rx="2.5" ry="2.5" style="stroke:#181818;stroke-width:0.5;" width="191" x="290.5" y="359"/><ellipse cx="305.5" cy="375" fill="#ADD1B2" rx="11" ry="11" style="stroke:#181818;stroke-width:1.0;"/><path d="M308.2656,370.875 Q308.4219,370.6563 308.6094,370.5469 Q308.7969,370.4375 309.0156,370.4375 Q309.3906,370.4375 309.625,370.6953 Q309.8594,370.9531 309.8594,371.5625 L309.8594,373.0156 Q309.8594,373.625 309.625,373.8906 Q309.3906,374.1563 309.0156,374.1563 Q308.6719,374.1563 308.4688,373.9531 Q308.2656,373.7656 308.1563,373.25 Q308.1094,372.8906 307.9219,372.7031 Q307.5938,372.3281 306.9844,372.1094 Q306.375,371.8906 305.75,371.8906 Q304.9844,371.8906 304.3516,372.2188 Q303.7188,372.5469 303.2266,373.2969 Q302.7344,374.0469 302.7344,375.0781 L302.7344,376.1719 Q302.7344,377.4063 303.625,378.2266 Q304.5156,379.0469 306.1094,379.0469 Q307.0469,379.0469 307.7031,378.7969 Q308.0938,378.6406 308.5156,378.2031 Q308.7813,377.9375 308.9297,377.8594 Q309.0781,377.7813 309.2813,377.7813 Q309.6094,377.7813 309.8672,378.0391 Q310.125,378.2969 310.125,378.6406 Q310.125,378.9844 309.7813,379.3906 Q309.2813,379.9688 308.4844,380.2969 Q307.4063,380.75 306.1094,380.75 Q304.5938,380.75 303.3906,380.125 Q302.4063,379.625 301.7188,378.5547 Q301.0313,377.4844 301.0313,376.2031 L301.0313,375.0469 Q301.0313,373.7188 301.6484,372.5703 Q302.2656,371.4219 303.3594,370.8047 Q304.4531,370.1875 305.6875,370.1875 Q306.4219,370.1875 307.0703,370.3516 Q307.7188,370.5156 308.2656,370.875 Z " fill="#000000"/><text fill="#000000" font-family="sans-serif" font-size="14" lengthAdjust="spacing" textLength="159" x="319.5" y="380.7285">MedComCorePractitioner</text></g><!--MD5=[79a620f53515237a9de9d0a655fadcca]
link messageheader to communication--><g id="link_messageheader_communication"><path codeLine="15" d="M241.48,50.23 C276.44,74 332.91,112.4 363.9,133.47 " fill="none" id="messageheader-communication" style="stroke:#181818;stroke-width:1.0;"/><text fill="#000000" font-family="sans-serif" font-size="13" lengthAdjust="spacing" textLength="31" x="310" y="94.4951">focus</text></g><!--MD5=[e372636a977ce2c485cbccc561780bd6]
link communication to patient--><g id="link_communication_patient"><path codeLine="16" d="M355.86,165.57 C312.44,187.28 232.75,227.12 189.27,248.87 " fill="none" id="communication-patient" style="stroke:#181818;stroke-width:1.0;"/><text fill="#000000" font-family="sans-serif" font-size="13" lengthAdjust="spacing" textLength="42" x="281" y="215.4951">subject</text></g><!--MD5=[0e828b82618ba1a8fc585223612c2567]
link communication to authorRole--><g id="link_communication_authorRole"><path codeLine="17" d="M386,165.81 C386,187.59 386,227.29 386,248.94 " fill="none" id="communication-authorRole" style="stroke:#181818;stroke-width:1.0;"/><text fill="#000000" font-family="sans-serif" font-size="13" lengthAdjust="spacing" textLength="85" x="387" y="215.4951">payload author</text></g><!--MD5=[26fe2a2d4f0b543bf88f60b06314f104]
link communication to senderRec--><g id="link_communication_senderRec"><path codeLine="18" d="M415.48,165.57 C457.94,187.28 535.87,227.12 578.4,248.87 " fill="none" id="communication-senderRec" style="stroke:#181818;stroke-width:1.0;"/><text fill="#000000" font-family="sans-serif" font-size="13" lengthAdjust="spacing" textLength="92" x="517" y="215.4951">sender/recipient</text></g><!--MD5=[0d81dae17e776aae849b283c67309a8c]
link authorRole to author--><g id="link_authorRole_author"><path codeLine="19" d="M386,281.02 C386,301.53 386,338.13 386,358.76 " fill="none" id="authorRole-author" style="stroke:#181818;stroke-width:1.0;"/><text fill="#000000" font-family="sans-serif" font-size="13" lengthAdjust="spacing" textLength="36" x="387" y="325.4951">author</text></g><!--MD5=[7068c6a302bec6a421fbf6e526f1486a]
link messageheader to messagingOrganization--><g id="link_messageheader_messagingOrganization"><path codeLine="22" d="M154.17,50.06 C141.38,57.47 129.42,67.26 122,80 C113.61,94.4 115.3,113.54 118.54,127.92 " fill="none" id="messageheader-messagingOrganization" style="stroke:#181818;stroke-width:1.0;"/><text fill="#000000" font-family="sans-serif" font-size="13" lengthAdjust="spacing" textLength="44" x="123" y="94.4951">receiver</text></g><!--MD5=[7068c6a302bec6a421fbf6e526f1486a]
link messageheader to messagingOrganization--><g id="link_messageheader_messagingOrganization"><path codeLine="23" d="M200.91,50.04 C193.64,64.06 183.18,82.78 172,98 C164.34,108.42 154.78,119.04 146.28,127.83 " fill="none" id="messageheader-messagingOrganization-1" style="stroke:#181818;stroke-width:1.0;"/><text fill="#000000" font-family="sans-serif" font-size="13" lengthAdjust="spacing" textLength="39" x="186" y="94.4951">sender</text></g><!--MD5=[c0e71bbd9404bd0338151714fd75ed2a]
@startuml CareCommunicationMessageHeader

hide empty members

top to bottom direction

class "MedComCareCommunicationMessageHeader" as messageheader <<MedComMessagingMessageHeader>>
class "MedComMessagingOrganization" as messagingOrganization <<MedComCoreOrganization>>
class "MedComCareCommunication" as communication
class "MedComCorePatient" as patient
class "MedComCorePractitionerRole" as authorRole
class "Sender or recipient" as senderRec
class "MedComCorePractitioner" as author


messageheader - - communication : "focus"
communication - - patient : "subject"
communication - - authorRole : "payload author"
communication - - senderRec : "sender/recipient"
authorRole - - author : "author"


messageheader - - messagingOrganization : "receiver"
messageheader - - messagingOrganization : "sender"
@enduml

PlantUML version 1.2022.7(Mon Aug 22 19:01:30 CEST 2022)
(GPL source distribution)
Java Runtime: Java(TM) SE Runtime Environment
JVM: Java HotSpot(TM) 64-Bit Server VM
Default Encoding: Cp1252
Language: da
Country: DK
--></g></svg>