<?xml version="1.0" encoding="UTF-8" standalone="no"?><svg xmlns="http://www.w3.org/2000/svg" xmlns:xlink="http://www.w3.org/1999/xlink" contentStyleType="text/css" height="398px" preserveAspectRatio="none" style="width:872px;height:398px;background:#FFFFFF;" version="1.1" viewBox="0 0 872 398" width="872px" zoomAndPan="magnify"><defs/><g><!--MD5=[8450471b43f9def5175bba9f4f9f2aaf]
class messageheader--><g id="elem_messageheader"><rect codeLine="6" fill="#F1F1F1" height="42.7031" id="messageheader" rx="2.5" ry="2.5" style="stroke:#181818;stroke-width:0.5;" width="319" x="62" y="7"/><ellipse cx="77" cy="28.3516" fill="#ADD1B2" rx="11" ry="11" style="stroke:#181818;stroke-width:1.0;"/><path d="M79.7656,24.2266 Q79.9219,24.0078 80.1094,23.8984 Q80.2969,23.7891 80.5156,23.7891 Q80.8906,23.7891 81.125,24.0547 Q81.3594,24.3047 81.3594,24.9141 L81.3594,26.3672 Q81.3594,26.9766 81.125,27.2422 Q80.8906,27.5078 80.5156,27.5078 Q80.1719,27.5078 79.9688,27.3047 Q79.7656,27.1172 79.6563,26.6016 Q79.6094,26.2422 79.4219,26.0547 Q79.0938,25.6797 78.4844,25.4609 Q77.875,25.2422 77.25,25.2422 Q76.4844,25.2422 75.8438,25.5703 Q75.2188,25.8984 74.7188,26.6484 Q74.2344,27.3984 74.2344,28.4297 L74.2344,29.5234 Q74.2344,30.7578 75.125,31.5859 Q76.0156,32.3984 77.6094,32.3984 Q78.5469,32.3984 79.2031,32.1484 Q79.5938,31.9922 80.0156,31.5547 Q80.2813,31.2891 80.4219,31.2109 Q80.5781,31.1328 80.7813,31.1328 Q81.1094,31.1328 81.3594,31.3984 Q81.625,31.6484 81.625,31.9922 Q81.625,32.3359 81.2813,32.7422 Q80.7813,33.3203 79.9844,33.6484 Q78.9063,34.1016 77.6094,34.1016 Q76.0938,34.1016 74.8906,33.4766 Q73.9063,32.9766 73.2188,31.9141 Q72.5313,30.8359 72.5313,29.5547 L72.5313,28.3984 Q72.5313,27.0703 73.1406,25.9297 Q73.7656,24.7734 74.8594,24.1641 Q75.9531,23.5391 77.1875,23.5391 Q77.9219,23.5391 78.5625,23.7109 Q79.2188,23.8672 79.7656,24.2266 Z " fill="#000000"/><text fill="#000000" font-family="sans-serif" font-size="12" font-style="italic" lengthAdjust="spacing" textLength="213" x="128" y="24.457">«MedComMessagingMessageHeader»</text><text fill="#000000" font-family="sans-serif" font-size="14" lengthAdjust="spacing" textLength="287" x="91" y="41.627">MedComCareCommunicationMessageHeader</text></g><!--MD5=[5495acc25b34ab1dab9fd35d8e775d03]
class messagingOrganization--><g id="elem_messagingOrganization"><rect codeLine="7" fill="#F1F1F1" height="42.7031" id="messagingOrganization" rx="2.5" ry="2.5" style="stroke:#181818;stroke-width:0.5;" width="236" x="17.5" y="128"/><ellipse cx="32.5" cy="149.3516" fill="#ADD1B2" rx="11" ry="11" style="stroke:#181818;stroke-width:1.0;"/><path d="M35.2656,145.2266 Q35.4219,145.0078 35.6094,144.8984 Q35.7969,144.7891 36.0156,144.7891 Q36.3906,144.7891 36.625,145.0547 Q36.8594,145.3047 36.8594,145.9141 L36.8594,147.3672 Q36.8594,147.9766 36.625,148.2422 Q36.3906,148.5078 36.0156,148.5078 Q35.6719,148.5078 35.4688,148.3047 Q35.2656,148.1172 35.1563,147.6016 Q35.1094,147.2422 34.9219,147.0547 Q34.5938,146.6797 33.9844,146.4609 Q33.375,146.2422 32.75,146.2422 Q31.9844,146.2422 31.3438,146.5703 Q30.7188,146.8984 30.2188,147.6484 Q29.7344,148.3984 29.7344,149.4297 L29.7344,150.5234 Q29.7344,151.7578 30.625,152.5859 Q31.5156,153.3984 33.1094,153.3984 Q34.0469,153.3984 34.7031,153.1484 Q35.0938,152.9922 35.5156,152.5547 Q35.7813,152.2891 35.9219,152.2109 Q36.0781,152.1328 36.2813,152.1328 Q36.6094,152.1328 36.8594,152.3984 Q37.125,152.6484 37.125,152.9922 Q37.125,153.3359 36.7813,153.7422 Q36.2813,154.3203 35.4844,154.6484 Q34.4063,155.1016 33.1094,155.1016 Q31.5938,155.1016 30.3906,154.4766 Q29.4063,153.9766 28.7188,152.9141 Q28.0313,151.8359 28.0313,150.5547 L28.0313,149.3984 Q28.0313,148.0703 28.6406,146.9297 Q29.2656,145.7734 30.3594,145.1641 Q31.4531,144.5391 32.6875,144.5391 Q33.4219,144.5391 34.0625,144.7109 Q34.7188,144.8672 35.2656,145.2266 Z " fill="#000000"/><text fill="#000000" font-family="sans-serif" font-size="12" font-style="italic" lengthAdjust="spacing" textLength="162" x="67.5" y="145.457">«MedComCoreOrganization»</text><text fill="#000000" font-family="sans-serif" font-size="14" lengthAdjust="spacing" textLength="204" x="46.5" y="162.627">MedComMessagingOrganization</text></g><!--MD5=[e2e901c2214a1f61ae0bb3d13c40a618]
class communication--><g id="elem_communication"><rect codeLine="8" fill="#F1F1F1" height="32" id="communication" rx="2.5" ry="2.5" style="stroke:#181818;stroke-width:0.5;" width="216" x="288.5" y="133.5"/><ellipse cx="303.5" cy="149.5" fill="#ADD1B2" rx="11" ry="11" style="stroke:#181818;stroke-width:1.0;"/><path d="M306.2656,145.375 Q306.4219,145.1563 306.6094,145.0469 Q306.7969,144.9375 307.0156,144.9375 Q307.3906,144.9375 307.625,145.2031 Q307.8594,145.4531 307.8594,146.0625 L307.8594,147.5156 Q307.8594,148.125 307.625,148.3906 Q307.3906,148.6563 307.0156,148.6563 Q306.6719,148.6563 306.4688,148.4531 Q306.2656,148.2656 306.1563,147.75 Q306.1094,147.3906 305.9219,147.2031 Q305.5938,146.8281 304.9844,146.6094 Q304.375,146.3906 303.75,146.3906 Q302.9844,146.3906 302.3438,146.7188 Q301.7188,147.0469 301.2188,147.7969 Q300.7344,148.5469 300.7344,149.5781 L300.7344,150.6719 Q300.7344,151.9063 301.625,152.7344 Q302.5156,153.5469 304.1094,153.5469 Q305.0469,153.5469 305.7031,153.2969 Q306.0938,153.1406 306.5156,152.7031 Q306.7813,152.4375 306.9219,152.3594 Q307.0781,152.2813 307.2813,152.2813 Q307.6094,152.2813 307.8594,152.5469 Q308.125,152.7969 308.125,153.1406 Q308.125,153.4844 307.7813,153.8906 Q307.2813,154.4688 306.4844,154.7969 Q305.4063,155.25 304.1094,155.25 Q302.5938,155.25 301.3906,154.625 Q300.4063,154.125 299.7188,153.0625 Q299.0313,151.9844 299.0313,150.7031 L299.0313,149.5469 Q299.0313,148.2188 299.6406,147.0781 Q300.2656,145.9219 301.3594,145.3125 Q302.4531,144.6875 303.6875,144.6875 Q304.4219,144.6875 305.0625,144.8594 Q305.7188,145.0156 306.2656,145.375 Z " fill="#000000"/><text fill="#000000" font-family="sans-serif" font-size="14" lengthAdjust="spacing" textLength="184" x="317.5" y="155.2285">MedComCareCommunication</text></g><!--MD5=[86fcfc7a3ddeef2443f03e9b03bcacd4]
class patient--><g id="elem_patient"><rect codeLine="9" fill="#F1F1F1" height="32" id="patient" rx="2.5" ry="2.5" style="stroke:#181818;stroke-width:0.5;" width="163" x="7" y="249"/><ellipse cx="22" cy="265" fill="#ADD1B2" rx="11" ry="11" style="stroke:#181818;stroke-width:1.0;"/><path d="M24.7656,260.875 Q24.9219,260.6563 25.1094,260.5469 Q25.2969,260.4375 25.5156,260.4375 Q25.8906,260.4375 26.125,260.7031 Q26.3594,260.9531 26.3594,261.5625 L26.3594,263.0156 Q26.3594,263.625 26.125,263.8906 Q25.8906,264.1563 25.5156,264.1563 Q25.1719,264.1563 24.9688,263.9531 Q24.7656,263.7656 24.6563,263.25 Q24.6094,262.8906 24.4219,262.7031 Q24.0938,262.3281 23.4844,262.1094 Q22.875,261.8906 22.25,261.8906 Q21.4844,261.8906 20.8438,262.2188 Q20.2188,262.5469 19.7188,263.2969 Q19.2344,264.0469 19.2344,265.0781 L19.2344,266.1719 Q19.2344,267.4063 20.125,268.2344 Q21.0156,269.0469 22.6094,269.0469 Q23.5469,269.0469 24.2031,268.7969 Q24.5938,268.6406 25.0156,268.2031 Q25.2813,267.9375 25.4219,267.8594 Q25.5781,267.7813 25.7813,267.7813 Q26.1094,267.7813 26.3594,268.0469 Q26.625,268.2969 26.625,268.6406 Q26.625,268.9844 26.2813,269.3906 Q25.7813,269.9688 24.9844,270.2969 Q23.9063,270.75 22.6094,270.75 Q21.0938,270.75 19.8906,270.125 Q18.9063,269.625 18.2188,268.5625 Q17.5313,267.4844 17.5313,266.2031 L17.5313,265.0469 Q17.5313,263.7188 18.1406,262.5781 Q18.7656,261.4219 19.8594,260.8125 Q20.9531,260.1875 22.1875,260.1875 Q22.9219,260.1875 23.5625,260.3594 Q24.2188,260.5156 24.7656,260.875 Z " fill="#000000"/><text fill="#000000" font-family="sans-serif" font-size="14" lengthAdjust="spacing" textLength="131" x="36" y="270.7285">MedComCorePatient</text></g><!--MD5=[7d1630a95e3a15a0a4f20baedc130ecf]
class pracRole--><g id="elem_pracRole"><rect codeLine="10" fill="#F1F1F1" height="32" id="pracRole" rx="2.5" ry="2.5" style="stroke:#181818;stroke-width:0.5;" width="220" x="205.5" y="249"/><ellipse cx="220.5" cy="265" fill="#ADD1B2" rx="11" ry="11" style="stroke:#181818;stroke-width:1.0;"/><path d="M223.2656,260.875 Q223.4219,260.6563 223.6094,260.5469 Q223.7969,260.4375 224.0156,260.4375 Q224.3906,260.4375 224.625,260.7031 Q224.8594,260.9531 224.8594,261.5625 L224.8594,263.0156 Q224.8594,263.625 224.625,263.8906 Q224.3906,264.1563 224.0156,264.1563 Q223.6719,264.1563 223.4688,263.9531 Q223.2656,263.7656 223.1563,263.25 Q223.1094,262.8906 222.9219,262.7031 Q222.5938,262.3281 221.9844,262.1094 Q221.375,261.8906 220.75,261.8906 Q219.9844,261.8906 219.3438,262.2188 Q218.7188,262.5469 218.2188,263.2969 Q217.7344,264.0469 217.7344,265.0781 L217.7344,266.1719 Q217.7344,267.4063 218.625,268.2344 Q219.5156,269.0469 221.1094,269.0469 Q222.0469,269.0469 222.7031,268.7969 Q223.0938,268.6406 223.5156,268.2031 Q223.7813,267.9375 223.9219,267.8594 Q224.0781,267.7813 224.2813,267.7813 Q224.6094,267.7813 224.8594,268.0469 Q225.125,268.2969 225.125,268.6406 Q225.125,268.9844 224.7813,269.3906 Q224.2813,269.9688 223.4844,270.2969 Q222.4063,270.75 221.1094,270.75 Q219.5938,270.75 218.3906,270.125 Q217.4063,269.625 216.7188,268.5625 Q216.0313,267.4844 216.0313,266.2031 L216.0313,265.0469 Q216.0313,263.7188 216.6406,262.5781 Q217.2656,261.4219 218.3594,260.8125 Q219.4531,260.1875 220.6875,260.1875 Q221.4219,260.1875 222.0625,260.3594 Q222.7188,260.5156 223.2656,260.875 Z " fill="#000000"/><text fill="#000000" font-family="sans-serif" font-size="14" lengthAdjust="spacing" textLength="188" x="234.5" y="270.7285">MedComCorePractitionerRole</text></g><!--MD5=[84cfacbcd31b21cbbb16279cbfd3fe0d]
class careteam--><g id="elem_careteam"><rect codeLine="11" fill="#F1F1F1" height="32" id="careteam" rx="2.5" ry="2.5" style="stroke:#181818;stroke-width:0.5;" width="186" x="460.5" y="249"/><ellipse cx="475.5" cy="265" fill="#ADD1B2" rx="11" ry="11" style="stroke:#181818;stroke-width:1.0;"/><path d="M478.2656,260.875 Q478.4219,260.6563 478.6094,260.5469 Q478.7969,260.4375 479.0156,260.4375 Q479.3906,260.4375 479.625,260.7031 Q479.8594,260.9531 479.8594,261.5625 L479.8594,263.0156 Q479.8594,263.625 479.625,263.8906 Q479.3906,264.1563 479.0156,264.1563 Q478.6719,264.1563 478.4688,263.9531 Q478.2656,263.7656 478.1563,263.25 Q478.1094,262.8906 477.9219,262.7031 Q477.5938,262.3281 476.9844,262.1094 Q476.375,261.8906 475.75,261.8906 Q474.9844,261.8906 474.3438,262.2188 Q473.7188,262.5469 473.2188,263.2969 Q472.7344,264.0469 472.7344,265.0781 L472.7344,266.1719 Q472.7344,267.4063 473.625,268.2344 Q474.5156,269.0469 476.1094,269.0469 Q477.0469,269.0469 477.7031,268.7969 Q478.0938,268.6406 478.5156,268.2031 Q478.7813,267.9375 478.9219,267.8594 Q479.0781,267.7813 479.2813,267.7813 Q479.6094,267.7813 479.8594,268.0469 Q480.125,268.2969 480.125,268.6406 Q480.125,268.9844 479.7813,269.3906 Q479.2813,269.9688 478.4844,270.2969 Q477.4063,270.75 476.1094,270.75 Q474.5938,270.75 473.3906,270.125 Q472.4063,269.625 471.7188,268.5625 Q471.0313,267.4844 471.0313,266.2031 L471.0313,265.0469 Q471.0313,263.7188 471.6406,262.5781 Q472.2656,261.4219 473.3594,260.8125 Q474.4531,260.1875 475.6875,260.1875 Q476.4219,260.1875 477.0625,260.3594 Q477.7188,260.5156 478.2656,260.875 Z " fill="#000000"/><text fill="#000000" font-family="sans-serif" font-size="14" lengthAdjust="spacing" textLength="154" x="489.5" y="270.7285">MedComCoreCareTeam</text></g><!--MD5=[7f6a6782ff085de027a43e4e291de663]
class author--><g id="elem_author"><rect codeLine="12" fill="#F1F1F1" height="32" id="author" rx="2.5" ry="2.5" style="stroke:#181818;stroke-width:0.5;" width="191" x="220" y="359"/><ellipse cx="235" cy="375" fill="#ADD1B2" rx="11" ry="11" style="stroke:#181818;stroke-width:1.0;"/><path d="M237.7656,370.875 Q237.9219,370.6563 238.1094,370.5469 Q238.2969,370.4375 238.5156,370.4375 Q238.8906,370.4375 239.125,370.7031 Q239.3594,370.9531 239.3594,371.5625 L239.3594,373.0156 Q239.3594,373.625 239.125,373.8906 Q238.8906,374.1563 238.5156,374.1563 Q238.1719,374.1563 237.9688,373.9531 Q237.7656,373.7656 237.6563,373.25 Q237.6094,372.8906 237.4219,372.7031 Q237.0938,372.3281 236.4844,372.1094 Q235.875,371.8906 235.25,371.8906 Q234.4844,371.8906 233.8438,372.2188 Q233.2188,372.5469 232.7188,373.2969 Q232.2344,374.0469 232.2344,375.0781 L232.2344,376.1719 Q232.2344,377.4063 233.125,378.2344 Q234.0156,379.0469 235.6094,379.0469 Q236.5469,379.0469 237.2031,378.7969 Q237.5938,378.6406 238.0156,378.2031 Q238.2813,377.9375 238.4219,377.8594 Q238.5781,377.7813 238.7813,377.7813 Q239.1094,377.7813 239.3594,378.0469 Q239.625,378.2969 239.625,378.6406 Q239.625,378.9844 239.2813,379.3906 Q238.7813,379.9688 237.9844,380.2969 Q236.9063,380.75 235.6094,380.75 Q234.0938,380.75 232.8906,380.125 Q231.9063,379.625 231.2188,378.5625 Q230.5313,377.4844 230.5313,376.2031 L230.5313,375.0469 Q230.5313,373.7188 231.1406,372.5781 Q231.7656,371.4219 232.8594,370.8125 Q233.9531,370.1875 235.1875,370.1875 Q235.9219,370.1875 236.5625,370.3594 Q237.2188,370.5156 237.7656,370.875 Z " fill="#000000"/><text fill="#000000" font-family="sans-serif" font-size="14" lengthAdjust="spacing" textLength="159" x="249" y="380.7285">MedComCorePractitioner</text></g><!--MD5=[c3fd6fd70c1f956c0aa70d5a42fdf9cf]
class encounter--><g id="elem_encounter"><rect codeLine="13" fill="#F1F1F1" height="32" id="encounter" rx="2.5" ry="2.5" style="stroke:#181818;stroke-width:0.5;" width="184" x="681.5" y="249"/><ellipse cx="696.5" cy="265" fill="#ADD1B2" rx="11" ry="11" style="stroke:#181818;stroke-width:1.0;"/><path d="M699.2656,260.875 Q699.4219,260.6563 699.6094,260.5469 Q699.7969,260.4375 700.0156,260.4375 Q700.3906,260.4375 700.625,260.7031 Q700.8594,260.9531 700.8594,261.5625 L700.8594,263.0156 Q700.8594,263.625 700.625,263.8906 Q700.3906,264.1563 700.0156,264.1563 Q699.6719,264.1563 699.4688,263.9531 Q699.2656,263.7656 699.1563,263.25 Q699.1094,262.8906 698.9219,262.7031 Q698.5938,262.3281 697.9844,262.1094 Q697.375,261.8906 696.75,261.8906 Q695.9844,261.8906 695.3438,262.2188 Q694.7188,262.5469 694.2188,263.2969 Q693.7344,264.0469 693.7344,265.0781 L693.7344,266.1719 Q693.7344,267.4063 694.625,268.2344 Q695.5156,269.0469 697.1094,269.0469 Q698.0469,269.0469 698.7031,268.7969 Q699.0938,268.6406 699.5156,268.2031 Q699.7813,267.9375 699.9219,267.8594 Q700.0781,267.7813 700.2813,267.7813 Q700.6094,267.7813 700.8594,268.0469 Q701.125,268.2969 701.125,268.6406 Q701.125,268.9844 700.7813,269.3906 Q700.2813,269.9688 699.4844,270.2969 Q698.4063,270.75 697.1094,270.75 Q695.5938,270.75 694.3906,270.125 Q693.4063,269.625 692.7188,268.5625 Q692.0313,267.4844 692.0313,266.2031 L692.0313,265.0469 Q692.0313,263.7188 692.6406,262.5781 Q693.2656,261.4219 694.3594,260.8125 Q695.4531,260.1875 696.6875,260.1875 Q697.4219,260.1875 698.0625,260.3594 Q698.7188,260.5156 699.2656,260.875 Z " fill="#000000"/><text fill="#000000" font-family="sans-serif" font-size="14" lengthAdjust="spacing" textLength="152" x="710.5" y="270.7285">MedComCoreEncounter</text></g><!--MD5=[d64d5c7357c79f774106f79272da7625]
class organization--><g id="elem_organization"><rect codeLine="14" fill="#F1F1F1" height="32" id="organization" rx="2.5" ry="2.5" style="stroke:#181818;stroke-width:0.5;" width="199" x="450" y="359"/><ellipse cx="465" cy="375" fill="#ADD1B2" rx="11" ry="11" style="stroke:#181818;stroke-width:1.0;"/><path d="M467.7656,370.875 Q467.9219,370.6563 468.1094,370.5469 Q468.2969,370.4375 468.5156,370.4375 Q468.8906,370.4375 469.125,370.7031 Q469.3594,370.9531 469.3594,371.5625 L469.3594,373.0156 Q469.3594,373.625 469.125,373.8906 Q468.8906,374.1563 468.5156,374.1563 Q468.1719,374.1563 467.9688,373.9531 Q467.7656,373.7656 467.6563,373.25 Q467.6094,372.8906 467.4219,372.7031 Q467.0938,372.3281 466.4844,372.1094 Q465.875,371.8906 465.25,371.8906 Q464.4844,371.8906 463.8438,372.2188 Q463.2188,372.5469 462.7188,373.2969 Q462.2344,374.0469 462.2344,375.0781 L462.2344,376.1719 Q462.2344,377.4063 463.125,378.2344 Q464.0156,379.0469 465.6094,379.0469 Q466.5469,379.0469 467.2031,378.7969 Q467.5938,378.6406 468.0156,378.2031 Q468.2813,377.9375 468.4219,377.8594 Q468.5781,377.7813 468.7813,377.7813 Q469.1094,377.7813 469.3594,378.0469 Q469.625,378.2969 469.625,378.6406 Q469.625,378.9844 469.2813,379.3906 Q468.7813,379.9688 467.9844,380.2969 Q466.9063,380.75 465.6094,380.75 Q464.0938,380.75 462.8906,380.125 Q461.9063,379.625 461.2188,378.5625 Q460.5313,377.4844 460.5313,376.2031 L460.5313,375.0469 Q460.5313,373.7188 461.1406,372.5781 Q461.7656,371.4219 462.8594,370.8125 Q463.9531,370.1875 465.1875,370.1875 Q465.9219,370.1875 466.5625,370.3594 Q467.2188,370.5156 467.7656,370.875 Z " fill="#000000"/><text fill="#000000" font-family="sans-serif" font-size="14" lengthAdjust="spacing" textLength="167" x="479" y="380.7285">MedComCoreOrganization</text></g><!--MD5=[79a620f53515237a9de9d0a655fadcca]
link messageheader to communication--><g id="link_messageheader_communication"><path codeLine="16" d="M251.98,50.23 C286.94,74 343.41,112.4 374.4,133.47 " fill="none" id="messageheader-communication" style="stroke:#181818;stroke-width:1.0;"/><text fill="#000000" font-family="sans-serif" font-size="13" lengthAdjust="spacing" textLength="31" x="320.5" y="94.4951">focus</text></g><!--MD5=[e372636a977ce2c485cbccc561780bd6]
link communication to patient--><g id="link_communication_patient"><path codeLine="17" d="M295.41,165.54 C257.69,173.3 215.14,184.67 178.5,201 C150.97,213.27 123.14,234.39 105.87,248.76 " fill="none" id="communication-patient" style="stroke:#181818;stroke-width:1.0;"/><text fill="#000000" font-family="sans-serif" font-size="13" lengthAdjust="spacing" textLength="42" x="179.5" y="215.4951">subject</text></g><!--MD5=[7eeef3c8709ed22b8e61e45e2ea7d532]
link communication to pracRole--><g id="link_communication_pracRole"><path codeLine="18" d="M288.12,163.69 C267.18,171.34 247.68,183.08 234.5,201 C219.88,220.87 244.79,237.68 270.73,248.93 " fill="none" id="communication-pracRole" style="stroke:#181818;stroke-width:1.0;"/><text fill="#000000" font-family="sans-serif" font-size="13" lengthAdjust="spacing" textLength="36" x="235.5" y="215.4951">author</text></g><!--MD5=[7eeef3c8709ed22b8e61e45e2ea7d532]
link communication to pracRole--><g id="link_communication_pracRole"><path codeLine="21" d="M353.81,165.58 C337.91,173.52 321.55,185 312.5,201 C304.2,215.68 306.97,235.49 310.5,248.96 " fill="none" id="communication-pracRole-1" style="stroke:#181818;stroke-width:1.0;"/><text fill="#000000" font-family="sans-serif" font-size="13" lengthAdjust="spacing" textLength="39" x="313.5" y="215.4951">sender</text></g><!--MD5=[7eeef3c8709ed22b8e61e45e2ea7d532]
link communication to pracRole--><g id="link_communication_pracRole"><path codeLine="22" d="M389.23,165.54 C382.02,179.85 370.23,201.69 357.5,219 C349.65,229.67 339.55,240.57 331.22,248.96 " fill="none" id="communication-pracRole-2" style="stroke:#181818;stroke-width:1.0;"/><text fill="#000000" font-family="sans-serif" font-size="13" lengthAdjust="spacing" textLength="49" x="371.5" y="215.4951">recipient</text></g><!--MD5=[91c54a72d122703e0856c70b938ed7ef]
link communication to careteam--><g id="link_communication_careteam"><path codeLine="19" d="M415.04,165.66 C432.61,179.86 459.91,201.46 484.5,219 C499.05,229.38 515.85,240.35 529.22,248.87 " fill="none" id="communication-careteam" style="stroke:#181818;stroke-width:1.0;"/><text fill="#000000" font-family="sans-serif" font-size="13" lengthAdjust="spacing" textLength="39" x="485.5" y="215.4951">sender</text></g><!--MD5=[91c54a72d122703e0856c70b938ed7ef]
link communication to careteam--><g id="link_communication_careteam"><path codeLine="20" d="M468.1,165.5 C490.07,173.07 512.81,184.33 529.5,201 C542.5,213.99 548.58,234.74 551.34,248.85 " fill="none" id="communication-careteam-1" style="stroke:#181818;stroke-width:1.0;"/><text fill="#000000" font-family="sans-serif" font-size="13" lengthAdjust="spacing" textLength="49" x="542.5" y="215.4951">recipient</text></g><!--MD5=[cee96dd921aad29c6dd1b1c4d88bf68f]
link pracRole to author--><g id="link_pracRole_author"><path codeLine="23" d="M315.5,281.02 C315.5,301.53 315.5,338.13 315.5,358.76 " fill="none" id="pracRole-author" style="stroke:#181818;stroke-width:1.0;"/><text fill="#000000" font-family="sans-serif" font-size="13" lengthAdjust="spacing" textLength="64" x="316.5" y="325.4951">practitioner</text></g><!--MD5=[b16d23625f6fab7cff697318abd55cf8]
link pracRole to organization--><g id="link_pracRole_organization"><path codeLine="24" d="M348.04,281.02 C392.62,301.59 472.23,338.34 516.86,358.94 " fill="none" id="pracRole-organization" style="stroke:#181818;stroke-width:1.0;"/><text fill="#000000" font-family="sans-serif" font-size="13" lengthAdjust="spacing" textLength="70" x="448.5" y="325.4951">organization</text></g><!--MD5=[c568f13314ba7e86cfb79b992a7ef51a]
link careteam to organization--><g id="link_careteam_organization"><path codeLine="25" d="M552.94,281.02 C552.18,301.53 550.83,338.13 550.06,358.76 " fill="none" id="careteam-organization" style="stroke:#181818;stroke-width:1.0;"/><text fill="#000000" font-family="sans-serif" font-size="13" lengthAdjust="spacing" textLength="129" x="552.5" y="325.4951">managingOrganization</text></g><!--MD5=[0d2d54a2349697619971ea3c455f8bf9]
link communication to encounter--><g id="link_communication_encounter"><path codeLine="26" d="M465,165.53 C504.83,174.75 555.83,187.38 600.5,201 C647.74,215.4 700.97,235.37 735.76,248.93 " fill="none" id="communication-encounter" style="stroke:#181818;stroke-width:1.0;"/><text fill="#000000" font-family="sans-serif" font-size="13" lengthAdjust="spacing" textLength="57" x="653.5" y="215.4951">encounter</text></g><!--MD5=[7068c6a302bec6a421fbf6e526f1486a]
link messageheader to messagingOrganization--><g id="link_messageheader_messagingOrganization"><path codeLine="29" d="M164.67,50.06 C151.88,57.47 139.92,67.26 132.5,80 C124.11,94.4 125.8,113.54 129.04,127.92 " fill="none" id="messageheader-messagingOrganization" style="stroke:#181818;stroke-width:1.0;"/><text fill="#000000" font-family="sans-serif" font-size="13" lengthAdjust="spacing" textLength="44" x="133.5" y="94.4951">receiver</text></g><!--MD5=[7068c6a302bec6a421fbf6e526f1486a]
link messageheader to messagingOrganization--><g id="link_messageheader_messagingOrganization"><path codeLine="30" d="M211.41,50.04 C204.14,64.06 193.68,82.78 182.5,98 C174.84,108.42 165.28,119.04 156.78,127.83 " fill="none" id="messageheader-messagingOrganization-1" style="stroke:#181818;stroke-width:1.0;"/><text fill="#000000" font-family="sans-serif" font-size="13" lengthAdjust="spacing" textLength="39" x="196.5" y="94.4951">sender</text></g><!--MD5=[92810af54119f3d5cb1540ea5083b2e8]
@startuml CareCommunicationMessageHeader

hide empty members

top to bottom direction

class "MedComCareCommunicationMessageHeader" as messageheader <<MedComMessagingMessageHeader>>
class "MedComMessagingOrganization" as messagingOrganization <<MedComCoreOrganization>>
class "MedComCareCommunication" as communication
class "MedComCorePatient" as patient
class "MedComCorePractitionerRole" as pracRole
class "MedComCoreCareTeam" as careteam
class "MedComCorePractitioner" as author
class "MedComCoreEncounter" as encounter
class "MedComCoreOrganization" as organization

messageheader - - communication : "focus"
communication - - patient : "subject"
communication - - pracRole : "author"
communication - - careteam : "sender"
communication - - careteam : "recipient"
communication - - pracRole : "sender"
communication - - pracRole : "recipient"
pracRole - - author : "practitioner"
pracRole - - organization : "organization"
careteam - - organization : "managingOrganization"
communication - - encounter : "encounter"


messageheader - - messagingOrganization : "receiver"
messageheader - - messagingOrganization : "sender"
@enduml

PlantUML version 1.2022.7(Mon Aug 22 19:01:30 CEST 2022)
(GPL source distribution)
Java Runtime: Java(TM) SE Runtime Environment
JVM: Java HotSpot(TM) 64-Bit Server VM
Default Encoding: Cp1252
Language: da
Country: DK
--></g></svg>